<?xml version="1.0" encoding="UTF-8" standalone="no"?>
<svg
   viewBox="0 0 1185 194.40039"
   version="1.1"
   id="svg4"
   sodipodi:docname="bubbles.svg"
   width="1185"
   height="194.40039"
   inkscape:version="1.1.2 (0a00cf5339, 2022-02-04)"
   xmlns:inkscape="http://www.inkscape.org/namespaces/inkscape"
   xmlns:sodipodi="http://sodipodi.sourceforge.net/DTD/sodipodi-0.dtd"
   xmlns="http://www.w3.org/2000/svg"
   xmlns:svg="http://www.w3.org/2000/svg">
  <defs
     id="defs8" />
  <sodipodi:namedview
     id="namedview6"
     pagecolor="#ffffff"
     bordercolor="#666666"
     borderopacity="1.0"
     inkscape:pageshadow="2"
     inkscape:pageopacity="0.0"
     inkscape:pagecheckerboard="0"
     showgrid="false"
     fit-margin-top="0"
     fit-margin-left="0"
     fit-margin-right="0"
     fit-margin-bottom="0"
     inkscape:zoom="1.1375527"
     inkscape:cx="596.01632"
     inkscape:cy="166.58568"
     inkscape:window-width="3778"
     inkscape:window-height="1536"
     inkscape:window-x="0"
     inkscape:window-y="0"
     inkscape:window-maximized="1"
     inkscape:current-layer="svg4" />
  <path
     id="path2"
     d="m 315,0 c -6.1,0 -11,4.9 -11,11 0,6.1 4.9,11 11,11 6.1,0 11,-4.9 11,-11 0,-6.1 -4.9,-11 -11,-11 z m 55.5,22 C 357,22 346,33 346,46.5 346,60 357,71 370.5,71 384,71 395,60 395,46.5 395,33 384,22 370.5,22 Z M 783.20508,53.00391 C 740.43066,52.42688 701.625,58.81836 669.5,73.59961 c -102.9,47.4 -137.99883,69.30079 -210.79883,69.30079 -72.8,0 -118.3,-48.60079 -219.5,-38.30079 -101.2,10.3 -76.30117,59.30079 -188.701169,59.30079 C 31.600001,163.9004 15,161.29961 0,157.09961 v 37.30079 h 1185 c -22.7,-14.8 -52.9992,-32 -90.6992,-51.5 C 990.62578,89.27539 877.30879,54.27337 783.20508,53.00391 Z M 1109,71 c -11,0 -20,9 -20,20 0,11 9,20 20,20 11,0 20,-9 20,-20 0,-11 -9,-20 -20,-20 z"
     style="fill:#202036;fill-opacity:1" />
</svg>
