<svg width="16" height="16" fill="none" xmlns="http://www.w3.org/2000/svg"><path d="M10.667 8.6v2.8c0 2.333-.933 3.267-3.266 3.267H4.6c-2.334 0-3.267-.934-3.267-3.267V8.6c0-2.333.933-3.267 3.267-3.267h2.8c2.333 0 3.266.934 3.266 3.267z" stroke="#fff" stroke-linecap="round" stroke-linejoin="round"/><path d="M14.667 4.6v2.8c0 2.333-.933 3.267-3.266 3.267h-.734V8.6c0-2.333-.933-3.267-3.266-3.267H5.334V4.6c0-2.333.933-3.267 3.267-3.267h2.8c2.333 0 3.266.934 3.266 3.267z" stroke="#fff" stroke-linecap="round" stroke-linejoin="round"/></svg>