<?xml version="1.0" encoding="UTF-8" standalone="no"?>
<svg
   width="16"
   height="16"
   fill="none"
   version="1.1"
   id="svg6"
   sodipodi:docname="external.svg"
   inkscape:version="1.1.2 (0a00cf5339, 2022-02-04)"
   xmlns:inkscape="http://www.inkscape.org/namespaces/inkscape"
   xmlns:sodipodi="http://sodipodi.sourceforge.net/DTD/sodipodi-0.dtd"
   xmlns="http://www.w3.org/2000/svg"
   xmlns:svg="http://www.w3.org/2000/svg">
  <defs
     id="defs10" />
  <sodipodi:namedview
     id="namedview8"
     pagecolor="#ffffff"
     bordercolor="#666666"
     borderopacity="1.0"
     inkscape:pageshadow="2"
     inkscape:pageopacity="0.0"
     inkscape:pagecheckerboard="0"
     showgrid="false"
     inkscape:zoom="19.290757"
     inkscape:cx="6.2465149"
     inkscape:cy="8.009017"
     inkscape:window-width="1473"
     inkscape:window-height="1082"
     inkscape:window-x="26"
     inkscape:window-y="23"
     inkscape:window-maximized="0"
     inkscape:current-layer="svg6" />
  <path
     style="fill:#3f5878;fill-opacity:1;stroke:#3f5878;stroke-width:1;stroke-linecap:butt;stroke-miterlimit:4;stroke-dasharray:none;stroke-opacity:1"
     d="M 5.0059834,14.363034 C 4.4661962,14.279016 4.0509115,14.149896 3.5980416,13.925283 3.2981334,13.776535 3.1374975,13.655259 2.8300909,13.3455 2.2929561,12.804259 2.0428135,12.28383 1.8438886,11.29368 1.7509185,10.830897 1.7035601,6.4484172 1.7824203,5.6054975 2.0013255,3.2657709 3.1246382,2.1292908 5.4319844,1.9131573 6.1482145,1.8460704 7.4857563,1.8493699 7.6377123,1.918812 7.9012166,2.0388705 7.9612151,2.3891671 7.7537996,2.5965832 L 7.6206727,2.729711 h -0.818445 c -0.4501422,0 -1.030676,0.021558 -1.2900765,0.047956 -1.8880199,0.1919543 -2.6808721,0.9928201 -2.860615,2.8895382 -0.060715,0.6409903 -0.06191,4.3562228 -0.00188,4.9924548 0.1401775,1.47822 0.6527503,2.267577 1.7227773,2.653068 0.6527817,0.235175 0.9481835,0.25581 3.6508404,0.255026 1.406069,-4.09e-4 2.6202701,-0.02044 2.8008611,-0.04624 1.148553,-0.163959 1.869881,-0.60788 2.231346,-1.373231 0.302906,-0.641349 0.385216,-1.166041 0.386448,-2.4634248 0.0013,-1.005663 0.03469,-1.2041028 0.221765,-1.3042189 0.164792,-0.088198 0.410791,-0.05926 0.53266,0.062597 l 0.111788,0.1117874 v 1.0690275 c 0,0.5879618 -0.02187,1.2293378 -0.04851,1.4252748 -0.274443,2.014279 -1.322017,3.061854 -3.336294,3.336292 -0.549964,0.07494 -5.4105482,0.05655 -5.9176088,-0.02237 z M 8.3432573,8.1603836 C 8.038516,8.0072789 7.8856797,7.5970152 8.0283021,7.3149255 8.0559589,7.2602437 9.0857147,6.2061067 10.316642,4.972477 l 2.238045,-2.2429736 h -0.804712 c -0.799288,0 -0.805661,-6.287e-4 -0.944833,-0.1179032 -0.181911,-0.153062 -0.194695,-0.4056306 -0.03023,-0.5968499 l 0.10991,-0.1277832 h 1.601877 1.601876 l 0.109919,0.1277832 0.109906,0.1277833 v 1.5874016 1.587395 l -0.140118,0.1179092 c -0.186838,0.157217 -0.366315,0.1523898 -0.553683,-0.014896 L 13.465864,5.2875637 13.443117,4.5121466 13.42037,3.7367357 11.224506,5.9217911 C 9.8159041,7.3234479 8.971445,8.130743 8.8691354,8.1734887 8.6606763,8.2605837 8.5365948,8.257494 8.3432764,8.1603487 Z"
     id="path6291" />
</svg>
