<?xml version="1.0" encoding="UTF-8" standalone="no"?>
<!-- Created with Inkscape (http://www.inkscape.org/) -->

<svg
   width="135.46666mm"
   height="115.84768mm"
   viewBox="0 0 135.46666 115.84768"
   version="1.1"
   id="svg5"
   inkscape:version="1.1.2 (0a00cf5339, 2022-02-04)"
   sodipodi:docname="heart.svg"
   xmlns:inkscape="http://www.inkscape.org/namespaces/inkscape"
   xmlns:sodipodi="http://sodipodi.sourceforge.net/DTD/sodipodi-0.dtd"
   xmlns="http://www.w3.org/2000/svg"
   xmlns:svg="http://www.w3.org/2000/svg">
  <sodipodi:namedview
     id="namedview7"
     pagecolor="#ffffff"
     bordercolor="#666666"
     borderopacity="1.0"
     inkscape:pageshadow="2"
     inkscape:pageopacity="0.0"
     inkscape:pagecheckerboard="0"
     inkscape:document-units="mm"
     showgrid="false"
     fit-margin-top="0"
     fit-margin-left="0"
     fit-margin-right="0"
     fit-margin-bottom="0"
     inkscape:zoom="0.77771465"
     inkscape:cx="254.59209"
     inkscape:cy="206.37389"
     inkscape:window-width="1488"
     inkscape:window-height="1082"
     inkscape:window-x="26"
     inkscape:window-y="23"
     inkscape:window-maximized="0"
     inkscape:current-layer="layer1" />
  <defs
     id="defs2">
	
	
</defs>
  <g
     inkscape:label="Layer 1"
     inkscape:groupmode="layer"
     id="layer1"
     transform="translate(-37.901769,-93.75745)">
    <path
       id="path945"
       style="fill:#bb9645;fill-opacity:1;stroke:none;stroke-width:0.264583;stroke-opacity:1"
       d="M 76.276687,93.761554 C 74.02508,93.728378 71.75531,93.896121 69.493122,94.27315 51.263331,97.315861 37.901769,113.08503 37.901769,131.5794 v 1.53479 c 0,10.9802 4.551246,21.48417 12.59458,28.97187 l 47.810001,44.635 c 1.98438,1.85209 4.60354,2.88407 7.32875,2.88407 2.72521,0 5.3449,-1.03198 7.32927,-2.88407 l 47.81,-44.635 c 8.04333,-7.4877 12.59406,-17.99167 12.59406,-28.97187 v -1.53479 c 0,-18.49437 -13.36104,-34.263539 -31.59083,-37.30625 -12.065,-2.010828 -24.34208,1.931559 -32.9675,10.55698 l -3.175,3.175 -3.175,-3.175 C 95.451954,97.821974 86.03365,93.905318 76.276687,93.761554 Z M 91.633889,117.82055 H 120.6378 c 3.4624,0 6.62355,1.40475 8.88163,3.66283 l -14.85336,7.47706 H 94.192907 c -2.308264,0 -4.165121,1.65564 -4.165121,3.66283 v 9.13277 l -11.139887,5.77071 v -17.06098 c 0,-6.97497 5.670659,-12.64522 12.74599,-12.64522 z m 41.649141,11.99255 c 0,0.25089 -8e-5,0.45195 0.0501,0.65267 v 18.91771 c 0,6.97497 -5.67024,12.64522 -12.64522,12.64522 H 90.128555 v 10.78849 c 0,1.80647 -1.355256,3.31203 -3.011185,3.71347 l -3.813204,0.10025 h -4.416267 v -3.81372 -5.4193 -9.53431 l 14.552083,-7.5768 h 24.487908 c 2.30827,0 4.21525,-1.65609 4.21525,-3.71346 v -11.13989 z" />
  </g>
  <style
     type="text/css"
     id="style824">
	.st0{fill:#BB9645;}
	.st1{fill:#0A0B0B;}
	.st2{fill:#FFFFFF;}
	.st3{fill:#231F20;}
	.st4{fill:url(#SVGID_1_);}
	.st5{fill:url(#SVGID_2_);}
	.st6{fill:url(#SVGID_3_);}
	.st7{fill:url(#SVGID_4_);}
	.st8{fill:url(#SVGID_5_);}
	.st9{fill:url(#SVGID_6_);}
	.st10{fill:url(#SVGID_7_);}
	.st11{fill:url(#SVGID_8_);}
	.st12{fill:url(#SVGID_9_);}
	.st13{fill:url(#SVGID_10_);}
	.st14{fill:url(#SVGID_11_);}
	.st15{fill:#1B1B1B;}
	.st16{fill:url(#SVGID_12_);}
	.st17{fill:url(#SVGID_13_);}
	.st18{fill:url(#SVGID_14_);}
	.st19{fill:url(#SVGID_15_);}
	.st20{fill:url(#SVGID_16_);}
	.st21{fill:url(#SVGID_17_);}
	.st22{fill:url(#SVGID_18_);}
	.st23{fill:url(#SVGID_19_);}
	.st24{fill:url(#SVGID_20_);}
	.st25{fill:url(#SVGID_21_);}
	.st26{fill:url(#SVGID_22_);}
</style>
</svg>
