<?xml version="1.0" encoding="UTF-8" standalone="no"?>
<!-- Created with Inkscape (http://www.inkscape.org/) -->

<svg
   width="53.726269mm"
   height="52.916664mm"
   viewBox="0 0 53.726269 52.916664"
   version="1.1"
   id="svg5"
   inkscape:version="1.1.2 (0a00cf5339, 2022-02-04)"
   sodipodi:docname="nautical.svg"
   xmlns:inkscape="http://www.inkscape.org/namespaces/inkscape"
   xmlns:sodipodi="http://sodipodi.sourceforge.net/DTD/sodipodi-0.dtd"
   xmlns="http://www.w3.org/2000/svg"
   xmlns:svg="http://www.w3.org/2000/svg">
  <sodipodi:namedview
     id="namedview7"
     pagecolor="#ffffff"
     bordercolor="#666666"
     borderopacity="1.0"
     inkscape:pageshadow="2"
     inkscape:pageopacity="0.0"
     inkscape:pagecheckerboard="0"
     inkscape:document-units="mm"
     showgrid="false"
     fit-margin-top="0"
     fit-margin-left="0"
     fit-margin-right="0"
     fit-margin-bottom="0"
     inkscape:zoom="0.64052329"
     inkscape:cx="73.377504"
     inkscape:cy="86.647903"
     inkscape:window-width="1488"
     inkscape:window-height="1012"
     inkscape:window-x="26"
     inkscape:window-y="23"
     inkscape:window-maximized="0"
     inkscape:current-layer="layer1" />
  <defs
     id="defs2" />
  <g
     inkscape:label="Layer 1"
     inkscape:groupmode="layer"
     id="layer1"
     transform="translate(-258.41955,-72.176385)">
    <path
       style="fill:#bb9645;stroke-width:0.102826;stroke:none;fill-opacity:1"
       d="m 284.05131,124.92165 c -0.1541,-0.0836 -0.32635,-0.23832 -0.38277,-0.34375 -0.0858,-0.16024 -0.0342,-0.23909 0.31435,-0.48063 0.34343,-0.238 0.44717,-0.26705 0.58842,-0.16478 0.79988,0.57909 0.9824,0.6105 1.51598,0.26089 l 0.2434,-0.15948 -0.20371,-0.3993 c -0.21879,-0.42886 -0.45128,-0.58083 -1.32643,-0.86701 -0.66307,-0.21684 -1.03459,-0.55295 -1.03459,-0.93599 0,-0.34063 0.42023,-0.91168 0.82487,-1.12093 0.43784,-0.22642 0.56613,-0.51764 0.36396,-0.82619 -0.23716,-0.36195 -0.61284,-0.51244 -1.65155,-0.6616 -2.04107,-0.29309 -4.35539,-1.02146 -6.22095,-1.95788 -3.3913,-1.70227 -6.61797,-4.73657 -8.69057,-8.17246 -1.46409,-2.42713 -2.42682,-5.47097 -2.73188,-8.63735 -0.0654,-0.678651 -0.18256,-1.336189 -0.26039,-1.461197 -0.27293,-0.438346 -1.85911,-0.733322 -1.95717,-0.363962 -0.13548,0.510325 -0.74693,1.722329 -0.86889,1.722329 -0.0873,0 -0.32526,-0.52121 -0.62941,-1.378506 -0.26897,-0.758179 -0.50196,-1.39142 -0.51774,-1.407203 -0.0158,-0.01578 -0.31073,0.604549 -0.65543,1.378507 -0.34471,0.773965 -0.69093,1.419942 -0.76939,1.435522 -0.10055,0.02 -0.35503,-0.592132 -0.86226,-2.073999 l -0.71961,-2.102314 0.2505,-0.266649 c 0.13778,-0.146654 0.28278,-0.231329 0.32223,-0.188168 0.0394,0.04317 0.31486,0.726284 0.61203,1.518041 0.29717,0.791757 0.57911,1.482485 0.62655,1.534946 0.10588,0.117087 0.44884,-0.632581 0.60194,-1.31575 0.0613,-0.273492 0.18009,-0.630004 0.26399,-0.79225 0.19097,-0.369306 0.57969,-0.738841 0.66871,-0.635713 0.0369,0.04273 0.26633,0.656081 0.5099,1.363007 0.24356,0.706927 0.47771,1.324969 0.52033,1.373431 0.13406,0.152457 0.38269,-0.364969 0.6018,-1.252426 0.21564,-0.873374 0.48448,-1.374814 0.8387,-1.564393 0.25957,-0.138913 0.25375,-0.05876 -0.0586,0.807038 -0.14138,0.391955 -0.25706,0.741747 -0.25706,0.777323 0,0.135978 0.99164,0.05827 1.21023,-0.09483 0.34209,-0.239608 0.41728,-0.443624 0.59137,-1.60457 1.21736,-8.118247 6.53976,-14.634486 13.93072,-17.055456 1.39494,-0.456923 2.30418,-0.650644 4.31026,-0.918334 1.11802,-0.149188 1.52354,-0.24328 1.65457,-0.383911 0.21356,-0.229192 0.62062,-1.784883 0.61376,-2.345625 -0.003,-0.226216 -0.0693,-0.526982 -0.14789,-0.668367 l -0.14284,-0.257064 -0.11057,0.289465 c -0.0608,0.159207 -0.11058,0.514798 -0.11058,0.790206 0,0.675832 -0.13645,0.989097 -0.53727,1.233476 -0.52443,0.319748 -0.55512,0.285249 -0.47974,-0.539402 0.0375,-0.410019 0.10306,-1.125425 0.14573,-1.589794 0.0859,-0.935434 -0.0299,-1.266118 -0.5223,-1.49046 -0.31274,-0.142492 -0.32078,-0.330011 -0.0231,-0.53852 0.49412,-0.346096 0.72043,-0.232798 2.14489,1.073838 0.73985,0.67865 1.38765,1.233908 1.43957,1.233908 0.11286,0 0.13089,-0.221423 0.0982,-1.205635 -0.0237,-0.711391 -0.0109,-0.756729 0.30057,-1.068202 0.22394,-0.223946 0.35839,-0.292163 0.43158,-0.218975 0.12234,0.122341 0.0708,3.87679 -0.0571,4.157562 -0.0435,0.09558 -0.18431,0.242677 -0.31284,0.32689 -0.22646,0.148384 -0.25082,0.129589 -0.78826,-0.607907 -0.30502,-0.418564 -0.58928,-0.762318 -0.6317,-0.763903 -0.23752,-0.0089 0.1492,1.931328 0.43212,2.16792 0.11852,0.09912 0.58278,0.214548 1.15547,0.28728 5.44964,0.692116 10.22393,3.197885 13.62973,7.153507 2.74161,3.184209 4.3276,6.850097 4.91415,11.358703 0.0903,0.693794 0.20658,1.373139 0.25848,1.509658 0.10896,0.286577 0.39021,0.413648 1.13392,0.512303 0.48778,0.06471 0.5252,0.05484 0.47207,-0.124456 -0.0317,-0.107103 -0.11012,-0.493376 -0.17419,-0.858388 -0.16298,-0.928489 -0.11733,-0.954034 1.59679,-0.893551 1.03109,0.03638 1.34343,0.07987 1.36599,0.1902 0.0349,0.170458 -0.51998,0.453231 -1.07286,0.546775 -0.75275,0.127363 -0.75584,0.129908 -0.75584,0.621509 v 0.455784 l 0.48842,0.0016 c 0.96294,0.0027 1.19079,0.206461 0.68021,0.60809 -0.18012,0.141676 -0.42139,0.213114 -0.71978,0.213114 l -0.44885,4e-6 v 0.668366 0.668368 h 1.13108 c 0.63041,0 1.13108,0.0424 1.13108,0.0958 0,0.1583 -0.5399,0.49277 -0.97778,0.60573 -0.2257,0.0582 -0.82681,0.0872 -1.3358,0.0644 l -0.92543,-0.0414 -0.0297,-0.87642 -0.0297,-0.876417 h -0.35919 c -0.56856,0 -1.05071,0.252141 -1.21805,0.636977 -0.0813,0.18693 -0.26448,1.0108 -0.40711,1.83084 -1.2498,7.18552 -5.11401,12.39148 -11.52306,15.52418 -0.79514,0.38866 -1.93157,0.86743 -2.52539,1.06393 -1.61845,0.53556 -4.13464,0.99507 -5.44878,0.99507 -0.33061,0 -0.6743,0.0281 -0.76376,0.0624 -0.25452,0.0977 -0.193,0.56302 0.11724,0.88684 0.22319,0.23295 0.25751,0.32783 0.16945,0.46834 -0.16554,0.2641 -0.53493,0.27268 -1.03291,0.024 -0.53783,-0.26861 -0.71651,-0.24509 -0.99721,0.13124 -0.198,0.26544 -0.20251,0.30879 -0.0587,0.56554 0.15072,0.26918 0.35271,0.37052 1.77506,0.89049 0.36938,0.13503 0.53584,0.26588 0.65432,0.51434 0.14757,0.30945 0.14387,0.36722 -0.0518,0.80948 -0.43892,0.99226 -2.21019,1.63957 -3.12619,1.14247 z m 3.20243,-11.87608 c 2.01536,-8.32438 1.98822,-8.2051 1.9238,-8.45609 -0.0473,-0.18443 -2.59384,-2.37717 -3.09865,-2.66818 -0.17996,-0.10374 -0.24048,1.49814 -0.30783,8.14809 -0.0295,2.91253 -0.0811,6.15154 -0.11467,7.19779 -0.0447,1.39262 -0.0304,1.87319 0.0531,1.79369 0.0628,-0.0597 0.75768,-2.7666 1.54421,-6.0153 z m 1.60209,5.54409 c 2.22513,-0.25542 4.40129,-0.92365 6.52679,-2.00416 2.26647,-1.15217 4.36883,-2.73739 4.48258,-3.37993 0.0521,-0.29419 0.004,-0.34288 -1.03507,-1.05117 l -1.08966,-0.74269 -0.58636,0.47819 c -1.35413,1.10431 -3.32447,2.24497 -4.91588,2.84587 -1.01022,0.38144 -2.93115,0.85461 -3.82839,0.94302 -0.44556,0.0439 -0.8328,0.14243 -0.95785,0.24369 -0.14794,0.11979 -0.29737,0.53316 -0.50608,1.4 -0.16289,0.67651 -0.29722,1.29016 -0.2985,1.36366 -0.002,0.14114 0.22489,0.13121 2.20842,-0.0965 z m -4.1901,-0.16569 c -0.21858,-1.26156 -0.41867,-2.17438 -0.52404,-2.3907 -0.14136,-0.29017 -0.33651,-0.36257 -2.21655,-0.82231 -2.62512,-0.64193 -4.99454,-1.9171 -7.28258,-3.91931 -0.31582,-0.27637 -0.61602,-0.50249 -0.66711,-0.50249 -0.0745,0 -0.86092,0.56368 -1.90591,1.36606 -0.27429,0.21061 -0.0977,-0.1179 0.54097,-1.00617 0.36595,-0.50898 0.66578,-1.01155 0.66629,-1.11681 3.9e-4,-0.10526 -0.17856,-0.40602 -0.39795,-0.66837 -1.68798,-2.01844 -2.98089,-4.81482 -3.51013,-7.59195 -0.30528,-1.60188 -0.39004,-1.86468 -0.6581,-2.040322 -0.27674,-0.181324 -2.31533,-0.705698 -2.40294,-0.618093 -0.18718,0.187177 0.0915,2.653465 0.48855,4.323625 0.70771,2.97696 2.60828,6.59299 4.37762,8.32888 0.40351,0.39588 0.78915,0.824 0.85697,0.95137 0.20167,0.37871 1.93537,1.83754 3.1492,2.64988 2.50497,1.67644 5.16383,2.70905 8.1945,3.18248 1.32906,0.20761 1.34864,0.2057 1.29121,-0.12577 z m -0.89977,-4.36429 c 0,-0.10404 -1.81441,-8.9406 -1.87965,-9.15428 -0.0247,-0.081 -6.58458,4.81652 -6.63356,4.95252 -0.0395,0.10978 1.37925,1.28683 2.29225,1.9017 1.43773,0.96825 3.41813,1.80654 5.24226,2.21902 1.02533,0.23186 0.9787,0.22799 0.9787,0.081 z m 6.03243,-0.1308 c 1.79874,-0.43579 3.72121,-1.27081 5.24439,-2.27788 0.82949,-0.54842 1.37073,-1.0666 1.37073,-1.31232 0,-0.11782 -6.46678,-5.36358 -6.52132,-5.29002 -0.0137,0.0185 -0.50174,2.04649 -1.08446,4.5066 -0.58271,2.4601 -1.07907,4.50762 -1.10301,4.55003 -0.0932,0.16504 1.09889,0.0646 2.09367,-0.17641 z m 11.31682,-1.67445 c 2.93291,-3.27668 4.54004,-6.71517 5.15445,-11.02805 0.10877,-0.76348 0.19107,-1.396159 0.18289,-1.405952 -0.008,-0.0098 -0.61568,0.09517 -1.34998,0.233252 -0.92585,0.1741 -1.395,0.31095 -1.53048,0.44643 -0.12752,0.12753 -0.27856,0.60001 -0.43493,1.36055 -0.32925,1.60146 -0.69103,2.72216 -1.28777,3.98924 -0.589,1.25065 -1.73808,3.01433 -2.68393,4.11947 l -0.66244,0.774 0.75591,1.07154 c 0.70256,0.99592 0.90739,1.23082 1.07677,1.23484 0.0364,7.8e-4 0.3872,-0.35703 0.77951,-0.79532 z m -7.7741,-7.77844 c -3.07813,-4.11858 -4.4937,-5.934007 -4.65906,-5.975117 -0.13064,-0.03249 -0.75311,-0.04563 -1.38326,-0.02922 l -1.14573,0.02985 5.77141,6.045447 c 3.17427,3.32499 5.78643,6.00036 5.80479,5.94527 0.0184,-0.0551 -1.9563,-2.76239 -4.38815,-6.01623 z m -13.84242,1.71598 c 2.94082,-2.20571 5.58316,-4.19795 5.87187,-4.42719 l 0.52493,-0.4168 0.0589,-0.8577 c 0.0324,-0.47173 0.0276,-1.074345 -0.0108,-1.339136 l -0.0697,-0.481437 -5.96336,5.749663 c -3.27984,3.16232 -5.98268,5.80822 -6.00631,5.87979 -0.0323,0.0978 -0.007,0.10197 0.1023,0.0167 0.0799,-0.0624 2.55137,-1.91813 5.49218,-4.12385 z m 18.61039,2.72063 c 0.70043,-0.79168 1.83997,-2.52729 2.32084,-3.5348 0.52406,-1.09801 1.05091,-2.70511 1.25405,-3.82537 l 0.1553,-0.85645 -0.21936,0.0513 c -0.12064,0.0282 -2.22182,0.45961 -4.66928,0.95863 -2.82567,0.57614 -4.43955,0.94903 -4.4215,1.02159 0.04,0.16084 4.94886,6.71548 5.03319,6.72067 0.038,0.002 0.28408,-0.23867 0.54676,-0.53558 z m -21.18835,-3.25551 c 1.3896,-1.74812 2.52655,-3.21875 2.52655,-3.26806 0,-0.0831 -8.85667,-2.31035 -8.92523,-2.24455 -0.0586,0.0563 0.20362,1.44605 0.46612,2.47005 0.31753,1.2387 0.89916,2.69754 1.48071,3.71397 0.48251,0.84331 1.70134,2.50698 1.83666,2.50698 0.0488,0 1.22559,-1.43028 2.61519,-3.17839 z m 3.41804,-4.35359 c 0.46179,-0.4901 2.32322,-2.860568 2.28013,-2.903664 -0.0202,-0.02025 -2.97477,-0.08586 -6.56557,-0.145772 -3.5908,-0.05991 -7.35462,-0.135022 -8.36405,-0.166913 -1.47744,-0.04668 -1.82669,-0.03199 -1.79104,0.07535 0.0467,0.140693 13.23685,3.451509 13.81164,3.466819 0.22764,0.006 0.40062,-0.0836 0.62889,-0.32582 z m 26.5064,-2.539224 c -0.0537,-0.05341 -2.59634,-0.698434 -5.65027,-1.433377 -8.51827,-2.04997 -9.00489,-2.162222 -9.13389,-2.107013 -0.0662,0.02833 -0.7127,0.788974 -1.43661,1.690283 l -1.31619,1.638742 1.26478,0.0101 c 0.69563,0.0056 4.20302,0.06771 7.79421,0.138093 9.01022,0.176591 8.58892,0.173454 8.47797,0.06315 z m -21.03984,-0.407543 c -0.0551,-0.149985 -11.43141,-12.039442 -11.47661,-11.994244 -0.0601,0.06008 0.0801,0.254433 4.34737,6.02726 2.14905,2.907281 4.07545,5.460196 4.28087,5.673151 l 0.3735,0.387187 h 1.25457 c 0.70816,0 1.23965,-0.04066 1.2203,-0.09335 z m 6.38809,-5.910795 c 6.62038,-6.304542 6.2757,-5.969188 6.05839,-5.894594 -0.0917,0.03148 -2.87961,2.077241 -6.19525,4.546113 l -6.02844,4.48886 v 1.344994 1.344999 l 0.22712,-0.195883 c 0.12492,-0.107736 2.7971,-2.643256 5.93818,-5.634489 z m 14.23595,4.744533 c -0.41084,-4.559762 -1.96014,-8.368278 -4.76856,-11.722124 -0.46173,-0.5514 -0.87655,-1.002548 -0.92181,-1.002548 -0.15765,0 -1.65183,2.006634 -1.65192,2.218485 -6e-5,0.117359 0.21478,0.487532 0.47742,0.822603 2.06125,2.629762 3.25179,5.333598 3.74647,8.50862 0.0689,0.442438 0.19941,0.891965 0.28995,0.998952 0.10399,0.122866 0.60019,0.306021 1.34712,0.497236 1.6527,0.423088 1.55039,0.445275 1.48133,-0.321224 z m -37.57091,-0.592439 c 0.21095,-0.112894 0.27767,-0.316743 0.62216,-1.901081 0.56493,-2.598171 1.89928,-5.292948 3.67641,-7.424651 0.29261,-0.350985 0.53201,-0.738417 0.53201,-0.860956 0,-0.213585 -0.5822,-1.098998 -1.20252,-1.828792 l -0.29407,-0.345964 -0.87367,0.918074 c -1.12054,1.177498 -1.98113,2.470128 -2.93005,4.401005 -1.21717,2.476712 -1.84461,4.594906 -1.96981,6.649959 l -0.0607,0.995707 1.15202,-0.249156 c 0.63361,-0.137036 1.24029,-0.296398 1.34818,-0.354145 z m 32.95848,-0.456418 c -0.11354,-0.90879 -0.63552,-2.759441 -1.07488,-3.810956 -0.59598,-1.426332 -1.46854,-2.837848 -2.51047,-4.061096 l -0.28984,-0.340283 -0.23998,0.247653 c -0.46321,0.478025 -5.09306,6.296979 -5.04691,6.343129 0.064,0.06397 8.80098,2.16579 9.04031,2.174783 0.17277,0.0065 0.18485,-0.04838 0.12177,-0.55323 z m -26.50012,-0.870781 c 2.3374,-0.503816 4.27073,-0.936946 4.29629,-0.962507 0.0493,-0.04929 -4.76904,-6.588566 -4.88133,-6.624759 -0.0955,-0.03078 -1.24939,1.442172 -1.78882,2.283405 -0.92936,1.449323 -1.5655,2.942488 -1.97134,4.627155 -0.39916,1.656945 -0.40338,1.708843 -0.1337,1.646064 0.12599,-0.02934 2.14149,-0.465539 4.4789,-0.969358 z m 10.81625,-1.319368 c 0.001,-0.607957 0.0696,-4.08989 0.15211,-7.737632 0.17888,-7.909304 0.1811,-8.193165 0.0632,-8.066673 -0.10635,0.114079 -3.50782,13.803093 -3.50782,14.117057 0,0.139496 0.28927,0.452551 0.84832,0.918078 1.46422,1.219276 2.2851,1.868972 2.36499,1.871809 0.0424,0.0016 0.0781,-0.494682 0.0792,-1.102639 z m 4.66267,-2.363942 c 0.29034,-0.211498 1.81442,-1.340152 3.38683,-2.508113 l 2.85893,-2.123573 -0.75101,-0.609994 c -2.11553,-1.718318 -4.33973,-2.785849 -6.93238,-3.327256 -0.54474,-0.113758 -1.0047,-0.192577 -1.02212,-0.175158 -0.0174,0.01741 0.33547,1.83557 0.7842,4.040324 0.44873,2.204759 0.8653,4.251573 0.92571,4.548484 0.0604,0.296907 0.13505,0.539834 0.16588,0.539834 0.0308,0 0.29361,-0.173047 0.58396,-0.384548 z m -7.51132,-4.237119 c 0.60078,-2.400532 1.06993,-4.387004 1.04255,-4.414383 -0.10554,-0.105537 -2.10898,0.334606 -3.28299,0.721244 -1.85135,0.60971 -4.11053,1.893472 -5.04064,2.864291 l -0.27828,0.290468 3.16322,2.532386 c 1.73977,1.392812 3.19485,2.495984 3.23352,2.45149 0.0387,-0.04449 0.56185,-2.044965 1.16262,-4.445496 z m 16.22044,-2.231014 1.06674,-0.785963 -0.85219,-0.808736 c -2.4103,-2.287386 -7.56536,-4.750352 -10.62157,-5.074743 -0.79459,-0.08434 -1.51848,0.01205 -1.59537,0.212434 -0.0696,0.181421 0.36697,2.254981 0.51838,2.462048 0.0706,0.09656 0.59886,0.256428 1.35278,0.409397 3.13107,0.635286 6.07407,2.064502 8.29979,4.030644 0.21224,0.187488 0.47113,0.340885 0.5753,0.340885 0.10418,0 0.66944,-0.353683 1.25614,-0.785966 z m -24.09203,-0.0035 c 1.54203,-1.257541 3.48179,-2.322496 5.38643,-2.957214 1.01389,-0.337877 2.91556,-0.777653 3.36271,-0.777653 0.45267,0 0.70382,-0.407586 1.02382,-1.661563 l 0.30593,-1.198845 -0.36071,-0.06767 c -0.83766,-0.157143 -2.94858,0.238057 -4.99966,0.936025 -1.62607,0.553335 -4.09253,1.743875 -5.36264,2.588494 -0.83995,0.558569 -2.31799,1.930167 -2.31054,2.144152 0.002,0.04791 0.39748,0.399448 0.87957,0.78119 1.08875,0.862107 1.25794,0.879479 2.07509,0.213087 z"
       id="path854" />
  </g>
</svg>
