<?xml version="1.0" encoding="UTF-8" standalone="no"?>
<svg
   viewBox="0 0 640 512"
   version="1.1"
   id="svg4"
   sodipodi:docname="people.svg"
   inkscape:version="1.1.2 (0a00cf5339, 2022-02-04)"
   xmlns:inkscape="http://www.inkscape.org/namespaces/inkscape"
   xmlns:sodipodi="http://sodipodi.sourceforge.net/DTD/sodipodi-0.dtd"
   xmlns="http://www.w3.org/2000/svg"
   xmlns:svg="http://www.w3.org/2000/svg">
  <defs
     id="defs8" />
  <sodipodi:namedview
     id="namedview6"
     pagecolor="#ffffff"
     bordercolor="#666666"
     borderopacity="1.0"
     inkscape:pageshadow="2"
     inkscape:pageopacity="0.0"
     inkscape:pagecheckerboard="0"
     showgrid="false"
     inkscape:zoom="1.7050781"
     inkscape:cx="319.92669"
     inkscape:cy="256"
     inkscape:window-width="1473"
     inkscape:window-height="1082"
     inkscape:window-x="26"
     inkscape:window-y="23"
     inkscape:window-maximized="0"
     inkscape:current-layer="svg4" />
  <!--! Font Awesome Free 6.2.1 by @fontawesome - https://fontawesome.com License - https://fontawesome.com/license/free (Icons: CC BY 4.0, Fonts: SIL OFL 1.1, Code: MIT License) Copyright 2022 Fonticons, Inc. -->
  <path
     d="M192 64c0 35.3-28.7 64-64 64s-64-28.7-64-64S92.7 0 128 0s64 28.7 64 64zM25.9 233.4C29.3 191.9 64 160 105.6 160h44.8c27 0 51 13.4 65.5 34.1c-2.7 1.9-5.2 4-7.5 6.3l-64 64c-21.9 21.9-21.9 57.3 0 79.2L192 391.2V464c0 26.5-21.5 48-48 48H112c-26.5 0-48-21.5-48-48V348.3c-26.5-9.5-44.7-35.8-42.2-65.6l4.1-49.3zM576 64c0 35.3-28.7 64-64 64s-64-28.7-64-64s28.7-64 64-64s64 28.7 64 64zM431.6 200.4c-2.3-2.3-4.9-4.4-7.5-6.3c14.5-20.7 38.6-34.1 65.5-34.1h44.8c41.6 0 76.3 31.9 79.7 73.4l4.1 49.3c2.5 29.8-15.7 56.1-42.2 65.6V464c0 26.5-21.5 48-48 48H496c-26.5 0-48-21.5-48-48V391.2l47.6-47.6c21.9-21.9 21.9-57.3 0-79.2l-64-64zM272 240v32h96V240c0-9.7 5.8-18.5 14.8-22.2s19.3-1.7 26.2 5.2l64 64c9.4 9.4 9.4 24.6 0 33.9l-64 64c-6.9 6.9-17.2 8.9-26.2 5.2s-14.8-12.5-14.8-22.2V336H272v32c0 9.7-5.8 18.5-14.8 22.2s-19.3 1.7-26.2-5.2l-64-64c-9.4-9.4-9.4-24.6 0-33.9l64-64c6.9-6.9 17.2-8.9 26.2-5.2s14.8 12.5 14.8 22.2z"
     id="path2"
     style="fill:#bb9645;fill-opacity:1" />
</svg>
