<?xml version="1.0" encoding="UTF-8" standalone="no"?>
<!-- Created with Inkscape (http://www.inkscape.org/) -->

<svg
   width="200mm"
   height="200mm"
   viewBox="0 0 200.00001 200"
   version="1.1"
   id="svg5"
   inkscape:version="1.1.2 (0a00cf5339, 2022-02-04)"
   sodipodi:docname="treasure-chest.svg"
   xmlns:inkscape="http://www.inkscape.org/namespaces/inkscape"
   xmlns:sodipodi="http://sodipodi.sourceforge.net/DTD/sodipodi-0.dtd"
   xmlns="http://www.w3.org/2000/svg"
   xmlns:svg="http://www.w3.org/2000/svg">
  <sodipodi:namedview
     id="namedview7"
     pagecolor="#ffffff"
     bordercolor="#666666"
     borderopacity="1.0"
     inkscape:pageshadow="2"
     inkscape:pageopacity="0.0"
     inkscape:pagecheckerboard="0"
     inkscape:document-units="mm"
     showgrid="false"
     fit-margin-top="0"
     fit-margin-left="0"
     fit-margin-right="0"
     fit-margin-bottom="0"
     inkscape:zoom="0.22645918"
     inkscape:cx="293.65115"
     inkscape:cy="505.60988"
     inkscape:window-width="1645"
     inkscape:window-height="1012"
     inkscape:window-x="26"
     inkscape:window-y="23"
     inkscape:window-maximized="0"
     inkscape:current-layer="layer1"
     inkscape:snap-global="false" />
  <defs
     id="defs2" />
  <g
     inkscape:label="Layer 1"
     inkscape:groupmode="layer"
     id="layer1"
     transform="translate(-124.55144,-14.330513)">
    <path
       style="fill:#bb9645;fill-opacity:1;stroke-width:0.354751"
       d="m 230.80209,176.15369 c -0.39024,-0.0957 -7.49412,-3.17684 -15.78642,-6.84687 -8.29232,-3.67003 -21.91326,-9.69682 -30.26876,-13.39287 -8.35552,-3.69605 -15.88062,-7.20559 -16.72244,-7.79898 -1.09631,-0.77273 -1.83801,-1.71795 -2.61404,-3.33124 -1.05771,-2.19885 -1.11661,-2.60648 -2.47842,-17.15192 -0.76725,-8.19477 -1.34293,-14.95828 -1.27929,-15.03005 0.0636,-0.0718 4.0745,1.15127 8.91306,2.71789 4.83858,1.56663 9.94377,3.2097 11.34489,3.65127 l 2.54748,0.80288 0.20935,2.50999 c 0.11521,1.38049 0.45103,6.48535 0.74642,11.34411 0.29539,4.85878 0.61469,8.95972 0.70957,9.11324 0.095,0.15351 3.8333,1.72342 8.3076,3.48871 6.8569,2.70529 8.59051,3.21514 9.30888,2.73775 0.0419,-0.0279 0.1617,-5.16986 0.26606,-11.42657 l 0.18973,-11.37584 4.07963,1.29463 c 12.02261,3.81523 24.69873,7.96698 25.00995,8.19139 0.23631,0.1704 0.21798,6.45469 -0.055,18.82228 -0.22531,10.21154 -0.42486,19.32472 -0.44344,20.25151 -0.0355,1.7679 -0.17952,1.87164 -1.98487,1.42869 z m 4.69858,-0.008 c -0.0738,-0.14705 0.0645,-9.27025 0.30701,-20.27378 0.33336,-15.12308 0.5482,-20.07266 0.88015,-20.27782 0.42752,-0.26423 40.49576,-14.87957 40.79259,-14.87957 0.16583,0 0.0659,6.2425 -0.33816,21.10769 -0.42314,15.57036 1.1554,13.75198 -21.98084,25.32072 -16.97587,8.48838 -19.36921,9.58432 -19.66075,9.00275 z m -41.06056,-32.6361 c -3.21938,-1.27688 -5.88341,-2.34191 -5.92009,-2.36679 -0.15723,-0.10655 -1.21942,-18.6514 -1.11394,-19.44868 l 0.11642,-0.8797 6.82896,2.15285 6.82896,2.15286 V 135.511 c 0,8.09502 -0.098,10.38305 -0.44344,10.3555 -0.24389,-0.0194 -3.07747,-1.08004 -6.29682,-2.35691 z m 0.68988,-6.63025 c 0.28959,-0.34894 0.35255,-1.32283 0.2007,-3.10406 -0.34717,-4.07204 -0.41421,-4.2536 -1.52377,-4.12566 -0.9568,0.11027 -0.96389,0.13167 -1.06566,3.21272 -0.0574,1.74313 0.0643,3.41345 0.27855,3.81357 0.44428,0.83018 1.50516,0.93244 2.11018,0.20343 z m 33.72097,-5.42147 c -0.87801,-0.30399 -1.66758,-0.61533 -1.75457,-0.69188 -0.0871,-0.0765 0.96412,-1.29188 2.33583,-2.70075 1.37172,-1.40886 2.98212,-3.20131 3.5787,-3.98324 1.28931,-1.68991 3.28981,-5.53128 3.28981,-6.31711 0,-1.03347 0.64004,-0.96023 1.6023,0.18337 0.82727,0.98313 0.92847,1.34949 0.74419,2.69391 -0.11738,0.85581 -0.77803,2.63076 -1.46828,3.94432 -1.28494,2.44519 -5.57175,7.50239 -6.3169,7.45206 -0.22809,-0.0154 -1.13309,-0.27671 -2.01108,-0.58068 z m 8.20619,0.0622 -1.19472,-0.51866 0.98956,-1.32989 c 0.54426,-0.73143 1.01316,-1.3676 1.04205,-1.41371 0.0288,-0.0461 1.2926,0.15344 2.8083,0.44344 1.51571,0.29 3.34042,0.53624 4.05493,0.54717 1.10656,0.017 0.74706,0.22663 -2.42577,1.41477 -2.04869,0.76718 -3.80471,1.39052 -3.90227,1.38522 -0.0976,-0.005 -0.715,-0.24305 -1.37208,-0.52834 z m -17.51841,-3.09481 c -1.90235,-0.59724 -3.45882,-1.28118 -3.45882,-1.51989 0,-0.83812 3.02871,-4.97294 5.31606,-7.25754 4.89339,-4.88746 11.15615,-7.67126 12.50119,-5.55679 0.88964,1.39857 -0.64599,5.46292 -3.43212,9.08369 -1.99067,2.58702 -6.14023,6.42047 -6.89799,6.37247 -0.31322,-0.0199 -2.12596,-0.52471 -4.02832,-1.12194 z m 23.32488,-2.08211 c -3.54787,-0.44626 -3.45809,-0.3621 -2.55695,-2.39707 0.70491,-1.59193 0.87185,-1.74551 1.67007,-1.53666 0.48779,0.12765 2.80253,0.21333 5.14389,0.1905 4.54511,-0.0445 8.36593,-0.80727 11.14596,-2.22555 l 1.44771,-0.73855 v 1.46126 c 0,1.17605 -0.21422,1.66138 -1.09751,2.48649 -1.31934,1.23245 -4.57791,2.29655 -8.5628,2.79622 -3.25517,0.40816 -3.67109,0.40604 -7.19037,-0.0366 z m -34.94299,-1.68764 -5.14389,-1.68366 2.05994,-0.26983 c 5.33217,-0.69849 8.6446,-2.30413 9.63285,-4.66932 0.37154,-0.88928 0.73143,-1.22053 1.32623,-1.22072 0.77751,-2.3e-4 0.81202,0.10937 0.72667,2.31023 -0.0734,1.89454 -0.2722,2.56257 -1.10392,3.71069 -0.55787,0.77012 -1.21537,1.88563 -1.46111,2.47891 -0.24576,0.59328 -0.54719,1.06715 -0.66984,1.05303 -0.12268,-0.0142 -2.53777,-0.78332 -5.36693,-1.70933 z m 54.27693,-5.17923 c 0,-2.89371 0.10621,-3.76524 0.44343,-3.64139 0.24389,0.0896 2.95775,0.77988 6.03076,1.53407 3.07304,0.75418 5.58604,1.45626 5.58445,1.56019 -0.002,0.18286 -9.64595,3.7345 -11.26046,4.14727 -0.79082,0.2022 -0.79818,0.16895 -0.79818,-3.60014 z m -72.01004,-0.50371 c -3.76256,-1.2509 -4.08074,-1.42658 -4.14708,-2.28972 -0.0853,-1.11033 -0.15046,-1.1039 2.56207,-0.25331 3.52932,1.10672 8.25294,1.48061 16.11565,1.27564 6.67979,-0.17415 7.21678,-0.14346 6.69086,0.38249 -1.26898,1.26898 -5.15209,1.99867 -11.2929,2.1221 l -5.85338,0.11761 z m 51.70054,0.78788 c -0.38442,-0.10047 -0.62081,-0.50318 -0.62081,-1.05759 0,-0.62349 -0.72368,-1.64496 -2.38331,-3.36403 -2.71915,-2.81654 -2.73801,-2.75443 1.13217,-3.72747 8.51358,-2.14046 21.59313,1.11198 19.29168,4.79718 -1.30394,2.08794 -6.7523,3.61471 -12.68735,3.5553 -2.26136,-0.0226 -4.39093,-0.11413 -4.73238,-0.20339 z m -22.02827,-3.59696 c -0.34472,-0.38091 -0.58712,-1.24733 -0.58712,-2.0986 v -1.44985 l 2.08489,0.92146 2.08489,0.92145 -1.40895,1.17716 c -0.77492,0.64741 -1.44893,1.17712 -1.49779,1.17712 -0.0489,0 -0.35301,-0.29194 -0.67592,-0.64874 z m -41.13258,-0.83288 -0.99071,-0.36136 2.98443,-2.79225 c 3.3597,-3.14335 6.46435,-7.0287 7.87957,-9.86092 l 0.95065,-1.9025 0.71641,0.71642 c 1.03217,1.03216 0.62977,2.57383 -1.5309,5.86507 -2.0748,3.16044 -7.46488,8.76605 -8.38944,8.72489 -0.3461,-0.0154 -1.07511,-0.19061 -1.62001,-0.38935 z m 20.96787,-0.80921 c -2.24443,-0.46754 -5.60973,-1.72591 -5.60973,-2.0976 0,-0.0943 3.3675,-0.10013 7.48333,-0.0134 6.73025,0.14229 10.66936,-0.0738 14.06779,-0.77168 1.12642,-0.23131 1.15295,-0.20815 1.15295,1.00607 0,1.15886 -0.10193,1.27156 -1.5077,1.66848 -2.34057,0.66079 -12.74611,0.79955 -15.58664,0.20782 z m -10.00133,-0.37648 c -2.33063,-0.64004 -2.56419,-0.94839 -1.57415,-2.0784 0.75675,-0.86371 0.92726,-0.90831 2.15217,-0.56275 0.88019,0.24831 1.33032,0.58302 1.33032,0.9892 0,0.33764 0.24852,0.96868 0.55224,1.40232 0.50998,0.7281 0.5032,0.78601 -0.0887,0.75671 -0.35251,-0.0173 -1.41987,-0.24563 -2.37191,-0.50708 z m -17.21638,-0.90346 c -1.0556,-0.37471 -1.98782,-0.74984 -2.07159,-0.83361 -0.0838,-0.0838 0.47963,-1.08254 1.25201,-2.21947 2.03791,-2.99974 6.84755,-7.65878 10.22916,-9.90882 3.03811,-2.021494 5.45812,-2.833181 5.45812,-1.830697 0,1.19873 -2.61967,5.601577 -4.96184,8.339297 -2.15795,2.52237 -7.28101,7.21638 -7.80919,7.15517 -0.0976,-0.0113 -1.04106,-0.32714 -2.09667,-0.70187 z m 52.47131,-1.21667 c -4.1999,-1.13492 -5.67601,-2.28847 -5.67601,-4.43569 0,-0.78046 0.0499,-1.419 0.11083,-1.419 0.0608,0 0.77743,0.32209 1.59223,0.71578 3.07503,1.48569 5.65379,1.92775 11.24544,1.92775 6.068,0 8.75341,-0.54328 12.68236,-2.56569 0.14633,-0.0754 0.26605,0.33685 0.26605,0.91596 0,1.01712 -0.0695,1.06124 -2.0398,1.29643 -2.75307,0.32861 -5.97687,1.1701 -7.5423,1.96871 -0.8929,0.45554 -1.72035,0.59912 -2.69737,0.46806 -1.42814,-0.19154 -2.85233,0.0987 -5.10333,1.03991 -1.02583,0.42893 -1.51909,0.44419 -2.83801,0.0877 z m 35.51879,0.0514 c -0.21886,-0.26373 -1.52498,-0.999 -2.90247,-1.63391 -2.35063,-1.08348 -2.4696,-1.19297 -1.93647,-1.78206 0.54198,-0.59889 0.72576,-0.58612 4.01195,0.27892 1.89417,0.49864 3.50612,0.95326 3.5821,1.0103 0.21032,0.15784 -1.72859,2.60625 -2.0639,2.60625 -0.16129,0 -0.47234,-0.21577 -0.69121,-0.4795 z m -94.93948,-1.07041 -1.06414,-0.45364 2.27867,-0.7695 c 1.25328,-0.42324 2.32168,-0.72654 2.37421,-0.67399 0.0526,0.0526 -0.23029,0.61017 -0.62854,1.23916 -0.78403,1.23827 -1.31966,1.35734 -2.9602,0.65797 z m 97.37907,-3.79519 c -7.31674,-1.91542 -13.6416,-3.56959 -14.05525,-3.67594 -0.54564,-0.14029 -0.81191,-0.56756 -0.97006,-1.55655 -0.34693,-2.169657 -1.59512,-3.660797 -4.14412,-4.950782 -3.06428,-1.550773 -6.40426,-2.196096 -11.40466,-2.203537 -3.92071,-0.0054 -8.40551,0.630399 -9.83441,1.39512 -0.45297,0.242429 -2.82376,-0.227022 -8.45276,-1.67383 l -7.82319,-2.010772 2.88883,-1.918526 c 7.99067,-5.30673 13.64173,-11.365674 15.32378,-16.42987 0.54429,-1.638701 0.66968,-1.769858 1.52877,-1.599015 0.5147,0.102305 5.80479,1.019056 11.75573,2.037105 5.95096,1.018049 11.02676,2.01273 11.27955,2.210415 0.48159,0.376575 27.39523,32.733112 27.86775,33.503572 0.16634,0.27125 0.0916,0.42631 -0.19242,0.39931 -0.25541,-0.0243 -6.45081,-1.61128 -13.76754,-3.5267 z m 15.37268,0.68726 c -1.35972,-1.63338 -6.84191,-8.237877 -12.18264,-14.676597 -5.34072,-6.438734 -10.79753,-13.014285 -12.12625,-14.612347 -1.3287,-1.59805 -2.41582,-2.975698 -2.41582,-3.061442 0,-0.324699 3.85206,-3.040781 7.01123,-4.943619 9.71433,-5.851134 18.72117,-6.394059 24.53456,-1.478907 4.71152,3.983546 7.08317,13.352379 5.57288,22.014697 -0.94241,5.405279 -4.03703,13.434795 -7.07394,18.354605 l -0.8478,1.37343 z m -84.54915,1.62444 c -0.29265,-0.062 -1.12207,-0.20867 -1.84312,-0.32607 l -1.311,-0.21344 0.72417,-1.22742 c 0.63135,-1.07004 0.84491,-1.19351 1.66576,-0.96311 0.51788,0.14536 3.49577,0.24178 6.61759,0.21426 5.59167,-0.0493 6.32001,-0.15744 11.79547,-1.75147 0.67452,-0.19638 0.79819,-0.0971 0.79819,0.64089 0,0.4803 -0.27937,1.12083 -0.62082,1.42339 -0.82101,0.7275 -3.42243,1.58066 -6.18831,2.02948 -2.01888,0.32761 -10.32443,0.45142 -11.63793,0.17349 z m 19.72426,-0.43135 c 0.69024,-0.46087 1.20607,-1.7762 1.20607,-3.07533 0,-1.41714 -0.0306,-1.39395 1.21852,-0.91898 0.7898,0.30028 0.90998,0.55574 0.90998,1.93445 0,1.53341 -0.0461,1.6013 -1.33032,1.95794 -1.56738,0.43528 -2.58068,0.48679 -2.00425,0.10193 z m 14.05736,-2.97319 c -4.20609,-0.60305 -8.23954,-2.65899 -8.23954,-4.19989 0,-1.10017 2.33245,-2.775367 5.05631,-3.631525 2.1976,-0.690749 3.34341,-0.808068 7.8921,-0.808068 5.79091,0 8.96333,0.657979 11.55018,2.395606 5.30777,3.565287 -5.63405,7.767227 -16.25905,6.243877 z m -32.13885,-1.61297 -2.08213,-0.1468 0.21264,-1.32975 c 0.152,-0.95062 0.0194,-1.69014 -0.46483,-2.59375 l -0.67745,-1.263987 2.15554,-0.22531 c 6.45763,-0.674952 14.72874,0.38713 16.93638,2.174777 l 0.7793,0.63105 -1.43146,0.80451 c -2.49122,1.40015 -9.91422,2.338 -15.42799,1.94926 z m 19.66458,-3.55871 c -0.2804,-0.11061 -0.87581,-0.63602 -1.32313,-1.167607 -0.44732,-0.5316 -1.29542,-1.16626 -1.88472,-1.41035 -1.14275,-0.473344 -1.22849,-0.625054 -0.76573,-1.354752 0.23867,-0.376362 0.8626,-0.323064 3.276,0.279836 4.24486,1.060416 4.03339,0.927238 3.18506,2.005706 -0.4048,0.51462 -0.736,1.153597 -0.736,1.419957 0,0.48984 -0.81682,0.5958 -1.75148,0.22721 z M 195.37341,78.814888 c -4.25673,-6.836306 -7.66362,-12.505522 -7.57091,-12.598237 0.0928,-0.09279 7.88992,1.166622 17.32707,2.798567 19.391,3.353225 17.7477,2.712286 15.9969,6.239238 -2.3295,4.692758 -8.82685,10.655431 -16.40789,15.057678 l -1.60571,0.9324 z m 46.78071,-5.997562 c -9.12222,-1.599134 -46.5141,-8.073481 -50.19728,-8.691599 -5.15806,-0.865642 -4.95653,-0.680264 -2.96616,-2.728135 5.40938,-5.56568 12.06636,-8.776097 18.22675,-8.790068 1.58516,-0.0041 11.22245,1.777607 30.65058,5.664951 15.58613,3.118613 28.39527,5.727056 28.46477,5.796563 0.0695,0.06945 -0.55313,0.329902 -1.38362,0.578672 -3.35223,1.004173 -10.36408,5.001849 -13.79812,7.866759 -0.96764,0.807291 -1.9907,1.35743 -2.48326,1.335373 -0.4607,-0.02065 -3.39184,-0.485271 -6.51366,-1.032516 z"
       id="path855" />
  </g>
</svg>
