<?xml version="1.0" encoding="UTF-8" standalone="no"?>
<svg
   aria-label="Linux"
   role="img"
   viewBox="0 0 366.35611 434.12234"
   fill="#333333"
   version="1.1"
   id="svg18"
   sodipodi:docname="linux.svg"
   width="366.35611"
   height="434.12234"
   inkscape:version="1.1.2 (0a00cf5339, 2022-02-04)"
   xmlns:inkscape="http://www.inkscape.org/namespaces/inkscape"
   xmlns:sodipodi="http://sodipodi.sourceforge.net/DTD/sodipodi-0.dtd"
   xmlns="http://www.w3.org/2000/svg"
   xmlns:svg="http://www.w3.org/2000/svg">
  <defs
     id="defs22" />
  <sodipodi:namedview
     id="namedview20"
     pagecolor="#ffffff"
     bordercolor="#666666"
     borderopacity="1.0"
     inkscape:pageshadow="2"
     inkscape:pageopacity="0.0"
     inkscape:pagecheckerboard="0"
     showgrid="false"
     fit-margin-top="0"
     fit-margin-left="0"
     fit-margin-right="0"
     fit-margin-bottom="0"
     inkscape:zoom="0.70214844"
     inkscape:cx="74.770514"
     inkscape:cy="217.19054"
     inkscape:window-width="1473"
     inkscape:window-height="1012"
     inkscape:window-x="26"
     inkscape:window-y="23"
     inkscape:window-maximized="0"
     inkscape:current-layer="svg18" />
  <path
     d="m 106.64425,176.55664 c -6.821058,15.91579 -54.568439,65.93686 -50.021069,115.95792 18.189478,209.17901 81.852649,68.21055 177.347419,120.5053 0,0 170.52636,-95.49476 34.10527,-250.10533 C 229.42323,108.3461 263.5285,65.146085 238.51796,28.767128 213.50743,-7.6118288 170.30742,-9.8855136 138.47583,24.219758 106.64425,58.32503 152.11794,108.3461 106.64425,176.55664"
     id="path4"
     style="stroke-width:2.27368;fill:#5c5c5c;fill-opacity:1" />
  <path
     d="m 274.89692,281.14614 c 0,0 20.46316,-40.92633 -18.18948,-70.48423 36.37896,38.65264 13.64211,72.75792 13.64211,72.75792 H 263.5285 C 261.25481,203.84086 240.79165,247.04087 211.23375,106.07241 245.33902,67.41977 179.40216,33.314498 179.40216,96.977672 H 158.939 C 161.21268,42.409237 113.4653,69.693454 140.74952,108.3461 138.47583,192.47243 88.454768,226.57771 88.454768,285.69351 72.538974,244.76718 102.09688,212.9356 102.09688,212.9356 c 0,0 -40.92633,34.10527 -15.915797,84.12633 25.010537,50.02107 70.484227,38.65265 38.652637,61.38949 50.02107,34.10528 127.32635,11.36843 125.05267,-61.38949 2.27368,-18.18947 50.02106,-11.36842 54.56843,-6.82105 4.54737,4.54737 -6.82105,-9.09474 -29.5579,-9.09474 M 147.57057,103.79873 c -15.91579,-4.547373 -11.36842,-25.010536 -4.54737,-25.010536 6.82106,0 18.18948,15.915793 4.54737,25.010536 m 43.20001,2.27368 c -11.36842,-15.915792 -2.27368,-31.831586 9.09474,-29.557901 11.36843,2.273685 11.36843,29.557901 -9.09474,29.557901"
     fill="#eeeeee"
     id="path6"
     style="stroke-width:2.27368" />
  <g
     fill="#ffcc22"
     stroke="#333333"
     stroke-width="1"
     id="g12"
     transform="matrix(2.2736848,0,0,2.2736848,179.40216,233.39876)">
    <path
       d="m -41,31 21,30 c 11,7 5,35 -25,21 -17,-5 -31,-4 -33,-13 -2,-9 4,-10 3,-14 -4,-22 14,-11 19,-22 5,-11 5,-16 15,-2 M 71,45 C 67,39 71,28 57,29 51,41 34,53 33,29 23,29 30,53 26,64 17,91 43,93 54,80 L 80,62 c 2,-3 5,-6 -9,-17 m -92,-92 c -3,-6 11,-14 16,-14 5,0 12,4 19,6 7,2 4,9 2,10 -2,1 -13,10 -21,10 -8,0 -10,-8 -16,-12"
       id="path8" />
    <path
       d="m -21,-48 c 8,6 17,11 35,-3"
       id="path10" />
  </g>
  <path
     d="m 156.66531,110.61978 c -4.54737,0 2.27369,-4.54737 4.54737,-2.27368 m 15.9158,2.27368 c 2.27368,-2.27368 -2.27369,-4.54737 -6.82106,-2.27368"
     id="path14"
     style="stroke-width:2.27368" />
</svg>
