<?xml version="1.0" encoding="UTF-8" standalone="no"?>
<svg
   fill="currentColor"
   width="111"
   height="32"
   viewBox="0 0 4950 1417"
   fill-rule="evenodd"
   clip-rule="evenodd"
   stroke-linejoin="round"
   stroke-miterlimit="2"
   version="1.1"
   id="svg6"
   sodipodi:docname="verus.svg"
   inkscape:version="1.1.2 (0a00cf5339, 2022-02-04)"
   xmlns:inkscape="http://www.inkscape.org/namespaces/inkscape"
   xmlns:sodipodi="http://sodipodi.sourceforge.net/DTD/sodipodi-0.dtd"
   xmlns="http://www.w3.org/2000/svg"
   xmlns:svg="http://www.w3.org/2000/svg">
  <defs
     id="defs10" />
  <sodipodi:namedview
     id="namedview8"
     pagecolor="#ffffff"
     bordercolor="#666666"
     borderopacity="1.0"
     inkscape:pageshadow="2"
     inkscape:pageopacity="0.0"
     inkscape:pagecheckerboard="0"
     showgrid="false"
     inkscape:zoom="12.144144"
     inkscape:cx="55.500001"
     inkscape:cy="15.974778"
     inkscape:window-width="2560"
     inkscape:window-height="1403"
     inkscape:window-x="0"
     inkscape:window-y="0"
     inkscape:window-maximized="1"
     inkscape:current-layer="svg6" />
  <ellipse
     style="opacity:1;fill:#ffffff;fill-opacity:1;stroke-width:856.555;stroke-linejoin:bevel"
     id="path4153"
     cx="699.99536"
     cy="694.00647"
     rx="624.37292"
     ry="611.96527" />
  <path
     d="m2176.14 1090.94 294.314-765.215h-123.612L2112.863 959.97l-235.451-634.245h-125.083l295.785 765.215h128.026zm328.41-379.804c0 224.239 152.762 379.805 374.198 379.805 165.376 0 260.677-89.696 301.321-158.369l-72.878-53.257c-35.037 49.053-103.71 113.521-227.042 113.521-151.361 0-260.677-98.104-262.079-260.677h584.422c1.402-14.015 1.402-29.432 1.402-33.636 0-218.633-131.74-372.797-346.168-372.797-193.406 0-353.176 152.763-353.176 385.41zm119.126-61.665c8.409-137.347 114.923-228.443 234.05-228.443 120.528 0 225.64 77.082 232.647 228.443h-466.697zM3647.73 304.893c-116.507 0-202.043 70.788-228.588 147.476V324.065H3304.11v766.876h116.506V723.725c0-163.699 51.617-302.326 227.114-302.326V304.893zm377.4 806.157c104.848 0 191.975-60.546 227.416-129.952v110.754h116.662V323.954h-118.139V790.6c0 126.998-81.22 214.125-199.358 214.125-103.371 0-181.637-73.836-181.637-196.404V323.954h-116.662V803.89c0 174.254 93.034 307.16 271.718 307.16zm422.77-175.997c32.235 68.673 100.908 155.566 253.67 155.566 141.551 0 248.064-86.893 248.064-215.83 0-253.67-367.19-192.005-367.19-355.979 0-63.067 53.256-100.908 120.528-100.908 93.9 0 131.74 54.659 151.361 93.9l81.287-46.249c-19.621-54.658-89.696-140.149-225.641-140.149-131.74 0-234.049 74.279-234.049 197.61 0 246.663 365.79 189.202 365.79 357.381 0 74.279-61.666 116.324-134.544 116.324-99.505 0-151.361-54.659-182.194-112.12l-77.082 50.454z"
     fill-rule="nonzero"
     id="path2"
     style="fill:#0a3fb1;fill-opacity:1" />
  <path
     d="M706.112 2.583c389.515 0 705.751 316.236 705.751 705.75 0 389.515-316.236 705.751-705.751 705.751-389.514 0-705.75-316.236-705.75-705.751 0-389.514 316.236-705.75 705.75-705.75zM360.104 257.87c26.652-22.821 64.047-41.568 96.557-28.367 58.458 23.737 215.52 340.387 215.52 340.387S891.874 257.773 970.78 229.312c26.919-9.71 63.823 7.368 91.97 28.411 98.786 73.854 108.992 176.891 100.453 205.476-10.736 35.937-556.441 728.342-556.442 728.342-16.319-6.656-339.656-606.781-357.178-709.466-16.745-98.131 40.226-164.807 110.521-224.205z"
     id="path4"
     style="fill:#0a3fb1;fill-opacity:1" />
</svg>
