<?xml version="1.0" encoding="UTF-8" standalone="no"?>
<!-- Created with Inkscape (http://www.inkscape.org/) -->

<svg
   version="1.1"
   id="svg2"
   width="487.22491"
   height="634.492"
   viewBox="0 0 487.22491 634.49202"
   sodipodi:docname="anchor.svg"
   inkscape:version="1.1.2 (0a00cf5339, 2022-02-04)"
   inkscape:export-filename="/home/orion/working/PIRATE/websites/pirate.black/pirate.black_JEKYLL/pirate.black/assets/img/keywords/anchor.png"
   inkscape:export-xdpi="15.8814"
   inkscape:export-ydpi="15.8814"
   xmlns:inkscape="http://www.inkscape.org/namespaces/inkscape"
   xmlns:sodipodi="http://sodipodi.sourceforge.net/DTD/sodipodi-0.dtd"
   xmlns:xlink="http://www.w3.org/1999/xlink"
   xmlns="http://www.w3.org/2000/svg"
   xmlns:svg="http://www.w3.org/2000/svg"
   xmlns:rdf="http://www.w3.org/1999/02/22-rdf-syntax-ns#"
   xmlns:cc="http://creativecommons.org/ns#"
   xmlns:dc="http://purl.org/dc/elements/1.1/">
  <metadata
     id="metadata8">
    <rdf:RDF>
      <cc:Work
         rdf:about="">
        <dc:format>image/svg+xml</dc:format>
        <dc:type
           rdf:resource="http://purl.org/dc/dcmitype/StillImage" />
      </cc:Work>
    </rdf:RDF>
  </metadata>
  <defs
     id="defs6">
    <linearGradient
       inkscape:collect="always"
       id="linearGradient946">
      <stop
         style="stop-color:#000000;stop-opacity:1;"
         offset="0"
         id="stop942" />
      <stop
         style="stop-color:#5c5d5b;stop-opacity:0.99827562"
         offset="1"
         id="stop944" />
    </linearGradient>
    <clipPath
       clipPathUnits="userSpaceOnUse"
       id="clipPath823">
      <ellipse
         style="opacity:1;fill:#ffffff;fill-opacity:1;stroke:none;stroke-width:1.14201;stroke-miterlimit:4;stroke-dasharray:none;stroke-opacity:1"
         id="ellipse825"
         cx="260.75424"
         cy="427.09747"
         rx="172.63728"
         ry="202.30933" />
    </clipPath>
    <linearGradient
       inkscape:collect="always"
       xlink:href="#linearGradient946"
       id="linearGradient948"
       x1="397.78018"
       y1="480.87079"
       x2="21.184788"
       y2="-69.932938"
       gradientUnits="userSpaceOnUse"
       gradientTransform="rotate(-6.3864266,694.49424,422.6514)" />
    <linearGradient
       inkscape:collect="always"
       xlink:href="#linearGradient946"
       id="linearGradient1550"
       x1="396.18091"
       y1="538.13251"
       x2="19.585524"
       y2="-12.671232"
       gradientUnits="userSpaceOnUse"
       gradientTransform="rotate(-6.3864266,180.50362,436.94927)" />
    <filter
       style="color-interpolation-filters:sRGB;"
       inkscape:label="Drop Shadow"
       id="filter1669"
       x="-0.020332296"
       y="-0.015715625"
       width="1.0656341"
       height="1.0465954">
      <feFlood
         flood-opacity="0.466667"
         flood-color="rgb(0,0,0)"
         result="flood"
         id="feFlood1659" />
      <feComposite
         in="flood"
         in2="SourceGraphic"
         operator="in"
         result="composite1"
         id="feComposite1661" />
      <feGaussianBlur
         in="composite1"
         stdDeviation="3.8"
         result="blur"
         id="feGaussianBlur1663" />
      <feOffset
         dx="11.2"
         dy="8.8"
         result="offset"
         id="feOffset1665" />
      <feComposite
         in="SourceGraphic"
         in2="offset"
         operator="over"
         result="composite2"
         id="feComposite1667" />
    </filter>
  </defs>
  <sodipodi:namedview
     pagecolor="#ffffff"
     bordercolor="#666666"
     borderopacity="1"
     objecttolerance="10"
     gridtolerance="10"
     guidetolerance="10"
     inkscape:pageopacity="0"
     inkscape:pageshadow="2"
     inkscape:window-width="2002"
     inkscape:window-height="1003"
     id="namedview4"
     showgrid="false"
     fit-margin-top="0"
     fit-margin-left="0"
     fit-margin-right="0"
     fit-margin-bottom="0"
     inkscape:zoom="1.5728294"
     inkscape:cx="368.76218"
     inkscape:cy="352.23146"
     inkscape:window-x="26"
     inkscape:window-y="23"
     inkscape:window-maximized="0"
     inkscape:current-layer="svg2"
     inkscape:pagecheckerboard="0"
     inkscape:snap-global="false" />
  <path
     style="fill:#bb9645;fill-opacity:1;stroke-width:1.00466"
     d="m 55.575879,344.33681 c -1.662861,-4.40043 -4.388306,-20.6117 -8.149227,-48.47265 -2.118241,-15.69187 -4.164183,-28.15796 -4.546549,-27.7024 -0.382387,0.45554 -6.582476,15.15331 -13.777995,32.6617 -11.922933,29.01132 -18.461084,46.5561 -18.244509,48.95823 0.04784,0.53184 9.63255,0.0395 22.813105,-1.17195 l 22.73041,-2.08911 z"
     id="path2570" />
  <path
     style="fill:url(#linearGradient1550);fill-opacity:1;stroke:#bb9645;stroke-width:28.7;stroke-miterlimit:4;stroke-dasharray:none;stroke-opacity:1"
     d="m 240.34801,598.77262 c -4.44805,-1.70292 -4.83365,-2.09752 -13.68242,-14.00185 -8.45272,-11.37152 -10.19988,-15.56924 -8.95118,-21.50605 0.74153,-3.52552 0.52774,-4.03298 -4.27063,-10.13696 l -5.05125,-6.42564 -5.19199,0.76476 c -4.61451,0.6797 -5.57686,0.45771 -8.65223,-1.99584 -2.54426,-2.02983 -3.72825,-3.93862 -4.47272,-7.21081 -0.91618,-4.02696 -0.53913,-5.66811 3.96442,-17.25481 2.7373,-7.04251 5.92347,-14.00428 7.08037,-15.4706 l 2.10348,-2.66603 -7.19302,-2.35007 c -3.95616,-1.29254 -22.74873,-6.87043 -41.76126,-12.39531 -19.01253,-5.52488 -37.15919,-10.9339 -40.3259,-12.02004 -10.64775,-3.65203 -34.763618,-18.21575 -50.795715,-30.67582 -8.612953,-6.69396 -17.600008,-15.09938 -18.790871,-17.57474 -0.725431,-1.5079 -3.165904,1.83652 -7.613563,10.43367 l -3.204373,6.19394 -2.652546,-4.53214 c -6.387894,-10.91436 -8.521128,-18.04805 -10.423174,-34.85596 -2.015287,-17.80831 -1.604711,-25.70459 2.289104,-44.02785 2.3087,-10.86414 8.676225,-30.61736 12.114291,-37.58073 l 1.840578,-3.72786 0.237099,5.99655 c 0.984836,24.90728 14.54144,49.45937 38.951157,70.54365 l 6.03488,5.21272 -3.657153,1.07452 c -5.854437,1.7201 -12.767086,5.08949 -12.64678,6.16435 0.193041,1.72468 9.754572,11.0604 18.206747,17.77676 21.231929,16.87154 42.246789,22.61702 70.859249,19.37298 20.78229,-2.35631 31.96791,-7.49295 40.80874,-18.74022 19.32364,-24.58348 21.36656,-90.16598 6.16019,-197.75695 -3.19143,-22.58069 -6.03055,-41.23786 -6.30913,-41.46036 -0.81556,-0.65136 -43.63985,6.606 -59.97334,10.16358 -8.23917,1.79457 -20.84634,4.9271 -28.01594,6.96119 -12.621434,3.58084 -13.114808,3.64924 -15.528313,2.15267 -3.485086,-2.16102 -7.041675,-9.55257 -7.714695,-16.0332 -0.660646,-6.36182 1.775253,-15.40619 5.006939,-18.59029 1.978757,-1.94961 2.599611,-2.04868 9.006911,-1.4371 18.527348,1.76844 57.516118,0.95247 81.210418,-1.69958 l 13.38651,-1.49833 -1.16909,-5.65505 c -0.643,-3.11028 -2.17145,-12.13685 -3.39655,-20.05904 l -2.22746,-14.40398 -5.76093,-3.50879 c -10.67348,-6.50086 -18.78082,-16.47524 -23.4211,-28.814716 -3.25106,-8.645263 -4.20595,-23.927011 -2.02966,-32.482148 3.55949,-13.992629 12.51371,-26.934442 23.73483,-34.304653 8.19613,-5.383351 14.97606,-7.736782 25.82681,-8.96491 16.54789,-1.873003 29.7557,2.120407 42.50615,12.851696 18.81655,15.836767 24.61652,37.282904 17.21134,63.641175 -0.90655,3.226813 -0.787,3.424955 5.68729,9.425876 3.63733,3.37138 6.66326,6.21734 6.7243,6.32435 0.0611,0.10702 2.02808,-0.72443 4.37121,-1.84765 8.92129,-4.27663 22.32658,-2.301 30.28761,4.46366 8.25997,7.01868 12.32693,18.5649 10.1502,28.81677 -0.62614,2.94899 -0.96473,5.49019 -0.75242,5.64712 0.2123,0.15693 6.97007,-1.45509 15.01724,-3.58225 l 14.63123,-3.86759 2.43665,1.9461 c 3.04487,2.43187 6.57643,10.62582 7.27689,16.88393 0.66677,5.95715 -1.72891,15.76711 -4.37028,17.89568 -1.69065,1.36241 -3.02021,1.51583 -8.60917,0.99339 -9.59049,-0.89644 -28.52061,-1.46095 -28.99683,-0.8647 -0.95646,1.19756 1.46454,4.32345 3.56897,4.60809 5.25722,0.71108 7.99283,4.61685 13.24888,18.91613 3.87265,10.53571 4.92323,14.49581 4.60572,17.36108 -0.54797,4.94511 -2.48398,8.56546 -5.74469,10.74262 -2.40992,1.60909 -2.70857,2.56317 -2.95785,9.44931 -0.36873,10.18563 -0.3743,10.15915 2.95286,14.04331 3.68202,4.29844 4.10639,8.00956 2.74095,23.96976 -1.36014,15.89816 -2.90626,18.81358 -12.13163,22.87584 -0.81394,0.35841 -2.80013,4.29612 -4.41376,8.75047 -2.50337,6.91045 -2.73231,8.43588 -1.56013,10.39585 3.07887,5.14812 2.49959,9.79539 -2.88636,23.1558 -5.62107,13.94364 -7.91872,17.12666 -14.04584,19.45813 -3.60641,1.37231 -4.46758,2.4249 -8.17036,9.98646 -4.04302,8.25636 -4.11024,8.584 -2.89741,14.12175 0.92066,4.20371 0.91913,6.51128 -0.006,8.92638 -1.47904,3.86148 -0.15258,7.43823 4.93651,13.3111 11.97682,13.82141 27.31416,18.64053 51.03147,16.0345 24.09533,-2.64754 40.94611,-10.77826 58.009,-27.99006 6.66041,-6.71854 19.02176,-24.08857 17.79811,-25.00973 -1.23752,-0.93158 -11.65515,-2.59244 -14.3612,-2.28955 -2.1233,0.23766 -1.62474,-0.77424 4.22547,-8.57613 16.70986,-22.28439 23.61158,-43.64535 22.07636,-68.32675 l -0.74588,-11.99145 6.99499,10.51857 c 21.29944,32.02859 30.43961,62.6326 26.98213,90.34416 -1.04893,8.40715 -3.62535,18.01392 -4.85869,18.11684 -0.38558,0.0322 -2.29512,-2.05008 -4.24342,-4.62723 -1.9483,-2.57714 -4.44505,-5.33574 -5.54831,-6.13022 -1.87014,-1.34673 -2.05773,-1.32159 -2.771,0.37143 -4.25207,10.09249 -30.47303,38.2178 -49.44459,53.03559 -4.58881,3.58411 -21.10619,13.05428 -46.80543,26.83572 -55.17083,29.58584 -69.4724,38.38824 -82.75353,50.93353 -2.96862,2.80415 -6.30759,6.9823 -7.41993,9.28478 l -2.02244,4.18631 -3.10893,-3.87108 c -3.6174,-4.50419 -12.28026,-9.95461 -24.21383,-15.23463 -9.24422,-4.09011 -10.05772,-4.26485 -9.81636,-2.1085 0.0897,0.80162 -2.12935,7.37605 -4.93128,14.60985 l -5.09442,13.15235 5.71168,7.18805 c 5.04596,6.35027 6.13189,7.20896 9.31701,7.3673 5.96468,0.29652 8.53644,2.36947 16.83067,13.56627 9.74416,13.15415 11.1042,16.04295 10.1157,21.48654 -1.44371,7.95041 -8.44494,12.11029 -15.70445,9.33102 z m 6.61233,-9.88878 c 2.51601,-2.84694 1.73197,-4.97989 -5.5044,-14.97465 -6.17804,-8.53301 -6.77306,-9.07968 -7.57066,-6.95551 -1.20938,3.22079 -4.64917,4.77284 -6.78946,3.06343 -1.47994,-1.18199 -1.66861,-1.16537 -1.52315,0.13416 0.18343,1.63879 11.21661,16.9849 13.9941,19.46448 2.20545,1.96888 5.27527,1.66497 7.39357,-0.73196 z m -47.25117,-53.17885 c -0.92124,-1.33834 -0.91652,-2.40025 0.0183,-4.1132 1.61254,-2.95491 4.7519,-3.30304 7.28123,-0.80793 1.96906,1.94275 1.99927,1.90841 5.27594,-5.99719 1.81261,-4.37263 3.26423,-8.23099 3.22588,-8.57364 -0.0384,-0.34265 -1.3566,-0.47897 -2.92944,-0.30292 -3.5761,0.40027 -5.71656,-1.53665 -5.14784,-4.65831 0.80405,-4.41331 -1.99311,0.36542 -6.27411,10.7188 -4.07973,9.86668 -4.59963,13.47062 -2.21767,15.37303 1.82125,1.4546 2.25689,0.52475 0.76774,-1.63864 z m 85.25705,-167.13577 c 4.41687,-8.88214 4.42936,-8.94117 2.67338,-12.62572 -2.46486,-5.17196 -1.99445,-7.82915 3.94225,-22.26846 5.42662,-13.19869 7.76555,-16.39336 13.28345,-18.14346 2.90749,-0.92216 3.65228,-1.99532 6.5304,-9.40951 3.04141,-7.83489 3.13994,-8.53138 1.54488,-10.9203 -2.34116,-3.50632 -2.78257,-8.95056 -1.80866,-22.3074 0.92042,-12.62344 2.41261,-16.93651 7.07068,-20.43741 3.01025,-2.26242 3.15012,-2.73897 3.57638,-12.18434 0.35245,-7.8099 0.16677,-10.00564 -0.9036,-10.6853 -3.0599,-1.94298 -5.33525,-6.08824 -9.62673,-17.53802 -4.99558,-13.32835 -5.51005,-17.98045 -2.55285,-23.08392 1.50646,-2.59978 1.60251,-3.74481 0.55878,-6.6611 -1.0747,-3.00286 -1.78016,-3.56762 -4.78866,-3.83359 -4.21004,-0.3722 -38.65697,1.43354 -48.62042,2.54873 l -7.0222,0.78598 1.43897,18.70603 c 4.83384,62.83803 9.65658,101.08983 17.04498,135.19299 4.70286,21.70738 10.71325,42.0694 12.36337,41.8847 0.4719,-0.0528 2.85491,-4.11178 5.2956,-9.0199 z m 23.51788,-27.85755 c 2.2009,-5.46333 3.9803,-10.12395 3.95422,-10.35694 -0.0261,-0.23298 -1.14403,-0.084 -2.48432,0.3312 -3.13975,0.97243 -5.90715,-0.85153 -5.68267,-3.74538 0.35493,-4.57526 -2.03584,-0.94137 -6.4804,9.85001 -2.4925,6.05179 -4.48796,11.39514 -4.43435,11.87411 0.0536,0.47896 1.38291,0.53275 2.95399,0.11953 2.03031,-0.534 3.42726,-0.2183 4.82977,1.09151 1.08528,1.01355 2.28125,1.60129 2.65769,1.30607 0.37645,-0.29521 2.48518,-5.00675 4.68608,-10.47006 z m 13.39362,-57.40246 c 1.26165,-0.14122 3.24332,0.55815 4.40372,1.55415 2.08946,1.79344 2.11683,1.72487 2.83833,-7.10984 0.40067,-4.90641 0.85746,-9.96829 1.01507,-11.24862 0.26538,-2.15588 0.11305,-2.22412 -2.06164,-0.92353 -3.03301,1.81391 -6.73036,0.48746 -7.06877,-2.53596 -0.15671,-1.40004 -0.54184,-1.77446 -1.1028,-1.0721 -1.01908,1.27596 -2.85603,19.91326 -2.33497,23.69012 0.3582,2.5962 0.36718,2.59817 1.18903,0.25927 0.50427,-1.43507 1.72522,-2.45715 3.12203,-2.61349 z m 1.51892,-65.07278 c 0.48585,-1.86425 5.47792,-2.62779 7.35884,-1.12554 2.54916,2.03596 1.44351,-2.1177 -5.09041,-19.12341 -1.39864,-3.6402 -1.46623,-3.67712 -2.67533,-1.46149 -1.50024,2.74911 -5.55804,3.41958 -7.16032,1.18311 -2.78596,-3.88866 -2.07325,0.72146 1.7107,11.06548 3.9976,10.92807 5.03683,12.60707 5.85652,9.46185 z M 271.0757,158.59049 c -0.0364,-0.32557 -1.03146,-1.68583 -2.21115,-3.02281 -3.72478,-4.22138 -5.49574,-9.42721 -5.86637,-17.24446 -0.28684,-6.0501 0.1142,-8.34146 2.24114,-12.80468 2.1782,-4.57079 2.36007,-5.67238 1.14267,-6.92133 -0.79631,-0.81695 -3.18138,-3.18411 -5.30015,-5.26034 l -3.85229,-3.77499 -5.05138,5.14975 c -2.77825,2.83236 -5.54274,5.40422 -6.1433,5.71525 -0.73473,0.38053 -0.63328,6.66402 0.31015,19.20887 0.77113,10.25386 1.26928,19.45064 1.10699,20.43731 -0.2693,1.63733 0.75198,1.67676 11.69744,0.45166 6.59588,-0.73827 11.96269,-1.60867 11.92625,-1.93423 z m 29.26121,-5.92824 c 0.6164,-0.61936 2.64732,-1.01295 4.51316,-0.87466 3.74041,0.27723 5.11191,-1.0181 7.30703,-6.90117 4.62423,-12.39333 -3.18472,-26.04737 -16.18414,-28.29817 -7.31757,-1.267 -12.46521,0.24235 -12.09538,3.5465 0.43185,3.85827 -2.82799,7.07421 -6.96347,6.86971 -3.31984,-0.16418 -3.57378,0.0529 -4.92756,4.21167 -2.71471,8.33954 -0.0626,17.08569 6.93901,22.8835 l 3.54815,2.93811 8.37123,-1.6247 c 4.60418,-0.89359 8.87556,-2.13144 9.49197,-2.75079 z m -75.6585,-45.11631 c 4.68989,-2.00405 12.89059,-8.990275 14.47866,-12.334461 0.63534,-1.337914 0.006,-2.526761 -2.75495,-5.203688 -4.21866,-4.090357 -4.39469,-4.821726 -2.06481,-8.579124 2.02098,-3.259226 5.0326,-3.967887 7.94614,-1.8698 1.1045,0.795368 2.27052,1.117668 2.59116,0.716221 1.40752,-1.76233 -1.18094,-15.26659 -3.95724,-20.645291 -3.46098,-6.705193 -11.97764,-13.979669 -19.51143,-16.665647 -7.30842,-2.605619 -21.91802,-1.119922 -28.57135,2.905502 -6.2563,3.78522 -13.00665,12.09297 -15.46406,19.031817 -1.79115,5.057613 -1.9503,7.166532 -1.12004,14.843088 0.83872,7.754971 1.40774,9.636464 4.268,14.112836 9.4903,14.852487 28.00518,20.591677 44.15992,13.688547 z"
     id="path904"
     inkscape:connector-curvature="0" />
  <path
     style="fill:url(#linearGradient948);fill-opacity:1"
     d="m 240.34801,598.77262 c -4.44805,-1.70292 -4.83365,-2.09752 -13.68242,-14.00185 -8.45272,-11.37152 -10.19988,-15.56924 -8.95118,-21.50605 0.74153,-3.52552 0.52774,-4.03298 -4.27063,-10.13696 l -5.05125,-6.42564 -5.19199,0.76476 c -4.61451,0.6797 -5.57686,0.45771 -8.65223,-1.99584 -2.54426,-2.02983 -3.72825,-3.93862 -4.47272,-7.21081 -0.91618,-4.02696 -0.53913,-5.66811 3.96442,-17.25481 2.7373,-7.04251 5.92347,-14.00428 7.08037,-15.4706 l 2.10348,-2.66603 -7.19302,-2.35007 c -3.95616,-1.29254 -22.74873,-6.87043 -41.76126,-12.39531 -19.01253,-5.52488 -37.15919,-10.9339 -40.3259,-12.02004 -10.64775,-3.65203 -34.763618,-18.21575 -50.795715,-30.67582 -8.612953,-6.69396 -17.600008,-15.09938 -18.790871,-17.57474 -0.725431,-1.5079 -3.165904,1.83652 -7.613563,10.43367 l -3.204373,6.19394 -2.652546,-4.53214 c -6.387894,-10.91436 -8.521128,-18.04805 -10.423174,-34.85596 -2.015287,-17.80831 -1.604711,-25.70459 2.289104,-44.02785 2.3087,-10.86414 8.676225,-30.61736 12.114291,-37.58073 l 1.840578,-3.72786 0.237099,5.99655 c 0.984836,24.90728 14.54144,49.45937 38.951157,70.54365 l 6.03488,5.21272 -3.657153,1.07452 c -5.854437,1.7201 -12.767086,5.08949 -12.64678,6.16435 0.193041,1.72468 9.754572,11.0604 18.206747,17.77676 21.231929,16.87154 42.246789,22.61702 70.859249,19.37298 20.78229,-2.35631 31.96791,-7.49295 40.80874,-18.74022 19.32364,-24.58348 21.36656,-90.16598 6.16019,-197.75695 -3.19143,-22.58069 -6.03055,-41.23786 -6.30913,-41.46036 -0.81556,-0.65136 -43.63985,6.606 -59.97334,10.16358 -8.23917,1.79457 -20.84634,4.9271 -28.01594,6.96119 -12.621434,3.58084 -13.114808,3.64924 -15.528313,2.15267 -3.485086,-2.16102 -7.041675,-9.55257 -7.714695,-16.0332 -0.660646,-6.36182 1.775253,-15.40619 5.006939,-18.59029 1.978757,-1.94961 2.599611,-2.04868 9.006911,-1.4371 18.527348,1.76844 57.516118,0.95247 81.210418,-1.69958 l 13.38651,-1.49833 -1.16909,-5.65505 c -0.643,-3.11028 -2.17145,-12.13685 -3.39655,-20.05904 l -2.22746,-14.40398 -5.76093,-3.50879 c -10.67348,-6.50086 -18.78082,-16.47524 -23.4211,-28.814716 -3.25106,-8.645263 -4.20595,-23.927011 -2.02966,-32.482148 3.55949,-13.992625 12.51371,-26.934438 23.73483,-34.304649 8.19613,-5.383352 14.97606,-7.736782 25.82681,-8.96491 16.54789,-1.873003 29.7557,2.120407 42.50615,12.851696 18.81655,15.836763 24.61652,37.2829 17.21134,63.641171 -0.90655,3.226813 -0.787,3.424955 5.68729,9.425876 3.63733,3.37138 6.66326,6.21734 6.7243,6.32435 0.0611,0.10702 2.02808,-0.72443 4.37121,-1.84765 8.92129,-4.27663 22.32658,-2.301 30.28761,4.46366 8.25997,7.01868 12.32693,18.5649 10.1502,28.81677 -0.62614,2.94899 -0.96473,5.49019 -0.75242,5.64712 0.2123,0.15693 6.97007,-1.45509 15.01724,-3.58225 l 14.63123,-3.86759 2.43665,1.9461 c 3.04487,2.43187 6.57643,10.62582 7.27689,16.88393 0.66677,5.95715 -1.72891,15.76711 -4.37028,17.89568 -1.69065,1.36241 -3.02021,1.51583 -8.60917,0.99339 -9.59049,-0.89644 -28.52061,-1.46095 -28.99683,-0.8647 -0.95646,1.19756 1.46454,4.32345 3.56897,4.60809 5.25722,0.71108 7.99283,4.61685 13.24888,18.91613 3.87265,10.53571 4.92323,14.49581 4.60572,17.36108 -0.54797,4.94511 -2.48398,8.56546 -5.74469,10.74262 -2.40992,1.60909 -2.70857,2.56317 -2.95785,9.44931 -0.36873,10.18563 -0.3743,10.15915 2.95286,14.04331 3.68202,4.29844 4.10639,8.00956 2.74095,23.96976 -1.36014,15.89816 -2.90626,18.81358 -12.13163,22.87584 -0.81394,0.35841 -2.80013,4.29612 -4.41376,8.75047 -2.50337,6.91045 -2.73231,8.43588 -1.56013,10.39585 3.07887,5.14812 2.49959,9.79539 -2.88636,23.1558 -5.62107,13.94364 -7.91872,17.12666 -14.04584,19.45813 -3.60641,1.37231 -4.46758,2.4249 -8.17036,9.98646 -4.04302,8.25636 -4.11024,8.584 -2.89741,14.12175 0.92066,4.20371 0.91913,6.51128 -0.006,8.92638 -1.47904,3.86148 -0.15258,7.43823 4.93651,13.3111 11.97682,13.82141 27.31416,18.64053 51.03147,16.0345 24.09533,-2.64754 40.94611,-10.77826 58.009,-27.99006 6.66041,-6.71854 19.02176,-24.08857 17.79811,-25.00973 -1.23752,-0.93158 -11.65515,-2.59244 -14.3612,-2.28955 -2.1233,0.23766 -1.62474,-0.77424 4.22547,-8.57613 16.70986,-22.28439 23.61158,-43.64535 22.07636,-68.32675 l -0.74588,-11.99145 6.99499,10.51857 c 21.29944,32.02859 30.43961,62.6326 26.98213,90.34416 -1.04893,8.40715 -3.62535,18.01392 -4.85869,18.11684 -0.38558,0.0322 -2.29512,-2.05008 -4.24342,-4.62723 -1.9483,-2.57714 -4.44505,-5.33574 -5.54831,-6.13022 -1.87014,-1.34673 -2.05773,-1.32159 -2.771,0.37143 -4.25207,10.09249 -30.47303,38.2178 -49.44459,53.03559 -4.58881,3.58411 -21.10619,13.05428 -46.80543,26.83572 -55.17083,29.58584 -69.4724,38.38824 -82.75353,50.93353 -2.96862,2.80415 -6.30759,6.9823 -7.41993,9.28478 l -2.02244,4.18631 -3.10893,-3.87108 c -3.6174,-4.50419 -12.28026,-9.95461 -24.21383,-15.23463 -9.24422,-4.09011 -10.05772,-4.26485 -9.81636,-2.1085 0.0897,0.80162 -2.12935,7.37605 -4.93128,14.60985 l -5.09442,13.15235 5.71168,7.18805 c 5.04596,6.35027 6.13189,7.20896 9.31701,7.3673 5.96468,0.29652 8.53644,2.36947 16.83067,13.56627 9.74416,13.15415 11.1042,16.04295 10.1157,21.48654 -1.44371,7.95041 -8.44494,12.11029 -15.70445,9.33102 z m 6.61233,-9.88878 c 2.51601,-2.84694 1.73197,-4.97989 -5.5044,-14.97465 -6.17804,-8.53301 -6.77306,-9.07968 -7.57066,-6.95551 -1.20938,3.22079 -4.64917,4.77284 -6.78946,3.06343 -1.47994,-1.18199 -1.66861,-1.16537 -1.52315,0.13416 0.18343,1.63879 11.21661,16.9849 13.9941,19.46448 2.20545,1.96888 5.27527,1.66497 7.39357,-0.73196 z m -47.25117,-53.17885 c -0.92124,-1.33834 -0.91652,-2.40025 0.0183,-4.1132 1.61254,-2.95491 4.7519,-3.30304 7.28123,-0.80793 1.96906,1.94275 1.99927,1.90841 5.27594,-5.99719 1.81261,-4.37263 3.26423,-8.23099 3.22588,-8.57364 -0.0384,-0.34265 -1.3566,-0.47897 -2.92944,-0.30292 -3.5761,0.40027 -5.71656,-1.53665 -5.14784,-4.65831 0.80405,-4.41331 -1.99311,0.36542 -6.27411,10.7188 -4.07973,9.86668 -4.59963,13.47062 -2.21767,15.37303 1.82125,1.4546 2.25689,0.52475 0.76774,-1.63864 z m 85.25705,-167.13577 c 4.41687,-8.88214 4.42936,-8.94117 2.67338,-12.62572 -2.46486,-5.17196 -1.99445,-7.82915 3.94225,-22.26846 5.42662,-13.19869 7.76555,-16.39336 13.28345,-18.14346 2.90749,-0.92216 3.65228,-1.99532 6.5304,-9.40951 3.04141,-7.83489 3.13994,-8.53138 1.54488,-10.9203 -2.34116,-3.50632 -2.78257,-8.95056 -1.80866,-22.3074 0.92042,-12.62344 2.41261,-16.93651 7.07068,-20.43741 3.01025,-2.26242 3.15012,-2.73897 3.57638,-12.18434 0.35245,-7.8099 0.16677,-10.00564 -0.9036,-10.6853 -3.0599,-1.94298 -5.33525,-6.08824 -9.62673,-17.53802 -4.99558,-13.32835 -5.51005,-17.98045 -2.55285,-23.08392 1.50646,-2.59978 1.60251,-3.74481 0.55878,-6.6611 -1.0747,-3.00286 -1.78016,-3.56762 -4.78866,-3.83359 -4.21004,-0.3722 -38.65697,1.43354 -48.62042,2.54873 l -7.0222,0.78598 1.43897,18.70603 c 4.83384,62.83803 9.65658,101.08983 17.04498,135.19299 4.70286,21.70738 10.71325,42.0694 12.36337,41.8847 0.4719,-0.0528 2.85491,-4.11178 5.2956,-9.0199 z m 23.51788,-27.85755 c 2.2009,-5.46333 3.9803,-10.12395 3.95422,-10.35694 -0.0261,-0.23298 -1.14403,-0.084 -2.48432,0.3312 -3.13975,0.97243 -5.90715,-0.85153 -5.68267,-3.74538 0.35493,-4.57526 -2.03584,-0.94137 -6.4804,9.85001 -2.4925,6.05179 -4.48796,11.39514 -4.43435,11.87411 0.0536,0.47896 1.38291,0.53275 2.95399,0.11953 2.03031,-0.534 3.42726,-0.2183 4.82977,1.09151 1.08528,1.01355 2.28125,1.60129 2.65769,1.30607 0.37645,-0.29521 2.48518,-5.00675 4.68608,-10.47006 z m 13.39362,-57.40246 c 1.26165,-0.14122 3.24332,0.55815 4.40372,1.55415 2.08946,1.79344 2.11683,1.72487 2.83833,-7.10984 0.40067,-4.90641 0.85746,-9.96829 1.01507,-11.24862 0.26538,-2.15588 0.11305,-2.22412 -2.06164,-0.92353 -3.03301,1.81391 -6.73036,0.48746 -7.06877,-2.53596 -0.15671,-1.40004 -0.54184,-1.77446 -1.1028,-1.0721 -1.01908,1.27596 -2.85603,19.91326 -2.33497,23.69012 0.3582,2.5962 0.36718,2.59817 1.18903,0.25927 0.50427,-1.43507 1.72522,-2.45715 3.12203,-2.61349 z m 1.51892,-65.07278 c 0.48585,-1.86425 5.47792,-2.62779 7.35884,-1.12554 2.54916,2.03596 1.44351,-2.1177 -5.09041,-19.12341 -1.39864,-3.6402 -1.46623,-3.67712 -2.67533,-1.46149 -1.50024,2.74911 -5.55804,3.41958 -7.16032,1.18311 -2.78596,-3.88866 -2.07325,0.72146 1.7107,11.06548 3.9976,10.92807 5.03683,12.60707 5.85652,9.46185 z M 271.0757,158.59049 c -0.0364,-0.32557 -1.03146,-1.68583 -2.21115,-3.02281 -3.72478,-4.22138 -5.49574,-9.42721 -5.86637,-17.24446 -0.28684,-6.0501 0.1142,-8.34146 2.24114,-12.80468 2.1782,-4.57079 2.36007,-5.67238 1.14267,-6.92133 -0.79631,-0.81695 -3.18138,-3.18411 -5.30015,-5.26034 l -3.85229,-3.77499 -5.05138,5.14975 c -2.77825,2.83236 -5.54274,5.40422 -6.1433,5.71525 -0.73473,0.38053 -0.63328,6.66402 0.31015,19.20887 0.77113,10.25386 1.26928,19.45064 1.10699,20.43731 -0.2693,1.63733 0.75198,1.67676 11.69744,0.45166 6.59588,-0.73827 11.96269,-1.60867 11.92625,-1.93423 z m 29.26121,-5.92824 c 0.6164,-0.61936 2.64732,-1.01295 4.51316,-0.87466 3.74041,0.27723 5.11191,-1.0181 7.30703,-6.90117 4.62423,-12.39333 -3.18472,-26.04737 -16.18414,-28.29817 -7.31757,-1.267 -12.46521,0.24235 -12.09538,3.5465 0.43185,3.85827 -2.82799,7.07421 -6.96347,6.86971 -3.31984,-0.16418 -3.57378,0.0529 -4.92756,4.21167 -2.71471,8.33954 -0.0626,17.08569 6.93901,22.8835 l 3.54815,2.93811 8.37123,-1.6247 c 4.60418,-0.89359 8.87556,-2.13144 9.49197,-2.75079 z m -75.6585,-45.11631 c 4.68989,-2.00405 12.89059,-8.990275 14.47866,-12.334461 0.63534,-1.337914 0.006,-2.526761 -2.75495,-5.203688 -4.21866,-4.090357 -4.39469,-4.821726 -2.06481,-8.579124 2.02098,-3.259226 5.0326,-3.967887 7.94614,-1.8698 1.1045,0.795368 2.27052,1.117668 2.59116,0.716221 1.40752,-1.76233 -1.18094,-15.26659 -3.95724,-20.645291 -3.46098,-6.705193 -11.97764,-13.979665 -19.51143,-16.665643 -7.30841,-2.605619 -21.91802,-1.119922 -28.57135,2.905502 -6.2563,3.78522 -13.00665,12.092966 -15.46406,19.031813 -1.79115,5.057613 -1.9503,7.166532 -1.12004,14.843088 0.83872,7.754971 1.40774,9.636464 4.268,14.112836 9.4903,14.852487 28.00518,20.591677 44.15992,13.688547 z"
     id="path838"
     inkscape:connector-curvature="0" />
</svg>
