<?xml version="1.0" encoding="UTF-8" standalone="no"?>
<!-- Created with Inkscape (http://www.inkscape.org/) -->

<svg
   width="55.768002mm"
   height="59.530468mm"
   viewBox="0 0 55.768002 59.530468"
   version="1.1"
   id="svg5"
   inkscape:version="1.1.2 (0a00cf5339, 2022-02-04)"
   sodipodi:docname="decentralized.svg"
   xmlns:inkscape="http://www.inkscape.org/namespaces/inkscape"
   xmlns:sodipodi="http://sodipodi.sourceforge.net/DTD/sodipodi-0.dtd"
   xmlns:xlink="http://www.w3.org/1999/xlink"
   xmlns="http://www.w3.org/2000/svg"
   xmlns:svg="http://www.w3.org/2000/svg">
  <sodipodi:namedview
     id="namedview7"
     pagecolor="#ffffff"
     bordercolor="#666666"
     borderopacity="1.0"
     inkscape:pageshadow="2"
     inkscape:pageopacity="0.0"
     inkscape:pagecheckerboard="0"
     inkscape:document-units="mm"
     showgrid="false"
     fit-margin-top="0"
     fit-margin-left="0"
     fit-margin-right="0"
     fit-margin-bottom="0"
     inkscape:zoom="1.2810466"
     inkscape:cx="-214.66823"
     inkscape:cy="154.17082"
     inkscape:window-width="2224"
     inkscape:window-height="1012"
     inkscape:window-x="26"
     inkscape:window-y="23"
     inkscape:window-maximized="0"
     inkscape:current-layer="layer1"
     inkscape:snap-global="false" />
  <defs
     id="defs2">
    <linearGradient
       inkscape:collect="always"
       id="linearGradient1226">
      <stop
         style="stop-color:#000000;stop-opacity:1;"
         offset="0"
         id="stop1222" />
      <stop
         style="stop-color:#5a5b5b;stop-opacity:0.99921875"
         offset="1"
         id="stop1224" />
    </linearGradient>
    <linearGradient
       inkscape:collect="always"
       xlink:href="#linearGradient1226"
       id="linearGradient1228"
       x1="395.29016"
       y1="56.133972"
       x2="350.36362"
       y2="-47.38456"
       gradientUnits="userSpaceOnUse" />
    <filter
       style="color-interpolation-filters:sRGB;"
       inkscape:label="Drop Shadow"
       id="filter2521"
       x="-0.24826243"
       y="-0.23130707"
       width="1.5918544"
       height="1.5476535">
      <feFlood
         flood-opacity="0.380392"
         flood-color="rgb(0,0,0)"
         result="flood"
         id="feFlood2511" />
      <feComposite
         in="flood"
         in2="SourceGraphic"
         operator="in"
         result="composite1"
         id="feComposite2513" />
      <feGaussianBlur
         in="composite1"
         stdDeviation="5.1"
         result="blur"
         id="feGaussianBlur2515" />
      <feOffset
         dx="4.7"
         dy="4.5"
         result="offset"
         id="feOffset2517" />
      <feComposite
         in="SourceGraphic"
         in2="offset"
         operator="over"
         result="composite2"
         id="feComposite2519" />
    </filter>
    <filter
       style="color-interpolation-filters:sRGB;"
       inkscape:label="Drop Shadow"
       id="filter2681"
       x="-0.024339455"
       y="-0.022677164"
       width="1.105471"
       height="1.0982677">
      <feFlood
         flood-opacity="0.407843"
         flood-color="rgb(0,0,0)"
         result="flood"
         id="feFlood2671" />
      <feComposite
         in="flood"
         in2="SourceGraphic"
         operator="in"
         result="composite1"
         id="feComposite2673" />
      <feGaussianBlur
         in="composite1"
         stdDeviation="0.5"
         result="blur"
         id="feGaussianBlur2675" />
      <feOffset
         dx="1.4"
         dy="1.4"
         result="offset"
         id="feOffset2677" />
      <feComposite
         in="SourceGraphic"
         in2="offset"
         operator="over"
         result="fbSourceGraphic"
         id="feComposite2679" />
      <feColorMatrix
         result="fbSourceGraphicAlpha"
         in="fbSourceGraphic"
         values="0 0 0 -1 0 0 0 0 -1 0 0 0 0 -1 0 0 0 0 1 0"
         id="feColorMatrix6357" />
      <feFlood
         id="feFlood6359"
         flood-opacity="0.211765"
         flood-color="rgb(0,0,0)"
         result="flood"
         in="fbSourceGraphic" />
      <feComposite
         in2="fbSourceGraphic"
         id="feComposite6361"
         in="flood"
         operator="in"
         result="composite1" />
      <feGaussianBlur
         id="feGaussianBlur6363"
         in="composite1"
         stdDeviation="2.77556e-17"
         result="blur" />
      <feOffset
         id="feOffset6365"
         dx="1.4"
         dy="1.4"
         result="offset" />
      <feComposite
         in2="offset"
         id="feComposite6367"
         in="fbSourceGraphic"
         operator="over"
         result="composite2" />
    </filter>
  </defs>
  <g
     inkscape:label="Layer 1"
     inkscape:groupmode="layer"
     id="layer1"
     transform="translate(-341.81064,1.9642516)">
    <rect
       style="opacity:0.998635;fill:#bb9645;fill-opacity:1;stroke-width:3.50994;stroke-linejoin:bevel"
       id="rect2723"
       width="3.8493898"
       height="7.4589615"
       x="371.39261"
       y="-105.07294"
       transform="matrix(0.94155683,0.33685419,-0.20884471,0.97794882,0,0)" />
    <path
       id="path1044"
       style="fill:#000000;fill-opacity:1;stroke:#bb9645;stroke-width:3.166;stroke-miterlimit:4;stroke-dasharray:none;stroke-opacity:1"
       d="m 350.84216,1.3187744 c -0.38139,-3.47e-4 -0.76201,0.032646 -1.01636,0.098896 -1.30582,0.3401218 -2.42321,1.4106074 -2.82933,2.710784 -0.2006,0.6421663 -0.19965,1.663474 0.002,2.3173977 0.33388,1.0824191 1.14455,2.0113355 2.16575,2.4818369 0.67211,0.3096575 1.40982,0.4100275 2.31662,0.3150447 l 0.46333,-0.048478 1.62163,2.6582973 c 0.8919,1.462128 1.90854,3.122226 2.25923,3.689014 0.58785,0.950081 5.75741,9.365999 7.3333,11.93849 0.66363,1.08332 0.67812,1.115437 0.56222,1.243503 -0.0654,0.07231 -0.15623,0.122928 -0.2018,0.112471 -0.0776,-0.01779 -1.10311,-0.806503 -3.16596,-2.43491 -0.48423,-0.382243 -1.24134,-0.972947 -1.68253,-1.312666 -0.47588,-0.366438 -0.80053,-0.662579 -0.79828,-0.728081 0.002,-0.06073 0.0294,-0.259328 0.0604,-0.441348 0.09,-0.527983 -0.028,-1.252627 -0.29112,-1.787109 -0.69448,-1.410907 -2.30504,-2.084909 -3.79024,-1.586342 -0.59336,0.199184 -0.95477,0.43535 -1.3658,0.892519 -0.93878,1.044146 -1.03783,2.632098 -0.2389,3.828503 0.83303,1.247475 2.38719,1.696551 3.8404,1.109574 l 0.41135,-0.166249 1.49585,1.175376 c 0.8227,0.646438 1.78194,1.396778 2.13163,1.667528 0.34969,0.27075 0.95106,0.737655 1.33645,1.037438 l 0.70081,0.545027 -0.25972,0.554076 c -0.44039,0.939776 -0.5998,1.642874 -0.63991,2.823512 -0.027,0.793468 -0.01,1.15757 0.0746,1.606769 0.12684,0.673259 0.43313,1.585671 0.69874,2.081341 l 0.18513,0.345425 -2.28392,1.838818 c -1.25616,1.011328 -3.27071,2.636311 -4.47682,3.61119 -1.20612,0.974879 -2.25704,1.81783 -2.33537,1.873206 -0.13247,0.09365 -0.16829,0.08415 -0.51284,-0.136256 -0.47982,-0.306944 -1.21262,-0.593353 -1.78517,-0.697702 -0.56914,-0.10373 -1.72605,-0.05056 -2.22587,0.102257 -2.13797,0.653676 -3.50802,2.501264 -3.50802,4.730848 0,1.442017 0.50889,2.592167 1.59681,3.608734 0.66262,0.619155 1.4471,1.008847 2.40763,1.19593 0.49844,0.09709 1.39832,0.0778 1.93009,-0.04137 0.73349,-0.164383 1.70709,-0.67079 2.24384,-1.167103 0.65001,-0.601043 1.20238,-1.52868 1.42656,-2.395738 0.24937,-0.96451 0.13709,-2.392197 -0.24653,-3.134033 -0.0559,-0.108169 -0.0921,-0.204279 -0.0803,-0.213435 0.0799,-0.06212 3.45724,-2.776482 4.62161,-3.714351 0.78269,-0.630434 2.14796,-1.730054 3.03397,-2.443571 l 1.61091,-1.297283 0.24872,0.224681 c 1.34334,1.213626 3.5672,1.907076 5.4619,1.70308 2.22212,-0.239247 4.05227,-1.283275 5.33069,-3.040955 0.19135,-0.263087 0.38147,-0.464948 0.42248,-0.448587 0.10499,0.04192 3.00028,1.24916 4.54236,1.89402 0.70988,0.296852 1.55876,0.654399 1.88639,0.794658 0.32764,0.140257 1.32544,0.559388 2.21734,0.931432 0.8919,0.372044 1.97906,0.829969 2.41591,1.01753 l 0.79427,0.34103 0.0434,0.329265 c 0.21172,1.606292 1.66847,2.696227 3.24288,2.426248 1.40852,-0.241533 2.37534,-1.377301 2.37143,-2.785764 -0.004,-1.410972 -0.96998,-2.548915 -2.37286,-2.795201 -0.71543,-0.1256 -1.68331,0.134415 -2.26659,0.608889 l -0.1731,0.140781 -2.17661,-0.909972 c -1.19717,-0.500463 -2.45958,-1.02806 -2.80542,-1.172402 -0.63374,-0.264501 -1.07818,-0.45097 -2.71376,-1.138791 -0.49145,-0.206675 -1.13183,-0.475 -1.42306,-0.59622 -1.47789,-0.615137 -2.77043,-1.160954 -2.78421,-1.175763 -0.009,-0.0091 0.0251,-0.225171 0.0747,-0.480001 0.13919,-0.715151 0.12026,-2.039217 -0.0403,-2.827261 -0.0744,-0.365127 -0.12616,-0.672891 -0.11505,-0.683998 0.0189,-0.01893 0.42532,-0.212903 2.20298,-1.05153 0.40045,-0.188914 1.14508,-0.543434 1.65473,-0.787807 0.50966,-0.244372 1.73085,-0.828123 2.71376,-1.297153 l 1.78711,-0.852703 0.35758,0.396618 c 0.67581,0.749496 1.65111,1.363591 2.62093,1.650464 0.58561,0.173221 1.93978,0.24172 2.5788,0.130439 1.10753,-0.192868 2.11651,-0.716549 2.95305,-1.532951 3.16387,-3.087749 1.71892,-8.413714 -2.58643,-9.533314 -0.77311,-0.20105 -1.98718,-0.200483 -2.74685,0.0013 -1.08162,0.28729 -2.01305,0.84728 -2.77115,1.666106 -1.06206,1.147111 -1.55997,2.530462 -1.47465,4.097008 0.0229,0.419467 0.0601,0.843532 0.0826,0.94242 0.0392,0.172172 0.0146,0.192146 -0.57864,0.471857 -0.34075,0.16065 -0.94713,0.447794 -1.34757,0.637976 -0.40045,0.190182 -0.96637,0.458669 -1.2576,0.596737 -0.29123,0.138071 -1.57199,0.747644 -2.84613,1.354552 l -2.31663,1.103498 -0.19856,-0.252217 c -0.53265,-0.676463 -1.44658,-1.517741 -2.00235,-1.843214 -0.009,-0.0054 0.34251,-0.826314 0.78147,-1.82434 0.43896,-0.998022 1.04698,-2.380562 1.35119,-3.07224 0.3042,-0.691677 0.72245,-1.644801 0.92936,-2.118054 0.20691,-0.473253 0.47486,-1.083848 0.59545,-1.356879 0.12057,-0.27303 0.48768,-1.107014 0.81585,-1.853297 0.32817,-0.746284 0.83285,-1.893012 1.12147,-2.548285 l 0.52473,-1.191405 0.72136,-0.04292 c 0.95955,-0.05709 1.52961,-0.257166 2.25108,-0.790005 0.49147,-0.362976 0.85756,-0.815645 1.14642,-1.417509 0.32821,-0.683863 0.41208,-1.052502 0.41058,-1.804044 -0.002,-1.154614 -0.42078,-2.1006848 -1.28552,-2.9067654 -0.52007,-0.4847884 -1.20319,-0.8395696 -1.88833,-0.9808155 -0.77718,-0.1602189 -1.41569,-0.1082354 -2.22096,0.1811155 -1.15667,0.4156165 -2.13315,1.5022329 -2.45611,2.7328901 -0.12147,0.4628644 -0.13955,1.4473113 -0.0352,1.9179353 0.11701,0.527491 0.55687,1.352762 0.95885,1.799002 l 0.36908,0.409675 -0.2601,0.583163 c -0.24885,0.557957 -0.55395,1.250656 -2.28263,5.183183 -3.41519,7.769121 -3.59816,8.173692 -3.68849,8.151226 -0.42483,-0.105616 -1.32706,-0.208063 -1.83469,-0.208263 -0.8017,-3.27e-4 -1.41124,0.09348 -2.24694,0.345684 -0.37336,0.112678 -0.68842,0.192689 -0.70003,0.177754 -0.034,-0.04382 -0.99041,-1.595604 -2.34221,-3.800062 -2.13504,-3.481694 -6.17867,-10.064643 -7.82649,-12.741422 -0.8628,-1.4015558 -1.60477,-2.6157564 -1.64892,-2.6982433 -0.0711,-0.1328345 -0.0499,-0.192467 0.1859,-0.521757 0.14643,-0.2044797 0.36273,-0.6135692 0.48065,-0.9090676 0.201,-0.5036692 0.21454,-0.5890142 0.21654,-1.3646351 0.002,-0.6997491 -0.0225,-0.9026187 -0.15772,-1.3155105 -0.415,-1.2670388 -1.49431,-2.288106 -2.76728,-2.6179639 -0.25746,-0.066716 -0.63963,-0.1003588 -1.02102,-0.1007059 z M 368.4547,29.830161 c 1.20166,-0.05467 2.43502,0.373448 3.37939,1.336066 0.72253,0.736477 1.11552,1.545097 1.25863,2.589394 0.28798,2.101345 -1.06647,4.178902 -3.14502,4.824055 -0.59423,0.184441 -1.62728,0.233662 -2.19316,0.104455 -0.97652,-0.222971 -1.68747,-0.638905 -2.40596,-1.407684 -0.78661,-0.841694 -1.19715,-1.939478 -1.15869,-3.098095 0.0257,-0.774757 0.11528,-1.128822 0.46849,-1.853297 0.75876,-1.556277 2.25132,-2.424601 3.79632,-2.494894 z m 0.24471,2.191225 c -0.87064,-0.01195 -1.73511,0.468923 -2.12878,1.343434 -0.15416,0.342445 -0.18677,0.504592 -0.18357,0.912816 0.004,0.559006 0.11516,0.918653 0.41898,1.360241 0.2428,0.352893 0.80122,0.743474 1.24079,0.867698 0.74309,0.209996 1.65489,-0.03985 2.22445,-0.609406 0.92213,-0.922126 0.87733,-2.422275 -0.0985,-3.299635 -0.42641,-0.383383 -0.95097,-0.56798 -1.47336,-0.575148 z" />
    <path
       id="path1190"
       style="fill:url(#linearGradient1228);fill-opacity:1;stroke:none;stroke-width:7.266;stroke-miterlimit:4;stroke-dasharray:none;stroke-opacity:1"
       d="m 350.84216,1.3187744 c -0.38139,-3.47e-4 -0.76201,0.032646 -1.01636,0.098896 -1.30582,0.3401218 -2.42321,1.4106074 -2.82933,2.710784 -0.2006,0.6421663 -0.19965,1.663474 0.002,2.3173977 0.33388,1.0824191 1.14455,2.0113355 2.16575,2.4818369 0.67211,0.3096575 1.40982,0.4100275 2.31662,0.3150447 l 0.46333,-0.048478 1.62163,2.6582973 c 0.8919,1.462128 1.90854,3.122226 2.25923,3.689014 0.58785,0.950081 5.75741,9.365999 7.3333,11.93849 0.66363,1.08332 0.67812,1.115437 0.56222,1.243503 -0.0654,0.07231 -0.15623,0.122928 -0.2018,0.112471 -0.0776,-0.01779 -1.10311,-0.806503 -3.16596,-2.43491 -0.48423,-0.382243 -1.24134,-0.972947 -1.68253,-1.312666 -0.47588,-0.366438 -0.80053,-0.662579 -0.79828,-0.728081 0.002,-0.06073 0.0294,-0.259328 0.0604,-0.441348 0.09,-0.527983 -0.028,-1.252627 -0.29112,-1.787109 -0.69448,-1.410907 -2.30504,-2.084909 -3.79024,-1.586342 -0.59336,0.199184 -0.95477,0.43535 -1.3658,0.892519 -0.93878,1.044146 -1.03783,2.632098 -0.2389,3.828503 0.83303,1.247475 2.38719,1.696551 3.8404,1.109574 l 0.41135,-0.166249 1.49585,1.175376 c 0.8227,0.646438 1.78194,1.396778 2.13163,1.667528 0.34969,0.27075 0.95106,0.737655 1.33645,1.037438 l 0.70081,0.545027 -0.25972,0.554076 c -0.44039,0.939776 -0.5998,1.642874 -0.63991,2.823512 -0.027,0.793468 -0.01,1.15757 0.0746,1.606769 0.12684,0.673259 0.43313,1.585671 0.69874,2.081341 l 0.18513,0.345425 -2.28392,1.838818 c -1.25616,1.011328 -3.27071,2.636311 -4.47682,3.61119 -1.20612,0.974879 -2.25704,1.81783 -2.33537,1.873206 -0.13247,0.09365 -0.16829,0.08415 -0.51284,-0.136256 -0.47982,-0.306944 -1.21262,-0.593353 -1.78517,-0.697702 -0.56914,-0.10373 -1.72605,-0.05056 -2.22587,0.102257 -2.13797,0.653676 -3.50802,2.501264 -3.50802,4.730848 0,1.442017 0.50889,2.592167 1.59681,3.608734 0.66262,0.619155 1.4471,1.008847 2.40763,1.19593 0.49844,0.09709 1.39832,0.0778 1.93009,-0.04137 0.73349,-0.164383 1.70709,-0.67079 2.24384,-1.167103 0.65001,-0.601043 1.20238,-1.52868 1.42656,-2.395738 0.24937,-0.96451 0.13709,-2.392197 -0.24653,-3.134033 -0.0559,-0.108169 -0.0921,-0.204279 -0.0803,-0.213435 0.0799,-0.06212 3.45724,-2.776482 4.62161,-3.714351 0.78269,-0.630434 2.14796,-1.730054 3.03397,-2.443571 l 1.61091,-1.297283 0.24872,0.224681 c 1.34334,1.213626 3.5672,1.907076 5.4619,1.70308 2.22212,-0.239247 4.05227,-1.283275 5.33069,-3.040955 0.19135,-0.263087 0.38147,-0.464948 0.42248,-0.448587 0.10499,0.04192 3.00028,1.24916 4.54236,1.89402 0.70988,0.296852 1.55876,0.654399 1.88639,0.794658 0.32764,0.140257 1.32544,0.559388 2.21734,0.931432 0.8919,0.372044 1.97906,0.829969 2.41591,1.01753 l 0.79427,0.34103 0.0434,0.329265 c 0.21172,1.606292 1.66847,2.696227 3.24288,2.426248 1.40852,-0.241533 2.37534,-1.377301 2.37143,-2.785764 -0.004,-1.410972 -0.96998,-2.548915 -2.37286,-2.795201 -0.71543,-0.1256 -1.68331,0.134415 -2.26659,0.608889 l -0.1731,0.140781 -2.17661,-0.909972 c -1.19717,-0.500463 -2.45958,-1.02806 -2.80542,-1.172402 -0.63374,-0.264501 -1.07818,-0.45097 -2.71376,-1.138791 -0.49145,-0.206675 -1.13183,-0.475 -1.42306,-0.59622 -1.47789,-0.615137 -2.77043,-1.160954 -2.78421,-1.175763 -0.009,-0.0091 0.0251,-0.225171 0.0747,-0.480001 0.13919,-0.715151 0.12026,-2.039217 -0.0403,-2.827261 -0.0744,-0.365127 -0.12616,-0.672891 -0.11505,-0.683998 0.0189,-0.01893 0.42532,-0.212903 2.20298,-1.05153 0.40045,-0.188914 1.14508,-0.543434 1.65473,-0.787807 0.50966,-0.244372 1.73085,-0.828123 2.71376,-1.297153 l 1.78711,-0.852703 0.35758,0.396618 c 0.67581,0.749496 1.65111,1.363591 2.62093,1.650464 0.58561,0.173221 1.93978,0.24172 2.5788,0.130439 1.10753,-0.192868 2.11651,-0.716549 2.95305,-1.532951 3.16387,-3.087749 1.71892,-8.413714 -2.58643,-9.533314 -0.77311,-0.20105 -1.98718,-0.200483 -2.74685,0.0013 -1.08162,0.28729 -2.01305,0.84728 -2.77115,1.666106 -1.06206,1.147111 -1.55997,2.530462 -1.47465,4.097008 0.0229,0.419467 0.0601,0.843532 0.0826,0.94242 0.0392,0.172172 0.0146,0.192146 -0.57864,0.471857 -0.34075,0.16065 -0.94713,0.447794 -1.34757,0.637976 -0.40045,0.190182 -0.96637,0.458669 -1.2576,0.596737 -0.29123,0.138071 -1.57199,0.747644 -2.84613,1.354552 l -2.31663,1.103498 -0.19856,-0.252217 c -0.53265,-0.676463 -1.44658,-1.517741 -2.00235,-1.843214 -0.009,-0.0054 0.34251,-0.826314 0.78147,-1.82434 0.43896,-0.998022 1.04698,-2.380562 1.35119,-3.07224 0.3042,-0.691677 0.72245,-1.644801 0.92936,-2.118054 0.20691,-0.473253 0.47486,-1.083848 0.59545,-1.356879 0.12057,-0.27303 0.48768,-1.107014 0.81585,-1.853297 0.32817,-0.746284 0.83285,-1.893012 1.12147,-2.548285 l 0.52473,-1.191405 0.72136,-0.04292 c 0.95955,-0.05709 1.52961,-0.257166 2.25108,-0.790005 0.49147,-0.362976 0.85756,-0.815645 1.14642,-1.417509 0.32821,-0.683863 0.41208,-1.052502 0.41058,-1.804044 -0.002,-1.154614 -0.42078,-2.1006848 -1.28552,-2.9067654 -0.52007,-0.4847884 -1.20319,-0.8395696 -1.88833,-0.9808155 -0.77718,-0.1602189 -1.41569,-0.1082354 -2.22096,0.1811155 -1.15667,0.4156165 -2.13315,1.5022329 -2.45611,2.7328901 -0.12147,0.4628644 -0.13955,1.4473113 -0.0352,1.9179353 0.11701,0.527491 0.55687,1.352762 0.95885,1.799002 l 0.36908,0.409675 -0.2601,0.583163 c -0.24885,0.557957 -0.55395,1.250656 -2.28263,5.183183 -3.41519,7.769121 -3.59816,8.173692 -3.68849,8.151226 -0.42483,-0.105616 -1.32706,-0.208063 -1.83469,-0.208263 -0.8017,-3.27e-4 -1.41124,0.09348 -2.24694,0.345684 -0.37336,0.112678 -0.68842,0.192689 -0.70003,0.177754 -0.034,-0.04382 -0.99041,-1.595604 -2.34221,-3.800062 -2.13504,-3.481694 -6.17867,-10.064643 -7.82649,-12.741422 -0.8628,-1.4015558 -1.60477,-2.6157564 -1.64892,-2.6982433 -0.0711,-0.1328345 -0.0499,-0.192467 0.1859,-0.521757 0.14643,-0.2044797 0.36273,-0.6135692 0.48065,-0.9090676 0.201,-0.5036692 0.21454,-0.5890142 0.21654,-1.3646351 0.002,-0.6997491 -0.0225,-0.9026187 -0.15772,-1.3155105 -0.415,-1.2670388 -1.49431,-2.288106 -2.76728,-2.6179639 -0.25746,-0.066716 -0.63963,-0.1003588 -1.02102,-0.1007059 z M 368.4547,29.830161 c 1.20166,-0.05467 2.43502,0.373448 3.37939,1.336066 0.72253,0.736477 1.11552,1.545097 1.25863,2.589394 0.28798,2.101345 -1.06647,4.178902 -3.14502,4.824055 -0.59423,0.184441 -1.62728,0.233662 -2.19316,0.104455 -0.97652,-0.222971 -1.68747,-0.638905 -2.40596,-1.407684 -0.78661,-0.841694 -1.19715,-1.939478 -1.15869,-3.098095 0.0257,-0.774757 0.11528,-1.128822 0.46849,-1.853297 0.75876,-1.556277 2.25132,-2.424601 3.79632,-2.494894 z m 0.24471,2.191225 c -0.87064,-0.01195 -1.73511,0.468923 -2.12878,1.343434 -0.15416,0.342445 -0.18677,0.504592 -0.18357,0.912816 0.004,0.559006 0.11516,0.918653 0.41898,1.360241 0.2428,0.352893 0.80122,0.743474 1.24079,0.867698 0.74309,0.209996 1.65489,-0.03985 2.22445,-0.609406 0.92213,-0.922126 0.87733,-2.422275 -0.0985,-3.299635 -0.42641,-0.383383 -0.95097,-0.56798 -1.47336,-0.575148 z" />
  </g>
</svg>
