<?xml version="1.0" encoding="UTF-8" standalone="no"?>
<!-- Generator: Adobe Illustrator 22.1.0, SVG Export Plug-In . SVG Version: 6.00 Build 0)  -->

<svg
   version="1.1"
   id="Layer_1"
   x="0px"
   y="0px"
   viewBox="0 0 305.79998 305.79998"
   xml:space="preserve"
   sodipodi:docname="fungible.svg"
   inkscape:version="1.1.2 (0a00cf5339, 2022-02-04)"
   width="305.79999"
   height="305.79999"
   inkscape:export-filename="/home/orion/working/PIRATE/websites/pirate.black/pirate.black_JEKYLL/pirate.black/assets/img/keywords/fungible.png"
   inkscape:export-xdpi="25.114454"
   inkscape:export-ydpi="25.114454"
   xmlns:inkscape="http://www.inkscape.org/namespaces/inkscape"
   xmlns:sodipodi="http://sodipodi.sourceforge.net/DTD/sodipodi-0.dtd"
   xmlns:xlink="http://www.w3.org/1999/xlink"
   xmlns="http://www.w3.org/2000/svg"
   xmlns:svg="http://www.w3.org/2000/svg"><defs
   id="defs14"><linearGradient
     inkscape:collect="always"
     id="linearGradient3008"><stop
       style="stop-color:#000000;stop-opacity:1;"
       offset="0"
       id="stop3004" /><stop
       style="stop-color:#5c5c5c;stop-opacity:0.99863457"
       offset="1"
       id="stop3006" /></linearGradient><linearGradient
     inkscape:collect="always"
     xlink:href="#linearGradient3008"
     id="linearGradient3512"
     gradientUnits="userSpaceOnUse"
     x1="342.25339"
     y1="230.17747"
     x2="200.53691"
     y2="-119.01723"
     gradientTransform="translate(-70.008662,20.200001)" /><filter
     style="color-interpolation-filters:sRGB;"
     inkscape:label="Drop Shadow"
     id="filter4966"
     x="-0.056346194"
     y="-0.056346194"
     width="1.1373275"
     height="1.1334488"><feFlood
       flood-opacity="0.498039"
       flood-color="rgb(0,0,0)"
       result="flood"
       id="feFlood4956" /><feComposite
       in="flood"
       in2="SourceGraphic"
       operator="in"
       result="composite1"
       id="feComposite4958" /><feGaussianBlur
       in="composite1"
       stdDeviation="6.23095"
       result="blur"
       id="feGaussianBlur4960" /><feOffset
       dx="6.53817"
       dy="5.50875"
       result="offset"
       id="feOffset4962" /><feComposite
       in="SourceGraphic"
       in2="offset"
       operator="over"
       result="composite2"
       id="feComposite4964" /></filter></defs><sodipodi:namedview
   id="namedview12"
   pagecolor="#ffffff"
   bordercolor="#666666"
   borderopacity="1.0"
   inkscape:pageshadow="2"
   inkscape:pageopacity="0.0"
   inkscape:pagecheckerboard="0"
   showgrid="false"
   inkscape:zoom="0.44132793"
   inkscape:cx="-572.13691"
   inkscape:cy="152.94749"
   inkscape:window-width="1891"
   inkscape:window-height="1012"
   inkscape:window-x="26"
   inkscape:window-y="23"
   inkscape:window-maximized="0"
   inkscape:current-layer="Layer_1"
   fit-margin-top="0"
   fit-margin-left="0"
   fit-margin-right="0"
   fit-margin-bottom="0" />
<style
   type="text/css"
   id="style2">
	.st0{fill:#BB9645;}
	.st1{fill:#0A0B0B;}
	.st2{fill:#FFFFFF;}
	.st3{fill:#231F20;}
	.st4{fill:url(#SVGID_1_);}
	.st5{fill:url(#SVGID_2_);}
	.st6{fill:url(#SVGID_3_);}
	.st7{fill:url(#SVGID_4_);}
	.st8{fill:url(#SVGID_5_);}
	.st9{fill:url(#SVGID_6_);}
	.st10{fill:url(#SVGID_7_);}
	.st11{fill:url(#SVGID_8_);}
	.st12{fill:url(#SVGID_9_);}
	.st13{fill:url(#SVGID_10_);}
	.st14{fill:url(#SVGID_11_);}
	.st15{fill:#1B1B1B;}
	.st16{fill:url(#SVGID_12_);}
	.st17{fill:url(#SVGID_13_);}
	.st18{fill:url(#SVGID_14_);}
	.st19{fill:url(#SVGID_15_);}
	.st20{fill:url(#SVGID_16_);}
	.st21{fill:url(#SVGID_17_);}
	.st22{fill:url(#SVGID_18_);}
	.st23{fill:url(#SVGID_19_);}
	.st24{fill:url(#SVGID_20_);}
	.st25{fill:url(#SVGID_21_);}
	.st26{fill:url(#SVGID_22_);}
</style>
<linearGradient
   id="SVGID_1_"
   gradientUnits="userSpaceOnUse"
   x1="11.3381"
   y1="144"
   x2="276.6619"
   y2="144"
   gradientTransform="translate(78.908663,-11.3)">
	<stop
   offset="0"
   style="stop-color:#B38C30"
   id="stop4" />
	<stop
   offset="1"
   style="stop-color:#F2DE98"
   id="stop6" />
</linearGradient>

<ellipse
   style="opacity:0.998635;fill:#bb9645;stroke-width:21.694;stroke-linejoin:bevel;stroke-miterlimit:4;stroke-dasharray:none"
   id="path877"
   cx="158.53296"
   cy="156.70444"
   rx="67.991722"
   ry="69.448524" /><path
   class="st4"
   d="m 155.70561,45.821771 c -61.396652,0 -111.150554,49.753908 -111.150554,111.150559 0,61.39665 49.753902,111.15056 111.150554,111.15056 61.39665,0 111.15056,-49.75391 111.15056,-111.15056 0,-61.396651 -49.75391,-111.150559 -111.15056,-111.150559 z M 105.5329,128.24238 c 0,-13.73677 11.14019,-24.79319 24.96072,-24.79319 h 56.95733 c 6.78462,0 12.98292,2.76411 17.42224,7.11967 l -29.14875,14.65813 h -40.12142 c -4.52308,0 -8.12479,3.26667 -8.12479,7.20343 v 17.84105 l -21.86157,11.39146 v -33.42055 z m 106.62748,37.10603 c 0,13.73677 -11.14019,24.79319 -24.79319,24.79319 h -59.97272 v 21.19148 c 0,3.60171 -2.68035,6.53334 -5.86326,7.28719 l -7.4547,0.16752 h -8.54361 v -7.53847 -10.63762 -18.67866 l 28.56243,-14.90942 h 47.99493 c 4.52308,0 8.29231,-3.26667 8.29231,-7.28718 v -21.77781 l 21.77781,-10.97266 c 0,0.4188 0,0.83761 0,1.25641 z"
   id="path9"
   style="fill:#000000;fill-opacity:1;stroke:#bb9645;stroke-width:21.694;stroke-miterlimit:4;stroke-dasharray:none;stroke-opacity:1" /><path
   class="st4"
   d="m 152.9,20.200001 c -73.300002,0 -132.699999,59.4 -132.699999,132.699999 0,73.3 59.399997,132.7 132.699999,132.7 73.3,0 132.7,-59.4 132.7,-132.7 C 285.6,79.600001 226.2,20.200001 152.9,20.200001 Z M 92.999998,118.6 C 92.999998,102.2 106.3,89.000001 122.8,89.000001 h 68 c 8.1,0 15.5,3.3 20.8,8.5 L 176.8,115 h -47.9 c -5.4,0 -9.7,3.9 -9.7,8.6 v 21.3 L 93.099998,158.5 V 118.6 Z M 220.3,162.9 c 0,16.4 -13.3,29.6 -29.6,29.6 h -71.6 v 25.3 c 0,4.3 -3.2,7.8 -7,8.7 l -8.9,0.2 H 92.999998 v -9 V 205 182.7 L 127.1,164.9 h 57.3 c 5.4,0 9.9,-3.9 9.9,-8.7 v -26 l 26,-13.1 c 0,0.5 0,1 0,1.5 z"
   id="path907"
   style="opacity:1;fill:url(#linearGradient3512);fill-opacity:1;stroke:none"
   transform="matrix(0.83760783,0,0,0.83760783,27.635377,28.902092)" /></svg>
