<?xml version="1.0" encoding="UTF-8" standalone="no"?>
<!-- Created with Inkscape (http://www.inkscape.org/) -->

<svg
   width="167.70024mm"
   height="205.19351mm"
   viewBox="0 0 167.70024 205.19351"
   version="1.1"
   id="svg5"
   inkscape:version="1.1.2 (0a00cf5339, 2022-02-04)"
   sodipodi:docname="scales.svg"
   xmlns:inkscape="http://www.inkscape.org/namespaces/inkscape"
   xmlns:sodipodi="http://sodipodi.sourceforge.net/DTD/sodipodi-0.dtd"
   xmlns:xlink="http://www.w3.org/1999/xlink"
   xmlns="http://www.w3.org/2000/svg"
   xmlns:svg="http://www.w3.org/2000/svg">
  <sodipodi:namedview
     id="namedview7"
     pagecolor="#ffffff"
     bordercolor="#666666"
     borderopacity="1.0"
     inkscape:pageshadow="2"
     inkscape:pageopacity="0.0"
     inkscape:pagecheckerboard="0"
     inkscape:document-units="mm"
     showgrid="false"
     fit-margin-top="0"
     fit-margin-left="0"
     fit-margin-right="0"
     fit-margin-bottom="0"
     inkscape:zoom="0.32026164"
     inkscape:cx="340.34672"
     inkscape:cy="348.15284"
     inkscape:window-width="1488"
     inkscape:window-height="1012"
     inkscape:window-x="26"
     inkscape:window-y="23"
     inkscape:window-maximized="0"
     inkscape:current-layer="layer1" />
  <defs
     id="defs2">
    <linearGradient
       inkscape:collect="always"
       id="linearGradient1222">
      <stop
         style="stop-color:#1b1b1b;stop-opacity:1"
         offset="0"
         id="stop1218" />
      <stop
         style="stop-color:#464647;stop-opacity:1"
         offset="1"
         id="stop1220" />
    </linearGradient>
    <linearGradient
       inkscape:collect="always"
       xlink:href="#linearGradient1222"
       id="linearGradient1224"
       x1="119.15678"
       y1="128.69576"
       x2="96.524017"
       y2="102.04823"
       gradientUnits="userSpaceOnUse"
       gradientTransform="translate(-10.049309,9.0456689)" />
    <filter
       style="color-interpolation-filters:sRGB"
       inkscape:label="Drop Shadow"
       id="filter27631"
       x="-0.013806945"
       y="-0.011131925"
       width="1.0410373"
       height="1.0305097">
      <feFlood
         flood-opacity="0.596078"
         flood-color="rgb(0,0,0)"
         result="flood"
         id="feFlood27621" />
      <feComposite
         in="flood"
         in2="SourceGraphic"
         operator="in"
         result="composite1"
         id="feComposite27623" />
      <feGaussianBlur
         in="composite1"
         stdDeviation="0.9"
         result="blur"
         id="feGaussianBlur27625" />
      <feOffset
         dx="2.1"
         dy="1.6"
         result="offset"
         id="feOffset27627" />
      <feComposite
         in="SourceGraphic"
         in2="offset"
         operator="over"
         result="composite2"
         id="feComposite27629" />
    </filter>
  </defs>
  <g
     inkscape:label="Layer 1"
     inkscape:groupmode="layer"
     id="layer1"
     transform="translate(-14.855504,-56.293775)">
    <path
       style="fill:none;fill-opacity:1;stroke:#bb9645;stroke-width:11.157;stroke-linejoin:round;stroke-miterlimit:4;stroke-dasharray:none;stroke-opacity:1"
       d="m 66.583561,251.29878 v -4.60994 l 3.970364,-3.47053 c 2.183705,-1.90881 6.5,-5.67583 9.591773,-8.37118 l 5.621404,-4.90062 v -8.46542 -8.46541 l -0.417247,-0.10472 c -0.591555,-0.14847 -1.704818,-0.94704 -2.169448,-1.55621 -0.800826,-1.04994 -0.919318,-1.6673 -0.993047,-5.17388 l -0.0686,-3.26278 h 1.824171 c 1.786831,0 1.824177,-0.007 1.824432,-0.35379 1.43e-4,-0.19459 0.06821,-1.48594 0.151268,-2.86967 0.08305,-1.38373 0.225169,-4.07257 0.315805,-5.9752 0.09064,-1.90263 0.19776,-4.06078 0.238048,-4.79588 0.04029,-0.73511 0.110742,-2.11491 0.156568,-3.06623 0.100461,-2.08547 0.206425,-4.18685 0.315182,-6.25037 0.159023,-3.01718 0.233275,-4.46769 0.31593,-6.17175 0.04618,-0.95132 0.11889,-2.40188 0.16165,-3.22347 0.272647,-5.23794 0.388287,-7.54253 0.465522,-9.27728 0.04814,-1.08104 0.121083,-2.49622 0.162113,-3.14484 0.289698,-4.57961 0.569828,-11.93572 0.595805,-15.64559 l 0.03084,-4.40278 h 0.943453 0.943454 l 0.0404,-11.28212 c 0.0268,-7.49213 -0.0128,-11.28257 -0.11793,-11.28344 -0.0871,-7.8e-4 -8.310496,-0.002 -18.274314,-0.003 l -18.116027,-0.001 -1.188923,1.18195 -1.188923,1.18195 h -1.218145 c -1.183408,0 -1.215738,0.0101 -1.133849,0.35379 0.04635,0.19459 1.501454,7.39431 3.233532,15.99939 1.732085,8.60507 3.933256,19.53734 4.891501,24.29391 0.958245,4.75657 2.104895,10.45267 2.548113,12.65799 l 0.805848,4.00961 6.368309,0.0786 c 5.550842,0.0685 6.361891,0.1089 6.31834,0.31449 -0.114504,0.54054 -1.174178,2.54959 -2.03652,3.86105 -4.193144,6.37699 -10.462235,10.54837 -18.174775,12.09328 -5.499768,1.10167 -10.653474,0.81495 -15.971487,-0.88856 -6.332924,-2.02861 -11.690571,-6.20009 -15.22385,-11.85333 -0.899511,-1.43921 -1.776348,-3.23198 -1.667157,-3.40866 0.04023,-0.065 2.960777,-0.11827 6.49017,-0.11827 h 6.417071 l 0.08928,-0.51104 c 0.04909,-0.28107 1.082032,-5.42878 2.295399,-11.43936 1.213372,-6.01058 3.61843,-17.93346 5.344572,-26.4953 1.726147,-8.56183 3.285176,-16.28567 3.464513,-17.16409 0.179336,-0.87842 0.326063,-1.6357 0.326063,-1.68285 0,-0.0471 -0.442243,-0.10679 -0.98276,-0.13254 l -0.982766,-0.0468 -0.04208,-3.89175 -0.04208,-3.89174 1.221372,4.7e-4 1.221371,4.7e-4 0.547334,2.43684 0.547327,2.43683 h 1.97151 1.971511 l 1.481942,-1.73106 1.481937,-1.73105 16.59794,0.004 16.59794,0.004 -0.05462,-1.3782 c -0.08514,-2.14899 0.541878,-3.71785 2.02763,-5.07351 l 0.603162,-0.55035 -0.322152,-0.94345 c -0.436782,-1.27922 -0.342639,-2.75657 0.238891,-3.748875 0.449374,-0.7668 1.464406,-1.71412 2.172446,-2.02753 l 0.445,-0.19698 v -9.94651 -9.94649 h 0.86976 c 0.55878,0 0.89136,-0.0703 0.93015,-0.19655 0.0332,-0.10811 0.42532,-2.31932 0.87136,-4.91382 0.44603,-2.59449 1.03253,-5.97323 1.30334,-7.50831 l 0.49237,-2.79105 2.83756,10e-5 2.837573,9e-5 1.09023,6.25028 c 0.59964,3.43765 1.19682,6.9048 1.3271,7.70477 l 0.23685,1.45449 h 0.91361 0.91361 v 9.94912 9.94911 l 0.51104,0.27948 c 1.05951,0.57943 1.98832,1.65137 2.31558,2.672395 0.25958,0.80985 0.23377,2.21794 -0.058,3.16325 l -0.23949,0.77599 0.80252,0.79643 c 0.46387,0.46035 1.00849,1.22772 1.29062,1.8185 0.45231,0.94714 0.48809,1.146 0.48809,2.71243 v 1.69036 l 16.35318,0.012 c 8.99425,0.007 16.48295,0.0366 16.64158,0.0666 0.15861,0.03 0.37089,0.15926 0.47173,0.28714 0.10082,0.12789 0.74716,0.87825 1.43629,1.66746 l 1.25297,1.43493 1.96578,-0.0438 1.96579,-0.0437 0.54353,-2.39794 0.54354,-2.39795 h 1.07291 1.07291 v 3.93106 3.93105 h -1.03268 c -0.9112,0 -1.02262,0.0324 -0.94724,0.27517 0.0824,0.26549 0.61002,2.86821 5.21954,25.7484 1.16735,5.79437 2.82932,14.03779 3.69326,18.31871 0.86395,4.28091 1.78963,8.91563 2.05709,10.29936 0.26745,1.38373 0.53656,2.572 0.59801,2.64059 0.0614,0.0686 2.91273,0.12026 6.33623,0.11481 3.81543,-0.006 6.26059,0.0484 6.31773,0.14094 0.15666,0.25347 -1.59737,3.47466 -2.73148,5.01624 -4.36283,5.9303 -10.22742,9.65674 -17.46632,11.09829 -4.95701,0.98715 -9.20827,0.8932 -14.01695,-0.30978 -7.84338,-1.96214 -14.30403,-6.93293 -18.01863,-13.86345 -0.45267,-0.84456 -0.82416,-1.66088 -0.82553,-1.81405 -0.002,-0.26213 0.37281,-0.27789 6.38517,-0.26832 3.51322,0.005 6.41235,-0.0145 6.44251,-0.0447 0.0302,-0.0302 0.66061,-3.02282 1.40096,-6.65033 0.74036,-3.62751 1.69456,-8.29369 2.12046,-10.36928 0.8829,-4.30286 4.69777,-22.95533 5.75657,-28.14634 0.88565,-4.34208 1.87983,-9.17318 2.25699,-10.96764 l 0.28919,-1.37587 h -1.20599 -1.20596 l -1.25057,-1.25794 -1.25056,-1.25794 h -18.20548 -18.2055 l 0.0404,11.42312 0.0403,11.42312 0.9384,0.0162 0.93841,0.0162 0.0377,1.1007 c 0.0207,0.60538 0.0779,3.75415 0.1269,6.99727 0.049,3.24312 0.11922,6.25038 0.15596,6.68279 0.0367,0.43242 0.14295,2.37829 0.23601,4.32416 0.0931,1.94587 0.20032,3.99788 0.23834,4.56002 0.038,0.56214 0.1093,2.0127 0.15841,3.22346 0.0491,1.21077 0.11907,2.55519 0.15547,2.9876 0.0364,0.43242 0.10741,1.8476 0.1578,3.14485 0.0504,1.29724 0.12213,2.7478 0.15942,3.22346 0.0373,0.47566 0.10691,1.74932 0.15472,2.83036 0.10978,2.48193 0.52343,10.67668 0.62307,12.34351 0.0414,0.69186 0.18547,3.62836 0.32025,6.52554 0.13478,2.89719 0.28418,5.70759 0.33199,6.24535 l 0.087,0.97771 1.757,0.0443 1.757,0.0443 -0.0115,3.14485 c -0.0134,3.6703 -0.17633,4.4096 -1.22165,5.54365 -0.63629,0.69027 -1.60065,1.29638 -2.06269,1.29638 -0.21501,0 -0.24213,0.95057 -0.24213,8.4904 v 8.49041 l 5.63089,4.91448 c 3.09698,2.70297 7.41328,6.46792 9.59177,8.36655 l 3.96089,3.45205 v 4.60661 4.6066 H 98.896791 66.583537 v -4.60992 z m -7.39037,-76.29518 c -6e-6,-0.002 -1.019886,-5.06147 -2.266396,-11.24281 -3.037853,-15.0644 -6.623128,-32.85387 -8.096103,-40.17134 l -1.202776,-5.9752 -0.62587,-0.0465 -0.625876,-0.0465 -1.053933,5.23546 c -0.579664,2.87951 -2.651319,13.16047 -4.603675,22.84658 -1.952356,9.68611 -4.076637,20.22592 -4.720616,23.42178 -0.643978,3.19587 -1.108305,5.84933 -1.031831,5.89658 0.09525,0.0588 24.227147,0.14044 24.227076,0.0819 z m 103.249919,-0.12129 c 0.028,-0.028 -0.47573,-2.66468 -1.11932,-5.85935 -0.64361,-3.19468 -2.76792,-13.73351 -4.72071,-23.41962 -1.95277,-9.68611 -4.02494,-19.96704 -4.6048,-22.8465 l -1.05431,-5.23539 -0.62499,0.0464 -0.62498,0.0464 -1.21947,6.05382 c -0.67072,3.3296 -2.67993,13.30661 -4.46494,22.17114 -1.785,8.86452 -3.8324,19.01797 -4.54979,22.56323 -0.71737,3.54525 -1.24634,6.48175 -1.17549,6.52555 0.13773,0.0851 24.07325,0.0399 24.1588,-0.0457 z"
       id="path23900" />
    <path
       style="fill:url(#linearGradient1224);fill-opacity:1;stroke-width:0.157242;filter:url(#filter27631)"
       d="m 66.583561,251.29878 v -4.60994 l 3.970364,-3.47053 c 2.183705,-1.90881 6.5,-5.67583 9.591773,-8.37118 l 5.621404,-4.90062 v -8.46542 -8.46541 l -0.417247,-0.10472 c -0.591555,-0.14847 -1.704818,-0.94704 -2.169448,-1.55621 -0.800826,-1.04994 -0.919318,-1.6673 -0.993047,-5.17388 l -0.0686,-3.26278 h 1.824171 c 1.786831,0 1.824177,-0.007 1.824432,-0.35379 1.43e-4,-0.19459 0.06821,-1.48594 0.151268,-2.86967 0.08305,-1.38373 0.225169,-4.07257 0.315805,-5.9752 0.09064,-1.90263 0.19776,-4.06078 0.238048,-4.79588 0.04029,-0.73511 0.110742,-2.11491 0.156568,-3.06623 0.100461,-2.08547 0.206425,-4.18685 0.315182,-6.25037 0.159023,-3.01718 0.233275,-4.46769 0.31593,-6.17175 0.04618,-0.95132 0.11889,-2.40188 0.16165,-3.22347 0.272647,-5.23794 0.388287,-7.54253 0.465522,-9.27728 0.04814,-1.08104 0.121083,-2.49622 0.162113,-3.14484 0.289698,-4.57961 0.569828,-11.93572 0.595805,-15.64559 l 0.03084,-4.40278 h 0.943453 0.943454 l 0.0404,-11.28212 c 0.0268,-7.49213 -0.0128,-11.28257 -0.11793,-11.28344 -0.0871,-7.8e-4 -8.310496,-0.002 -18.274314,-0.003 l -18.116027,-0.001 -1.188923,1.18195 -1.188923,1.18195 h -1.218145 c -1.183408,0 -1.215738,0.0101 -1.133849,0.35379 0.04635,0.19459 1.501454,7.39431 3.233532,15.99939 1.732085,8.60507 3.933256,19.53734 4.891501,24.29391 0.958245,4.75657 2.104895,10.45267 2.548113,12.65799 l 0.805848,4.00961 6.368309,0.0786 c 5.550842,0.0685 6.361891,0.1089 6.31834,0.31449 -0.114504,0.54054 -1.174178,2.54959 -2.03652,3.86105 -4.193144,6.37699 -10.462235,10.54837 -18.174775,12.09328 -5.499768,1.10167 -10.653474,0.81495 -15.971487,-0.88856 -6.332924,-2.02861 -11.690571,-6.20009 -15.22385,-11.85333 -0.899511,-1.43921 -1.776348,-3.23198 -1.667157,-3.40866 0.04023,-0.065 2.960777,-0.11827 6.49017,-0.11827 h 6.417071 l 0.08928,-0.51104 c 0.04909,-0.28107 1.082032,-5.42878 2.295399,-11.43936 1.213372,-6.01058 3.61843,-17.93346 5.344572,-26.4953 1.726147,-8.56183 3.285176,-16.28567 3.464513,-17.16409 0.179336,-0.87842 0.326063,-1.6357 0.326063,-1.68285 0,-0.0471 -0.442243,-0.10679 -0.98276,-0.13254 l -0.982766,-0.0468 -0.04208,-3.89175 -0.04208,-3.89174 1.221372,4.7e-4 1.221371,4.7e-4 0.547334,2.43684 0.547327,2.43683 h 1.97151 1.971511 l 1.481942,-1.73106 1.481937,-1.73105 16.59794,0.004 16.59794,0.004 -0.05462,-1.3782 c -0.08514,-2.14899 0.541878,-3.71785 2.02763,-5.07351 l 0.603162,-0.55035 -0.322152,-0.94345 c -0.436782,-1.27922 -0.342639,-2.75657 0.238891,-3.748875 0.449374,-0.7668 1.464406,-1.71412 2.172446,-2.02753 l 0.445,-0.19698 v -9.94651 -9.94649 h 0.86976 c 0.55878,0 0.89136,-0.0703 0.93015,-0.19655 0.0332,-0.10811 0.42532,-2.31932 0.87136,-4.91382 0.44603,-2.59449 1.03253,-5.97323 1.30334,-7.50831 l 0.49237,-2.79105 2.83756,10e-5 2.837573,9e-5 1.09023,6.25028 c 0.59964,3.43765 1.19682,6.9048 1.3271,7.70477 l 0.23685,1.45449 h 0.91361 0.91361 v 9.94912 9.94911 l 0.51104,0.27948 c 1.05951,0.57943 1.98832,1.65137 2.31558,2.672395 0.25958,0.80985 0.23377,2.21794 -0.058,3.16325 l -0.23949,0.77599 0.80252,0.79643 c 0.46387,0.46035 1.00849,1.22772 1.29062,1.8185 0.45231,0.94714 0.48809,1.146 0.48809,2.71243 v 1.69036 l 16.35318,0.012 c 8.99425,0.007 16.48295,0.0366 16.64158,0.0666 0.15861,0.03 0.37089,0.15926 0.47173,0.28714 0.10082,0.12789 0.74716,0.87825 1.43629,1.66746 l 1.25297,1.43493 1.96578,-0.0438 1.96579,-0.0437 0.54353,-2.39794 0.54354,-2.39795 h 1.07291 1.07291 v 3.93106 3.93105 h -1.03268 c -0.9112,0 -1.02262,0.0324 -0.94724,0.27517 0.0824,0.26549 0.61002,2.86821 5.21954,25.7484 1.16735,5.79437 2.82932,14.03779 3.69326,18.31871 0.86395,4.28091 1.78963,8.91563 2.05709,10.29936 0.26745,1.38373 0.53656,2.572 0.59801,2.64059 0.0614,0.0686 2.91273,0.12026 6.33623,0.11481 3.81543,-0.006 6.26059,0.0484 6.31773,0.14094 0.15666,0.25347 -1.59737,3.47466 -2.73148,5.01624 -4.36283,5.9303 -10.22742,9.65674 -17.46632,11.09829 -4.95701,0.98715 -9.20827,0.8932 -14.01695,-0.30978 -7.84338,-1.96214 -14.30403,-6.93293 -18.01863,-13.86345 -0.45267,-0.84456 -0.82416,-1.66088 -0.82553,-1.81405 -0.002,-0.26213 0.37281,-0.27789 6.38517,-0.26832 3.51322,0.005 6.41235,-0.0145 6.44251,-0.0447 0.0302,-0.0302 0.66061,-3.02282 1.40096,-6.65033 0.74036,-3.62751 1.69456,-8.29369 2.12046,-10.36928 0.8829,-4.30286 4.69777,-22.95533 5.75657,-28.14634 0.88565,-4.34208 1.87983,-9.17318 2.25699,-10.96764 l 0.28919,-1.37587 h -1.20599 -1.20596 l -1.25057,-1.25794 -1.25056,-1.25794 h -18.20548 -18.2055 l 0.0404,11.42312 0.0403,11.42312 0.9384,0.0162 0.93841,0.0162 0.0377,1.1007 c 0.0207,0.60538 0.0779,3.75415 0.1269,6.99727 0.049,3.24312 0.11922,6.25038 0.15596,6.68279 0.0367,0.43242 0.14295,2.37829 0.23601,4.32416 0.0931,1.94587 0.20032,3.99788 0.23834,4.56002 0.038,0.56214 0.1093,2.0127 0.15841,3.22346 0.0491,1.21077 0.11907,2.55519 0.15547,2.9876 0.0364,0.43242 0.10741,1.8476 0.1578,3.14485 0.0504,1.29724 0.12213,2.7478 0.15942,3.22346 0.0373,0.47566 0.10691,1.74932 0.15472,2.83036 0.10978,2.48193 0.52343,10.67668 0.62307,12.34351 0.0414,0.69186 0.18547,3.62836 0.32025,6.52554 0.13478,2.89719 0.28418,5.70759 0.33199,6.24535 l 0.087,0.97771 1.757,0.0443 1.757,0.0443 -0.0115,3.14485 c -0.0134,3.6703 -0.17633,4.4096 -1.22165,5.54365 -0.63629,0.69027 -1.60065,1.29638 -2.06269,1.29638 -0.21501,0 -0.24213,0.95057 -0.24213,8.4904 v 8.49041 l 5.63089,4.91448 c 3.09698,2.70297 7.41328,6.46792 9.59177,8.36655 l 3.96089,3.45205 v 4.60661 4.6066 H 98.896791 66.583537 v -4.60992 z m -7.39037,-76.29518 c -6e-6,-0.002 -1.019886,-5.06147 -2.266396,-11.24281 -3.037853,-15.0644 -6.623128,-32.85387 -8.096103,-40.17134 l -1.202776,-5.9752 -0.62587,-0.0465 -0.625876,-0.0465 -1.053933,5.23546 c -0.579664,2.87951 -2.651319,13.16047 -4.603675,22.84658 -1.952356,9.68611 -4.076637,20.22592 -4.720616,23.42178 -0.643978,3.19587 -1.108305,5.84933 -1.031831,5.89658 0.09525,0.0588 24.227147,0.14044 24.227076,0.0819 z m 103.249919,-0.12129 c 0.028,-0.028 -0.47573,-2.66468 -1.11932,-5.85935 -0.64361,-3.19468 -2.76792,-13.73351 -4.72071,-23.41962 -1.95277,-9.68611 -4.02494,-19.96704 -4.6048,-22.8465 l -1.05431,-5.23539 -0.62499,0.0464 -0.62498,0.0464 -1.21947,6.05382 c -0.67072,3.3296 -2.67993,13.30661 -4.46494,22.17114 -1.785,8.86452 -3.8324,19.01797 -4.54979,22.56323 -0.71737,3.54525 -1.24634,6.48175 -1.17549,6.52555 0.13773,0.0851 24.07325,0.0399 24.1588,-0.0457 z"
       id="path1026" />
  </g>
</svg>
