<?xml version="1.0" encoding="UTF-8" standalone="no"?>
<!-- Created with Inkscape (http://www.inkscape.org/) -->

<svg
   width="59.168583mm"
   height="64.382782mm"
   viewBox="0 0 59.168583 64.382782"
   version="1.1"
   id="svg5"
   inkscape:version="1.1.2 (0a00cf5339, 2022-02-04)"
   sodipodi:docname="binance_coin.svg"
   xmlns:inkscape="http://www.inkscape.org/namespaces/inkscape"
   xmlns:sodipodi="http://sodipodi.sourceforge.net/DTD/sodipodi-0.dtd"
   xmlns:xlink="http://www.w3.org/1999/xlink"
   xmlns="http://www.w3.org/2000/svg"
   xmlns:svg="http://www.w3.org/2000/svg">
  <sodipodi:namedview
     id="namedview7"
     pagecolor="#ffffff"
     bordercolor="#666666"
     borderopacity="1.0"
     inkscape:pageshadow="2"
     inkscape:pageopacity="0.0"
     inkscape:pagecheckerboard="0"
     inkscape:document-units="mm"
     showgrid="false"
     inkscape:snap-global="false"
     inkscape:object-paths="true"
     inkscape:zoom="0.64052329"
     inkscape:cx="109.28564"
     inkscape:cy="420.74973"
     inkscape:window-width="1488"
     inkscape:window-height="1012"
     inkscape:window-x="26"
     inkscape:window-y="23"
     inkscape:window-maximized="0"
     inkscape:current-layer="layer1"
     fit-margin-top="0"
     fit-margin-left="0"
     fit-margin-right="0"
     fit-margin-bottom="0" />
  <defs
     id="defs2">
    <linearGradient
       inkscape:collect="always"
       id="linearGradient7316">
      <stop
         style="stop-color:#09fbff;stop-opacity:1"
         offset="0"
         id="stop7312" />
      <stop
         style="stop-color:#00ccff;stop-opacity:1"
         offset="1"
         id="stop7314" />
    </linearGradient>
    <linearGradient
       inkscape:collect="always"
       id="linearGradient6730">
      <stop
         style="stop-color:#2ad4ff;stop-opacity:1;"
         offset="0"
         id="stop6726" />
      <stop
         style="stop-color:#91eaff;stop-opacity:1"
         offset="0.47007123"
         id="stop6926" />
      <stop
         style="stop-color:#0ffff7;stop-opacity:1"
         offset="1"
         id="stop6728" />
    </linearGradient>
    <linearGradient
       inkscape:collect="always"
       id="linearGradient4928">
      <stop
         style="stop-color:#40d9ff;stop-opacity:1"
         offset="0"
         id="stop4924" />
      <stop
         style="stop-color:#dff9ff;stop-opacity:1"
         offset="1"
         id="stop4926" />
    </linearGradient>
    <linearGradient
       inkscape:collect="always"
       id="linearGradient3702">
      <stop
         style="stop-color:#00ccff;stop-opacity:1;"
         offset="0"
         id="stop3698" />
      <stop
         style="stop-color:#00e8ff;stop-opacity:1"
         offset="0.10258731"
         id="stop4414" />
      <stop
         style="stop-color:#00adff;stop-opacity:1"
         offset="0.40749773"
         id="stop4218" />
      <stop
         style="stop-color:#00faff;stop-opacity:1"
         offset="0.72369814"
         id="stop4348" />
      <stop
         style="stop-color:#00ccff;stop-opacity:1"
         offset="1"
         id="stop3700" />
    </linearGradient>
    <linearGradient
       inkscape:collect="always"
       xlink:href="#linearGradient3702"
       id="linearGradient3704"
       x1="525.54163"
       y1="475.07501"
       x2="531.24072"
       y2="178.43964"
       gradientUnits="userSpaceOnUse" />
    <linearGradient
       inkscape:collect="always"
       xlink:href="#linearGradient4928"
       id="linearGradient4930"
       x1="68.037354"
       y1="85.50296"
       x2="139.58963"
       y2="85.50296"
       gradientUnits="userSpaceOnUse" />
    <linearGradient
       inkscape:collect="always"
       xlink:href="#linearGradient6730"
       id="linearGradient6732"
       x1="74.192665"
       y1="84.872055"
       x2="135.62634"
       y2="85.31498"
       gradientUnits="userSpaceOnUse" />
    <linearGradient
       inkscape:collect="always"
       xlink:href="#linearGradient7316"
       id="linearGradient7318"
       x1="73.241531"
       y1="87.374329"
       x2="123.38205"
       y2="86.21154"
       gradientUnits="userSpaceOnUse"
       gradientTransform="matrix(0.99998799,0,0,0.96291811,-0.57305131,2.8737447)" />
  </defs>
  <g
     inkscape:label="Layer 1"
     inkscape:groupmode="layer"
     id="layer1"
     transform="translate(-51.016806,-45.563177)">
    <g
       id="g12961"
       transform="matrix(0.74604805,0.08484899,-0.08366265,0.756627,7.6407293,4.099218)">
      <path
         id="path3158"
         style="opacity:1;fill:url(#linearGradient3704);fill-opacity:1;stroke-width:0.377953;stroke-linejoin:bevel"
         d="m 389.24609,163.87109 -0.0508,4.05274 c -26.58172,7.27726 -50.93282,23.86463 -68.86914,46.57226 -23.86426,30.2125 -36.66702,70.63223 -36.17187,110.97071 0.49527,40.71208 14.54726,81.08901 39.63476,110.58203 16.58742,19.50027 38.12487,33.91422 61.52735,41.16992 l -0.0625,5.0332 23.82031,-0.25781 c 0.45963,0.0432 0.92262,0.0503 1.38281,0.0879 l 5.0918,-0.36914 34.38086,-3.43945 c 26.42261,-7.33541 50.61733,-23.86319 68.46093,-46.45508 23.86065,-30.20999 36.66342,-70.62257 36.16993,-110.95703 -0.49387,-40.71304 -14.54594,-81.08585 -39.63282,-110.58008 -15.21367,-17.88649 -34.62151,-31.39405 -55.78515,-39.11719 l -50.65235,-6.8789 -5.34765,-0.41407 z"
         transform="scale(0.26458333)" />
      <path
         id="path3098"
         style="opacity:1;fill:url(#linearGradient4930);fill-opacity:1;stroke-width:0.1;stroke-linejoin:bevel"
         d="m 102.98828,43.357422 c -9.725962,0.263327 -19.056671,5.392965 -25.376952,13.394531 -6.314085,7.993724 -9.70132,18.68844 -9.570312,29.361328 0.13104,10.771739 3.848593,21.454449 10.486328,29.257809 6.645482,7.81247 16.293431,12.54231 26.111326,12.27735 a 0.96778223,0.96778223 0 0 0 0.002,0 c 9.72561,-0.26412 19.05527,-5.39506 25.375,-13.39649 6.31313,-7.99306 9.70089,-18.685593 9.57032,-29.357419 C 139.45532,74.12254 135.73718,63.440401 129.09961,55.636719 122.45469,47.824393 112.8078,43.093275 102.99023,43.357422 a 0.96778223,0.96778223 0 0 0 -0.002,0 z" />
      <path
         id="path3038"
         style="opacity:1;fill:url(#linearGradient6732);fill-opacity:1;stroke-width:0.1;stroke-linejoin:bevel"
         d="m 103.01367,44.324219 c -9.401668,0.254547 -18.485031,5.231803 -24.642576,13.027343 -6.157545,7.795541 -9.491668,18.290654 -9.363282,28.75 0.128417,10.556064 3.78575,21.036278 10.25586,28.642578 6.470508,7.60677 15.860414,12.19359 25.349608,11.9375 a 5.81023,5.81023 0 0 0 0.002,0 c 9.40126,-0.25531 18.48358,-5.23385 24.64063,-13.0293 6.15666,-7.79496 9.49124,-18.287831 9.36328,-28.74609 -0.128,-10.556262 -3.78586,-21.035903 -10.25586,-28.642578 -6.47,-7.606676 -15.85886,-12.194755 -25.34766,-11.939453 a 5.81023,5.81023 0 0 0 -0.002,0 z" />
      <ellipse
         style="opacity:1;fill:url(#linearGradient7318);fill-opacity:1;stroke-width:0.0981278;stroke-linejoin:bevel"
         id="path1314"
         ry="34.065636"
         rx="29.001944"
         cy="87.008064"
         cx="101.66955"
         transform="matrix(0.99984707,-0.01748795,0.01886082,0.99982212,0,0)" />
      <path
         id="ellipse7878"
         style="opacity:0.42298;fill:#004455;fill-opacity:1;stroke-width:0.0973532;stroke-linejoin:bevel"
         d="m 101.24144,50.9334 a 34.441177,28.234698 88.95937 0 0 -27.604514,34.948254 34.441177,28.234698 88.95937 0 0 28.855604,33.922476 34.441177,28.234698 88.95937 0 0 0.77825,-0.0279 34.06572,29.001844 88.712089 0 1 -27.172504,-33.458945 34.06572,29.001844 88.712089 0 1 28.354854,-34.566881 34.06572,29.001844 88.712089 0 1 4.40025,0.326078 34.441177,28.234698 88.95937 0 0 -7.61194,-1.143082 z" />
      <g
         id="g12943"
         transform="matrix(1.2222841,0,0,1.2222841,-20.711002,-19.239631)">
        <path
           id="path11238"
           style="fill:#f3ba2f;stroke-width:0.938317"
           d="m 384.13477,256.36914 -10.15821,20.42969 -17.80859,16.76172 5.66406,7.66601 -2.68555,5.40235 8.67579,2.70703 23.16211,-21.79102 11.35742,24.42969 8.67382,2.70508 13.47071,-12.68555 -31.67774,-42.91797 z"
           transform="scale(0.26458333)" />
        <path
           id="path11240"
           style="fill:#f3ba2f;stroke-width:0.938317"
           d="m 337.9707,299.81055 -0.74218,11.56836 -4.05664,3.81836 3.50585,4.75 -0.5332,8.32226 8.67578,2.70703 13.47461,-12.68164 -11.64844,-15.7793 z"
           transform="scale(0.26458333)" />
        <path
           id="path11242"
           style="fill:#f3ba2f;stroke-width:0.938317"
           d="m 357.85742,326.73438 -4.81836,15.36914 0.0156,0.0215 25.68945,34.78906 -2.68555,5.40235 8.67383,2.70703 36.64258,-34.4961 0.008,-0.008 -11.65429,-15.76562 -8.67579,-2.70508 -10.16015,20.43164 -0.002,0.002 -4.33398,4.08008 -20.02344,-27.12305 z"
           transform="scale(0.26458333)" />
        <path
           id="path11244"
           style="fill:#f3ba2f;stroke-width:0.938317"
           d="m 424.02344,310.42188 -0.74219,11.56835 -4.05664,3.81836 3.50781,4.75196 -0.5332,8.32226 8.67383,2.70508 13.47461,-12.68164 -11.64844,-15.77734 z"
           transform="scale(0.26458333)" />
        <path
           id="path11246"
           style="fill:#f3ba2f;stroke-width:0.938317"
           d="m 381.02148,304.89453 -0.74218,11.56836 -0.68946,0.65039 -1.16601,1.08789 -2.39258,2.25195 -0.0195,0.0176 0.0156,0.0332 3.67578,4.97461 -0.5332,8.31445 8.67383,2.70508 13.66797,-12.87305 0.008,-0.008 -0.008,-0.002 -11.81445,-16.01562 z"
           transform="scale(0.26458333)" />
        <path
           d="m 95.024371,81.128983 6.128139,-5.765104 5.30022,7.179339 3.56401,-3.356786 -8.38108,-11.355326 -9.694637,9.124236 z"
           id="path11238-2"
           style="fill:#f1f32f;fill-opacity:1;stroke-width:0.248263" />
        <path
           d="m 85.856435,82.679959 3.565027,-3.355272 3.082052,4.174748 -3.565027,3.355271 z"
           id="path11240-7"
           style="fill:#f1f32f;fill-opacity:1;stroke-width:0.248263" />
        <path
           d="m 94.683193,86.448247 5.298068,7.176421 6.130799,-5.770082 3.08351,4.17101 -0.002,0.0023 -9.694809,9.126864 -8.381415,-11.350059 -0.0043,-0.0058 z"
           id="path11242-0"
           style="fill:#f1f32f;fill-opacity:1;stroke-width:0.248263" />
        <path
           d="m 108.62466,85.487845 3.56503,-3.355273 3.08205,4.174748 -3.56503,3.355273 z"
           id="path11244-9"
           style="fill:#f1f32f;fill-opacity:1;stroke-width:0.248263" />
        <path
           d="m 103.93827,84.907258 -3.1261,-4.237275 -2.674121,2.516788 -0.308863,0.288217 -0.633017,0.595773 -0.005,0.0047 0.0042,0.0084 3.126441,4.232011 3.61634,-3.406042 0.002,-0.0023 z"
           id="path11246-3"
           style="fill:#f1f32f;fill-opacity:1;stroke-width:0.248263" />
      </g>
    </g>
  </g>
  <style
     type="text/css"
     id="style24633">
	.st0{fill:#BB9645;}
	.st1{fill:#0A0B0B;}
	.st2{fill:#FFFFFF;}
	.st3{fill:#231F20;}
	.st4{fill:url(#SVGID_1_);}
	.st5{fill:url(#SVGID_2_);}
	.st6{fill:url(#SVGID_3_);}
	.st7{fill:url(#SVGID_4_);}
	.st8{fill:url(#SVGID_5_);}
	.st9{fill:url(#SVGID_6_);}
	.st10{fill:url(#SVGID_7_);}
	.st11{fill:url(#SVGID_8_);}
	.st12{fill:url(#SVGID_9_);}
	.st13{fill:url(#SVGID_10_);}
	.st14{fill:url(#SVGID_11_);}
	.st15{fill:#1B1B1B;}
	.st16{fill:url(#SVGID_12_);}
	.st17{fill:url(#SVGID_13_);}
	.st18{fill:url(#SVGID_14_);}
	.st19{fill:url(#SVGID_15_);}
	.st20{fill:url(#SVGID_16_);}
	.st21{fill:url(#SVGID_17_);}
	.st22{fill:url(#SVGID_18_);}
	.st23{fill:url(#SVGID_19_);}
	.st24{fill:url(#SVGID_20_);}
	.st25{fill:url(#SVGID_21_);}
	.st26{fill:url(#SVGID_22_);}
</style>
  <style
     type="text/css"
     id="style24633-9">
	.st0{fill:#BB9645;}
	.st1{fill:#0A0B0B;}
	.st2{fill:#FFFFFF;}
	.st3{fill:#231F20;}
	.st4{fill:url(#SVGID_1_);}
	.st5{fill:url(#SVGID_2_);}
	.st6{fill:url(#SVGID_3_);}
	.st7{fill:url(#SVGID_4_);}
	.st8{fill:url(#SVGID_5_);}
	.st9{fill:url(#SVGID_6_);}
	.st10{fill:url(#SVGID_7_);}
	.st11{fill:url(#SVGID_8_);}
	.st12{fill:url(#SVGID_9_);}
	.st13{fill:url(#SVGID_10_);}
	.st14{fill:url(#SVGID_11_);}
	.st15{fill:#1B1B1B;}
	.st16{fill:url(#SVGID_12_);}
	.st17{fill:url(#SVGID_13_);}
	.st18{fill:url(#SVGID_14_);}
	.st19{fill:url(#SVGID_15_);}
	.st20{fill:url(#SVGID_16_);}
	.st21{fill:url(#SVGID_17_);}
	.st22{fill:url(#SVGID_18_);}
	.st23{fill:url(#SVGID_19_);}
	.st24{fill:url(#SVGID_20_);}
	.st25{fill:url(#SVGID_21_);}
	.st26{fill:url(#SVGID_22_);}
</style>
  <style
     type="text/css"
     id="style2">
	.st0{fill:#3C3C3B;}
	.st1{fill:#8C8C8C;}
	.st2{fill:#393939;}
	.st3{fill:#343434;}
	.st4{fill:#151515;}
</style>
</svg>
