<?xml version="1.0" encoding="UTF-8" standalone="no"?>
<!-- Created with Inkscape (http://www.inkscape.org/) -->

<svg
   width="102.48137mm"
   height="121.41064mm"
   viewBox="0 0 102.48137 121.41064"
   version="1.1"
   id="svg5"
   sodipodi:docname="bsceth_coin.svg"
   inkscape:version="1.1.2 (0a00cf5339, 2022-02-04)"
   xmlns:inkscape="http://www.inkscape.org/namespaces/inkscape"
   xmlns:sodipodi="http://sodipodi.sourceforge.net/DTD/sodipodi-0.dtd"
   xmlns:xlink="http://www.w3.org/1999/xlink"
   xmlns="http://www.w3.org/2000/svg"
   xmlns:svg="http://www.w3.org/2000/svg">
  <sodipodi:namedview
     id="namedview7"
     pagecolor="#ffffff"
     bordercolor="#666666"
     borderopacity="1.0"
     inkscape:pageshadow="2"
     inkscape:pageopacity="0.0"
     inkscape:pagecheckerboard="0"
     inkscape:document-units="mm"
     showgrid="false"
     inkscape:snap-global="false"
     inkscape:object-paths="true"
     inkscape:zoom="1"
     inkscape:cx="154.5"
     inkscape:cy="307.5"
     inkscape:window-width="1629"
     inkscape:window-height="1082"
     inkscape:window-x="26"
     inkscape:window-y="23"
     inkscape:window-maximized="0"
     inkscape:current-layer="layer1"
     fit-margin-top="0"
     fit-margin-left="0"
     fit-margin-right="0"
     fit-margin-bottom="0" />
  <defs
     id="defs2">
    <linearGradient
       inkscape:collect="always"
       id="linearGradient30966">
      <stop
         style="stop-color:#fecd0d;stop-opacity:1"
         offset="0"
         id="stop30962" />
      <stop
         style="stop-color:#d89301;stop-opacity:1"
         offset="1"
         id="stop30964" />
    </linearGradient>
    <linearGradient
       inkscape:collect="always"
       id="linearGradient18702">
      <stop
         style="stop-color:#ffce0d;stop-opacity:1;"
         offset="0"
         id="stop18698" />
      <stop
         style="stop-color:#eda908;stop-opacity:1"
         offset="1"
         id="stop18700" />
    </linearGradient>
    <linearGradient
       inkscape:collect="always"
       id="linearGradient18312">
      <stop
         style="stop-color:#ffcc00;stop-opacity:1;"
         offset="0"
         id="stop18308" />
      <stop
         style="stop-color:#d69101;stop-opacity:1"
         offset="1"
         id="stop18310" />
    </linearGradient>
    <linearGradient
       inkscape:collect="always"
       id="linearGradient59762">
      <stop
         style="stop-color:#ffcc00;stop-opacity:1;"
         offset="0"
         id="stop59758" />
      <stop
         style="stop-color:#d89401;stop-opacity:1"
         offset="1"
         id="stop59760" />
    </linearGradient>
    <linearGradient
       inkscape:collect="always"
       id="linearGradient19919">
      <stop
         style="stop-color:#ffc904;stop-opacity:1"
         offset="0"
         id="stop19915" />
      <stop
         style="stop-color:#ffd736;stop-opacity:1"
         offset="1"
         id="stop19917" />
    </linearGradient>
    <linearGradient
       inkscape:collect="always"
       id="linearGradient18929">
      <stop
         style="stop-color:#ffe680;stop-opacity:1"
         offset="0"
         id="stop18925" />
      <stop
         style="stop-color:#d4aa00;stop-opacity:0;"
         offset="1"
         id="stop18927" />
    </linearGradient>
    <linearGradient
       inkscape:collect="always"
       id="linearGradient12834">
      <stop
         style="stop-color:#d4aa00;stop-opacity:1;"
         offset="0"
         id="stop12830" />
      <stop
         style="stop-color:#d48d00;stop-opacity:1"
         offset="0.10010534"
         id="stop13740" />
      <stop
         style="stop-color:#ffce0d;stop-opacity:1"
         offset="0.19219321"
         id="stop13674" />
      <stop
         style="stop-color:#d4aa00;stop-opacity:1;"
         offset="0.72628218"
         id="stop13608" />
      <stop
         style="stop-color:#ffcf0d;stop-opacity:1"
         offset="0.888493"
         id="stop13542" />
      <stop
         style="stop-color:#d4aa00;stop-opacity:1"
         offset="1"
         id="stop12832" />
    </linearGradient>
    <linearGradient
       inkscape:collect="always"
       xlink:href="#linearGradient12834"
       id="linearGradient12836"
       x1="88.961845"
       y1="473.68225"
       x2="545.56927"
       y2="473.68225"
       gradientUnits="userSpaceOnUse"
       gradientTransform="matrix(0.03727912,0.2619439,-0.2619439,0.03727912,164.66318,-2.9074218)" />
    <linearGradient
       inkscape:collect="always"
       xlink:href="#linearGradient18929"
       id="linearGradient18859"
       x1="86.42765"
       y1="107.53871"
       x2="132.21687"
       y2="115.24442"
       gradientUnits="userSpaceOnUse"
       gradientTransform="rotate(81.900219,84.006836,93.424677)" />
    <linearGradient
       inkscape:collect="always"
       xlink:href="#linearGradient19919"
       id="linearGradient19921"
       x1="73.15007"
       y1="45.947308"
       x2="41.893063"
       y2="83.850006"
       gradientUnits="userSpaceOnUse"
       gradientTransform="translate(20.340059,-163.38693)" />
    <linearGradient
       inkscape:collect="always"
       xlink:href="#linearGradient18312"
       id="linearGradient62698"
       gradientUnits="userSpaceOnUse"
       x1="426.35464"
       y1="654.87537"
       x2="2308.136"
       y2="28.826628"
       gradientTransform="matrix(0.01589883,-0.00160409,0.00259014,0.01961518,89.520592,88.940835)" />
    <linearGradient
       inkscape:collect="always"
       xlink:href="#linearGradient59762"
       id="linearGradient62700"
       gradientUnits="userSpaceOnUse"
       x1="0.006"
       y1="1000"
       x2="2680.9688"
       y2="1062.3661"
       gradientTransform="matrix(0.01589883,-0.00160409,0.00259014,0.01961518,89.520592,88.940835)" />
    <filter
       inkscape:collect="always"
       style="color-interpolation-filters:sRGB"
       id="filter48356"
       x="-0.0083735463"
       y="-0.0075415263"
       width="1.0167471"
       height="1.0150831">
      <feGaussianBlur
         inkscape:collect="always"
         stdDeviation="0.22963582"
         id="feGaussianBlur48358" />
    </filter>
    <linearGradient
       inkscape:collect="always"
       xlink:href="#linearGradient25849"
       id="linearGradient25851"
       x1="113.52141"
       y1="67.173355"
       x2="82.593407"
       y2="116.2577"
       gradientUnits="userSpaceOnUse" />
    <linearGradient
       inkscape:collect="always"
       id="linearGradient25849">
      <stop
         style="stop-color:#e99e00;stop-opacity:1"
         offset="0"
         id="stop25845" />
      <stop
         style="stop-color:#edb407;stop-opacity:1;"
         offset="0.39802659"
         id="stop36038" />
      <stop
         style="stop-color:#f9c901;stop-opacity:1"
         offset="0.73147172"
         id="stop26621" />
      <stop
         style="stop-color:#e9ac06;stop-opacity:1"
         offset="1"
         id="stop25847" />
    </linearGradient>
    <linearGradient
       inkscape:collect="always"
       xlink:href="#linearGradient18702"
       id="linearGradient18704"
       x1="58.66404"
       y1="101.77119"
       x2="71.762444"
       y2="88.998009"
       gradientUnits="userSpaceOnUse" />
    <linearGradient
       inkscape:collect="always"
       xlink:href="#linearGradient18702"
       id="linearGradient30416"
       gradientUnits="userSpaceOnUse"
       x1="60.585354"
       y1="99.87619"
       x2="66.545883"
       y2="92.820168" />
    <linearGradient
       inkscape:collect="always"
       xlink:href="#linearGradient30966"
       id="linearGradient30968"
       x1="73.101868"
       y1="123.36046"
       x2="106.79327"
       y2="105.10981"
       gradientUnits="userSpaceOnUse" />
    <linearGradient
       inkscape:collect="always"
       xlink:href="#linearGradient30966"
       id="linearGradient50547"
       gradientUnits="userSpaceOnUse"
       x1="73.101868"
       y1="123.36046"
       x2="106.79327"
       y2="105.10981" />
    <linearGradient
       inkscape:collect="always"
       xlink:href="#linearGradient30966"
       id="linearGradient50549"
       gradientUnits="userSpaceOnUse"
       x1="73.101868"
       y1="123.36046"
       x2="106.79327"
       y2="105.10981" />
    <linearGradient
       inkscape:collect="always"
       xlink:href="#linearGradient18702"
       id="linearGradient61066"
       gradientUnits="userSpaceOnUse"
       x1="58.66404"
       y1="101.77119"
       x2="71.762444"
       y2="88.998009" />
    <linearGradient
       inkscape:collect="always"
       xlink:href="#linearGradient18702"
       id="linearGradient61068"
       gradientUnits="userSpaceOnUse"
       x1="58.66404"
       y1="101.77119"
       x2="71.762444"
       y2="88.998009" />
    <linearGradient
       inkscape:collect="always"
       xlink:href="#linearGradient18702"
       id="linearGradient61070"
       gradientUnits="userSpaceOnUse"
       x1="58.66404"
       y1="101.77119"
       x2="71.762444"
       y2="88.998009" />
  </defs>
  <g
     inkscape:label="Layer 1"
     inkscape:groupmode="layer"
     id="layer1"
     transform="translate(-32.766147,-32.717934)">
    <path
       id="path12396"
       style="fill:url(#linearGradient12836);fill-opacity:1;stroke-width:3.86001;stroke-linejoin:bevel"
       d="M 126.38316,87.392676 C 124.20246,72.070802 117.33209,57.489071 107.31953,47.534815 99.850015,40.108804 90.585493,35.360074 81.127824,34.168304 l -0.180425,-1.267768 -8.153515,1.160385 c -0.449391,0.04634 -0.898505,0.09915 -1.346467,0.162917 -0.447413,0.06369 -0.892481,0.13812 -1.336412,0.218903 l -0.05116,0.0073 3.65e-4,0.0026 C 58.013361,36.66311 47.303942,45.113504 40.715466,57.015867 c -6.837488,12.35218 -9.367701,28.270256 -7.187322,43.591733 2.180288,15.3218 9.049483,29.904 19.061662,39.85866 9.647446,9.59203 22.290477,14.71799 34.475868,13.47994 l 4.36e-4,0.003 0.06037,-0.009 c 0.445928,-0.0461 0.891134,-0.0986 1.335652,-0.1619 0.444555,-0.0632 0.887182,-0.13708 1.328297,-0.21723 l 8.163749,-1.16184 -0.180571,-1.26879 c 8.749653,-3.78345 16.321433,-10.92854 21.422593,-20.14389 6.83789,-12.35277 9.36787,-28.27207 7.18696,-43.594292 z" />
    <path
       id="path12177"
       style="fill:#ffe690;fill-opacity:1;stroke-width:3.86001;stroke-linejoin:bevel"
       d="M 134.48524,86.239747 C 132.30454,70.91787 125.43391,56.335956 115.42135,46.3817 105.4044,36.423087 92.159353,31.275773 79.54935,33.070764 c -12.609657,1.795 -23.89152,10.434209 -30.731986,22.7918 -6.837489,12.352179 -9.367884,28.270619 -7.187506,43.592098 2.180263,15.321808 9.049777,29.903658 19.061954,39.858318 10.016576,9.95904 23.262256,15.10706 35.872281,13.31287 12.610437,-1.79431 23.893037,-10.43388 30.733917,-22.79208 6.83789,-12.35277 9.36813,-28.2718 7.18723,-43.594023 z" />
    <path
       id="path12117"
       style="fill:url(#linearGradient18859);fill-opacity:1;stroke-width:3.86001;stroke-linejoin:bevel"
       d="M 133.73499,86.34652 C 131.5762,71.178607 124.7589,56.73457 114.88632,46.91948 105.01374,37.104391 91.992081,32.065036 79.656124,33.821017 67.320544,35.577002 56.22309,44.0502 49.481188,56.229726 c -6.741911,12.179528 -9.259544,27.950667 -7.10107,43.118161 2.158355,15.167863 8.974529,29.611823 18.846729,39.427313 9.872202,9.8155 22.894498,14.8556 35.230472,13.1004 12.336341,-1.75531 23.434551,-10.22887 30.176871,-22.40899 6.74232,-12.18011 9.25978,-27.95185 7.1008,-43.12009 z" />
    <ellipse
       style="fill:url(#linearGradient19921);fill-opacity:1;stroke-width:3.86001;stroke-linejoin:bevel"
       id="path9897"
       cx="104.34681"
       cy="-74.053886"
       rx="55.1217"
       ry="41.637768"
       transform="rotate(81.900219)" />
    <path
       id="ellipse48420"
       style="fill:#d49000;fill-opacity:1;stroke-width:3.86001;stroke-linejoin:bevel;opacity:0.92907517"
       d="m 85.01291,37.793241 a 55.121701,41.637767 81.900219 0 0 -2.96106,0.27957 55.121701,41.637767 81.900219 0 0 -3.467489,0.716235 55.121701,41.637767 81.900219 0 1 0.840258,-0.160197 A 55.121701,41.637767 81.900219 0 1 128.41387,87.333885 55.121701,41.637767 81.900219 0 1 98.334578,147.09768 55.121701,41.637767 81.900219 0 0 131.0411,86.777847 55.121701,41.637767 81.900219 0 0 85.01291,37.793241 Z" />
    <g
       id="g61064"
       transform="matrix(1.0773576,-0.10902532,-0.03206338,1.1378936,-4.1122136,-7.458315)">
      <path
         class="st0"
         d="m 65.684301,88.719743 -0.07833,1.042764 5.37539,29.797483 0.317043,0.28052 10.701424,-9.04603 z"
         id="path55102"
         style="opacity:0.805518;fill:#d4aa00;stroke-width:0.0743153" />
      <path
         id="path55104"
         style="opacity:0.805518;fill:#de9d0b;fill-opacity:1;stroke-width:0.280877"
         class="st1"
         d="m 135.00391,211.15039 -10.58789,0.50977 2.23242,3.82031 -1.53321,0.0742 -0.70117,-3.89453 -30.374998,90.00976 51.593748,27.61133 -0.18164,-1.01172 10.77149,0.50195 -18.32422,-96.82421 z"
         transform="matrix(0.26458333,0,0,0.26458333,32.766147,32.717934)" />
      <path
         class="st0"
         d="m 71.770158,122.45557 -0.113926,0.22356 1.913997,10.60988 0.241809,0.48535 8.667888,-20.35744 z"
         id="path55106"
         style="opacity:0.805518;fill:#de9d0b;fill-opacity:1;stroke-width:0.0743153" />
      <path
         id="path55108"
         style="opacity:0.805518;fill:#de9d0b;fill-opacity:1;stroke-width:0.0743153"
         class="st1"
         d="m 82.480178,113.41712 -7.328598,12.97113 -3.121999,-2.49342 -0.25954,-1.43908 -4.663932,-2.49371 -6.183873,-4.93946 -2.801961,0.13466 15.692003,18.61733 2.801409,-0.13511 8.6679,-20.35744 z" />
      <path
         class="st2"
         d="m 71.298407,119.84051 10.701424,-9.04603 -13.310257,-5.41556 z"
         id="path55110"
         style="opacity:0.805518;fill:#d4aa00;stroke-width:0.0743153" />
      <path
         class="st3"
         d="m 57.647129,112.53455 13.651278,7.30596 -2.608833,-14.46159 z"
         id="path55112"
         style="opacity:0.805518;fill:#de9d0b;fill-opacity:1;stroke-width:0.0743153" />
      <g
         id="g30960"
         style="fill:url(#linearGradient30968);fill-opacity:1"
         transform="translate(-1.53e-4,1.6e-4)">
        <path
           class="st0"
           d="m 74.571959,122.32051 -0.113925,0.22355 1.913996,10.60989 0.24181,0.48535 8.667884,-20.35744 z"
           id="path55258"
           style="opacity:0.805518;fill:url(#linearGradient50547);fill-opacity:1;stroke-width:0.0743153" />
        <path
           class="st1"
           d="M 76.61384,133.6393 74.571959,122.32051 60.922102,115.02242 Z"
           id="path55260"
           style="opacity:0.805518;fill:url(#linearGradient50549);fill-opacity:1;stroke-width:0.0743153" />
      </g>
      <g
         id="g7098"
         style="fill:url(#linearGradient18704);fill-opacity:1">
        <path
           class="st0"
           d="m 68.486103,88.584677 -0.07833,1.042764 5.375389,29.797489 0.317044,0.28052 10.701421,-9.04603 z"
           id="path55254"
           style="opacity:0.805518;fill:url(#linearGradient61066);fill-opacity:1;stroke-width:0.0743153" />
        <path
           class="st1"
           d="m 68.486103,88.584677 -8.037172,23.814803 13.651279,7.30597 -2.608833,-14.46159 z"
           id="path55256"
           style="opacity:0.805518;fill:url(#linearGradient61068);fill-opacity:1;stroke-width:0.0743153" />
        <path
           class="st2"
           d="m 74.10021,119.70545 10.701421,-9.04603 -13.310254,-5.41556 z"
           id="path55262"
           style="opacity:0.805518;fill:url(#linearGradient61070);fill-opacity:1;stroke-width:0.0743153" />
        <path
           class="st3"
           d="m 60.448931,112.39948 13.651279,7.30597 -2.608833,-14.46159 z"
           id="path55264"
           style="opacity:0.805518;fill:url(#linearGradient30416);fill-opacity:1;stroke-width:0.0743153" />
      </g>
    </g>
    <g
       id="g61076"
       transform="matrix(1.1019921,-0.03998089,-0.04545302,1.1756492,-6.6173744,-13.108518)">
      <path
         id="path55085"
         style="fill:#de9d0b;fill-opacity:1;stroke-width:0.0177768"
         d="m 102.97112,87.378887 -8.177071,13.037563 4.178374,4.07033 2.448507,-0.0422 2.72072,-8.199009 7.18501,6.998929 2.44798,-0.0422 -1.10543,-2.09885 1.6648,-2.654682 -6.28992,-6.127913 -2.62499,-4.984143 z m 14.31075,13.942033 -3.00786,4.79576 4.17837,4.07033 2.44799,-0.0422 -0.42121,-3.18968 0.98109,-1.56388 -1.36285,-1.32766 -0.36754,-2.78487 z m -12.31533,1.1726 1.18876,9.00138 2.44851,-0.0422 -1.18877,-9.00138 z m -12.296531,1.30842 -3.007866,4.79575 4.178374,4.07034 2.4485,-0.0422 -0.42124,-3.19024 0.980606,-1.56329 -1.362303,-1.32712 -0.367567,-2.78544 z m 19.481791,5.69559 -5.17161,8.24535 -4.73269,-7.03743 -2.448527,0.0417 -3.013313,4.79043 0.0055,0.006 11.36011,11.06606 2.44798,-0.0422 1.43944,-6.15621 4.29203,-6.84326 0.001,-0.002 -2.1936,-2.13466 0.46178,-1.97552 z" />
      <path
         d="m 109.20519,106.62406 0.002,-1.6e-4 -4.24008,-4.13049 -2.25555,3.59624 -1.6e-4,2e-5 -0.25909,0.41334 -0.53446,0.85236 -0.004,0.007 0.006,0.006 4.23621,4.1269 3.05209,-4.86621 10e-4,-0.003 -0.004,-0.002"
         id="path55087"
         style="fill:#de9d0b;fill-opacity:1;stroke-width:0.0177768" />
      <path
         d="m 101.42096,104.44478 5.16912,-8.241364 7.18479,6.998914 3.00776,-4.795553 -11.36337,-11.070011 -8.176644,13.037494 4.178344,4.07052 m -9.310209,4.11062 3.007856,-4.7957 4.178362,4.07038 -3.007828,4.79566 z m 10.136889,2.14977 7.18109,6.99531 5.17164,-8.2454 4.18011,4.06796 -0.002,0.003 -8.17949,13.04156 -11.359785,-11.066 -0.0059,-0.006 3.013785,-4.7902 m 14.47493,-4.63047 3.00786,-4.79569 4.17836,4.07037 -3.00784,4.7957 z"
         id="path55268"
         style="fill:url(#linearGradient62698);fill-opacity:1;stroke-width:0.0177768" />
      <path
         d="m 111.65358,106.58189 0.002,-1.6e-4 -4.24008,-4.13049 -2.25556,3.59625 -1.5e-4,1e-5 -0.2591,0.41334 -0.53445,0.85236 -0.004,0.007 0.006,0.006 4.23622,4.1269 3.05208,-4.86621 10e-4,-0.003 -0.004,-0.002"
         id="path55270"
         style="fill:url(#linearGradient62700);fill-opacity:1;stroke-width:0.0177768" />
    </g>
    <g
       id="g911"
       transform="matrix(0.5414453,0.02377596,-0.02180361,0.49652916,43.428633,-38.416773)"
       style="opacity:0.822375">
      <path
         id="path24640"
         style="fill:#d79101;fill-opacity:1;stroke-width:0.950631;filter:url(#filter48356)"
         class="st4"
         d="m 317.29883,202.51367 c -6.97502,0.041 -14.35025,0.6638 -22.14063,1.9668 -99.71678,16.6784 -92.23242,118.73828 -92.23242,118.73828 l 6.20508,16.00586 10.61523,-8.33984 28.83399,-34.24805 28.10937,-4.5957 17.70703,42.44726 -16.82031,30.44141 -41.19726,15.04101 -7.44336,62.32227 36.43554,4.70312 41.88868,18.39844 10.85546,13.32031 14.50977,-3.69726 41.06641,-6.44531 10.39648,-0.9961 11.23633,-6.92187 -6.64453,-8.2168 31.60351,-31.14062 31.27344,-31.9043 -0.87305,-8.32227 -29.21289,-31.63281 -39.88672,-0.95117 -38.31054,-32.43945 3.10156,-35.98047 27.02148,-4.73047 39.73829,21.61523 15.32031,5.16602 11.23633,-6.92188 -23.31836,-33.48047 c -3.2457,-5.51623 -7.34705,-11.65601 -12.43164,-17.85156 l -0.0391,-0.0566 0.008,0.0156 c -16.88055,-20.55254 -44.45766,-41.55605 -86.61133,-41.3086 z m 7.93555,124.38281 32.30078,47.10157 -12.73438,25.09961 -19.6582,3.60546 -19.30664,-12.75585 2.25,-34.56641 5.18164,-23.20117 z"
         transform="matrix(0.26450698,0.01434323,0,0.27427814,-2.87579,110.2118)" />
      <path
         class="st4"
         d="m 115.78146,72.931041 0.55365,5.172668 -4.05347,-1.366518 -10.5144,-5.719194 -7.149149,1.251767 -0.820863,9.519564 10.136532,8.583063 10.55326,0.251373 7.72951,8.369518 0.23077,2.201938 -8.27453,8.44167 -8.42172,8.29827 -1.15509,3.9461 -2.75058,0.26401 -10.865332,1.70529 -3.839313,0.97823 -2.87187,-3.52462 -11.083104,-4.86789 -9.64027,-1.24429 1.969332,-16.489278 10.899886,-3.979621 4.450869,-8.054201 -4.685206,-11.231266 -7.437335,1.215943 -7.629159,9.061916 -2.80847,2.206157 -1.641899,-4.234468 c 0,0 -1.979905,-27.003449 24.403493,-31.416275 26.383418,-4.412823 34.714458,20.660142 34.714458,20.660142 z m -18.210863,24.191011 -8.546303,-12.461919 -3.166139,1.397771 -1.370603,6.138662 -0.595719,9.145824 5.108625,3.37457 5.200819,-0.95395 3.36932,-6.640978 z"
         id="path24847"
         style="fill:url(#linearGradient25851);fill-opacity:1;stroke-width:0.251521;filter:url(#filter48356)"
         transform="matrix(0.99971143,0.05421062,0,1.0366418,-2.87579,110.2118)" />
    </g>
  </g>
  <style
     type="text/css"
     id="style24633">
	.st0{fill:#BB9645;}
	.st1{fill:#0A0B0B;}
	.st2{fill:#FFFFFF;}
	.st3{fill:#231F20;}
	.st4{fill:url(#SVGID_1_);}
	.st5{fill:url(#SVGID_2_);}
	.st6{fill:url(#SVGID_3_);}
	.st7{fill:url(#SVGID_4_);}
	.st8{fill:url(#SVGID_5_);}
	.st9{fill:url(#SVGID_6_);}
	.st10{fill:url(#SVGID_7_);}
	.st11{fill:url(#SVGID_8_);}
	.st12{fill:url(#SVGID_9_);}
	.st13{fill:url(#SVGID_10_);}
	.st14{fill:url(#SVGID_11_);}
	.st15{fill:#1B1B1B;}
	.st16{fill:url(#SVGID_12_);}
	.st17{fill:url(#SVGID_13_);}
	.st18{fill:url(#SVGID_14_);}
	.st19{fill:url(#SVGID_15_);}
	.st20{fill:url(#SVGID_16_);}
	.st21{fill:url(#SVGID_17_);}
	.st22{fill:url(#SVGID_18_);}
	.st23{fill:url(#SVGID_19_);}
	.st24{fill:url(#SVGID_20_);}
	.st25{fill:url(#SVGID_21_);}
	.st26{fill:url(#SVGID_22_);}
</style>
  <style
     id="style55100">.st0{fill:#937821}.st1{fill:#d8ba5a}.st2{fill:#725d1a}.st3{fill:#9a8023}</style>
</svg>
