<?xml version="1.0" encoding="UTF-8" standalone="no"?>
<!-- Generator: Adobe Illustrator 24.0.0, SVG Export Plug-In . SVG Version: 6.00 Build 0) -->

<svg
   id="svg947"
   x="0px"
   y="0px"
   viewBox="0 0 504 504"
   style="enable-background:new 0 0 504 504;"
   xml:space="preserve"
   version="1.1"
   sodipodi:docname="bitclout.svg"
   inkscape:version="1.1.2 (0a00cf5339, 2022-02-04)"
   xmlns:inkscape="http://www.inkscape.org/namespaces/inkscape"
   xmlns:sodipodi="http://sodipodi.sourceforge.net/DTD/sodipodi-0.dtd"
   xmlns="http://www.w3.org/2000/svg"
   xmlns:svg="http://www.w3.org/2000/svg"><defs
   id="defs33"><clipPath
     clipPathUnits="userSpaceOnUse"
     id="clipPath22062"><rect
       style="fill:#212121;fill-opacity:1;stroke:none;stroke-width:5.02107;stroke-linejoin:bevel;stroke-miterlimit:4;stroke-dasharray:none;stroke-opacity:1"
       id="rect22064"
       width="114.43554"
       height="295.82892"
       x="6.5061212"
       y="74.271263"
       transform="scale(-1,1)" /></clipPath></defs><sodipodi:namedview
   id="namedview31"
   pagecolor="#ffffff"
   bordercolor="#666666"
   borderopacity="1.0"
   inkscape:pageshadow="2"
   inkscape:pageopacity="0.0"
   inkscape:pagecheckerboard="0"
   showgrid="false"
   inkscape:zoom="1.22481"
   inkscape:cx="252.28404"
   inkscape:cy="165.33177"
   inkscape:window-width="2386"
   inkscape:window-height="1082"
   inkscape:window-x="26"
   inkscape:window-y="23"
   inkscape:window-maximized="0"
   inkscape:current-layer="svg947" /> <style
   type="text/css"
   id="style2"> .st0{fill:#212121;} .st1{fill:#BB9645;} </style> <path
   style="fill:#bb9645;fill-opacity:1;stroke-width:0.281645"
   d="m 237.07733,378.2946 c -0.38727,-0.15773 -1.97152,-0.40467 -3.52057,-0.54876 -1.54905,-0.14408 -3.51352,-0.39344 -4.3655,-0.55413 -5.00839,-0.94464 -11.90529,-2.5524 -14.36391,-3.34843 -0.85198,-0.27584 -2.87983,-0.92028 -4.50633,-1.4321 -6.73839,-2.12038 -16.84297,-6.59879 -22.95409,-10.1734 -1.08433,-0.63426 -2.35174,-1.37133 -2.81645,-1.63792 -3.25597,-1.86785 -12.63029,-8.51626 -14.78818,-10.48803 -0.38825,-0.35476 -1.97251,-1.73487 -3.52057,-3.0669 -5.29377,-4.55507 -11.48073,-11.17515 -16.84245,-18.0215 -1.91005,-2.43893 -8.92628,-12.91141 -8.92628,-13.32342 0,-0.0546 -0.69708,-1.33012 -1.54906,-2.83453 -0.85197,-1.5044 -1.54904,-2.90035 -1.54904,-3.10211 0,-0.52056 1.59982,-1.2138 4.29665,-1.86181 2.3324,-0.56046 3.85162,-0.9625 5.42011,-1.43433 0.71778,-0.21593 13.91153,-3.75016 25.20725,-6.7523 1.78141,-0.47345 4.37959,-1.17142 5.77373,-1.55105 1.39415,-0.37962 3.10514,-0.82325 3.80221,-0.98585 0.69708,-0.1626 2.78829,-0.71223 4.64715,-1.22138 1.85886,-0.50917 3.7165,-1.00264 4.1281,-1.0966 0.41159,-0.094 0.9339,-0.24205 1.16068,-0.32907 0.46024,-0.17661 0.65709,-0.002 2.43433,2.16095 2.14652,2.61223 10.18212,10.45928 12.97782,12.6733 9.29334,7.35977 19.35606,11.54869 31.68509,13.18989 3.38593,0.45073 19.64062,0.3771 23.23573,-0.10524 3.04197,-0.40812 6.81755,-1.12583 8.30854,-1.57937 0.46471,-0.14136 1.79549,-0.53381 2.95728,-0.8721 6.56702,-1.91219 13.99415,-5.90468 20.13763,-10.82509 2.3121,-1.85179 10.75172,-10.14305 12.73896,-12.515 3.89942,-4.65434 7.76346,-10.80856 9.37233,-14.9272 0.3328,-0.85198 0.7757,-1.92927 0.98421,-2.39399 0.54756,-1.22035 2.25074,-6.51735 2.62622,-8.16771 0.45636,-2.00588 1.11835,-5.78112 1.52792,-8.71362 l 0.3516,-2.51743 1.8307,-0.47582 c 2.68283,-0.6973 9.58206,-2.52909 10.56169,-2.8042 1.2732,-0.35755 6.94747,-1.87073 19.01106,-5.06977 5.24135,-1.38991 18.03325,-4.82754 19.43352,-5.22247 3.20001,-0.90252 4.54296,-1.24887 4.84232,-1.24887 0.45796,0 0.0797,18.47132 -0.45268,22.10915 -0.67615,4.61971 -1.2406,8.07197 -1.5887,9.71676 -0.18031,0.85198 -0.42522,2.05601 -0.54425,2.67563 -0.22226,1.15708 -1.52863,6.42634 -1.78056,7.18195 -0.0775,0.23236 -0.48462,1.56313 -0.9048,2.95728 -0.78441,2.60275 -3.44526,9.82078 -4.36067,11.8291 -0.28243,0.61962 -0.79024,1.76029 -1.12847,2.5348 -3.40412,7.79528 -10.55177,19.72656 -15.26961,25.48891 -3.77088,4.60572 -8.29905,9.7443 -10.71692,12.16155 -7.29354,7.29169 -18.02592,15.52089 -26.39623,20.23967 -7.23064,4.07628 -16.17041,8.10865 -22.67245,10.22662 -0.77452,0.25229 -2.04193,0.66503 -2.81645,0.91719 -0.77452,0.25216 -1.78844,0.55883 -2.25316,0.68148 -0.46472,0.12266 -1.85886,0.4995 -3.0981,0.83744 -2.34031,0.63819 -4.42956,1.11439 -8.02689,1.82957 -1.16179,0.23098 -2.74604,0.54832 -3.52056,0.70521 -0.77453,0.15689 -2.67564,0.4078 -4.22468,0.55758 -1.54905,0.14979 -3.25921,0.4023 -3.80036,0.56115 -1.32232,0.38815 -25.23467,0.35741 -26.19486,-0.0337 z M 136.56118,308.43395 c -0.13716,-0.35785 -0.81651,-1.85468 -1.50966,-3.32628 -1.71063,-3.63172 -4.30097,-10.18814 -5.32768,-13.4849 -0.46414,-1.49033 -1.0726,-3.40677 -1.35214,-4.25875 -0.27953,-0.85198 -0.85065,-3.00656 -1.26914,-4.78797 -0.4185,-1.7814 -0.87502,-3.68251 -1.0145,-4.22468 -0.25237,-0.98094 -1.29339,-7.57288 -2.00153,-12.67403 -0.51484,-3.70866 -0.51715,-24.26017 -0.003,-27.60124 0.20258,-1.31669 0.55139,-3.72476 0.77513,-5.35126 0.41758,-3.03562 0.82327,-5.30648 1.25788,-7.04114 0.13583,-0.54216 0.44938,-1.93631 0.69676,-3.09809 0.62947,-2.9562 1.5555,-6.16799 3.28127,-11.38056 2.4295,-7.33811 6.97813,-17.24254 10.9721,-23.8912 11.2976,-18.80686 26.50782,-33.88031 45.45543,-45.04669 3.36573,-1.98352 8.16954,-4.44888 11.44751,-5.87498 1.13931,-0.49565 2.57842,-1.12452 3.19804,-1.39749 2.64557,-1.16547 6.45103,-2.5619 9.99841,-3.66895 2.09122,-0.65262 4.05569,-1.28875 4.3655,-1.41361 0.30981,-0.12487 0.88014,-0.28892 1.2674,-0.36456 0.38726,-0.0757 1.71804,-0.38375 2.95728,-0.68467 6.84156,-1.66134 11.52193,-2.49752 16.1946,-2.89326 1.93631,-0.16399 4.15427,-0.4266 4.92879,-0.58358 1.81155,-0.36716 17.52663,-0.16954 21.68669,0.27273 2.762,0.29362 6.19205,0.77494 10.42087,1.46229 12.44543,2.02287 28.43365,7.82598 40.13445,14.56727 2.57803,1.4853 6.931,4.18262 7.43559,4.60747 0.17031,0.14339 1.27974,0.92269 2.46539,1.73178 3.94735,2.69365 5.44316,3.79629 6.06032,4.46738 l 0.61164,0.66507 -3.85056,3.16105 c -2.1178,1.73858 -4.14946,3.3862 -4.51481,3.66139 -0.36534,0.27519 -1.06241,0.8294 -1.54904,1.23159 -0.48664,0.40219 -2.91264,2.35728 -5.39112,4.34465 -2.47848,1.98736 -4.96327,4.00299 -5.52175,4.47918 -0.55849,0.47619 -2.14275,1.75049 -3.52057,2.83179 -1.37783,1.0813 -3.27098,2.60218 -4.207,3.37975 -0.93603,0.77756 -2.1856,1.79396 -2.77681,2.25867 -2.03787,1.60183 -8.80351,7.04534 -10.93914,8.80142 -2.1171,1.74085 -2.66395,1.99968 -3.18486,1.50746 -0.89318,-0.84397 -8.47473,-4.11246 -11.25173,-4.85073 -0.46472,-0.12354 -1.54201,-0.42117 -2.39398,-0.66138 -5.67845,-1.60106 -10.52929,-2.10926 -20.13764,-2.10975 -11.50395,-4.1e-4 -16.54281,0.67445 -24.36231,3.26369 -3.77563,1.25021 -9.09755,3.70958 -12.65107,5.84632 -3.95204,2.37637 -8.36911,6.05689 -13.60226,11.33406 -7.08643,7.14606 -9.84853,10.72612 -13.16109,17.05863 -3.65394,6.98509 -5.71669,13.60268 -6.77098,21.72221 -0.37443,2.88362 -0.36999,20.76484 0.006,23.37264 0.5301,3.67863 1.16532,7.08279 1.47627,7.9114 0.27205,0.72495 0.22598,0.88257 -0.41166,1.40823 -2.31967,1.91234 -7.76259,6.33076 -8.53554,6.92893 -1.42903,1.10589 -6.44719,5.15845 -6.78819,5.48201 -0.1691,0.16044 -0.73099,0.60857 -1.24864,0.99583 -0.51765,0.38726 -2.9141,2.30872 -5.32545,4.26992 -2.41135,1.96119 -6.24022,5.06633 -8.50862,6.90031 -2.2684,1.83397 -5.92321,4.79201 -8.1218,6.57342 -2.19859,1.78141 -4.23989,3.35335 -4.53623,3.49319 -0.29634,0.13985 -0.53879,0.41754 -0.53879,0.61708 0,0.67414 -0.56256,0.71628 -0.81373,0.061 z"
   id="path24954" /><circle
   class="st0"
   cx="252"
   cy="252"
   r="233.9"
   id="circle4" /> <g
   id="g10"> <path
   class="st1"
   d="M252,494.2C118.4,494.2,9.8,385.6,9.8,252S118.4,9.8,252,9.8S494.2,118.4,494.2,252S385.6,494.2,252,494.2z M252,25.1C126.9,25.1,25.1,126.9,25.1,252S126.9,478.9,252,478.9S478.9,377.1,478.9,252S377.1,25.1,252,25.1z"
   id="path6" /> <path
   class="st1"
   d="M252,453.4c-31.4,0-62.8-7.3-91.5-21.9c-3.8-1.9-5.3-6.5-3.3-10.3c1.9-3.8,6.5-5.2,10.3-3.3 c53,27,116.2,27,169.2-0.1c3.8-1.9,8.4-0.4,10.3,3.3c1.9,3.8,0.4,8.4-3.3,10.3C314.9,446.1,283.5,453.4,252,453.4z M437.6,315.4 c-0.7,0-1.5-0.1-2.2-0.3c-4-1.2-6.3-5.5-5.1-9.5c11-36.8,10.5-75.4-1.5-111.9c-1.3-4,0.9-8.3,4.9-9.7c4-1.3,8.3,0.9,9.7,4.9 c12.9,39.4,13.5,81.3,1.6,121C444,313.3,440.9,315.4,437.6,315.4z M66,314.3c-3.3,0-6.4-2.2-7.3-5.5 c-11.1-38.1-10.9-78.3,0.8-116.2c1.2-4,5.5-6.3,9.6-5.1c4,1.2,6.3,5.5,5.1,9.6c-10.8,35-11,72.2-0.7,107.4c1.2,4.1-1.1,8.3-5.2,9.5 C67.5,314.2,66.7,314.3,66,314.3z M170.3,83.9c-2.9,0-5.6-1.6-6.9-4.4c-1.8-3.8-0.1-8.4,3.7-10.2c53.9-25.1,115.8-25.1,169.7-0.1 c3.8,1.8,5.5,6.3,3.7,10.2c-1.8,3.8-6.3,5.5-10.2,3.7c-49.8-23.1-107-23.1-156.8,0C172.5,83.6,171.4,83.9,170.3,83.9z"
   id="path8" /> </g>    <path
   style="fill:#bb9645;fill-opacity:1;stroke-width:1.79988"
   d="m 238.18347,377.51319 c -5.67783,-7.17703 -16.39158,-20.74363 -23.80836,-30.148 -7.41677,-9.40438 -16.05217,-20.33865 -19.18975,-24.29839 -23.37701,-29.50255 -45.81283,-58.89926 -45.74965,-59.94384 0.0415,-0.68865 13.16651,-7.8239 29.16639,-15.85612 15.99986,-8.0322 29.31584,-15.32172 29.59106,-16.19893 0.27521,-0.87718 -12.84016,-18.60378 -29.14527,-39.39239 -16.30511,-20.78863 -29.65515,-38.25478 -29.66678,-38.81366 -0.0102,-0.55888 10.30569,-6.30113 22.92735,-12.76054 12.62165,-6.45943 35.25079,-18.04926 50.28692,-25.75518 l 27.33846,-14.01076 26.65796,13.5522 c 51.43521,26.14824 74.33817,38.19867 74.29511,39.0905 -0.0239,0.49497 -7.37393,10.21433 -16.33341,21.59857 -46.79753,59.46261 -43.96693,55.58281 -41.92862,57.47033 0.89402,0.82787 13.76024,7.70048 28.59159,15.27245 14.83135,7.57199 27.65399,14.45513 28.49475,15.2959 1.33343,1.33344 -16.8846,25.54538 -64.4463,85.6498 -7.05016,8.90941 -17.46397,22.07103 -23.14179,29.24806 -5.6778,7.17702 -11.06423,13.04913 -11.96984,13.04913 -0.90561,0 -6.29204,-5.87211 -11.96982,-13.04913 z m 23.65431,-18.89875 c 5.86914,-7.67198 18.40824,-23.66842 27.86468,-35.54764 29.96633,-37.6439 38.83204,-49.98735 31.9961,-44.5473 -1.23743,0.98476 -17.86061,9.66682 -36.94045,19.2935 l -34.6906,17.50305 -34.60481,-17.50138 c -19.03265,-9.62576 -35.61725,-18.30784 -36.85466,-19.29349 -6.91368,-5.50706 0.34751,4.41046 43.64711,59.61433 14.84901,18.93142 27.42869,34.42239 27.95483,34.42437 0.52614,10e-4 5.75864,-6.27344 11.6278,-13.94544 z m 26.56298,-76.1505 c 19.5512,-9.93295 35.54252,-18.62989 35.53623,-19.32651 -0.005,-0.6966 -9.26716,-5.8891 -20.57978,-11.53887 l -20.56841,-10.2723 -5.0685,5.89751 c -2.78767,3.24364 -9.89071,12.11838 -15.78454,19.72167 -5.89381,7.60329 -11.19592,13.82417 -11.78247,13.82417 -0.58654,0 -5.88864,-6.22088 -11.78246,-13.82417 -5.89382,-7.60329 -12.99906,-16.48054 -15.78942,-19.72722 l -5.07339,-5.90308 -20.58527,10.24679 c -11.3219,5.63574 -20.35548,10.93621 -20.0746,11.7788 0.76912,2.30741 68.25736,36.79919 72.4052,37.00473 1.97987,0.0981 19.59621,-7.94855 39.14741,-17.88152 z m -28.08911,-32.74227 c 17.53719,-21.95177 61.15201,-77.88206 62.60771,-80.28624 0.81304,-1.34278 -14.67378,5.74425 -34.41514,15.74896 -19.74139,10.00469 -36.99928,18.19035 -38.35093,18.19035 -1.35163,0 -18.60953,-8.18566 -38.35091,-18.19035 -19.74137,-10.00471 -35.22819,-17.09174 -34.41514,-15.74896 1.4557,2.40418 45.07052,58.33447 62.60771,80.28624 4.94286,6.18709 9.51411,11.24924 10.15834,11.24924 0.64424,0 5.2155,-5.06215 10.15836,-11.24924 z m 26.87204,-77.39488 c 20.21607,-10.14683 36.52445,-19.15052 36.24081,-20.00821 -0.91488,-2.76643 -70.44661,-37.16477 -74.17115,-36.69351 -4.65724,0.58925 -72.8966,35.14588 -72.89063,36.91204 0.004,1.03603 70.91772,37.87508 73.47752,38.1707 0.32281,0.0372 17.12734,-8.23419 37.34345,-18.38102 z"
   id="path27487" /></svg>
