<?xml version="1.0" encoding="UTF-8" standalone="no"?>
<!-- Generator: Adobe Illustrator 24.0.0, SVG Export Plug-In . SVG Version: 6.00 Build 0) -->

<svg
   id="svg947"
   x="0px"
   y="0px"
   viewBox="0 0 504 504"
   style="enable-background:new 0 0 504 504;"
   xml:space="preserve"
   version="1.1"
   sodipodi:docname="flote.svg"
   inkscape:version="1.1.2 (0a00cf5339, 2022-02-04)"
   xmlns:inkscape="http://www.inkscape.org/namespaces/inkscape"
   xmlns:sodipodi="http://sodipodi.sourceforge.net/DTD/sodipodi-0.dtd"
   xmlns="http://www.w3.org/2000/svg"
   xmlns:svg="http://www.w3.org/2000/svg"><defs
   id="defs33" /><sodipodi:namedview
   id="namedview31"
   pagecolor="#ffffff"
   bordercolor="#666666"
   borderopacity="1.0"
   inkscape:pageshadow="2"
   inkscape:pageopacity="0.0"
   inkscape:pagecheckerboard="0"
   showgrid="false"
   inkscape:zoom="1.7321429"
   inkscape:cx="251.71134"
   inkscape:cy="236.41237"
   inkscape:window-width="2386"
   inkscape:window-height="1082"
   inkscape:window-x="26"
   inkscape:window-y="23"
   inkscape:window-maximized="0"
   inkscape:current-layer="svg947" /> <style
   type="text/css"
   id="style2"> .st0{fill:#212121;} .st1{fill:#BB9645;} </style> <circle
   class="st0"
   cx="252"
   cy="252"
   r="233.9"
   id="circle4" /> <g
   id="g10"> <path
   class="st1"
   d="M252,494.2C118.4,494.2,9.8,385.6,9.8,252S118.4,9.8,252,9.8S494.2,118.4,494.2,252S385.6,494.2,252,494.2z M252,25.1C126.9,25.1,25.1,126.9,25.1,252S126.9,478.9,252,478.9S478.9,377.1,478.9,252S377.1,25.1,252,25.1z"
   id="path6" /> <path
   class="st1"
   d="M252,453.4c-31.4,0-62.8-7.3-91.5-21.9c-3.8-1.9-5.3-6.5-3.3-10.3c1.9-3.8,6.5-5.2,10.3-3.3 c53,27,116.2,27,169.2-0.1c3.8-1.9,8.4-0.4,10.3,3.3c1.9,3.8,0.4,8.4-3.3,10.3C314.9,446.1,283.5,453.4,252,453.4z M437.6,315.4 c-0.7,0-1.5-0.1-2.2-0.3c-4-1.2-6.3-5.5-5.1-9.5c11-36.8,10.5-75.4-1.5-111.9c-1.3-4,0.9-8.3,4.9-9.7c4-1.3,8.3,0.9,9.7,4.9 c12.9,39.4,13.5,81.3,1.6,121C444,313.3,440.9,315.4,437.6,315.4z M66,314.3c-3.3,0-6.4-2.2-7.3-5.5 c-11.1-38.1-10.9-78.3,0.8-116.2c1.2-4,5.5-6.3,9.6-5.1c4,1.2,6.3,5.5,5.1,9.6c-10.8,35-11,72.2-0.7,107.4c1.2,4.1-1.1,8.3-5.2,9.5 C67.5,314.2,66.7,314.3,66,314.3z M170.3,83.9c-2.9,0-5.6-1.6-6.9-4.4c-1.8-3.8-0.1-8.4,3.7-10.2c53.9-25.1,115.8-25.1,169.7-0.1 c3.8,1.8,5.5,6.3,3.7,10.2c-1.8,3.8-6.3,5.5-10.2,3.7c-49.8-23.1-107-23.1-156.8,0C172.5,83.6,171.4,83.9,170.3,83.9z"
   id="path8" /> </g>    <path
   id="path3918"
   style="fill:#bb9645;fill-opacity:1;stroke:none;stroke-width:1.51757;stroke-linejoin:bevel"
   d="m 246.17089,123.73833 a 123.00786,123.0111 0 0 0 -77.34256,32.48837 c -0.005,-0.002 -0.0247,-0.0219 -0.0296,-0.0237 -1.89456,-0.7215 -18.58125,18.40388 -24.19215,27.72819 -6.73476,11.19198 -12.94565,28.88878 -15.33275,43.68636 -3.36017,20.82958 0.54949,59.67848 6.63935,65.96969 1.43837,1.48591 3.71206,0.9698 10.88973,-2.4779 15.23262,-7.31681 26.02584,-20.97066 29.75557,-37.63684 1.94714,-8.70074 4.16865,-10.31981 12.74519,-9.30399 4.75252,0.5629 5.48842,1.67975 8.88903,13.50101 5.02958,17.4839 17.56228,30.46101 35.07594,36.31786 30.26939,10.12258 63.53697,-8.84698 70.57279,-40.24218 1.92784,-8.60241 3.22781,-9.78474 10.80971,-9.81676 6.39434,-0.027 8.17856,1.73239 9.3188,9.17948 2.37878,15.53623 16.74762,33.08017 32.2394,39.36783 8.38595,3.40361 8.83119,3.43713 10.7593,0.80028 7.62971,-10.43424 9.84587,-55.17739 3.83543,-77.44334 -5.88759,-21.81079 -19.27887,-44.9225 -32.47061,-56.1885 a 123.00786,123.0111 0 0 0 -92.16252,-35.90583 z m 67.6888,153.11419 -2.35637,3.63386 c -4.87626,7.52368 -14.79098,17.2214 -23.17846,22.67161 -12.40609,8.0615 -24.87376,11.07822 -42.60155,10.30287 -12.98117,-0.56776 -15.54551,-1.20325 -26.31732,-6.51191 -12.16204,-5.99382 -28.03598,-19.97693 -30.11422,-26.52482 -1.33196,-4.19667 -2.68733,-3.94422 -5.64642,1.04332 -4.64596,7.8308 -18.40253,19.98939 -28.78635,25.44592 -5.7018,2.99623 -10.36806,5.86519 -10.36806,6.3726 0,3.06262 10.8876,16.91254 20.39528,25.94387 16.42711,15.60417 34.28819,24.74043 58.51819,29.93341 14.96333,3.20695 50.61697,1.97999 65.11904,-2.24078 25.06029,-7.29367 46.79811,-21.79388 61.2184,-40.83203 6.87591,-9.07781 9.14841,-15.40983 5.53082,-15.40983 -3.16058,2e-5 -17.29133,-7.84554 -23.92539,-13.28167 -3.64853,-2.98969 -9.07503,-8.83562 -12.06051,-12.9912 z" /></svg>
