<?xml version="1.0" encoding="UTF-8" standalone="no"?>
<!-- Generator: Adobe Illustrator 24.0.0, SVG Export Plug-In . SVG Version: 6.00 Build 0) -->

<svg
   id="svg947"
   x="0px"
   y="0px"
   viewBox="0 0 504 504"
   style="enable-background:new 0 0 504 504;"
   xml:space="preserve"
   version="1.1"
   sodipodi:docname="mastodon.svg"
   inkscape:version="1.1.2 (0a00cf5339, 2022-02-04)"
   xmlns:inkscape="http://www.inkscape.org/namespaces/inkscape"
   xmlns:sodipodi="http://sodipodi.sourceforge.net/DTD/sodipodi-0.dtd"
   xmlns="http://www.w3.org/2000/svg"
   xmlns:svg="http://www.w3.org/2000/svg"><defs
   id="defs33" /><sodipodi:namedview
   id="namedview31"
   pagecolor="#ffffff"
   bordercolor="#666666"
   borderopacity="1.0"
   inkscape:pageshadow="2"
   inkscape:pageopacity="0.0"
   inkscape:pagecheckerboard="0"
   showgrid="false"
   inkscape:zoom="1.7321429"
   inkscape:cx="252.28866"
   inkscape:cy="281.4433"
   inkscape:window-width="2386"
   inkscape:window-height="1082"
   inkscape:window-x="26"
   inkscape:window-y="23"
   inkscape:window-maximized="0"
   inkscape:current-layer="svg947" /> <style
   type="text/css"
   id="style2"> .st0{fill:#212121;} .st1{fill:#BB9645;} </style> <circle
   class="st0"
   cx="252"
   cy="252"
   r="233.9"
   id="circle4" /> <g
   id="g10"> <path
   class="st1"
   d="M252,494.2C118.4,494.2,9.8,385.6,9.8,252S118.4,9.8,252,9.8S494.2,118.4,494.2,252S385.6,494.2,252,494.2z M252,25.1C126.9,25.1,25.1,126.9,25.1,252S126.9,478.9,252,478.9S478.9,377.1,478.9,252S377.1,25.1,252,25.1z"
   id="path6" /> <path
   class="st1"
   d="M252,453.4c-31.4,0-62.8-7.3-91.5-21.9c-3.8-1.9-5.3-6.5-3.3-10.3c1.9-3.8,6.5-5.2,10.3-3.3 c53,27,116.2,27,169.2-0.1c3.8-1.9,8.4-0.4,10.3,3.3c1.9,3.8,0.4,8.4-3.3,10.3C314.9,446.1,283.5,453.4,252,453.4z M437.6,315.4 c-0.7,0-1.5-0.1-2.2-0.3c-4-1.2-6.3-5.5-5.1-9.5c11-36.8,10.5-75.4-1.5-111.9c-1.3-4,0.9-8.3,4.9-9.7c4-1.3,8.3,0.9,9.7,4.9 c12.9,39.4,13.5,81.3,1.6,121C444,313.3,440.9,315.4,437.6,315.4z M66,314.3c-3.3,0-6.4-2.2-7.3-5.5 c-11.1-38.1-10.9-78.3,0.8-116.2c1.2-4,5.5-6.3,9.6-5.1c4,1.2,6.3,5.5,5.1,9.6c-10.8,35-11,72.2-0.7,107.4c1.2,4.1-1.1,8.3-5.2,9.5 C67.5,314.2,66.7,314.3,66,314.3z M170.3,83.9c-2.9,0-5.6-1.6-6.9-4.4c-1.8-3.8-0.1-8.4,3.7-10.2c53.9-25.1,115.8-25.1,169.7-0.1 c3.8,1.8,5.5,6.3,3.7,10.2c-1.8,3.8-6.3,5.5-10.2,3.7c-49.8-23.1-107-23.1-156.8,0C172.5,83.6,171.4,83.9,170.3,83.9z"
   id="path8" /> </g>    <path
   style="fill:#bb9645;fill-opacity:1;stroke-width:0.101642"
   d="m 237.26171,380.08894 c -13.93965,-0.19476 -28.99549,-2.30665 -43.79623,-6.14334 -5.76726,-1.49499 -9.97262,-3.02839 -14.49549,-5.28546 -18.51254,-9.23841 -30.74341,-26.40031 -37.40561,-52.48614 -3.60604,-14.11947 -5.60416,-30.284 -6.4014,-51.78662 -0.49572,-13.37052 -0.53143,-50.03596 -0.0548,-56.20806 0.89992,-11.65207 3.31349,-21.4794 7.53886,-30.69591 5.03272,-10.97753 12.89599,-20.52209 22.0422,-26.75516 3.50087,-2.3858 6.72631,-3.88244 12.45115,-5.77742 13.35746,-4.42148 31.98093,-7.22856 54.88671,-8.27302 20.35962,-0.92833 41.77613,-0.10893 59.91799,2.29244 17.4261,2.30664 31.77068,6.26403 38.82726,10.71168 3.637,2.29232 6.77857,4.83393 10.1134,8.18197 10.62845,10.6706 17.48642,24.98041 20.11924,41.98078 0.91087,5.88153 1.22614,10.80011 1.22474,19.10727 -0.003,17.15768 -1.06102,36.39855 -2.75025,50.00932 -0.83168,6.70121 -1.87676,13.00195 -2.54568,15.34795 -1.74108,6.10612 -6.4712,12.58381 -13.46671,18.44211 -11.3835,9.53295 -27.43458,16.49921 -43.68177,18.95811 -2.44269,0.36969 -12.45014,1.5207 -18.10607,2.08246 -9.19585,0.91337 -17.56591,1.37658 -24.85148,1.37532 -16.201,-0.003 -38.30486,-2.51895 -55.43409,-6.31027 -0.99985,-0.2213 -1.8312,-0.38907 -1.84745,-0.37282 -0.0728,0.0728 0.16633,4.74854 0.31069,6.07534 0.71557,6.57716 2.40342,11.72412 5.24946,16.00787 4.07285,6.13034 10.3517,10.11671 19.45003,12.34864 6.10485,1.49758 12.64274,2.17988 24.49573,2.55642 6.6998,0.21282 13.61077,-0.16224 20.88745,-1.13358 6.55084,-0.87445 13.10374,-2.18182 18.89036,-3.76879 1.02593,-0.28137 1.88734,-0.48956 1.91425,-0.46266 0.0394,0.0394 0.9378,18.76199 0.94482,19.68971 0.002,0.2361 -0.12167,0.31749 -1.29397,0.85331 -2.07612,0.9489 -4.86443,2.03263 -7.59775,2.953 -13.31412,4.48315 -28.99547,6.71662 -45.53564,6.48555 z M 201.05684,251.91081 c 0.0269,-24.57684 0.0657,-32.83936 0.15765,-33.56728 0.69939,-5.53465 2.12314,-9.03101 4.7391,-11.63803 2.82092,-2.81126 6.51177,-4.11649 11.64039,-4.11649 4.26662,0 7.55202,0.88585 10.43755,2.81432 3.85231,2.57457 6.42605,7.44155 7.35294,13.90452 0.42785,2.98322 0.43117,3.13897 0.47542,22.28669 l 0.0428,18.52467 12.62243,-0.0258 12.62244,-0.0258 0.0537,-19.10871 c 0.0589,-20.91961 0.0247,-19.72382 0.66176,-23.1827 0.90495,-4.9136 2.96737,-8.95136 5.81199,-11.37852 2.21605,-1.89083 4.67553,-2.98442 8.01373,-3.56324 1.24944,-0.21666 4.70846,-0.30256 6.15617,-0.1529 5.01765,0.51869 8.65261,2.59322 11.03793,6.29951 1.00005,1.55388 1.94909,4.04653 2.41301,6.33775 0.64526,3.1868 0.59905,0.53388 0.63559,36.49039 l 0.0332,32.70333 h 12.70285 12.70286 l -10e-4,-33.56729 c -10e-4,-33.60074 -0.0121,-34.70324 -0.36191,-37.98872 -1.57769,-14.79348 -8.65763,-26.03778 -19.96849,-31.71382 -6.28392,-3.15343 -14.35812,-4.38052 -22.3699,-3.39974 -5.56236,0.68094 -10.40809,2.40332 -14.574,5.1802 -2.02534,1.35005 -2.92466,2.09647 -4.82858,4.00764 -2.77377,2.78436 -3.36879,3.62469 -7.62103,10.76313 -1.7042,2.86091 -3.1221,5.20052 -3.1509,5.19912 -0.0288,-0.001 -1.47027,-2.38371 -3.20326,-5.29405 -4.04965,-6.80085 -4.8057,-7.88079 -7.31167,-10.444 -3.54214,-3.6231 -7.3405,-6.04946 -12.00031,-7.66572 -7.22679,-2.50664 -16.38664,-2.74933 -24.06593,-0.63763 -4.58502,1.26082 -9.12396,3.69207 -12.83013,6.87239 -6.98123,5.99067 -11.23787,14.35433 -12.85189,25.25211 -0.59147,3.99357 -0.55336,1.4657 -0.58825,39.00513 l -0.032,34.43125 h 12.705 12.70499 z"
   id="path9841" /></svg>
