<?xml version="1.0" encoding="UTF-8" standalone="no"?>
<!-- Generator: Adobe Illustrator 24.0.0, SVG Export Plug-In . SVG Version: 6.00 Build 0) -->

<svg
   id="svg947"
   x="0px"
   y="0px"
   viewBox="0 0 504 504"
   style="enable-background:new 0 0 504 504;"
   xml:space="preserve"
   version="1.1"
   sodipodi:docname="tiktok.svg"
   inkscape:version="1.1.2 (0a00cf5339, 2022-02-04)"
   xmlns:inkscape="http://www.inkscape.org/namespaces/inkscape"
   xmlns:sodipodi="http://sodipodi.sourceforge.net/DTD/sodipodi-0.dtd"
   xmlns="http://www.w3.org/2000/svg"
   xmlns:svg="http://www.w3.org/2000/svg"><defs
   id="defs33" /><sodipodi:namedview
   id="namedview31"
   pagecolor="#ffffff"
   bordercolor="#666666"
   borderopacity="1.0"
   inkscape:pageshadow="2"
   inkscape:pageopacity="0.0"
   inkscape:pagecheckerboard="0"
   showgrid="false"
   inkscape:zoom="1.7321429"
   inkscape:cx="252.86597"
   inkscape:cy="235.25773"
   inkscape:window-width="2386"
   inkscape:window-height="1082"
   inkscape:window-x="26"
   inkscape:window-y="23"
   inkscape:window-maximized="0"
   inkscape:current-layer="svg947" /> <style
   type="text/css"
   id="style2"> .st0{fill:#212121;} .st1{fill:#BB9645;} </style> <circle
   class="st0"
   cx="252"
   cy="252"
   r="233.9"
   id="circle4" /> <g
   id="g10"> <path
   class="st1"
   d="M252,494.2C118.4,494.2,9.8,385.6,9.8,252S118.4,9.8,252,9.8S494.2,118.4,494.2,252S385.6,494.2,252,494.2z M252,25.1C126.9,25.1,25.1,126.9,25.1,252S126.9,478.9,252,478.9S478.9,377.1,478.9,252S377.1,25.1,252,25.1z"
   id="path6" /> <path
   class="st1"
   d="M252,453.4c-31.4,0-62.8-7.3-91.5-21.9c-3.8-1.9-5.3-6.5-3.3-10.3c1.9-3.8,6.5-5.2,10.3-3.3 c53,27,116.2,27,169.2-0.1c3.8-1.9,8.4-0.4,10.3,3.3c1.9,3.8,0.4,8.4-3.3,10.3C314.9,446.1,283.5,453.4,252,453.4z M437.6,315.4 c-0.7,0-1.5-0.1-2.2-0.3c-4-1.2-6.3-5.5-5.1-9.5c11-36.8,10.5-75.4-1.5-111.9c-1.3-4,0.9-8.3,4.9-9.7c4-1.3,8.3,0.9,9.7,4.9 c12.9,39.4,13.5,81.3,1.6,121C444,313.3,440.9,315.4,437.6,315.4z M66,314.3c-3.3,0-6.4-2.2-7.3-5.5 c-11.1-38.1-10.9-78.3,0.8-116.2c1.2-4,5.5-6.3,9.6-5.1c4,1.2,6.3,5.5,5.1,9.6c-10.8,35-11,72.2-0.7,107.4c1.2,4.1-1.1,8.3-5.2,9.5 C67.5,314.2,66.7,314.3,66,314.3z M170.3,83.9c-2.9,0-5.6-1.6-6.9-4.4c-1.8-3.8-0.1-8.4,3.7-10.2c53.9-25.1,115.8-25.1,169.7-0.1 c3.8,1.8,5.5,6.3,3.7,10.2c-1.8,3.8-6.3,5.5-10.2,3.7c-49.8-23.1-107-23.1-156.8,0C172.5,83.6,171.4,83.9,170.3,83.9z"
   id="path8" /> </g>    <path
   id="path13090"
   style="fill:#bb9645;fill-opacity:1;stroke-width:0.45867"
   d="M 248.17773 110.33008 C 234.41009 110.52358 220.6215 112.7761 207.24805 117.12695 C 187.00853 123.71158 169.0945 134.58846 153.6875 149.64453 C 141.33291 161.71773 132.79116 173.51011 125.59766 188.42383 C 120.6376 198.70714 117.44884 207.75328 115.11914 218.14062 C 101.16557 280.35511 130.98275 343.61997 187.78711 372.32422 C 203.64619 380.33811 220.19886 385.09896 238.00977 386.76758 C 244.33184 387.35985 261.67919 386.97999 267.99805 386.11133 C 290.84483 382.97057 312.11259 374.60684 330.43359 361.55859 C 345.53485 350.80344 359.3024 335.89788 368.97656 319.83203 C 398.6271 270.59155 394.2857 207.4084 358.13281 162.04883 C 354.13559 157.03366 341.88209 144.77957 336.85352 140.76758 C 331.30826 136.34338 321.00778 129.60166 314.83789 126.35742 C 294.01372 115.4077 271.12381 110.00757 248.17773 110.33008 z M 254.31836 167.99805 L 268.1582 168.12109 L 282 168.24219 L 284.64258 172.72852 C 294.13096 188.82667 306.2854 198.39781 320.57227 201.02539 C 322.08588 201.30377 323.7584 201.62215 324.29102 201.73438 C 325.25057 201.93656 325.23917 202.04149 323.05078 213.07031 C 319.52944 230.81682 320.06673 229.0231 318.36328 228.72266 C 304.45229 226.26924 294.49354 221.96962 286.0293 214.76172 L 282.31445 211.59766 L 282.14844 247.48242 C 281.98958 282.05574 281.94867 283.50946 281.02344 287.26562 C 275.78089 308.54888 259.98705 324.00573 239.125 328.26953 C 234.68332 329.17732 226.56981 329.52498 222.31836 328.99023 C 204.76582 326.78247 189.41926 316.1816 181.19531 300.58398 C 175.57138 289.9176 173.67991 276.80684 176.0918 265.20703 C 179.48049 248.90931 189.95539 235.15196 204.47852 227.92773 C 212.97331 223.70217 217.82666 222.61388 229.64062 222.27734 L 238.69922 222.01758 L 238.69922 236.06641 L 238.69922 250.11328 L 232.62109 250.12305 C 222.02473 250.13694 216.60493 252.01883 210.89844 257.66602 C 205.71025 262.80032 203.22811 268.69853 203.25391 275.83398 C 203.27943 282.87455 205.71056 288.66658 210.77148 293.75391 C 212.90756 295.90113 214.80406 297.28329 217.19141 298.42969 C 221.49091 300.4943 223.75011 301.00391 228.60742 301.00391 C 233.42596 301.00391 235.72566 300.49446 239.86719 298.50586 C 245.86272 295.62706 250.7268 289.95682 253.04883 283.13867 L 254.06445 280.15625 L 254.19141 224.07812 L 254.31836 167.99805 z " /></svg>
