<?xml version="1.0" encoding="UTF-8" standalone="no"?>
<!-- Generator: Adobe Illustrator 24.0.0, SVG Export Plug-In . SVG Version: 6.00 Build 0) -->

<svg
   id="svg947"
   x="0px"
   y="0px"
   viewBox="0 0 504 504"
   style="enable-background:new 0 0 504 504;"
   xml:space="preserve"
   version="1.1"
   sodipodi:docname="twitch.svg"
   inkscape:version="1.1.2 (0a00cf5339, 2022-02-04)"
   xmlns:inkscape="http://www.inkscape.org/namespaces/inkscape"
   xmlns:sodipodi="http://sodipodi.sourceforge.net/DTD/sodipodi-0.dtd"
   xmlns="http://www.w3.org/2000/svg"
   xmlns:svg="http://www.w3.org/2000/svg"><defs
   id="defs33" /><sodipodi:namedview
   id="namedview31"
   pagecolor="#ffffff"
   bordercolor="#666666"
   borderopacity="1.0"
   inkscape:pageshadow="2"
   inkscape:pageopacity="0.0"
   inkscape:pagecheckerboard="0"
   showgrid="false"
   inkscape:zoom="1.7321429"
   inkscape:cx="251.71134"
   inkscape:cy="236.41237"
   inkscape:window-width="2386"
   inkscape:window-height="1082"
   inkscape:window-x="26"
   inkscape:window-y="23"
   inkscape:window-maximized="0"
   inkscape:current-layer="svg947" /> <style
   type="text/css"
   id="style2"> .st0{fill:#212121;} .st1{fill:#BB9645;} </style> <circle
   class="st0"
   cx="252"
   cy="252"
   r="233.9"
   id="circle4" /> <g
   id="g10"> <path
   class="st1"
   d="M252,494.2C118.4,494.2,9.8,385.6,9.8,252S118.4,9.8,252,9.8S494.2,118.4,494.2,252S385.6,494.2,252,494.2z M252,25.1C126.9,25.1,25.1,126.9,25.1,252S126.9,478.9,252,478.9S478.9,377.1,478.9,252S377.1,25.1,252,25.1z"
   id="path6" /> <path
   class="st1"
   d="M252,453.4c-31.4,0-62.8-7.3-91.5-21.9c-3.8-1.9-5.3-6.5-3.3-10.3c1.9-3.8,6.5-5.2,10.3-3.3 c53,27,116.2,27,169.2-0.1c3.8-1.9,8.4-0.4,10.3,3.3c1.9,3.8,0.4,8.4-3.3,10.3C314.9,446.1,283.5,453.4,252,453.4z M437.6,315.4 c-0.7,0-1.5-0.1-2.2-0.3c-4-1.2-6.3-5.5-5.1-9.5c11-36.8,10.5-75.4-1.5-111.9c-1.3-4,0.9-8.3,4.9-9.7c4-1.3,8.3,0.9,9.7,4.9 c12.9,39.4,13.5,81.3,1.6,121C444,313.3,440.9,315.4,437.6,315.4z M66,314.3c-3.3,0-6.4-2.2-7.3-5.5 c-11.1-38.1-10.9-78.3,0.8-116.2c1.2-4,5.5-6.3,9.6-5.1c4,1.2,6.3,5.5,5.1,9.6c-10.8,35-11,72.2-0.7,107.4c1.2,4.1-1.1,8.3-5.2,9.5 C67.5,314.2,66.7,314.3,66,314.3z M170.3,83.9c-2.9,0-5.6-1.6-6.9-4.4c-1.8-3.8-0.1-8.4,3.7-10.2c53.9-25.1,115.8-25.1,169.7-0.1 c3.8,1.8,5.5,6.3,3.7,10.2c-1.8,3.8-6.3,5.5-10.2,3.7c-49.8-23.1-107-23.1-156.8,0C172.5,83.6,171.4,83.9,170.3,83.9z"
   id="path8" /> </g>    <path
   style="fill:#bb9645;fill-opacity:1;stroke-width:0.535979"
   d="m 197.09191,361.3885 v -15.27541 h -28.1389 -28.13891 v -82.32137 -82.32138 l 7.63771,-20.31132 7.6377,-20.31131 105.18591,-0.007 105.18591,-0.007 v 71.68894 71.68895 l -30.95451,30.95106 -30.95452,30.95107 h -23.04891 -23.04892 l -15.26835,15.27541 -15.26835,15.2754 h -15.41293 -15.41293 z m 84.69112,-51.18601 h 28.13849 l 17.81411,-17.82131 17.81411,-17.8213 0.0139,-56.5458 0.0139,-56.54581 h -84.56042 -84.56044 l -0.13588,74.36711 -0.13588,74.36711 h 23.31698 23.31697 v 15.40593 15.40594 l 15.41281,-15.40594 15.4128,-15.40593 z m -48.78051,-76.91301 v -30.8188 h 10.1836 10.18361 v 30.8188 30.81881 h -10.18361 -10.1836 z m 56.27781,0 v -30.8188 h 10.1836 10.1836 v 30.8188 30.81881 h -10.1836 -10.1836 z"
   id="path6670" /></svg>
