<?xml version="1.0" encoding="UTF-8" standalone="no"?>
<!-- Created with Inkscape (http://www.inkscape.org/) -->

<svg
   width="79.832947mm"
   height="104.17401mm"
   viewBox="0 0 79.832947 104.17401"
   version="1.1"
   id="svg5"
   inkscape:version="1.1.2 (0a00cf5339, 2022-02-04)"
   sodipodi:docname="bat.svg"
   xmlns:inkscape="http://www.inkscape.org/namespaces/inkscape"
   xmlns:sodipodi="http://sodipodi.sourceforge.net/DTD/sodipodi-0.dtd"
   xmlns="http://www.w3.org/2000/svg"
   xmlns:svg="http://www.w3.org/2000/svg">
  <sodipodi:namedview
     id="namedview7"
     pagecolor="#ffffff"
     bordercolor="#666666"
     borderopacity="1.0"
     inkscape:pageshadow="2"
     inkscape:pageopacity="0.0"
     inkscape:pagecheckerboard="0"
     inkscape:document-units="mm"
     showgrid="false"
     fit-margin-top="0"
     fit-margin-left="0"
     fit-margin-right="0"
     fit-margin-bottom="0"
     inkscape:zoom="0.64052329"
     inkscape:cx="-71.81628"
     inkscape:cy="316.14776"
     inkscape:window-width="3778"
     inkscape:window-height="1536"
     inkscape:window-x="0"
     inkscape:window-y="0"
     inkscape:window-maximized="1"
     inkscape:current-layer="layer1" />
  <defs
     id="defs2" />
  <g
     inkscape:label="Layer 1"
     inkscape:groupmode="layer"
     id="layer1"
     transform="translate(-123.84562,-64.687775)">
    <path
       style="fill:#bb9645;fill-opacity:1;stroke-width:0.264583"
       d="m 128.83604,168.69847 c -1.97297,-0.60602 -3.32531,-1.72894 -4.32497,-3.59122 l -0.56811,-1.05833 -0.079,-46.0375 c -0.0435,-25.320622 -0.007,-46.649726 0.0816,-47.398007 0.24182,-2.048096 1.51232,-3.956842 3.30469,-4.96485 l 1.45521,-0.818388 26.00564,-0.0712 26.00563,-0.0712 11.36686,11.181968 c 8.83059,8.686955 11.39872,11.359461 11.50968,11.977448 0.0786,0.437515 0.10828,17.761889 0.0661,38.498599 l -0.0768,37.70313 -0.5681,1.05833 c -0.77984,1.45278 -1.66964,2.35721 -3.0365,3.08643 l -1.1579,0.61774 -34.66041,0.0454 c -19.06323,0.0249 -34.95884,-0.0463 -35.32359,-0.15833 z m 70.54361,-2.81382 c 0.40184,-0.30003 0.9761,-0.87429 1.27613,-1.27613 0.54417,-0.72882 0.54568,-0.82283 0.61435,-38.13486 l 0.0688,-37.404232 -9.77334,-0.08109 c -9.43616,-0.07829 -9.79909,-0.100179 -10.51988,-0.634579 -0.4106,-0.304422 -1.02234,-0.958829 -1.35942,-1.45424 l -0.61286,-0.900745 0.0837,-9.459986 0.0837,-9.459984 -25.03015,1.63e-4 -25.03014,1.63e-4 -0.8747,0.595312 c -0.48108,0.327422 -1.12376,0.931466 -1.42818,1.342319 l -0.5535,0.747006 v 47.057023 47.05703 l 0.5535,0.74701 c 0.30442,0.41085 0.94903,1.01619 1.43247,1.3452 l 0.87897,0.5982 34.72994,-0.069 c 34.61079,-0.0688 34.73245,-0.0709 35.46056,-0.61455 z m -21.36166,-28.95888 c -0.26448,-0.88275 -0.55323,-1.18905 -1.71328,-1.81735 l -1.39519,-0.75567 -1.06879,0.47851 -1.06879,0.47852 -0.48935,-0.71168 c -0.26914,-0.39143 -0.76342,-1.16676 -1.0984,-1.72297 l -0.60905,-1.0113 0.79368,-0.84079 c 0.74088,-0.78487 0.7853,-0.94637 0.66777,-2.42829 -0.11236,-1.41684 -0.21939,-1.65844 -0.99565,-2.24744 l -0.86975,-0.65993 0.90015,-1.78746 c 0.49508,-0.9831 0.97413,-1.78746 1.06456,-1.78746 0.0904,0 0.59594,0.12929 1.12337,0.28731 0.88053,0.26381 1.06949,0.21513 2.31042,-0.59531 1.15063,-0.75147 1.37306,-1.0333 1.49689,-1.89666 0.08,-0.55772 0.19218,-1.06079 0.24932,-1.11793 0.0571,-0.0571 0.95423,-0.18291 1.99355,-0.27951 l 1.88966,-0.17563 0.29512,1.16126 c 0.2662,1.04744 0.43839,1.23144 1.75669,1.87719 1.42301,0.69705 1.48954,0.70474 2.52235,0.29149 0.66683,-0.26681 1.12473,-0.32763 1.23295,-0.16377 0.0947,0.14337 0.57588,0.8822 1.06932,1.64184 l 0.89717,1.38116 -0.79756,0.8448 c -0.75231,0.79687 -0.79013,0.9389 -0.66657,2.50333 0.1359,1.72087 0.0666,1.61476 1.86552,2.85481 0.0435,0.03 -0.3095,0.84243 -0.78439,1.80547 -0.89896,1.823 -1.1628,1.98327 -2.45564,1.49173 -0.57525,-0.21871 -0.90894,-0.114 -2.13389,0.66959 -1.20993,0.77398 -1.45201,1.05621 -1.45201,1.69282 0,1.49034 -0.15669,1.60101 -2.26665,1.60101 h -1.94544 z m 3.30821,-1.31544 c 0.14528,-0.90858 0.32358,-1.13202 1.29058,-1.61736 0.61711,-0.30973 1.38465,-0.80365 1.70565,-1.0976 0.50335,-0.46094 0.72655,-0.49818 1.62268,-0.27072 1.00478,0.25504 1.05209,0.23657 1.43413,-0.56016 0.38226,-0.79721 0.36998,-0.84533 -0.37928,-1.48536 -0.71781,-0.61316 -0.78082,-0.81603 -0.86289,-2.77813 -0.0816,-1.94979 -0.0369,-2.1719 0.56626,-2.81737 0.63877,-0.68355 0.64344,-0.71802 0.19095,-1.40861 -0.34919,-0.53293 -0.6003,-0.6651 -1.01591,-0.53471 -1.39806,0.43862 -1.69205,0.4135 -2.6329,-0.22499 -0.5387,-0.36557 -1.32258,-0.74004 -1.74194,-0.83214 -0.60934,-0.13384 -0.80885,-0.36353 -0.99333,-1.14357 -0.21105,-0.8924 -0.3093,-0.97611 -1.14577,-0.97611 -0.8628,0 -0.92845,0.0641 -1.15215,1.12448 -0.13047,0.61846 -0.38553,1.12448 -0.56681,1.12448 -0.18127,0 -0.94817,0.42551 -1.70422,0.94558 -1.18282,0.81363 -1.51378,0.92206 -2.37193,0.77708 -0.93268,-0.15757 -1.01969,-0.11447 -1.34253,0.66493 -0.32399,0.78219 -0.30129,0.86862 0.36914,1.40573 0.65097,0.52152 0.7224,0.76012 0.805,2.68897 0.0836,1.95122 0.0395,2.17144 -0.56417,2.81737 -0.63313,0.67752 -0.63988,0.72347 -0.20377,1.38906 0.48651,0.7425 0.92371,0.84625 1.73549,0.4118 0.41219,-0.2206 0.91731,-0.0786 2.49615,0.70169 1.08865,0.53805 1.97937,1.07147 1.97937,1.18539 0,0.11391 0.11612,0.51253 0.25804,0.8858 0.20709,0.54469 0.43548,0.67868 1.15681,0.67868 0.84339,0 0.90916,-0.065 1.06735,-1.05421 z m -2.76965,-3.15583 c -2.04869,-0.65551 -3.28773,-2.48773 -3.088,-4.56634 0.39396,-4.10008 5.45984,-5.39016 7.95213,-2.0251 0.28836,0.38935 0.58125,1.30064 0.65086,2.0251 0.22558,2.34761 -1.40325,4.34995 -3.78455,4.65243 -0.57536,0.0731 -1.35406,0.0343 -1.73044,-0.0861 z m 2.52734,-1.45765 c 1.05672,-0.44153 1.72886,-1.58631 1.72886,-2.94458 0,-0.7454 -0.20517,-1.17082 -0.89958,-1.86523 -0.76786,-0.76785 -1.08168,-0.89958 -2.14313,-0.89958 -1.06144,0 -1.37527,0.13173 -2.14312,0.89958 -0.69441,0.69441 -0.89958,1.11983 -0.89958,1.86523 0,1.3279 0.66536,2.49607 1.67076,2.93335 1.08294,0.471 1.58042,0.47308 2.68579,0.0112 z m -29.37946,1.64771 c -0.40926,-1.31661 -0.63941,-1.67344 -1.17085,-1.81531 -0.3638,-0.0971 -1.24468,-0.45267 -1.95751,-0.79012 l -1.29606,-0.61355 -1.41735,0.7667 -1.41734,0.7667 -1.8415,-1.82738 -1.84149,-1.82739 0.78509,-1.37218 0.78508,-1.37219 -0.62018,-1.42213 c -0.34111,-0.78217 -0.75088,-1.7394 -0.9106,-2.12719 -0.23544,-0.5716 -0.57054,-0.76775 -1.77034,-1.03625 l -1.47992,-0.33119 0.0749,-2.66791 0.0749,-2.66792 1.49369,-0.37818 c 1.41212,-0.35752 1.51126,-0.43699 1.81542,-1.45521 0.17695,-0.59236 0.54834,-1.5222 0.82531,-2.06631 l 0.50359,-0.98929 -0.79248,-1.40419 -0.79247,-1.40419 1.82935,-1.81534 1.82935,-1.81534 1.43999,0.75394 1.43999,0.75392 1.55413,-0.67758 c 0.85477,-0.37267 1.76077,-0.74834 2.01332,-0.83482 0.28788,-0.0986 0.62488,-0.75316 0.90328,-1.75451 l 0.44408,-1.597267 h 2.59226 2.59225 l 0.28382,1.124477 c 0.40513,1.60513 0.73845,2.3151 1.08689,2.3151 0.16682,0 1.01191,0.318 1.87796,0.70666 l 1.57466,0.70667 1.47977,-0.72575 1.47977,-0.72575 1.82668,1.82667 1.82667,1.82668 -0.80188,1.35999 -0.80188,1.35999 0.60968,1.39648 c 0.33532,0.76807 0.72825,1.69189 0.87319,2.05295 0.19661,0.48978 0.62678,0.76143 1.69419,1.06988 l 1.43067,0.41342 0.0749,2.65607 0.0749,2.65607 -1.49098,0.35768 c -0.87943,0.21097 -1.54671,0.52761 -1.62684,0.77196 -0.0747,0.22786 -0.47633,1.16548 -0.89246,2.08359 l -0.7566,1.6693 0.82449,1.46093 0.8245,1.46092 -1.68332,1.69842 c -0.92583,0.93413 -1.84416,1.69842 -2.04073,1.69842 -0.19657,0 -0.88879,-0.31141 -1.53826,-0.69203 l -1.18085,-0.69202 -1.59568,0.69202 c -0.87762,0.38062 -1.76898,0.69203 -1.98079,0.69203 -0.42646,0 -0.74223,0.62553 -1.16867,2.3151 l -0.28382,1.12448 h -2.58927 -2.58927 z m 4.96733,-1.33313 c 0.37867,-1.3612 0.41133,-1.39354 1.95212,-1.93342 0.86185,-0.30199 2.04325,-0.79997 2.62533,-1.10664 l 1.05833,-0.55757 1.34245,0.76395 1.34245,0.76396 0.99393,-1.01789 0.99394,-1.01788 -0.70818,-1.39753 -0.70818,-1.39753 0.59757,-1.06324 c 0.32867,-0.58479 0.801,-1.72701 1.04963,-2.53828 0.4258,-1.38938 0.51933,-1.49551 1.61068,-1.82773 0.63725,-0.19399 1.30746,-0.39861 1.48936,-0.45472 0.21129,-0.0652 0.33073,-0.61927 0.33073,-1.53435 v -1.43234 l -1.49188,-0.49419 c -1.47312,-0.48798 -1.49762,-0.51304 -1.94867,-1.9927 -0.25124,-0.82417 -0.73201,-1.9438 -1.06838,-2.48806 l -0.61158,-0.98956 0.74743,-1.42758 0.74744,-1.42758 -0.88492,-0.91301 c -0.4867,-0.50215 -1.02516,-0.913 -1.19656,-0.913 -0.17141,0 -0.85007,0.30093 -1.50814,0.66874 l -1.1965,0.66873 -0.91259,-0.53844 c -0.50192,-0.29614 -1.66608,-0.80817 -2.58703,-1.13785 -1.6601,-0.59428 -1.67774,-0.61126 -2.05917,-1.98238 l -0.38473,-1.38296 h -1.53463 -1.53464 l -0.31723,1.4175 -0.31722,1.4175 -1.48769,0.45962 c -0.81823,0.25278 -1.99531,0.75197 -2.61575,1.10929 l -1.12805,0.64967 -1.31074,-0.7368 -1.31074,-0.7368 -1.05863,1.03372 -1.05863,1.03373 0.69364,1.27446 0.69365,1.27446 -0.83001,1.80073 c -0.45651,0.9904 -0.90389,2.17012 -0.99418,2.62159 -0.14743,0.73716 -0.32323,0.86549 -1.72402,1.25854 l -1.55985,0.43767 v 1.42298 1.42298 l 1.49766,0.48156 c 1.4408,0.46327 1.51403,0.53178 1.92895,1.80447 0.23721,0.72761 0.71441,1.88638 1.06046,2.57504 l 0.62917,1.25213 -0.73586,1.35201 -0.73586,1.35202 1.00638,1.03062 1.00638,1.03063 1.39501,-0.78729 1.395,-0.78729 0.98257,0.57973 c 0.54041,0.31886 1.70563,0.82863 2.58938,1.13283 1.59138,0.54779 1.61034,0.56632 1.97581,1.93061 l 0.369,1.3775 h 1.51534 1.51533 z m -4.96788,-5.16706 c -3.95736,-1.4141 -6.49044,-4.98725 -6.5052,-9.17621 -0.0298,-8.46588 10.21408,-12.81004 16.28768,-6.90717 2.23935,2.1764 3.37039,5.54528 2.83466,8.44329 -0.59837,3.23687 -2.63704,5.88802 -5.58535,7.26337 -1.94,0.90499 -5.08231,1.07333 -7.03179,0.37672 z m 5.70887,-1.44519 c 3.43883,-1.06468 5.741,-4.50514 5.48625,-8.19887 -0.22546,-3.26911 -1.88257,-5.6426 -4.90587,-7.02671 -1.24645,-0.57065 -1.7054,-0.63928 -3.60738,-0.53945 -1.80874,0.0949 -2.42264,0.25097 -3.61101,0.91779 -5.67845,3.18635 -5.49515,11.42684 0.32017,14.39359 1.99309,1.0168 4.02717,1.16286 6.31784,0.45365 z m 33.24844,-47.017535 -9.03906,-8.976651 -0.0726,8.51363 c -0.0718,8.41561 -0.0661,8.518964 0.49233,8.976654 0.51216,0.419756 1.36355,0.46302 9.11168,0.46302 h 8.54674 z"
       id="path990" />
  </g>
</svg>
