<?xml version="1.0" encoding="UTF-8" standalone="no"?>
<!-- Generator: Adobe Illustrator 24.0.0, SVG Export Plug-In . SVG Version: 6.00 Build 0) -->

<svg
   id="Capa_1"
   x="0px"
   y="0px"
   viewBox="0 0 512 512"
   style="enable-background:new 0 0 512 512;"
   xml:space="preserve"
   version="1.1"
   sodipodi:docname="blockchain.svg"
   inkscape:version="1.1.2 (0a00cf5339, 2022-02-04)"
   xmlns:inkscape="http://www.inkscape.org/namespaces/inkscape"
   xmlns:sodipodi="http://sodipodi.sourceforge.net/DTD/sodipodi-0.dtd"
   xmlns="http://www.w3.org/2000/svg"
   xmlns:svg="http://www.w3.org/2000/svg"><defs
   id="defs33" /><sodipodi:namedview
   id="namedview31"
   pagecolor="#ffffff"
   bordercolor="#666666"
   borderopacity="1.0"
   inkscape:pageshadow="2"
   inkscape:pageopacity="0.0"
   inkscape:pagecheckerboard="0"
   showgrid="false"
   inkscape:zoom="1.4042969"
   inkscape:cx="255.64395"
   inkscape:cy="256"
   inkscape:window-width="3778"
   inkscape:window-height="1536"
   inkscape:window-x="0"
   inkscape:window-y="0"
   inkscape:window-maximized="1"
   inkscape:current-layer="Capa_1" /> <style
   type="text/css"
   id="style2"> .st0{fill:#BB9645;} </style> <g
   id="g28"
   style="fill:#ffffff;fill-opacity:1"> <g
   id="g26"
   style="fill:#ffffff;fill-opacity:1"> <g
   id="g24"
   style="fill:#ffffff;fill-opacity:1"> <path
   class="st0"
   d="M187.7,0H17.1C7.6,0,0,7.6,0,17.1v170.7c0,9.4,7.6,17.1,17.1,17.1h42.7v25.6c0,4.7,3.8,8.5,8.5,8.5h8.5 c4.7,0,8.5-3.8,8.5-8.5s-3.8-8.5-8.5-8.5v-17.1H128v17.1c-4.7,0-8.5,3.8-8.5,8.5s3.8,8.5,8.5,8.5h8.5c4.7,0,8.5-3.8,8.5-8.5 v-25.6h42.7c9.4,0,17.1-7.6,17.1-17.1V17.1C204.8,7.6,197.2,0,187.7,0z M145.1,187.7v-25.6c0-4.7-3.8-8.5-8.5-8.5H128 c-4.7,0-8.5,3.8-8.5,8.5s3.8,8.5,8.5,8.5v17.1H76.8v-17.1c4.7,0,8.5-3.8,8.5-8.5s-3.8-8.5-8.5-8.5h-8.5c-4.7,0-8.5,3.8-8.5,8.5 v25.6H17.1V17.1h170.7l0,170.7L145.1,187.7L145.1,187.7z"
   id="path4"
   style="fill:#ffffff;fill-opacity:1" /> <path
   class="st0"
   d="M102.4,68.1c-17.2,0-31.7,12.8-33.9,29.8s8.7,33.1,25.3,37.3v26.8c0,4.7,3.8,8.5,8.5,8.5s8.5-3.8,8.5-8.5 v-26.8c16.6-4.3,27.5-20.3,25.3-37.3S119.6,68.1,102.4,68.1z M110.9,117.1v-6.2c0-4.7-3.8-8.5-8.5-8.5s-8.5,3.8-8.5,8.5v6.2 c-6.7-3.8-10-11.7-8-19.2s8.8-12.6,16.5-12.6c7.7,0,14.5,5.1,16.5,12.6S117.6,113.2,110.9,117.1z"
   id="path6"
   style="fill:#ffffff;fill-opacity:1" /> <path
   class="st0"
   d="M187.7,307.2h-42.7v-25.6c0-4.7-3.8-8.5-8.5-8.5H128c-4.7,0-8.5,3.8-8.5,8.5s3.8,8.5,8.5,8.5v17.1H76.8 v-17.1c4.7,0,8.5-3.8,8.5-8.5s-3.8-8.5-8.5-8.5h-8.5c-4.7,0-8.5,3.8-8.5,8.5v25.6H17.1c-9.4,0-17.1,7.6-17.1,17.1v170.7 c0,9.4,7.6,17.1,17.1,17.1h170.7c9.4,0,17.1-7.6,17.1-17.1V324.3C204.8,314.8,197.2,307.2,187.7,307.2z M17.1,494.9V324.3h42.7 v25.6c0,4.7,3.8,8.5,8.5,8.5h8.5c4.7,0,8.5-3.8,8.5-8.5s-3.8-8.5-8.5-8.5v-17.1H128v17.1c-4.7,0-8.5,3.8-8.5,8.5s3.8,8.5,8.5,8.5 h8.5c4.7,0,8.5-3.8,8.5-8.5v-25.6h42.7l0,170.7L17.1,494.9L17.1,494.9z"
   id="path8"
   style="fill:#ffffff;fill-opacity:1" /> <path
   class="st0"
   d="M110.9,376.7v-26.8c0-4.7-3.8-8.5-8.5-8.5s-8.5,3.8-8.5,8.5v26.8C77.2,381,66.4,397,68.5,414 s16.7,29.8,33.9,29.8s31.7-12.8,33.9-29.8C138.4,397,127.6,381,110.9,376.7z M118.9,414.1c-2,7.5-8.8,12.6-16.5,12.6 c-7.7,0-14.5-5.1-16.5-12.6s1.3-15.3,8-19.2v6.2c0,4.7,3.8,8.5,8.5,8.5s8.5-3.8,8.5-8.5v-6.2 C117.6,398.8,120.9,406.6,118.9,414.1z"
   id="path10"
   style="fill:#ffffff;fill-opacity:1" /> <path
   class="st0"
   d="M494.9,0H324.3c-9.4,0-17.1,7.6-17.1,17.1v170.7c0,9.4,7.6,17.1,17.1,17.1h42.7v25.6c0,4.7,3.8,8.5,8.5,8.5 h8.5c4.7,0,8.5-3.8,8.5-8.5s-3.8-8.5-8.5-8.5v-17.1h51.2v17.1c-4.7,0-8.5,3.8-8.5,8.5s3.8,8.5,8.5,8.5h8.5c4.7,0,8.5-3.8,8.5-8.5 v-25.6h42.7c9.4,0,17.1-7.6,17.1-17.1V17.1C512,7.6,504.4,0,494.9,0z M452.3,187.7v-25.6c0-4.7-3.8-8.5-8.5-8.5h-8.5 c-4.7,0-8.5,3.8-8.5,8.5s3.8,8.5,8.5,8.5v17.1H384v-17.1c4.7,0,8.5-3.8,8.5-8.5s-3.8-8.5-8.5-8.5h-8.5c-4.7,0-8.5,3.8-8.5,8.5 v25.6h-42.7V17.1h170.7l0,170.7L452.3,187.7L452.3,187.7z"
   id="path12"
   style="fill:#ffffff;fill-opacity:1" /> <path
   class="st0"
   d="M409.6,68.3c-17.2,0-31.7,12.7-33.9,29.8c-2.2,17,8.7,33,25.3,37.3v26.8c0,4.7,3.8,8.5,8.5,8.5 s8.5-3.8,8.5-8.5v-26.8c16.6-4.3,27.5-20.3,25.3-37.3C441.3,81,426.8,68.2,409.6,68.3z M418.1,117.1v-6.2c0-4.7-3.8-8.5-8.5-8.5 s-8.5,3.8-8.5,8.5v6.2c-6.7-3.9-10-11.7-8-19.2s8.8-12.6,16.5-12.6s14.5,5.2,16.5,12.6S424.8,113.2,418.1,117.1z"
   id="path14"
   style="fill:#ffffff;fill-opacity:1" /> <path
   class="st0"
   d="M494.9,307.2h-42.7v-25.6c0-4.7-3.8-8.5-8.5-8.5h-8.5c-4.7,0-8.5,3.8-8.5,8.5s3.8,8.5,8.5,8.5v17.1H384 v-17.1c4.7,0,8.5-3.8,8.5-8.5s-3.8-8.5-8.5-8.5h-8.5c-4.7,0-8.5,3.8-8.5,8.5v25.6h-42.7c-9.4,0-17.1,7.6-17.1,17.1v170.7 c0,9.4,7.6,17.1,17.1,17.1h170.7c9.4,0,17.1-7.6,17.1-17.1V324.3C512,314.8,504.4,307.2,494.9,307.2z M324.3,494.9V324.3h42.7 v25.6c0,4.7,3.8,8.5,8.5,8.5h8.5c4.7,0,8.5-3.8,8.5-8.5s-3.8-8.5-8.5-8.5v-17.1h51.2v17.1c-4.7,0-8.5,3.8-8.5,8.5 s3.8,8.5,8.5,8.5h8.5c4.7,0,8.5-3.8,8.5-8.5v-25.6h42.7l0,170.7L324.3,494.9L324.3,494.9z"
   id="path16"
   style="fill:#ffffff;fill-opacity:1" /> <path
   class="st0"
   d="M418.1,376.7v-26.8c0-4.7-3.8-8.5-8.5-8.5s-8.5,3.8-8.5,8.5v26.8c-16.6,4.3-27.5,20.3-25.3,37.4 s16.7,29.8,33.9,29.8s31.7-12.8,33.9-29.8C445.6,397,434.8,381,418.1,376.7z M426.1,414.1c-2,7.5-8.8,12.6-16.5,12.6 c-7.7,0-14.5-5.1-16.5-12.6s1.3-15.3,8-19.2v6.2c0,4.7,3.8,8.5,8.5,8.5s8.5-3.8,8.5-8.5v-6.2 C424.8,398.8,428.1,406.6,426.1,414.1z"
   id="path18"
   style="fill:#ffffff;fill-opacity:1" /> <path
   class="st0"
   d="M110.9,281.6v-51.2c0-4.7-3.8-8.5-8.5-8.5s-8.5,3.8-8.5,8.5v51.2c0,4.7,3.8,8.5,8.5,8.5 S110.9,286.3,110.9,281.6z"
   id="path20"
   style="fill:#ffffff;fill-opacity:1" /> <path
   class="st0"
   d="M418.1,281.6v-51.2c0-4.7-3.8-8.5-8.5-8.5s-8.5,3.8-8.5,8.5v51.2c0,4.7,3.8,8.5,8.5,8.5 S418.1,286.3,418.1,281.6z"
   id="path22"
   style="fill:#ffffff;fill-opacity:1" /> </g> </g> </g> </svg>
