<?xml version="1.0" encoding="UTF-8" standalone="no"?>
<svg
   viewBox="0 0 512 512"
   version="1.1"
   id="svg4"
   sodipodi:docname="circle-down.svg"
   inkscape:version="1.1.2 (0a00cf5339, 2022-02-04)"
   xmlns:inkscape="http://www.inkscape.org/namespaces/inkscape"
   xmlns:sodipodi="http://sodipodi.sourceforge.net/DTD/sodipodi-0.dtd"
   xmlns="http://www.w3.org/2000/svg"
   xmlns:svg="http://www.w3.org/2000/svg">
  <defs
     id="defs8" />
  <sodipodi:namedview
     id="namedview6"
     pagecolor="#ffffff"
     bordercolor="#666666"
     borderopacity="1.0"
     inkscape:pageshadow="2"
     inkscape:pageopacity="0.0"
     inkscape:pagecheckerboard="0"
     showgrid="false"
     inkscape:zoom="1.4042969"
     inkscape:cx="256"
     inkscape:cy="256"
     inkscape:window-width="1473"
     inkscape:window-height="1012"
     inkscape:window-x="26"
     inkscape:window-y="23"
     inkscape:window-maximized="0"
     inkscape:current-layer="svg4" />
  <!--! Font Awesome Free 6.2.1 by @fontawesome - https://fontawesome.com License - https://fontawesome.com/license/free (Icons: CC BY 4.0, Fonts: SIL OFL 1.1, Code: MIT License) Copyright 2022 Fonticons, Inc. -->
  <path
     d="M256 0C114.6 0 0 114.6 0 256S114.6 512 256 512s256-114.6 256-256S397.4 0 256 0zM244.7 395.3l-112-112c-4.6-4.6-5.9-11.5-3.5-17.4s8.3-9.9 14.8-9.9l64 0 0-96c0-17.7 14.3-32 32-32l32 0c17.7 0 32 14.3 32 32l0 96 64 0c6.5 0 12.3 3.9 14.8 9.9s1.1 12.9-3.5 17.4l-112 112c-6.2 6.2-16.4 6.2-22.6 0z"
     id="path2"
     style="fill:#bb9645;fill-opacity:1" />
</svg>
