<?xml version="1.0" encoding="UTF-8" standalone="no"?>
<svg
   viewBox="0 0 60 54.368305"
   version="1.1"
   id="svg4"
   sodipodi:docname="lang.svg"
   inkscape:version="1.1.2 (0a00cf5339, 2022-02-04)"
   width="60"
   height="54.368305"
   xmlns:inkscape="http://www.inkscape.org/namespaces/inkscape"
   xmlns:sodipodi="http://sodipodi.sourceforge.net/DTD/sodipodi-0.dtd"
   xmlns="http://www.w3.org/2000/svg"
   xmlns:svg="http://www.w3.org/2000/svg">
  <defs
     id="defs8" />
  <sodipodi:namedview
     id="namedview6"
     pagecolor="#ffffff"
     bordercolor="#666666"
     borderopacity="1.0"
     inkscape:pageshadow="2"
     inkscape:pageopacity="0.0"
     inkscape:pagecheckerboard="0"
     showgrid="false"
     inkscape:zoom="0.49649393"
     inkscape:cx="159.11574"
     inkscape:cy="117.82621"
     inkscape:window-width="1942"
     inkscape:window-height="1012"
     inkscape:window-x="26"
     inkscape:window-y="23"
     inkscape:window-maximized="0"
     inkscape:current-layer="svg4"
     fit-margin-top="0"
     fit-margin-left="0"
     fit-margin-right="0"
     fit-margin-bottom="0" />
  <!--! Font Awesome Free 6.2.1 by @fontawesome - https://fontawesome.com License - https://fontawesome.com/license/free (Icons: CC BY 4.0, Fonts: SIL OFL 1.1, Code: MIT License) Copyright 2022 Fonticons, Inc. -->
  <path
     style="fill:#bb9645;fill-opacity:1;stroke-width:0.0612257"
     d="m 30.14506,53.985645 c 0.0789,-0.21047 2.83729,-7.56672 6.12971,-16.34723 l 5.98622,-15.96457 h 2.7398 2.7398 l 5.98622,15.96457 c 3.29242,8.78051 6.05079,16.13676 6.1297,16.34723 L 60,54.368305 h -2.74714 -2.74715 l -1.52281,-4.0705 -1.52281,-4.07049 h -6.4593 -6.4593 l -1.52281,4.07049 -1.52281,4.0705 h -2.74715 -2.74714 z m 19.14948,-13.43902 c -0.062,-0.15995 -1.05825,-2.80489 -2.21393,-5.87765 -1.15568,-3.07276 -2.11894,-5.58683 -2.14059,-5.58683 -0.0216,0 -0.9577,2.51407 -2.08014,5.58683 -1.12243,3.07276 -2.09136,5.7177 -2.15317,5.87765 l -0.11237,0.29083 h 4.40645 4.40645 z m -43.07064,3.72974 -1.88849,-1.89 6.69469,-6.56928 c 3.68209,-3.61311 6.81571,-6.68661 6.96362,-6.83 l 0.26892,-0.26071 -0.60992,-0.69458 c -2.22185,-2.53028 -4.21294,-5.35693 -5.88085,-8.34876 -0.3353,-0.601455 -1.41491,-2.741069 -1.56817,-3.10788 l -0.0952,-0.227929 h 2.74007 2.74007 l 0.47083,0.854465 c 1.40781,2.554944 3.028,4.937654 4.77398,7.020804 0.41977,0.50083 0.82127,0.9625 0.89224,1.02595 0.12803,0.11445 0.13108,0.11304 0.39597,-0.18368 1.80291,-2.01955 3.65628,-4.57467 5.05762,-6.972612 0.63752,-1.090908 1.82869,-3.467957 2.32352,-4.636707 0.37301,-0.881013 0.98718,-2.481141 0.98743,-2.572603 6e-5,-0.02526 -6.86019,-0.04592 -15.24503,-0.04592 H 0 V 8.081775 5.326625 h 9.5818 9.5818 V 2.663311 0 h 2.66267 2.66267 l 0.016,2.678618 0.016,2.678619 9.56649,0.0155 9.5665,0.0155 v 2.724345 2.724347 h -4.0122 c -3.15501,0 -4.01777,0.01635 -4.0383,0.07653 -0.36971,1.083826 -0.97482,2.716179 -1.33339,3.597002 -2.06065,5.061894 -4.88377,9.681004 -8.30492,13.588294 -0.44354,0.50657 -0.54338,0.65395 -0.48146,0.71071 0.76185,0.69837 6.87942,6.62419 6.89273,6.67669 0.0291,0.11456 -2.07967,5.53497 -2.15329,5.53497 -0.0361,0 -1.94071,-1.87381 -4.23255,-4.16403 l -4.16698,-4.16403 -6.78662,6.72019 c -3.73264,3.69612 -6.81763,6.72761 -6.85554,6.73665 -0.0379,0.009 -0.91874,-0.83405 -1.95741,-1.87355 z"
     id="path2082" />
</svg>
