<?xml version="1.0" encoding="UTF-8" standalone="no"?>
<!-- Created with Inkscape (http://www.inkscape.org/) -->

<svg
   width="200mm"
   height="200mm"
   viewBox="0 0 200.00001 200"
   version="1.1"
   id="svg5"
   inkscape:version="1.1.2 (0a00cf5339, 2022-02-04)"
   sodipodi:docname="lite-wallet.svg"
   xmlns:inkscape="http://www.inkscape.org/namespaces/inkscape"
   xmlns:sodipodi="http://sodipodi.sourceforge.net/DTD/sodipodi-0.dtd"
   xmlns="http://www.w3.org/2000/svg"
   xmlns:svg="http://www.w3.org/2000/svg">
  <sodipodi:namedview
     id="namedview7"
     pagecolor="#ffffff"
     bordercolor="#666666"
     borderopacity="1.0"
     inkscape:pageshadow="2"
     inkscape:pageopacity="0.0"
     inkscape:pagecheckerboard="0"
     inkscape:document-units="mm"
     showgrid="false"
     fit-margin-top="0"
     fit-margin-left="0"
     fit-margin-right="0"
     fit-margin-bottom="0"
     inkscape:zoom="0.16013082"
     inkscape:cx="-68.693834"
     inkscape:cy="508.95886"
     inkscape:window-width="2560"
     inkscape:window-height="1012"
     inkscape:window-x="26"
     inkscape:window-y="23"
     inkscape:window-maximized="0"
     inkscape:current-layer="layer1" />
  <defs
     id="defs2" />
  <g
     inkscape:label="Layer 1"
     inkscape:groupmode="layer"
     id="layer1"
     transform="translate(-124.55144,-14.330513)">
    <path
       d="m 229.20693,106.01603 -52.4983,52.47774 c -1.93145,1.93145 -1.93145,5.05463 0,6.96553 1.93144,1.9109 5.05463,1.93145 6.96552,0 l 11.71195,-11.71194 h 13.97216 c 10.21199,0 20.11578,-2.95881 28.56068,-8.42439 2.28077,-1.47941 1.13017,-4.72588 -1.60265,-4.72588 -1.04793,0 -1.89037,-0.84244 -1.89037,-1.89034 0,-0.84244 0.55479,-1.5616 1.33557,-1.80817 l 16.64334,-4.99298 c 0.51364,-0.16438 0.98627,-0.4315 1.37666,-0.82189 l 4.60254,-4.6026 c 2.07528,-2.07527 0.59588,-5.6094 -2.32177,-5.6094 h -6.61624 c -1.04793,0 -1.89037,-0.84244 -1.89037,-1.89035 0,-0.84244 0.55479,-1.56159 1.33558,-1.80816 l 23.01292,-6.90388 c 0.82195,-0.24657 1.52049,-0.80134 1.91096,-1.58214 2.2191,-4.31494 3.3697,-9.143545 3.3697,-14.095435 0,-8.424382 -3.3492,-16.499467 -9.3079,-22.45818 l -1.13009,-1.130094 c -5.9382,-5.938165 -14.01326,-9.287373 -22.43763,-9.287373 -8.42437,0 -16.49948,3.349208 -22.45819,9.307914 l -21.30753,21.307533 c -9.8627,9.862695 -15.41046,23.238965 -15.41046,37.190565 v 11.36265 l 38.95764,-38.93709 c 1.27393,-1.27394 3.36976,-1.27394 4.64369,0 1.10955,1.10955 1.25338,2.79443 0.45204,4.06836 z"
       id="path1253"
       style="fill:#bb9645;fill-opacity:1;stroke-width:0.205473" />
  </g>
</svg>
