<?xml version="1.0" encoding="UTF-8" standalone="no"?>
<!-- Created with Inkscape (http://www.inkscape.org/) -->

<svg
   width="200mm"
   height="200mm"
   viewBox="0 0 200.00001 200"
   version="1.1"
   id="svg5"
   inkscape:version="1.1.2 (0a00cf5339, 2022-02-04)"
   sodipodi:docname="paper-wallet.svg"
   xmlns:inkscape="http://www.inkscape.org/namespaces/inkscape"
   xmlns:sodipodi="http://sodipodi.sourceforge.net/DTD/sodipodi-0.dtd"
   xmlns="http://www.w3.org/2000/svg"
   xmlns:svg="http://www.w3.org/2000/svg">
  <sodipodi:namedview
     id="namedview7"
     pagecolor="#ffffff"
     bordercolor="#666666"
     borderopacity="1.0"
     inkscape:pageshadow="2"
     inkscape:pageopacity="0.0"
     inkscape:pagecheckerboard="0"
     inkscape:document-units="mm"
     showgrid="false"
     fit-margin-top="0"
     fit-margin-left="0"
     fit-margin-right="0"
     fit-margin-bottom="0"
     inkscape:zoom="0.16013082"
     inkscape:cx="-68.693834"
     inkscape:cy="508.95886"
     inkscape:window-width="2560"
     inkscape:window-height="1012"
     inkscape:window-x="26"
     inkscape:window-y="23"
     inkscape:window-maximized="0"
     inkscape:current-layer="layer1" />
  <defs
     id="defs2" />
  <g
     inkscape:label="Layer 1"
     inkscape:groupmode="layer"
     id="layer1"
     transform="translate(-124.55144,-14.330513)">
    <path
       d="m 247.69346,77.353623 c -4.88162,-5.26662 -12.80425,-5.26662 -17.68586,0 l -36.81219,39.715517 c -8.42279,9.08708 -8.42279,23.80772 0,32.8948 8.42279,9.08709 22.06731,9.08709 30.4901,0 l 30.41005,-32.80847 c 2.18073,-2.35271 5.7419,-2.35271 7.92263,0 2.18072,2.35272 2.18072,6.19476 0,8.54747 l -30.41006,32.80847 c -12.80424,13.81409 -33.5311,13.81409 -46.33534,0 -12.80425,-13.81409 -12.80425,-36.17565 0,-49.98974 l 36.81219,-39.715516 c 9.26306,-9.993633 24.26803,-9.993633 33.53109,0 9.26306,9.993633 9.26306,26.182017 0,36.175656 l -35.21165,37.98875 c -5.72189,6.17317 -15.00497,6.17317 -20.72686,0 -5.7219,-6.17317 -5.7219,-16.18839 0,-22.36157 L 228.4871,89.527292 c 2.18071,-2.352713 5.7419,-2.352713 7.92262,0 2.18072,2.352709 2.18072,6.194759 0,8.547469 l -28.80954,31.081709 c -1.34044,1.44616 -1.34044,3.82046 0,5.26662 1.34044,1.44616 3.54117,1.44616 4.88162,0 l 35.21166,-37.988749 c 4.88161,-5.26663 4.88161,-13.814094 0,-19.080718 z"
       id="path1466"
       style="fill:#bb9645;fill-opacity:1;stroke-width:0.207806" />
  </g>
</svg>
