<?xml version="1.0" encoding="UTF-8" standalone="no"?>
<!-- Created with Inkscape (http://www.inkscape.org/) -->

<svg
   width="86.710716mm"
   height="88.400711mm"
   viewBox="0 0 86.710716 88.400711"
   version="1.1"
   id="svg5"
   inkscape:version="1.1.2 (0a00cf5339, 2022-02-04)"
   sodipodi:docname="pickaxe.svg"
   xmlns:inkscape="http://www.inkscape.org/namespaces/inkscape"
   xmlns:sodipodi="http://sodipodi.sourceforge.net/DTD/sodipodi-0.dtd"
   xmlns="http://www.w3.org/2000/svg"
   xmlns:svg="http://www.w3.org/2000/svg">
  <sodipodi:namedview
     id="namedview7"
     pagecolor="#ffffff"
     bordercolor="#666666"
     borderopacity="1.0"
     inkscape:pageshadow="2"
     inkscape:pageopacity="0.0"
     inkscape:pagecheckerboard="0"
     inkscape:document-units="mm"
     showgrid="false"
     fit-margin-top="0"
     fit-margin-left="0"
     fit-margin-right="0"
     fit-margin-bottom="0"
     inkscape:zoom="0.77771465"
     inkscape:cx="55.290202"
     inkscape:cy="269.37901"
     inkscape:window-width="1488"
     inkscape:window-height="1082"
     inkscape:window-x="26"
     inkscape:window-y="23"
     inkscape:window-maximized="0"
     inkscape:current-layer="layer1" />
  <defs
     id="defs2" />
  <g
     inkscape:label="Layer 1"
     inkscape:groupmode="layer"
     id="layer1"
     transform="translate(-90.55943,-77.373062)">
    <path
       style="fill:#bb9645;fill-opacity:1;stroke-width:0.264583"
       d="m 93.762891,163.08175 c -3.10016,-3.01623 -3.61096,-3.85986 -2.94885,-4.87036 0.40451,-0.61736 27.238499,-26.5713 44.282849,-42.83054 7.68924,-7.33506 7.72244,-7.37142 7.36572,-8.0698 -0.46308,-0.90657 -0.21757,-1.5042 1.13971,-2.77436 0.59624,-0.55798 1.08408,-1.19737 1.08408,-1.42089 0,-0.40676 -0.31597,-0.95208 -2.768,-4.777137 -1.59785,-2.492576 -5.37603,-6.458778 -8.13169,-8.536363 -3.85678,-2.907755 -8.24855,-5.134462 -14.36802,-7.284849 -1.74625,-0.613633 -3.16309,-1.248246 -3.14854,-1.410251 0.0146,-0.162007 0.0443,-1.068461 0.0661,-2.014347 0.0289,-1.251651 0.13735,-1.719791 0.39847,-1.719791 0.19733,0 2.0781,0.701487 4.1795,1.558861 16.00776,6.531216 27.55525,13.295659 31.40744,18.398275 l 0.58497,0.774848 1.25676,-1.237869 c 0.69122,-0.680825 1.49945,-1.237866 1.79606,-1.237866 0.50892,0 4.86649,4.157903 4.86649,4.643499 0,0.11563 -0.58041,0.87755 -1.28981,1.69316 l -1.2898,1.48292 1.05019,0.78656 c 1.36018,1.01874 4.49781,4.30749 6.09871,6.39244 5.10843,6.65304 9.16549,16.16525 11.32,26.541 0.68784,3.31253 0.70421,3.52599 0.22541,2.93984 -0.28397,-0.34763 -2.43579,-3.85997 -4.78183,-7.80521 -5.18575,-8.72066 -8.29649,-12.7943 -12.88921,-16.87895 -1.86267,-1.65661 -4.3859,-3.12651 -5.36698,-3.12651 -0.34735,0 -1.26538,0.47625 -2.04005,1.05833 -1.55932,1.17165 -2.00469,1.27107 -2.73465,0.61046 -0.47326,-0.42829 -0.63439,-0.30971 -3.68548,2.71198 -1.75483,1.73792 -12.24988,12.56579 -23.32233,24.06194 -25.930039,26.92224 -24.019219,25.00312 -24.894909,25.00312 -0.56237,0 -1.34321,-0.60037 -3.46235,-2.66214 z"
       id="path872" />
  </g>
</svg>
