<?xml version="1.0" encoding="UTF-8" standalone="no"?>
<!-- Generator: Adobe Illustrator 22.1.0, SVG Export Plug-In . SVG Version: 6.00 Build 0)  -->

<svg
   version="1.1"
   id="Layer_1"
   x="0px"
   y="0px"
   viewBox="0 0 265.39999 265.39999"
   xml:space="preserve"
   sodipodi:docname="pirate.svg"
   width="265.39999"
   height="265.39999"
   inkscape:version="1.1.2 (0a00cf5339, 2022-02-04)"
   xmlns:inkscape="http://www.inkscape.org/namespaces/inkscape"
   xmlns:sodipodi="http://sodipodi.sourceforge.net/DTD/sodipodi-0.dtd"
   xmlns="http://www.w3.org/2000/svg"
   xmlns:svg="http://www.w3.org/2000/svg"><defs
   id="defs9" /><sodipodi:namedview
   id="namedview7"
   pagecolor="#ffffff"
   bordercolor="#666666"
   borderopacity="1.0"
   inkscape:pageshadow="2"
   inkscape:pageopacity="0.0"
   inkscape:pagecheckerboard="0"
   showgrid="false"
   fit-margin-top="0"
   fit-margin-left="0"
   fit-margin-right="0"
   fit-margin-bottom="0"
   inkscape:zoom="3.03125"
   inkscape:cx="132.61856"
   inkscape:cy="132.78351"
   inkscape:window-width="3778"
   inkscape:window-height="1536"
   inkscape:window-x="0"
   inkscape:window-y="0"
   inkscape:window-maximized="1"
   inkscape:current-layer="Layer_1" />
<style
   type="text/css"
   id="style2">
	.st0{fill:#BB9645;}
	.st1{fill:#0A0B0B;}
	.st2{fill:#FFFFFF;}
	.st3{fill:#231F20;}
	.st4{fill:url(#SVGID_1_);}
	.st5{fill:url(#SVGID_2_);}
	.st6{fill:url(#SVGID_3_);}
	.st7{fill:url(#SVGID_4_);}
	.st8{fill:url(#SVGID_5_);}
	.st9{fill:url(#SVGID_6_);}
	.st10{fill:url(#SVGID_7_);}
	.st11{fill:url(#SVGID_8_);}
	.st12{fill:url(#SVGID_9_);}
	.st13{fill:url(#SVGID_10_);}
	.st14{fill:url(#SVGID_11_);}
	.st15{fill:#1B1B1B;}
	.st16{fill:url(#SVGID_12_);}
	.st17{fill:url(#SVGID_13_);}
	.st18{fill:url(#SVGID_14_);}
	.st19{fill:url(#SVGID_15_);}
	.st20{fill:url(#SVGID_16_);}
	.st21{fill:url(#SVGID_17_);}
	.st22{fill:url(#SVGID_18_);}
	.st23{fill:url(#SVGID_19_);}
	.st24{fill:url(#SVGID_20_);}
	.st25{fill:url(#SVGID_21_);}
	.st26{fill:url(#SVGID_22_);}
</style>
<path
   class="st2"
   d="M 132.7,0 C 59.4,0 0,59.4 0,132.7 0,206 59.4,265.4 132.7,265.4 206,265.4 265.4,206 265.4,132.7 265.4,59.4 206,0 132.7,0 Z M 72.8,98.4 C 72.8,82 86.1,68.8 102.6,68.8 h 68 c 8.1,0 15.5,3.3 20.8,8.5 l -34.8,17.5 h -47.9 c -5.4,0 -9.7,3.9 -9.7,8.6 v 21.3 L 72.9,138.3 V 98.4 Z m 127.3,44.3 c 0,16.4 -13.3,29.6 -29.6,29.6 H 98.9 v 25.3 c 0,4.3 -3.2,7.8 -7,8.7 L 83,206.5 H 72.8 v -9 -12.7 -22.3 l 34.1,-17.8 h 57.3 c 5.4,0 9.9,-3.9 9.9,-8.7 v -26 l 26,-13.1 c 0,0.5 0,1 0,1.5 z"
   id="path4"
   style="fill:#bb9645;fill-opacity:1" />
</svg>
