<?xml version="1.0" encoding="UTF-8" standalone="no"?>
<!-- Created with Inkscape (http://www.inkscape.org/) -->

<svg
   width="74.058189mm"
   height="83.070343mm"
   viewBox="0 0 74.058189 83.070343"
   version="1.1"
   id="svg5"
   inkscape:version="1.1.2 (0a00cf5339, 2022-02-04)"
   sodipodi:docname="signature.svg"
   xmlns:inkscape="http://www.inkscape.org/namespaces/inkscape"
   xmlns:sodipodi="http://sodipodi.sourceforge.net/DTD/sodipodi-0.dtd"
   xmlns="http://www.w3.org/2000/svg"
   xmlns:svg="http://www.w3.org/2000/svg">
  <sodipodi:namedview
     id="namedview7"
     pagecolor="#ffffff"
     bordercolor="#666666"
     borderopacity="1.0"
     inkscape:pageshadow="2"
     inkscape:pageopacity="0.0"
     inkscape:pagecheckerboard="0"
     inkscape:document-units="mm"
     showgrid="false"
     fit-margin-top="0"
     fit-margin-left="0"
     fit-margin-right="0"
     fit-margin-bottom="0"
     inkscape:zoom="0.64052329"
     inkscape:cx="312.2447"
     inkscape:cy="245.8927"
     inkscape:window-width="3778"
     inkscape:window-height="1536"
     inkscape:window-x="0"
     inkscape:window-y="0"
     inkscape:window-maximized="1"
     inkscape:current-layer="layer1" />
  <defs
     id="defs2" />
  <g
     inkscape:label="Layer 1"
     inkscape:groupmode="layer"
     id="layer1"
     transform="translate(-22.503604,-83.272301)">
    <path
       style="fill:#bb9645;fill-opacity:1;stroke-width:0.264583"
       d="m 24.493094,166.09997 c -0.29104,-0.12038 -0.82682,-0.53914 -1.19063,-0.93056 l -0.66146,-0.71169 -0.0687,-39.56247 -0.0687,-39.562484 1.02977,-1.029772 1.02978,-1.029771 h 30.47134 c 33.46323,0 31.56062,-0.09264 32.42497,1.578839 0.33667,0.651044 0.40136,2.292066 0.40136,10.18198 v 9.405848 h -3.175 -3.175 v -7.408334 -7.408333 h -26.32604 -26.32605 v 35.189587 35.18958 h 26.32605 26.32604 v -5.29167 -5.29166 h 3.175 3.175 v 7.28918 c 0,5.99793 -0.0711,7.42666 -0.40136,8.06531 -0.8646,1.67196 1.02073,1.58049 -32.1954,1.56207 -16.63298,-0.009 -30.47991,-0.11527 -30.77095,-0.23565 z m 45.00423,-11.737 c -0.51596,-0.51597 -0.66495,-1.08851 -0.94669,-3.63802 -0.18389,-1.66413 -0.28596,-4.45444 -0.22681,-6.20069 l 0.10753,-3.175 2.60386,-5.55624 c 1.43213,-3.05594 3.63845,-7.75891 4.90293,-10.45104 1.26448,-2.69214 3.42256,-7.33045 4.79575,-10.30736 2.71747,-5.89117 3.53091,-7.02348 5.76452,-8.0242 1.72215,-0.77157 4.24851,-0.74498 5.93184,0.0624 2.5996,1.24689 4.37374,4.32864 4.10459,7.1298 -0.12798,1.33184 -0.7411,2.71689 -9.44037,21.32579 l -5.56593,11.90624 -1.84334,1.77072 c -1.01384,0.9739 -3.18993,2.67054 -4.83575,3.77032 -3.33339,2.22744 -4.26934,2.47003 -5.35213,1.38725 z m 5.77024,-6.91811 c 0.70127,-0.59213 0.98015,-1.00927 0.86878,-1.2995 -0.25046,-0.65269 -1.79846,-1.48671 -2.76148,-1.48782 l -0.8599,-9.8e-4 v 2.07256 c 0,1.13992 0.0762,2.14881 0.16942,2.24199 0.21312,0.21312 1.24586,-0.39707 2.58318,-1.52625 z m 5.57217,-8.61701 c 0.91461,-1.9602 3.2399,-6.95728 5.16732,-11.10462 1.92741,-4.14735 3.61556,-7.75296 3.75143,-8.01248 0.21406,-0.40884 -0.093,-0.62967 -2.29919,-1.65365 -1.40044,-0.64998 -2.62715,-1.17921 -2.72602,-1.17605 -0.0989,0.003 -0.74242,1.22355 -1.4301,2.71198 -1.55367,3.36277 -5.08252,10.93351 -7.57803,16.25779 -1.03799,2.2146 -1.88726,4.13415 -1.88726,4.26566 0,0.13151 0.44648,0.3106 0.99219,0.39797 0.5457,0.0874 1.64703,0.56598 2.44739,1.06358 0.80037,0.4976 1.55514,0.88427 1.67728,0.85927 0.12214,-0.025 0.97038,-1.64925 1.88499,-3.60945 z m 11.2785,-24.26489 c 0.82148,-2.16066 -1.42557,-4.48937 -3.62995,-3.76185 -0.82327,0.2717 -1.9504,1.35573 -1.9504,1.87582 0,0.20275 4.58507,2.52921 5.09978,2.58762 0.11274,0.0128 0.329,-0.30292 0.48057,-0.70159 z m -57.43868,36.18123 v -2.11888 h 14.82779 14.8278 l -0.0773,2.05052 -0.0773,2.05052 -14.75052,0.0684 -14.75052,0.0684 z m 0,-12.9668 v -2.11666 h 14.81666 14.81667 v 2.11666 2.11667 h -14.81667 -14.81666 z m 0,-12.96458 v -2.11667 h 17.4625 17.4625 v 2.11667 2.11667 h -17.4625 -17.4625 z m 0,-12.96458 v -2.11667 h 20.50521 20.5052 v 2.11667 2.11666 h -20.5052 -20.50521 z m 0,-12.964591 v -2.116666 h 20.50521 20.5052 v 2.116666 2.116671 h -20.5052 -20.50521 z"
       id="path854" />
  </g>
</svg>
