<?xml version="1.0" encoding="UTF-8" standalone="no"?>
<!-- Created with Inkscape (http://www.inkscape.org/) -->

<svg
   width="200mm"
   height="200mm"
   viewBox="0 0 200.00001 200"
   version="1.1"
   id="svg5"
   inkscape:version="1.1.2 (0a00cf5339, 2022-02-04)"
   sodipodi:docname="skull-island.svg"
   xmlns:inkscape="http://www.inkscape.org/namespaces/inkscape"
   xmlns:sodipodi="http://sodipodi.sourceforge.net/DTD/sodipodi-0.dtd"
   xmlns="http://www.w3.org/2000/svg"
   xmlns:svg="http://www.w3.org/2000/svg">
  <sodipodi:namedview
     id="namedview7"
     pagecolor="#ffffff"
     bordercolor="#666666"
     borderopacity="1.0"
     inkscape:pageshadow="2"
     inkscape:pageopacity="0.0"
     inkscape:pagecheckerboard="0"
     inkscape:document-units="mm"
     showgrid="false"
     fit-margin-top="0"
     fit-margin-left="0"
     fit-margin-right="0"
     fit-margin-bottom="0"
     inkscape:zoom="0.45291836"
     inkscape:cx="-75.068717"
     inkscape:cy="1921.9799"
     inkscape:window-width="2560"
     inkscape:window-height="1012"
     inkscape:window-x="26"
     inkscape:window-y="23"
     inkscape:window-maximized="0"
     inkscape:current-layer="layer1"
     inkscape:snap-global="false" />
  <defs
     id="defs2" />
  <g
     inkscape:label="Layer 1"
     inkscape:groupmode="layer"
     id="layer1"
     transform="translate(-124.55144,-14.330513)">
    <path
       id="path976-3"
       style="fill:#bb9645;fill-opacity:1;stroke-width:4.5321;stroke-linejoin:bevel"
       d="m 244.92187,47.322569 c -1.80393,-0.01861 -3.61176,0.115447 -4.72564,0.409289 -1.58903,0.419185 -5.61786,2.301765 -6.53062,3.051658 l -0.58471,0.480571 1.50742,0.998401 c 1.93671,1.283007 4.71264,3.341997 7.0176,5.205021 1.00082,0.808944 1.98446,1.470563 2.1858,1.470563 0.20133,0 1.19706,0.271645 2.21265,0.60352 6.67017,2.179715 11.66565,6.901895 13.76769,13.014387 0.41919,1.218387 0.41766,1.920523 -0.001,0.81778 -0.81307,-2.138519 -4.111,-5.888796 -6.73447,-7.658376 -7.14754,-4.821097 -17.53013,-5.063145 -25.04558,-0.5839 -5.06177,3.01685 -8.54378,8.161793 -9.52621,14.075656 -0.13387,0.805879 -0.11129,0.881915 0.23227,0.785338 0.20921,-0.05875 0.56462,-0.157706 0.79017,-0.21986 0.89172,-0.245666 6.71456,-1.162512 9.32957,-1.468961 1.52246,-0.178408 5.25939,-0.37207 8.30433,-0.430111 l 5.53623,-0.105299 -1.53784,1.009219 c -1.97701,1.297638 -3.55637,2.991678 -4.29914,4.610718 -0.55771,1.215611 -1.02677,3.436104 -0.72568,3.436104 0.0769,0 1.21583,-0.426701 2.53104,-0.948332 1.31518,-0.521638 3.6289,-1.356711 5.14135,-1.855819 3.08308,-1.017422 9.92963,-2.791092 10.39644,-2.693224 0.17962,0.03767 -0.27374,0.495214 -1.10934,1.119344 -5.44073,4.063818 -11.98382,10.531512 -16.77087,16.578244 -7.32671,9.25469 -13.17163,20.3297 -15.87901,30.08721 -0.35253,1.2705 -0.68803,2.44837 -0.74569,2.61753 -0.0576,0.16916 -0.40722,-0.52286 -0.77694,-1.53784 -3.99375,-10.96414 -12.46079,-22.43209 -22.02114,-29.8269 -1.36831,-1.05836 -2.46114,-1.95102 -2.42852,-1.98358 0.0326,-0.0326 1.25455,-0.21593 2.71525,-0.40729 1.89574,-0.24835 4.21071,-0.35104 8.0893,-0.35802 5.67135,-0.0104 9.08119,0.27179 13.41725,1.11012 1.12047,0.21664 2.06646,0.36485 2.10212,0.32919 0.18711,-0.1871 -0.85496,-3.516554 -1.51782,-4.848995 -0.57968,-1.165243 -1.21358,-1.987229 -2.61593,-3.392861 -2.166,-2.171074 -4.16778,-3.289831 -7.14534,-3.993581 -2.74257,-0.648197 -6.97825,-0.543866 -9.12973,0.224664 -1.33557,0.477081 4.85674,-4.844444 8.31795,-7.148144 l 1.6852,-1.121752 -0.47375,-0.372842 c -0.87815,-0.690743 -3.35535,-1.821331 -4.6688,-2.130948 -1.67963,-0.395815 -4.63067,-0.393177 -6.32437,0.0058 -3.53053,0.832101 -7.54787,3.75174 -9.36561,6.806147 -0.28524,0.479293 -0.56331,0.871444 -0.61795,0.871444 -0.14725,0 0.12684,-2.448895 0.57148,-5.107315 0.21516,-1.286394 0.34545,-2.384644 0.28957,-2.440519 -0.0559,-0.05588 -0.69606,0.05933 -1.42251,0.255908 -4.83802,1.309596 -8.09542,6.04378 -7.87462,11.444498 l 0.0649,1.589501 -1.86384,-4.03e-4 c -3.33851,-8.64e-4 -6.0589,0.968966 -8.20142,2.923902 -1.66757,1.521576 -2.75765,3.482456 -3.2635,5.871026 -0.13942,0.65836 -0.12104,0.68947 0.33679,0.56508 0.94586,-0.25698 6.31312,-0.98426 6.77812,-0.9183 0.41597,0.059 0.36195,0.13312 -0.45013,0.61754 -2.16897,1.29379 -4.33708,3.70159 -5.63636,6.25909 -1.97546,3.88853 -2.02921,8.55012 -0.14137,12.28991 0.64183,1.27147 1.37674,2.29404 1.52583,2.12294 0.0492,-0.0563 0.56202,-0.80968 1.13976,-1.67401 1.40227,-2.09783 4.05013,-5.40406 5.77611,-7.21222 l 1.40208,-1.46856 -0.41489,1.74289 c -0.56028,2.355 -0.44421,6.55494 0.24068,8.71442 1.31607,4.14956 3.89251,7.27991 7.39004,8.97876 1.06892,0.51918 2.57677,1.08068 3.35042,1.24748 l 1.4065,0.30317 -0.13336,-0.65118 c -1.23436,-6.02821 -1.74826,-13.13739 -1.36485,-18.8766 0.22475,-3.36407 0.73731,-7.6804 0.93552,-7.87863 0.14433,-0.14433 2.80121,2.38417 4.99919,4.7577 8.8554,9.56267 14.65216,21.84493 15.70401,33.27343 l 0.13535,1.46976 -1.18983,0.23628 c -14.3169,2.84137 -26.20265,9.03885 -33.32668,17.37761 -1.21793,1.42558 -1.52512,1.90522 -1.32599,2.07047 0.43045,0.35725 2.2252,1.0727 3.4237,1.36484 h 3.9e-4 c 1.52845,0.37249 4.1267,0.36951 5.72325,-0.007 2.5596,-0.60334 5.52112,-2.41753 7.36282,-4.5098 l 0.85182,-0.96756 1.84821,1.7593 c 2.86949,2.73069 5.88452,4.03403 9.33197,4.03403 3.41621,0 6.49036,-1.33017 9.33797,-4.04003 l 1.78335,-1.69684 1.53062,1.50621 c 3.54413,3.48709 7.96766,4.90744 12.28953,3.94592 2.63797,-0.5869 5.63708,-2.40021 7.5342,-4.55545 l 0.83901,-0.95314 1.84822,1.7593 c 2.86949,2.73069 5.88452,4.03403 9.33196,4.03403 3.44746,0 6.46251,-1.30334 9.33198,-4.03403 l 1.84821,-1.7593 0.85182,0.96756 c 2.63051,2.98839 6.51153,4.81937 10.21542,4.81937 2.51644,0 6.48229,-1.20723 6.32117,-1.9243 -0.11221,-0.49916 -2.99371,-3.72608 -4.65517,-5.21304 -9.03672,-8.08767 -21.3376,-13.1369 -36.29304,-14.89784 -1.4238,-0.16765 -2.70404,-0.306 -2.84501,-0.30677 -0.3463,-0.002 -0.3308,-1.36043 0.0508,-4.44332 1.82068,-14.70647 9.36148,-30.41021 21.10166,-43.945 2.07572,-2.393031 7.40124,-7.79573 7.68439,-7.79573 0.22157,0 -0.68552,4.426983 -1.68081,8.20181 -0.86651,3.28643 -2.26472,7.52036 -3.41328,10.33717 -0.45595,1.11821 -0.829,2.11876 -0.829,2.22346 0,0.33958 2.11089,-0.0667 3.38325,-0.65117 1.60923,-0.73922 3.34941,-2.35447 4.61793,-4.28673 l 1.02082,-1.55507 v 3.80536 c 0,3.78343 -0.20873,7.41226 -0.62914,10.93909 -0.24136,2.02474 -1.10984,7.31633 -1.41249,8.60591 -0.10541,0.44794 -0.14953,0.85609 -0.0985,0.90708 0.051,0.051 1.07957,-0.15133 2.28553,-0.44973 6.11186,-1.51237 10.69501,-5.23983 13.41246,-10.90867 3.54212,-7.38917 2.95193,-16.740477 -1.47057,-23.297087 -1.76956,-2.623466 -5.52023,-5.921392 -7.65875,-6.734449 -1.05888,-0.402612 -0.42467,-0.429213 0.71526,-0.03007 2.92322,1.023642 5.06669,2.305578 7.21622,4.316361 2.96867,2.777025 5.44199,7.070522 6.31196,10.957915 0.22341,0.99836 0.55282,1.53948 2.17822,3.57348 1.0534,1.31822 2.7677,3.62286 3.80935,5.12173 l 1.89387,2.72526 0.47297,-0.57229 c 0.69156,-0.83698 2.60092,-4.87101 3.03682,-6.41607 0.59162,-2.09706 0.54547,-7.336977 -0.0838,-9.534618 -1.86618,-6.518431 -7.13003,-12.354409 -13.37081,-14.824145 -2.58265,-1.022052 -4.50134,-1.369849 -7.52542,-1.364434 -1.48885,0.0023 -2.67557,-0.02684 -2.63715,-0.06532 0.0384,-0.03836 0.93345,-0.247913 1.98919,-0.465756 4.69716,-0.969219 9.70349,-0.09885 14.17336,2.464148 1.54407,0.88536 2.02228,1.046995 4.21186,1.424906 1.35849,0.234479 2.61521,0.482058 2.79292,0.55026 0.42381,0.162625 0.41274,-0.118755 -0.0805,-2.047251 -1.30251,-5.092718 -5.35979,-9.142672 -10.66878,-10.649144 -1.83013,-0.519327 -4.48961,-0.801052 -6.16456,-0.652782 l -1.55107,0.137361 -0.005,-2.632349 c -0.0115,-6.741954 -3.01819,-12.076974 -8.29635,-14.719224 -1.58274,-0.792334 -4.7492,-1.765789 -4.98316,-1.531833 -0.0498,0.04974 0.0384,0.705204 0.19584,1.456543 0.1575,0.751348 0.38547,1.986648 0.50661,2.74489 0.15351,0.961028 0.46299,1.788658 1.02161,2.732463 2.57073,4.343289 3.58584,9.377713 2.79896,13.879423 -0.53302,3.049257 -0.6772,3.062944 -0.6624,0.06325 0.0104,-1.991237 -0.0911,-3.198058 -0.36724,-4.387252 -1.82057,-7.841794 -7.98052,-14.284074 -15.81732,-16.542603 -1.09878,-0.316658 -2.89892,-0.488002 -4.70285,-0.506605 z m -75.47715,115.823851 -0.56066,0.48257 c -1.0763,0.92579 -3.33855,2.12184 -5.27231,2.78815 -0.68899,0.23739 -1.15172,0.39016 -1.61473,0.48977 a 87.416268,87.416268 0 0 0 3.91107,4.12615 c 0.72558,-0.24757 1.45012,-0.53691 2.19341,-0.87865 0.96142,-0.44207 1.59926,-0.62918 1.74289,-0.51101 0.12461,0.10253 1.01514,0.51224 1.97919,0.91068 5.67301,2.34465 13.38874,2.1394 18.71439,-0.49819 l 1.19304,-0.59071 0.95993,0.48337 c 2.95925,1.49062 6.24022,2.2028 10.1898,2.21186 3.88248,0.009 7.20883,-0.71278 10.1786,-2.20865 l 0.95434,-0.48098 1.19865,0.59272 c 5.72326,2.82923 14.19206,2.82558 19.8129,-0.008 l 1.18582,-0.59752 0.96716,0.4874 c 2.9833,1.50279 6.30326,2.22435 10.19219,2.21545 3.94961,-0.009 7.23056,-0.72124 10.18982,-2.21186 l 0.95993,-0.48337 1.19304,0.5887 c 5.59887,2.76351 13.65747,2.86176 19.26265,0.23508 l 1.71686,-0.80456 1.48659,0.68362 c 1.9467,0.89497 3.78101,1.45092 5.849,1.74128 a 87.416268,87.416268 0 0 0 4.63273,-4.82257 c -0.27224,0.001 -0.46041,0.006 -0.79334,0.006 -3.1757,0 -3.3431,-0.0217 -5.22865,-0.67319 -1.92873,-0.66644 -4.19692,-1.86578 -5.26273,-2.78254 l -0.55185,-0.47456 -1.55225,1.05726 c -3.21584,2.18954 -6.51219,3.11082 -10.46012,2.9239 -3.61367,-0.1711 -6.2519,-1.07187 -9.14174,-3.12094 l -1.23549,-0.87585 -0.56106,0.48258 c -1.07456,0.92429 -3.33733,2.12156 -5.27232,2.79015 -1.88557,0.65152 -2.05297,0.67319 -5.22865,0.67319 -3.1757,0 -3.3431,-0.0217 -5.22866,-0.67319 -1.92872,-0.66644 -4.19689,-1.86578 -5.26271,-2.78254 l -0.55187,-0.47456 -1.55225,1.05726 c -5.86711,3.99468 -13.43639,3.99468 -19.3035,0 l -1.55266,-1.05726 -0.55186,0.47456 c -1.06755,0.91826 -3.33519,2.11638 -5.26269,2.78053 -1.86907,0.64402 -2.07661,0.67178 -5.12614,0.67721 -2.76124,0.005 -3.37997,-0.0573 -4.71605,-0.47216 -2.01349,-0.62532 -4.1582,-1.67156 -5.43371,-2.65077 l -1.02522,-0.78696 -1.53784,1.04566 c -3.20364,2.17885 -6.50496,3.09965 -10.44531,2.91309 -3.61368,-0.1711 -6.25189,-1.07187 -9.14175,-3.12094 z" />
  </g>
  <style
     type="text/css"
     id="style1577">
	.st0{fill:#BB9645;}
	.st1{fill:#0A0B0B;}
	.st2{fill:#FFFFFF;}
	.st3{fill:#231F20;}
	.st4{fill:url(#SVGID_1_);}
	.st5{fill:url(#SVGID_2_);}
	.st6{fill:url(#SVGID_3_);}
	.st7{fill:url(#SVGID_4_);}
	.st8{fill:url(#SVGID_5_);}
	.st9{fill:url(#SVGID_6_);}
	.st10{fill:url(#SVGID_7_);}
	.st11{fill:url(#SVGID_8_);}
	.st12{fill:url(#SVGID_9_);}
	.st13{fill:url(#SVGID_10_);}
	.st14{fill:url(#SVGID_11_);}
	.st15{fill:#1B1B1B;}
	.st16{fill:url(#SVGID_12_);}
	.st17{fill:url(#SVGID_13_);}
	.st18{fill:url(#SVGID_14_);}
	.st19{fill:url(#SVGID_15_);}
	.st20{fill:url(#SVGID_16_);}
	.st21{fill:url(#SVGID_17_);}
	.st22{fill:url(#SVGID_18_);}
	.st23{fill:url(#SVGID_19_);}
	.st24{fill:url(#SVGID_20_);}
	.st25{fill:url(#SVGID_21_);}
	.st26{fill:url(#SVGID_22_);}
</style>
</svg>
