<?xml version="1.0" encoding="UTF-8" standalone="no"?>
<!-- Created with Inkscape (http://www.inkscape.org/) -->

<svg
   width="13.229201mm"
   height="13.226889mm"
   viewBox="0 0 13.229201 13.226889"
   version="1.1"
   id="svg5"
   inkscape:version="1.1.2 (0a00cf5339, 2022-02-04)"
   sodipodi:docname="telegram.svg"
   xmlns:inkscape="http://www.inkscape.org/namespaces/inkscape"
   xmlns:sodipodi="http://sodipodi.sourceforge.net/DTD/sodipodi-0.dtd"
   xmlns="http://www.w3.org/2000/svg"
   xmlns:svg="http://www.w3.org/2000/svg">
  <sodipodi:namedview
     id="namedview7"
     pagecolor="#ffffff"
     bordercolor="#666666"
     borderopacity="1.0"
     inkscape:pageshadow="2"
     inkscape:pageopacity="0.0"
     inkscape:pagecheckerboard="0"
     inkscape:document-units="mm"
     showgrid="false"
     inkscape:zoom="0.11322959"
     inkscape:cx="-2256.4773"
     inkscape:cy="1143.694"
     inkscape:window-width="2577"
     inkscape:window-height="1012"
     inkscape:window-x="26"
     inkscape:window-y="23"
     inkscape:window-maximized="0"
     inkscape:current-layer="layer1"
     fit-margin-top="0"
     fit-margin-left="0"
     fit-margin-right="0"
     fit-margin-bottom="0" />
  <defs
     id="defs2" />
  <g
     inkscape:label="Layer 1"
     inkscape:groupmode="layer"
     id="layer1"
     transform="translate(-234.45662,59.411577)">
    <path
       style="fill:#bb9645;fill-opacity:1;stroke-width:0.00714442"
       d="m 240.7535,-46.188108 c -0.45317,-0.02799 -0.83708,-0.08434 -1.21455,-0.178258 -0.97606,-0.242865 -1.86511,-0.680292 -2.63907,-1.298464 -0.41827,-0.334076 -0.71243,-0.629128 -1.01955,-1.022619 -0.7742,-0.991943 -1.28849,-2.289329 -1.39904,-3.529347 -0.0372,-0.416885 -0.0321,-0.898957 0.0137,-1.298521 0.10625,-0.927547 0.42588,-1.868616 0.91247,-2.686537 0.34033,-0.57205 0.80726,-1.142851 1.26301,-1.543952 0.4212,-0.37069 0.89145,-0.683897 1.42175,-0.946933 1.21058,-0.60048 2.47827,-0.826721 3.76154,-0.671315 0.902,0.109234 1.84684,0.43739 2.64701,0.919339 0.49941,0.3008 1.04628,0.73453 1.35858,1.077505 0.45349,0.498028 0.84644,1.087373 1.1952,1.792533 0.11463,0.23177 0.16914,0.362861 0.26585,0.639426 0.46188,1.320796 0.48638,2.726882 0.0708,4.062308 -0.31288,1.005359 -0.81804,1.875011 -1.54828,2.665437 -0.4816,0.521294 -1.187,1.02559 -1.90933,1.36499 -0.83092,0.390427 -1.64195,0.60121 -2.50848,0.651941 -0.10862,0.0064 -0.58049,0.0081 -0.67158,0.0025 z m 2.2505,-3.210315 c 0.0748,-0.03566 0.13705,-0.120679 0.1795,-0.245363 0.01,-0.02806 0.26865,-1.232537 0.57577,-2.676604 0.52957,-2.490067 0.55854,-2.630036 0.56134,-2.711964 0.003,-0.09581 -0.006,-0.149158 -0.0386,-0.215806 -0.026,-0.0535 -0.0865,-0.116076 -0.13993,-0.144598 -0.0597,-0.03186 -0.13864,-0.03732 -0.22413,-0.01551 -0.0311,0.0079 -0.3813,0.139783 -0.77818,0.292982 -0.39687,0.153199 -1.61053,0.621582 -2.69702,1.04085 -1.08649,0.419268 -2.20852,0.852268 -2.4934,0.962222 -0.28489,0.109955 -0.54408,0.212128 -0.57598,0.227051 -0.1148,0.0537 -0.18158,0.111039 -0.21575,0.185258 -0.0556,0.120782 0.0165,0.215455 0.20186,0.265091 0.0312,0.0084 0.41857,0.126093 0.86086,0.26165 0.44229,0.135557 0.80944,0.245088 0.81589,0.243401 0.006,-0.0017 0.37941,-0.234509 0.82879,-0.517382 0.44939,-0.282873 1.2945,-0.814842 1.87802,-1.182153 0.58352,-0.367311 1.08078,-0.680716 1.10502,-0.696457 0.0549,-0.03563 0.0969,-0.04772 0.15193,-0.04374 0.0496,0.0036 0.0719,0.019 0.0719,0.0497 0,0.01517 -0.0112,0.03186 -0.0446,0.06641 -0.0246,0.02538 -0.72462,0.667072 -1.5557,1.425982 -1.01559,0.927403 -1.51162,1.384908 -1.51281,1.395308 -0.002,0.01563 -0.13041,1.665464 -0.13041,1.672665 0,0.0095 0.0539,0.0024 0.10501,-0.01372 0.1285,-0.04059 0.18017,-0.08312 0.63234,-0.520465 0.21607,-0.208992 0.39689,-0.37962 0.40181,-0.379173 0.008,7e-4 0.23847,0.170594 1.01131,0.744606 0.0924,0.06858 0.21452,0.159288 0.27149,0.201565 0.057,0.04228 0.15825,0.117738 0.22505,0.167694 0.12727,0.09518 0.20862,0.140505 0.30007,0.167195 0.0708,0.02066 0.17779,0.01752 0.22862,-0.0067 z"
       id="path854" />
  </g>
</svg>
