<?xml version="1.0" encoding="UTF-8" standalone="no"?>
<svg
   viewBox="0 0 95.553521 80"
   version="1.1"
   id="svg4"
   sodipodi:docname="handshake.svg"
   inkscape:version="1.1.2 (0a00cf5339, 2022-02-04)"
   width="95.55352"
   height="80"
   inkscape:export-filename="/home/orion/working/PIRATE/websites/pirate.black/pirate.black_BUILD/keywords/handshake.png"
   inkscape:export-xdpi="96.448563"
   inkscape:export-ydpi="96.448563"
   xmlns:inkscape="http://www.inkscape.org/namespaces/inkscape"
   xmlns:sodipodi="http://sodipodi.sourceforge.net/DTD/sodipodi-0.dtd"
   xmlns:xlink="http://www.w3.org/1999/xlink"
   xmlns="http://www.w3.org/2000/svg"
   xmlns:svg="http://www.w3.org/2000/svg">
  <defs
     id="defs8">
    <linearGradient
       inkscape:collect="always"
       id="linearGradient1228">
      <stop
         style="stop-color:#000000;stop-opacity:1;"
         offset="0"
         id="stop1224" />
      <stop
         style="stop-color:#5f5f5f;stop-opacity:1"
         offset="1"
         id="stop1226" />
    </linearGradient>
    <linearGradient
       inkscape:collect="always"
       xlink:href="#linearGradient1228"
       id="linearGradient1230"
       x1="389.55771"
       y1="418.01111"
       x2="202.12794"
       y2="-43.321278"
       gradientUnits="userSpaceOnUse"
       gradientTransform="translate(28.549999,-35.450001)" />
    <linearGradient
       inkscape:collect="always"
       xlink:href="#linearGradient1228"
       id="linearGradient1886"
       gradientUnits="userSpaceOnUse"
       gradientTransform="translate(28.549985,-35.450001)"
       x1="389.55771"
       y1="418.01111"
       x2="187.84143"
       y2="-214.03616" />
    <filter
       style="color-interpolation-filters:sRGB"
       inkscape:label="Drop Shadow"
       id="filter1677"
       x="-0.010500001"
       y="-0.017501682"
       width="1.0361563"
       height="1.0615684">
      <feFlood
         flood-opacity="0.537255"
         flood-color="rgb(0,0,0)"
         result="flood"
         id="feFlood1667" />
      <feComposite
         in="flood"
         in2="SourceGraphic"
         operator="in"
         result="composite1"
         id="feComposite1669" />
      <feGaussianBlur
         in="composite1"
         stdDeviation="2.8"
         result="blur"
         id="feGaussianBlur1671" />
      <feOffset
         dx="9.7"
         dy="10.2"
         result="offset"
         id="feOffset1673" />
      <feComposite
         in="SourceGraphic"
         in2="offset"
         operator="over"
         result="composite2"
         id="feComposite1675" />
    </filter>
    <filter
       style="color-interpolation-filters:sRGB"
       inkscape:label="Drop Shadow"
       id="filter2031"
       x="-0.013875002"
       y="-0.023127222"
       width="1.044"
       height="1.0728195">
      <feFlood
         flood-opacity="0.509804"
         flood-color="rgb(0,0,0)"
         result="flood"
         id="feFlood2021" />
      <feComposite
         in="flood"
         in2="SourceGraphic"
         operator="in"
         result="composite1"
         id="feComposite2023" />
      <feGaussianBlur
         in="composite1"
         stdDeviation="3.7"
         result="blur"
         id="feGaussianBlur2025" />
      <feOffset
         dx="10.4"
         dy="10.2"
         result="offset"
         id="feOffset2027" />
      <feComposite
         in="SourceGraphic"
         in2="offset"
         operator="over"
         result="composite2"
         id="feComposite2029" />
    </filter>
    <filter
       style="color-interpolation-filters:sRGB"
       inkscape:label="Drop Shadow"
       id="filter2681"
       x="-0.018882191"
       y="-0.031473339"
       width="1.0602643"
       height="1.0959462">
      <feFlood
         flood-opacity="0.631373"
         flood-color="rgb(0,0,0)"
         result="flood"
         id="feFlood2671" />
      <feComposite
         in="flood"
         in2="SourceGraphic"
         operator="in"
         result="composite1"
         id="feComposite2673" />
      <feGaussianBlur
         in="composite1"
         stdDeviation="5.03525"
         result="blur"
         id="feGaussianBlur2675" />
      <feOffset
         dx="14.4"
         dy="12.6706"
         result="offset"
         id="feOffset2677" />
      <feComposite
         in="SourceGraphic"
         in2="offset"
         operator="over"
         result="composite2"
         id="feComposite2679" />
    </filter>
    <filter
       style="color-interpolation-filters:sRGB"
       inkscape:label="Drop Shadow"
       id="filter2957"
       x="-0.034875005"
       y="-0.058130588"
       width="1.09225"
       height="1.1492608">
      <feFlood
         flood-opacity="0.631373"
         flood-color="rgb(0,0,0)"
         result="flood"
         id="feFlood2947" />
      <feComposite
         in="flood"
         in2="SourceGraphic"
         operator="in"
         result="composite1"
         id="feComposite2949" />
      <feGaussianBlur
         in="composite1"
         stdDeviation="9.3"
         result="blur"
         id="feGaussianBlur2951" />
      <feOffset
         dx="14.4"
         dy="12.6706"
         result="offset"
         id="feOffset2953" />
      <feComposite
         in="SourceGraphic"
         in2="offset"
         operator="over"
         result="composite2"
         id="feComposite2955" />
    </filter>
    <filter
       style="color-interpolation-filters:sRGB"
       inkscape:label="Drop Shadow"
       id="filter1898"
       x="-0.015375002"
       y="-0.025627462"
       width="1.0480938"
       height="1.0780804">
      <feFlood
         flood-opacity="0.427451"
         flood-color="rgb(0,0,0)"
         result="flood"
         id="feFlood1888" />
      <feComposite
         in="flood"
         in2="SourceGraphic"
         operator="in"
         result="composite1"
         id="feComposite1890" />
      <feGaussianBlur
         in="composite1"
         stdDeviation="4.1"
         result="blur"
         id="feGaussianBlur1892" />
      <feOffset
         dx="11.1"
         dy="10.3"
         result="offset"
         id="feOffset1894" />
      <feComposite
         in="SourceGraphic"
         in2="offset"
         operator="over"
         result="composite2"
         id="feComposite1896" />
    </filter>
  </defs>
  <sodipodi:namedview
     id="namedview6"
     pagecolor="#ffffff"
     bordercolor="#666666"
     borderopacity="1.0"
     inkscape:pageshadow="2"
     inkscape:pageopacity="0.0"
     inkscape:pagecheckerboard="0"
     showgrid="false"
     inkscape:zoom="1.4042969"
     inkscape:cx="339.31571"
     inkscape:cy="144.91238"
     inkscape:window-width="2403"
     inkscape:window-height="1012"
     inkscape:window-x="26"
     inkscape:window-y="23"
     inkscape:window-maximized="0"
     inkscape:current-layer="svg4"
     fit-margin-top="0"
     fit-margin-left="0"
     fit-margin-right="0"
     fit-margin-bottom="0" />
  <!--! Font Awesome Free 6.2.1 by @fontawesome - https://fontawesome.com License - https://fontawesome.com/license/free (Icons: CC BY 4.0, Fonts: SIL OFL 1.1, Code: MIT License) Copyright 2022 Fonticons, Inc. -->
  <g
     id="g1043"
     transform="matrix(0.12816991,0,0,0.12816991,2.9704154,13.672742)"
     inkscape:export-filename="/home/orion/working/PIRATE/websites/pirate.black/pirate.black_BUILD/keywords/g1043.png"
     inkscape:export-xdpi="96.448563"
     inkscape:export-ydpi="96.448563">
    <path
       d="M 351.95,49.749999 255.15,128.15 c -16.1,13 -19.2,36.4 -7,53.1 12.9,17.8 38,21.3 55.3,7.8 l 99.3,-77.2 c 7,-5.4 17,-4.2 22.5,2.8 5.5,7 4.2,17 -2.8,22.5 l -20.9,16.2 177.2,163.2 h 41.8 c 26.5,0 48,-21.5 48,-48 v -128 c 0,-26.5 -21.5,-48.000001 -48,-48.000001 h -76 -4 -0.7 l -3.9,-2.5 -72.6,-46.5 c -15.3,-9.8 -33.2,-15 -51.4,-15 -21.8,0 -43,7.5 -60,21.2 z m 22.8,124.400001 -51.7,40.2 c -31.5,24.6 -77.2,18.2 -100.8,-14.2 -22.2,-30.5 -16.6,-73.1 12.7,-96.8 l 83.2,-67.300001 c -11.6,-4.9 -24.1,-7.4 -36.8,-7.4 -18.8,-0.1 -37.1,5.5 -52.8,15.9 l -72,48 H 76.549999 c -26.5,0 -48,21.500001 -48,48.000001 v 128 c 0,26.5 21.5,48 48,48 H 184.75 l 91.4,83.4 c 19.6,17.9 49.9,16.5 67.8,-3.1 5.5,-6.1 9.2,-13.2 11.1,-20.6 l 17,15.6 c 19.5,17.9 49.9,16.6 67.8,-2.9 4.5,-4.9 7.8,-10.6 9.9,-16.5 19.4,13 45.8,10.3 62.1,-7.5 17.9,-19.5 16.6,-49.9 -2.9,-67.8 z"
       id="path2"
       style="fill:url(#linearGradient1230);fill-opacity:1;stroke:#bb9645;stroke-width:48.7;stroke-miterlimit:4;stroke-dasharray:none;stroke-opacity:1" />
    <path
       d="m 351.94999,49.749999 -96.8,78.400001 c -16.1,13 -19.2,36.4 -7,53.1 12.9,17.8 38,21.3 55.3,7.8 l 99.3,-77.2 c 7,-5.4 17,-4.2 22.5,2.8 5.5,7 4.2,17 -2.8,22.5 l -20.9,16.2 177.19991,163.2 h 41.8 c 26.5,0 48,-21.5 48,-48 v -128 c 0,-26.5 -21.5,-48.000001 -48,-48.000001 h -75.9999 -4 -0.7 l -3.9,-2.5 -72.60001,-46.5 c -15.3,-9.8 -33.2,-15 -51.4,-15 -21.8,0 -43,7.5 -60,21.2 z m 22.8,124.400001 -51.7,40.2 c -31.5,24.6 -77.2,18.2 -100.8,-14.2 -22.2,-30.5 -16.6,-73.1 12.7,-96.8 l 83.2,-67.300001 c -11.6,-4.9 -24.1,-7.4 -36.8,-7.4 -18.8,-0.1 -37.1,5.5 -52.8,15.9 l -72,48 H 76.549985 c -26.5,0 -48,21.500001 -48,48.000001 v 128 c 0,26.5 21.5,48 48,48 H 184.74999 l 91.4,83.4 c 19.6,17.9 49.9,16.5 67.8,-3.1 5.5,-6.1 9.2,-13.2 11.1,-20.6 l 17,15.6 c 19.5,17.9 49.9,16.6 67.8,-2.9 4.5,-4.9 7.8,-10.6 9.9,-16.5 19.4,13 45.80001,10.3 62.10001,-7.5 17.9,-19.5 16.6,-49.9 -2.9,-67.8 z"
       id="path1884"
       style="fill:url(#linearGradient1886);fill-opacity:1;stroke:none;stroke-width:32.2;stroke-miterlimit:4;stroke-dasharray:none;stroke-opacity:1" />
  </g>
</svg>
