<?xml version="1.0" encoding="UTF-8" standalone="no"?>
<!-- Created with Inkscape (http://www.inkscape.org/) -->

<svg
   version="1.1"
   id="svg2"
   width="256.99298"
   height="238.34492"
   viewBox="0 0 256.99298 238.34492"
   sodipodi:docname="pirate2.svg"
   inkscape:version="1.1.2 (0a00cf5339, 2022-02-04)"
   inkscape:export-filename="/home/orion/working/PIRATE/websites/pirate.black/pirate.black_JEKYLL/pirate.black/assets/img/keywords/pirate2.png"
   inkscape:export-xdpi="32.125393"
   inkscape:export-ydpi="32.125393"
   xmlns:inkscape="http://www.inkscape.org/namespaces/inkscape"
   xmlns:sodipodi="http://sodipodi.sourceforge.net/DTD/sodipodi-0.dtd"
   xmlns:xlink="http://www.w3.org/1999/xlink"
   xmlns="http://www.w3.org/2000/svg"
   xmlns:svg="http://www.w3.org/2000/svg"
   xmlns:rdf="http://www.w3.org/1999/02/22-rdf-syntax-ns#"
   xmlns:cc="http://creativecommons.org/ns#"
   xmlns:dc="http://purl.org/dc/elements/1.1/">
  <metadata
     id="metadata8">
    <rdf:RDF>
      <cc:Work
         rdf:about="">
        <dc:format>image/svg+xml</dc:format>
        <dc:type
           rdf:resource="http://purl.org/dc/dcmitype/StillImage" />
      </cc:Work>
    </rdf:RDF>
  </metadata>
  <defs
     id="defs6">
    <linearGradient
       inkscape:collect="always"
       id="linearGradient8341">
      <stop
         style="stop-color:#000000;stop-opacity:1;"
         offset="0"
         id="stop8337" />
      <stop
         style="stop-color:#5c5c5d;stop-opacity:1"
         offset="1"
         id="stop8339" />
    </linearGradient>
    <linearGradient
       inkscape:collect="always"
       xlink:href="#linearGradient8341"
       id="linearGradient8343"
       x1="80.306625"
       y1="90.175346"
       x2="-103.86336"
       y2="-228.12383"
       gradientUnits="userSpaceOnUse"
       gradientTransform="translate(152.47649,107.59545)" />
    <filter
       style="color-interpolation-filters:sRGB;"
       inkscape:label="Drop Shadow"
       id="filter1147"
       x="-0.051366075"
       y="-0.05018894"
       width="1.1311766"
       height="1.1254368">
      <feFlood
         flood-opacity="0.498039"
         flood-color="rgb(0,0,0)"
         result="flood"
         id="feFlood1137" />
      <feComposite
         in="flood"
         in2="SourceGraphic"
         operator="in"
         result="composite1"
         id="feComposite1139" />
      <feGaussianBlur
         in="composite1"
         stdDeviation="4.58984"
         result="blur"
         id="feGaussianBlur1141" />
      <feOffset
         dx="6.1"
         dy="5.5"
         result="offset"
         id="feOffset1143" />
      <feComposite
         in="SourceGraphic"
         in2="offset"
         operator="over"
         result="composite2"
         id="feComposite1145" />
    </filter>
  </defs>
  <sodipodi:namedview
     pagecolor="#ffffff"
     bordercolor="#666666"
     borderopacity="1"
     objecttolerance="10"
     gridtolerance="10"
     guidetolerance="10"
     inkscape:pageopacity="0"
     inkscape:pageshadow="2"
     inkscape:window-width="2263"
     inkscape:window-height="1047"
     id="namedview4"
     showgrid="false"
     inkscape:zoom="0.66221112"
     inkscape:cx="278.61205"
     inkscape:cy="268.79645"
     inkscape:window-x="26"
     inkscape:window-y="23"
     inkscape:window-maximized="0"
     inkscape:current-layer="svg2"
     inkscape:pagecheckerboard="0"
     inkscape:snap-global="false"
     fit-margin-top="0"
     fit-margin-left="0"
     fit-margin-right="0"
     fit-margin-bottom="0" />
  <rect
     style="opacity:0.998635;fill:#bb9645;stroke-width:13.82;stroke-linejoin:bevel;stroke-miterlimit:4;stroke-dasharray:none"
     id="rect865"
     width="99.825371"
     height="118.67793"
     x="134.5575"
     y="50.989216" />
  <path
     style="fill:#bb9645;fill-opacity:1;stroke:#bb9645;stroke-width:13.82;stroke-miterlimit:4;stroke-dasharray:none;stroke-opacity:1"
     d="m 164.88176,9.456859 c -1.60353,-0.008 -3.33267,-0.006 -5.20778,0.002 -17.33513,0.0787 -19.93727,0.35884 -29.09231,3.121171 -13.66054,4.121749 -19.98701,7.7227 -28.67017,16.31889 -12.074469,11.953537 -17.485509,25.7188 -18.630789,47.388438 l -0.64086,12.099739 -5.7174,-0.684608 c -7.38133,-0.882797 -14.41073,1.270388 -23.525812,7.209098 -5.1625,3.3635 -8.80805,4.83684 -13.65485,5.514003 l -6.61199,0.92301 6.64042,3.05336 c 12.38981,5.69426 22.492022,6.22204 32.871822,1.71697 2.86583,-1.24382 4.4616,-1.53694 3.96545,-0.72834 -0.45676,0.74437 -2.17373,3.36746 -3.81671,5.83115 -10.67583,16.00866 -10.07148,36.06987 1.50918,50.0634 l 2.50656,3.02931 0.19029,-4.93219 c 0.10497,-2.71205 0.70052,-5.83723 1.32327,-6.94663 1.07091,-1.90776 1.17664,-1.89741 1.95101,0.22092 3.58632,9.81046 6.07331,13.96207 8.77078,14.63909 2.51056,0.63012 2.88255,1.31725 2.89151,5.3609 0.0134,5.9101 4.47952,13.83686 13.110229,23.26335 10.97515,11.98709 30.57243,30.58182 33.61549,31.89631 1.80842,0.78117 10.28489,1.19521 22.65966,1.10674 16.29524,-0.11645 20.25177,-0.46476 22.5022,-1.97725 5.66274,-3.80587 35.3831,-34.28429 39.54067,-40.54899 2.92256,-4.40378 4.56515,-8.33356 5.03937,-12.05819 0.55761,-4.37961 1.27682,-5.81143 3.46893,-6.9007 1.5212,-0.75587 3.36782,-2.62702 4.10324,-4.15792 0.73543,-1.5309 3.64934,-7.57173 6.47419,-13.42299 4.43234,-9.18094 5.13577,-11.60438 5.13561,-17.69247 -2.9e-4,-10.84441 -3.86741,-16.19452 -10.24278,-14.17104 -2.24289,0.71186 -2.35866,0.47519 -1.73447,-3.56299 9.19318,-59.474603 -6.24311,-91.89395 -49.05511,-103.020551 -5.40475,-1.40466 -10.44414,-1.89767 -21.66885,-1.95319 z m -8.937,74.407253 c 29.02299,-0.191183 61.749,3.837491 74.00479,9.109795 4.83644,2.08058 5.36134,2.64798 4.86657,5.25153 -0.30505,1.60527 -0.88087,6.067373 -1.28171,9.916893 l -0.73053,6.99912 h -5.3762 c -4.92178,0 -5.8448,-0.4587 -10.93614,-5.44401 -9.52744,-9.32901 -28.62884,-13.971143 -37.77339,-9.17979 l -4.47288,2.34252 -17.27689,-8.613303 C 137.1926,84.386885 137.15233,83.98789 155.94476,83.864112 Z m -32.10631,1.970684 12.4672,7.171921 c 6.85709,3.94418 17.1878,9.312613 22.95713,11.929123 l 10.48994,4.75723 0.0197,9.16447 c 0.0214,10.11841 2.05949,15.5069 7.99651,21.14173 12.54213,11.90375 33.70358,6.25664 40.81145,-10.89238 2.29829,-5.54506 2.86258,-6.12449 5.97113,-6.10893 6.20759,0.031 6.282,0.70199 1.66885,14.95626 -2.36607,7.3109 -5.12303,16.98165 -6.12642,21.49168 -3.36798,15.13845 -11.61839,23.78345 -32.8587,34.42038 l -11.63604,5.82459 -13.56081,0.26246 c -15.44206,0.29712 -18.58487,-0.44687 -31.67541,-7.49125 -14.06739,-7.57001 -22.70291,-14.96131 -27.02756,-23.13649 -0.68959,-1.30356 -2.04498,-6.20978 -3.014,-10.90113 -0.969019,-4.69134 -3.952359,-15.2477 -6.627289,-23.46018 -5.88196,-18.05852 -8.08303,-31.73715 -5.55775,-34.52755 0.92163,-1.018393 2.05748,-3.292523 2.52406,-5.052493 0.75024,-2.82999 1.80996,-3.47876 9.17323,-5.61461 4.579219,-1.32828 11.854319,-2.755809 16.165779,-3.173673 z M 81.222531,119.81555 c 0.64853,0.0517 1.45936,0.34506 2.64873,0.83771 2.90091,1.20158 3.56764,2.19918 4.07262,6.08267 0.9059,6.9668 3.97856,35.16075 3.97856,36.50699 0,1.62832 -2.85786,1.47158 -4.15573,-0.22747 -0.5881,-0.7699 -1.73975,-3.1636 -2.56124,-5.31934 -0.82149,-2.15573 -3.14038,-7.19509 -5.15092,-11.19859 -4.77826,-9.51478 -5.5157,-20.04332 -1.73228,-24.71566 1.18737,-1.46633 1.81938,-2.05243 2.90026,-1.96631 z m 157.884939,1.13736 c 4.37018,-0.18847 5.67661,2.60207 5.67366,10.74803 -0.002,6.18527 -0.56467,8.51075 -3.17148,13.11679 -1.74291,3.07961 -4.39258,8.59637 -5.88801,12.25939 -1.49541,3.66303 -3.34391,7.05873 -4.10761,7.54375 -2.01548,1.28002 -3.07211,1.11047 -3.0468,-0.48556 0.0122,-0.7699 1.01862,-9.71478 2.23534,-19.87751 1.2167,-10.16272 2.2123,-19.33499 2.21566,-20.38495 0.004,-1.30223 1.28234,-2.15003 4.02231,-2.66404 0.75448,-0.14154 1.44261,-0.22898 2.06693,-0.2559 z"
     id="path819-6"
     inkscape:connector-curvature="0" />
  <path
     style="opacity:1;fill:#bb9645;fill-opacity:1;stroke:#bb9645;stroke-width:20.0959;stroke-linejoin:bevel;stroke-miterlimit:4;stroke-dasharray:none;stroke-opacity:1"
     d="m 93.405063,73.960909 c 1.648935,-17.470142 6.612077,-29.055083 16.479957,-38.467448 6.82012,-6.505292 13.21515,-10.080561 23.9539,-13.39191 6.28069,-1.936682 10.00146,-2.257191 26.20362,-2.257191 20.80986,0 26.68076,0.995701 38.15247,6.470646 17.53044,8.366508 27.16348,24.208031 29.72329,48.87992 0.64353,6.202437 0.54109,6.716957 -1.23011,6.178996 -12.17354,-3.697427 -32.40781,-6.067133 -57.55684,-6.740681 -25.62354,-0.686256 -30.40359,-0.260534 -33.66215,2.998028 l -2.14237,2.142369 -3.71257,-2.190468 c -3.59072,-2.118576 -4.08795,-2.140226 -15.14977,-0.659644 -6.29046,0.841953 -13.76503,2.244965 -16.61016,3.117803 l -5.172961,1.586978 z"
     id="path6901" />
  <path
     style="opacity:1;fill:#bb9645;fill-opacity:1;stroke:#bb9645;stroke-width:20.0959;stroke-linejoin:bevel;stroke-miterlimit:4;stroke-dasharray:none;stroke-opacity:1"
     d="m 136.54325,184.06805 c -12.43302,-6.33738 -23.84647,-16.24138 -24.97595,-21.67284 -0.36638,-1.76187 -2.86999,-10.89153 -5.56359,-20.28814 -8.082137,-28.19457 -9.450742,-34.94467 -7.862545,-38.77892 1.197458,-2.89092 2.189935,-3.463997 8.460345,-4.885174 12.63312,-2.863273 14.51938,-2.588748 25.88919,3.767894 5.63369,3.14969 14.16272,7.62483 18.95339,9.94474 l 8.71032,4.21804 v 5.46528 c 0,7.22699 2.45143,15.17238 6.33552,20.53422 8.74001,12.06522 26.64093,17.07515 40.54453,11.3472 1.99886,-0.82349 3.8224,-1.30913 4.05232,-1.07922 0.22992,0.22992 -0.14268,2.6448 -0.82799,5.36641 -2.71309,10.77467 -10.47191,18.1937 -28.4578,27.21152 l -8.78562,4.40496 h -12.78605 -12.78605 z"
     id="path6940" />
  <path
     style="opacity:1;fill:#bb9645;fill-opacity:1;stroke:#bb9645;stroke-width:20.0959;stroke-linejoin:bevel;stroke-miterlimit:4;stroke-dasharray:none;stroke-opacity:1"
     d="m 188.45102,135.21548 c -5.67698,-2.34815 -8.9962,-9.30691 -9.0508,-18.97506 -0.0226,-3.99951 0.3592,-4.70963 3.3688,-6.26595 5.99431,-3.09979 18.51858,-0.05 26.14397,6.36636 l 3.36117,2.82824 -2.45683,5.06222 c -4.77356,9.83577 -13.40943,14.27538 -21.36631,10.98419 z"
     id="path6979" />
  <path
     style="opacity:1;fill:#bb9645;fill-opacity:1;stroke:#bb9645;stroke-width:20.0959;stroke-linejoin:bevel;stroke-miterlimit:4;stroke-dasharray:none;stroke-opacity:1"
     d="m 148.73279,218.51675 c -6.43741,-0.57998 -6.85084,-0.80902 -15.27141,-8.4603 -4.76019,-4.3253 -8.43836,-8.0807 -8.17372,-8.34534 0.26463,-0.26464 3.2927,0.93164 6.72904,2.65839 8.67907,4.36123 15.37576,5.54266 31.41736,5.54266 h 13.8525 l 8.62916,-4.33866 c 4.74604,-2.38627 8.80527,-4.16256 9.02051,-3.94732 0.21524,0.21524 -3.31817,4.03276 -7.85202,8.48339 l -8.24336,8.09204 -11.74576,0.45563 c -6.46017,0.25059 -14.72321,0.18737 -18.3623,-0.14049 z"
     id="path7057" />
  <path
     style="opacity:1;fill:#bb9645;fill-opacity:1;stroke:#bb9645;stroke-width:5.02398;stroke-linejoin:bevel;stroke-miterlimit:4;stroke-dasharray:none;stroke-opacity:1"
     d="m 222.04805,101.83059 c -1.19579,-1.04581 -2.13124,-1.947068 -2.07879,-2.002781 0.0525,-0.05571 1.12092,0.218451 2.37437,0.609261 l 2.279,0.71055 -0.004,0.99244 c -0.007,1.7383 -0.2645,1.70732 -2.57049,-0.30947 z"
     id="path7135" />
  <path
     style="opacity:1;fill:#bb9645;fill-opacity:1;stroke:#bb9645;stroke-width:20.0959;stroke-linejoin:bevel;stroke-miterlimit:4;stroke-dasharray:none;stroke-opacity:1"
     d="m 106.14183,62.909018 c 4.10097,-15.49806 14.501,-25.617657 31.51571,-30.665913 7.83472,-2.324558 36.50355,-2.405646 45.24809,-0.127981 13.09402,3.410558 22.75928,10.544206 27.81239,20.527514 2.84827,5.627253 5.57604,13.926474 4.82439,14.678128 -0.26377,0.263772 -6.22699,-0.191072 -13.25159,-1.010766 -19.21691,-2.2424 -54.16144,-3.199564 -61.89065,-1.695243 -3.52373,0.685817 -12.17288,1.399932 -19.22034,1.586922 -7.04745,0.18699 -13.62114,0.68316 -14.6082,1.1026 -1.64255,0.69799 -1.67898,0.325519 -0.4298,-4.395261 z"
     id="path7888" />
  <path
     style="opacity:1;fill:#bb9645;fill-opacity:1;stroke:#bb9645;stroke-width:20.0959;stroke-linejoin:bevel;stroke-miterlimit:4;stroke-dasharray:none;stroke-opacity:1"
     d="m 123.84933,52.421806 c 7.57615,-8.328724 17.07286,-11.221514 36.83898,-11.221514 19.64005,0 29.15387,2.866792 36.74795,11.073227 l 2.57845,2.786376 -16.99371,-0.789971 c -22.14066,-1.029232 -33.3717,-0.994938 -49.02761,0.149709 l -12.81356,0.936835 z"
     id="path7927" />
  <path
     style="opacity:1;fill:#bb9645;fill-opacity:1;stroke:#bb9645;stroke-width:20.0959;stroke-linejoin:bevel;stroke-miterlimit:4;stroke-dasharray:none;stroke-opacity:1"
     d="m 141.54411,174.55344 c -10.60315,-5.99248 -18.24134,-12.0388 -19.62705,-15.53659 -1.82692,-4.61148 -13.01689,-46.29495 -13.01689,-48.48888 0,-1.47179 1.16588,-2.10047 4.94671,-2.66744 4.68294,-0.70225 5.75814,-0.32167 20.16395,7.13726 l 15.21724,7.87906 1.25768,7.03756 c 0.69173,3.87066 2.40796,9.5203 3.81384,12.55476 5.27933,11.3949 19.74579,21.81203 32.36653,23.30677 5.38741,0.63806 5.41933,0.66377 3.08046,2.48068 -1.29985,1.00976 -6.00816,3.82797 -10.46292,6.26269 -8.08931,4.42114 -8.11366,4.42661 -19.22034,4.32109 -10.87857,-0.10335 -11.2819,-0.19672 -18.51921,-4.28696 z"
     id="path7966" />
  <path
     style="opacity:1;fill:#bb9645;fill-opacity:1;stroke:#bb9645;stroke-width:20.0959;stroke-linejoin:bevel;stroke-miterlimit:4;stroke-dasharray:none;stroke-opacity:1"
     d="m 145.73916,164.59794 c -12.96189,-7.35865 -13.99897,-8.80968 -18.74189,-26.22259 -2.31866,-8.51262 -4.21574,-15.84573 -4.21574,-16.29582 0,-0.45008 3.78653,1.0855 8.41452,3.41241 l 8.41451,4.23074 1.79892,7.34063 c 2.80438,11.44353 9.8943,22.04335 19.27883,28.82293 l 3.20339,2.31419 -5.87288,0.0174 c -4.73483,0.014 -7.11439,-0.68746 -12.27966,-3.61985 z"
     id="path8005" />
  <path
     style="opacity:1;fill:#bb9645;fill-opacity:1;stroke:#bb9645;stroke-width:7.10498;stroke-linejoin:bevel;stroke-miterlimit:4;stroke-dasharray:none;stroke-opacity:1"
     d="m 191.67939,125.01432 c -1.39599,-2.13056 -2.1992,-5.94434 -1.25002,-5.93533 1.39045,0.0132 8.58865,2.44003 8.58865,2.89561 0,0.60999 -1.01714,1.81531 -2.34141,2.7746 -1.97332,1.42947 -4.15835,1.54539 -4.99722,0.26512 z"
     id="path8122" />
  <path
     style="fill:url(#linearGradient8343);fill-opacity:1;stroke-width:1.12;stroke-miterlimit:4;stroke-dasharray:none"
     d="m 164.37111,9.5627053 c -1.60353,-0.008 -3.33267,-0.006 -5.20778,0.002 -17.33513,0.0787 -19.93727,0.35884 -29.0923,3.1211697 -13.66053,4.12175 -19.987,7.72269 -28.67017,16.31888 -12.074457,11.95355 -17.485497,25.71881 -18.630777,47.38845 l -0.64086,12.09973 -5.7174,-0.68461 c -7.38133,-0.88279 -14.41073,1.27039 -23.5258,7.2091 -5.1625,3.3635 -8.80805,4.83684 -13.65485,5.514005 l -6.61199,0.92301 6.64042,3.05336 c 12.38981,5.69426 22.49201,6.22204 32.87181,1.71697 2.86583,-1.24382 4.4616,-1.53694 3.96545,-0.72834 -0.45676,0.74437 -2.17373,3.36746 -3.81671,5.83115 -10.67583,16.00866 -10.07148,36.06988 1.50918,50.06341 l 2.50656,3.02931 0.19029,-4.93219 c 0.10497,-2.71205 0.70052,-5.83723 1.32327,-6.94663 1.07091,-1.90776 1.17664,-1.89741 1.95101,0.22092 3.58632,9.81046 6.07331,13.96207 8.77078,14.63909 2.51056,0.63012 2.88255,1.31725 2.89151,5.3609 0.0134,5.91009 4.47952,13.83685 13.110217,23.26334 10.97516,11.98709 30.57242,30.58181 33.61548,31.8963 1.80842,0.78117 10.28489,1.19521 22.65966,1.10674 16.29524,-0.11645 20.25177,-0.46476 22.5022,-1.97725 5.66274,-3.80587 35.3831,-34.28428 39.54067,-40.54898 2.92256,-4.40378 4.56515,-8.33355 5.03937,-12.05818 0.55761,-4.37961 1.27682,-5.81143 3.46893,-6.9007 1.5212,-0.75587 3.36782,-2.62702 4.10324,-4.15792 0.73543,-1.5309 3.64934,-7.57173 6.47419,-13.42299 4.43234,-9.18094 5.13577,-11.60439 5.13561,-17.69248 -2.9e-4,-10.84441 -3.86741,-16.19452 -10.24278,-14.17104 -2.24289,0.71186 -2.35866,0.47519 -1.73447,-3.56299 9.19318,-59.474595 -6.24311,-91.893955 -49.05511,-103.020545 -5.40475,-1.40466 -10.44414,-1.8976697 -21.66885,-1.9531897 z m -8.937,74.4072497 c 29.02299,-0.19118 61.749,3.83749 74.00479,9.10979 4.83644,2.08058 5.36134,2.64798 4.86657,5.25153 -0.30505,1.60527 -0.88087,6.067375 -1.28171,9.916895 l -0.73053,6.99912 h -5.3762 c -4.92178,0 -5.8448,-0.4587 -10.93614,-5.44401 -9.52744,-9.32901 -28.62884,-13.971145 -37.77339,-9.17979 l -4.47288,2.34252 -17.27689,-8.613305 c -19.77578,-9.85998 -19.81605,-10.25897 -1.02362,-10.38275 z m -32.10629,1.97068 12.46718,7.17192 c 6.85709,3.94418 17.1878,9.312615 22.95713,11.929125 l 10.48994,4.75723 0.0197,9.16447 c 0.0214,10.11841 2.05949,15.5069 7.99651,21.14173 12.54213,11.90376 33.70358,6.25665 40.81145,-10.89238 2.29829,-5.54506 2.86258,-6.12449 5.97113,-6.10893 6.20759,0.031 6.282,0.70199 1.66885,14.95626 -2.36607,7.31091 -5.12303,16.98166 -6.12642,21.49169 -3.36798,15.13845 -11.61839,23.78344 -32.8587,34.42037 l -11.63604,5.82459 -13.56081,0.26246 c -15.44206,0.29712 -18.58487,-0.44687 -31.6754,-7.49125 -14.06738,-7.57001 -22.7029,-14.9613 -27.02756,-23.13648 -0.68959,-1.30356 -2.04498,-6.20978 -3.013997,-10.90113 -0.96902,-4.69134 -3.95235,-15.2477 -6.62728,-23.46019 -5.88196,-18.05852 -8.08303,-31.73715 -5.55775,-34.52755 0.92163,-1.018395 2.05748,-3.292525 2.52406,-5.052495 0.75024,-2.82999 1.80996,-3.47876 9.17322,-5.61461 4.579217,-1.32828 11.854327,-2.75581 16.165787,-3.17367 z M 80.711903,119.92139 c 0.64853,0.0517 1.45936,0.34506 2.64873,0.83771 2.90091,1.20158 3.56764,2.19918 4.07262,6.08267 0.9059,6.9668 3.97856,35.16076 3.97856,36.507 0,1.62832 -2.85786,1.47158 -4.15573,-0.22747 -0.5881,-0.7699 -1.73975,-3.1636 -2.56124,-5.31934 -0.82149,-2.15573 -3.14038,-7.19509 -5.15092,-11.19859 -4.77826,-9.51479 -5.5157,-20.04333 -1.73228,-24.71567 1.18737,-1.46633 1.81938,-2.05243 2.90026,-1.96631 z m 157.884917,1.13736 c 4.37018,-0.18847 5.67661,2.60207 5.67366,10.74803 -0.002,6.18527 -0.56467,8.51075 -3.17148,13.1168 -1.74291,3.07961 -4.39258,8.59637 -5.88801,12.25939 -1.49541,3.66303 -3.34391,7.05873 -4.10761,7.54375 -2.01548,1.28002 -3.07211,1.11047 -3.0468,-0.48556 0.0122,-0.7699 1.01862,-9.71478 2.23534,-19.87751 1.2167,-10.16273 2.2123,-19.335 2.21566,-20.38496 0.004,-1.30223 1.28234,-2.15003 4.02231,-2.66404 0.75448,-0.14154 1.44261,-0.22898 2.06693,-0.2559 z"
     id="path819"
     inkscape:connector-curvature="0" />
</svg>
