<?xml version="1.0" encoding="UTF-8" standalone="no"?>
<!-- Created with Inkscape (http://www.inkscape.org/) -->

<svg
   width="56.786888mm"
   height="56.785294mm"
   viewBox="0 0 56.786888 56.785294"
   version="1.1"
   id="svg5"
   inkscape:version="1.1.2 (0a00cf5339, 2022-02-04)"
   sodipodi:docname="steering.svg"
   xmlns:inkscape="http://www.inkscape.org/namespaces/inkscape"
   xmlns:sodipodi="http://sodipodi.sourceforge.net/DTD/sodipodi-0.dtd"
   xmlns:xlink="http://www.w3.org/1999/xlink"
   xmlns="http://www.w3.org/2000/svg"
   xmlns:svg="http://www.w3.org/2000/svg">
  <sodipodi:namedview
     id="namedview7"
     pagecolor="#ffffff"
     bordercolor="#666666"
     borderopacity="1.0"
     inkscape:pageshadow="2"
     inkscape:pageopacity="0.0"
     inkscape:pagecheckerboard="0"
     inkscape:document-units="mm"
     showgrid="false"
     fit-margin-top="0"
     fit-margin-left="0"
     fit-margin-right="0"
     fit-margin-bottom="0"
     inkscape:zoom="1.2810466"
     inkscape:cx="-168.22183"
     inkscape:cy="190.46926"
     inkscape:window-width="1999"
     inkscape:window-height="1123"
     inkscape:window-x="26"
     inkscape:window-y="23"
     inkscape:window-maximized="0"
     inkscape:current-layer="layer1" />
  <defs
     id="defs2">
    <linearGradient
       inkscape:collect="always"
       id="linearGradient1074">
      <stop
         style="stop-color:#000000;stop-opacity:1;"
         offset="0"
         id="stop1070" />
      <stop
         style="stop-color:#5a595c;stop-opacity:1"
         offset="1"
         id="stop1072" />
    </linearGradient>
    <linearGradient
       inkscape:collect="always"
       xlink:href="#linearGradient1074"
       id="linearGradient1076"
       x1="-155.07048"
       y1="19.544279"
       x2="-212.42387"
       y2="-69.936203"
       gradientUnits="userSpaceOnUse" />
    <filter
       style="color-interpolation-filters:sRGB;"
       inkscape:label="Drop Shadow"
       id="filter1767"
       x="-0.054428044"
       y="-0.05442519"
       width="1.1296446"
       height="1.1353071">
      <feFlood
         flood-opacity="0.584314"
         flood-color="rgb(0,0,0)"
         result="flood"
         id="feFlood1757" />
      <feComposite
         in="flood"
         in2="SourceGraphic"
         operator="in"
         result="composite1"
         id="feComposite1759" />
      <feGaussianBlur
         in="composite1"
         stdDeviation="1.2"
         result="blur"
         id="feGaussianBlur1761" />
      <feOffset
         dx="1.1"
         dy="1.4"
         result="offset"
         id="feOffset1763" />
      <feComposite
         in="SourceGraphic"
         in2="offset"
         operator="over"
         result="composite2"
         id="feComposite1765" />
    </filter>
  </defs>
  <g
     inkscape:label="Layer 1"
     inkscape:groupmode="layer"
     id="layer1"
     transform="translate(214.01438,42.225625)">
    <path
       style="fill:#bb9645;fill-opacity:1;stroke:#bb9645;stroke-width:2.473;stroke-miterlimit:4;stroke-dasharray:none;stroke-opacity:1"
       d="m -186.05534,12.589909 c -1.12166,-0.185415 -1.8468,-1.152329 -1.85394,-2.472074 -0.003,-0.5443146 0.043,-0.7730741 0.37434,-1.8617062 0.67421,-2.2154482 0.92469,-3.6741522 0.78772,-4.5874736 -0.0452,-0.3015073 -0.0814,-0.3550141 -0.30226,-0.4473121 -0.34068,-0.1423417 -0.34804,-0.3883775 -0.0136,-0.4558384 l 0.23728,-0.047867 -0.23728,-0.061906 c -0.18299,-0.047745 -0.23727,-0.1012382 -0.23727,-0.2338256 0,-0.1755148 0.15486,-0.2588558 0.48489,-0.2609612 0.10735,-5.519e-4 0.17139,-0.060896 0.20432,-0.1921317 0.0264,-0.1051234 0.0318,-0.2072999 0.0121,-0.2270569 -0.0197,-0.019757 -0.32525,-0.066973 -0.67888,-0.1049248 -2.88698,-0.3098488 -5.62915,-1.43116556 -7.96859,-3.2584796 -0.54747,-0.4276267 -0.70234,-0.5158904 -0.78491,-0.4473617 -0.14262,0.1183601 -0.12885,0.2637482 0.0528,0.5576706 0.14156,0.2290436 0.14527,0.2622912 0.0409,0.3666724 -0.10438,0.1043811 -0.13174,0.103683 -0.30169,-0.00767 -0.1028,-0.067353 -0.1869,-0.090788 -0.1869,-0.05208 0,0.038711 0.0328,0.090689 0.073,0.1155042 0.0401,0.024807 0.073,0.12531643 0.073,0.22333452 0,0.21371816 -0.24184,0.24625657 -0.44744,0.0601983 -0.12139,-0.10985575 -0.15616,-0.0990998 -0.50316,0.15561978 -0.75624,0.5551286 -1.81059,2.088385 -2.886,4.1968638 -0.46212,0.9060478 -1.10876,1.5797545 -1.74852,1.8217009 -0.93908,0.3551465 -1.86992,0.1514118 -2.51736,-0.5509785 -0.67598,-0.7333448 -0.81365,-1.6157311 -0.39252,-2.5156172 0.32706,-0.6988555 0.79439,-1.1193355 1.90403,-1.71315861 2.09142,-1.11922237 3.09247,-1.79151359 3.81045,-2.55903359 0.42068,-0.4497099 0.53552,-0.6965929 0.37126,-0.7981153 -0.0402,-0.024807 -0.073,-0.1253193 -0.073,-0.2233346 0,-0.1402722 0.0379,-0.1782107 0.17821,-0.1782107 0.098,0 0.19852,0.032853 0.22333,0.073007 0.0248,0.040154 0.0811,0.073007 0.12514,0.073007 0.044,0 0.0256,-0.06008 -0.0408,-0.1335118 -0.2887,-0.3189989 0.0191,-0.58081 0.36391,-0.3095646 0.22447,0.1765661 0.31512,0.1863839 0.49648,0.053772 0.1244,-0.090962 0.10847,-0.1276895 -0.24536,-0.5658129 -1.98852,-2.462309 -3.105,-5.1882587 -3.47368,-8.4811829 -0.0365,-0.326286 -0.0743,-0.419548 -0.16951,-0.418679 -0.1955,0.0018 -0.27035,0.08872 -0.3448,0.400427 -0.0522,0.218595 -0.11022,0.297791 -0.23072,0.314931 -0.12772,0.01817 -0.17538,-0.02708 -0.23069,-0.219025 -0.0485,-0.168152 -0.0717,-0.194557 -0.0763,-0.08659 -0.008,0.193643 -0.18713,0.349612 -0.33567,0.292611 -0.0616,-0.02362 -0.1315,-0.140845 -0.15543,-0.260495 -0.0386,-0.193038 -0.081,-0.223175 -0.37662,-0.267501 -0.53508,-0.08024 -1.81466,0.02435 -2.64326,0.216055 -0.42162,0.09755 -1.34152,0.350934 -2.04422,0.563081 -1.10005,0.332106 -1.35883,0.385088 -1.86171,0.381159 -1.04918,-0.0082 -1.8651,-0.478936 -2.27214,-1.310898 -0.1635,-0.334182 -0.19994,-0.508708 -0.20146,-0.964762 -0.003,-0.961999 0.4725,-1.691022 1.36991,-2.099427 0.39195,-0.178377 0.53151,-0.202701 1.14019,-0.198725 0.60057,0.0039 0.82087,0.04453 1.64269,0.302797 1.89281,0.594839 3.34413,0.895754 4.26228,0.883742 0.69013,-0.009 0.91313,-0.06826 0.9467,-0.251452 0.0375,-0.204808 0.22643,-0.395179 0.34642,-0.349132 0.0564,0.02165 0.13251,0.142636 0.16908,0.268857 0.0657,0.226634 0.0666,0.227024 0.0731,0.03129 0.008,-0.24296 0.24052,-0.397818 0.36749,-0.244826 0.0463,0.0558 0.10292,0.216795 0.1258,0.357755 0.0317,0.195439 0.0849,0.267168 0.22411,0.3021 0.10038,0.0252 0.19314,0.03519 0.20612,0.0222 0.013,-0.01298 0.0725,-0.41704 0.13234,-0.897903 0.36298,-2.918623 1.53824,-5.699479 3.34032,-7.903676 0.43579,-0.533037 0.45915,-0.612599 0.21783,-0.74175 -0.0972,-0.05203 -0.19417,-0.02387 -0.38474,0.111716 -0.41417,0.294689 -0.63994,0.102138 -0.37437,-0.319294 0.12417,-0.197058 0.12404,-0.197465 -0.024,-0.07044 -0.3028,0.259818 -0.57786,0.07177 -0.39495,-0.270006 0.1337,-0.249825 0.0429,-0.429373 -0.48357,-0.955809 -0.69257,-0.692566 -2.37105,-1.767418 -4.21664,-2.700221 -0.42089,-0.212723 -1.08165,-0.84891 -1.30011,-1.25174 -0.10516,-0.193925 -0.23124,-0.549713 -0.28016,-0.79064 -0.28054,-1.38143 0.98582,-2.787318 2.38099,-2.643325 0.98479,0.101639 1.81969,0.774054 2.44282,1.967402 0.58957,1.129071 1.27977,2.286985 1.75195,2.939176 0.74199,1.024846 1.48115,1.649676 1.69662,1.434199 0.046,-0.04595 0.15911,-0.08355 0.25147,-0.08355 0.12655,0 0.16792,0.04137 0.16792,0.167919 0,0.09235 -0.0394,0.207343 -0.0876,0.255528 -0.0631,0.06311 -0.0643,0.08761 -0.004,0.08761 0.0458,0 0.10361,-0.03285 0.12843,-0.07301 0.0725,-0.117312 0.30868,-0.08404 0.36041,0.05077 0.0281,0.07328 -0.0134,0.206114 -0.1017,0.32558 -0.17643,0.23864 -0.18561,0.349405 -0.0448,0.54055 0.10141,0.137652 0.11136,0.135242 0.34679,-0.08398 0.13331,-0.124135 0.4395,-0.374193 0.68043,-0.555685 2.21584,-1.669206 4.86868,-2.725611 7.66585,-3.052674 0.40154,-0.04695 0.74224,-0.09723 0.7571,-0.111724 0.0149,-0.0145 0.007,-0.105233 -0.017,-0.201636 -0.034,-0.135299 -0.11505,-0.190268 -0.35555,-0.241002 -0.26411,-0.05571 -0.31157,-0.09298 -0.31157,-0.244629 0,-0.128669 0.0492,-0.190514 0.17519,-0.220257 l 0.17518,-0.04136 -0.19344,-0.08814 c -0.2782,-0.126757 -0.25665,-0.362743 0.0402,-0.439652 0.31161,-0.08075 0.37732,-0.345623 0.33012,-1.3308 -0.0423,-0.883385 -0.27792,-1.994719 -0.78039,-3.681087 -0.4155,-1.394452 -0.47719,-1.781517 -0.37343,-2.342838 0.23957,-1.295941 1.06607,-2.03831 2.26929,-2.03831 1.20323,0 2.02973,0.742369 2.2693,2.03831 0.10376,0.561321 0.0421,0.948386 -0.37343,2.342838 -0.50247,1.686368 -0.73808,2.797702 -0.7804,3.681087 -0.0472,0.985177 0.0185,1.250052 0.33013,1.3308 0.29681,0.07691 0.31836,0.312895 0.0402,0.439652 l -0.19343,0.08814 0.17518,0.04136 c 0.126,0.02974 0.17519,0.09159 0.17519,0.220257 0,0.151649 -0.0475,0.188915 -0.31157,0.244629 -0.2405,0.05073 -0.3216,0.105703 -0.35555,0.241002 -0.0242,0.0964 -0.0318,0.187139 -0.017,0.201636 0.0149,0.0145 0.35555,0.06477 0.7571,0.111724 2.79717,0.327063 5.45,1.383468 7.66585,3.052674 0.24093,0.181492 0.54712,0.43155 0.68043,0.555685 0.23543,0.219226 0.24538,0.221636 0.34679,0.08398 0.14082,-0.191145 0.13164,-0.30191 -0.0448,-0.54055 -0.15789,-0.21355 -0.13161,-0.449358 0.0501,-0.449358 0.0573,0 0.19346,0.0562 0.30248,0.124898 0.19706,0.124178 0.19746,0.124039 0.0704,-0.024 -0.17873,-0.208298 -0.16809,-0.465939 0.0192,-0.465939 0.0808,0 0.21024,0.03949 0.28753,0.08776 0.18688,0.116707 0.39018,0.0058 0.88118,-0.48049 0.69348,-0.6869 1.40659,-1.766839 2.44039,-3.695723 0.56914,-1.061919 1.02757,-1.579208 1.68905,-1.905921 1.05242,-0.519801 2.19339,-0.240784 2.8704,0.701941 0.70065,0.975639 0.49438,2.279997 -0.50594,3.199254 -0.26651,0.244922 -0.79335,0.57989 -1.50015,0.953821 -1.4488,0.76648 -2.83134,1.68479 -3.41461,2.268059 -0.52643,0.526436 -0.61727,0.705984 -0.48357,0.955808 0.18292,0.341778 -0.0922,0.529825 -0.39495,0.270006 -0.14804,-0.127026 -0.14818,-0.126618 -0.024,0.07044 0.26557,0.421431 0.0398,0.613983 -0.37437,0.319294 -0.19057,-0.13559 -0.28753,-0.163744 -0.38474,-0.111716 -0.24132,0.129147 -0.21796,0.208709 0.21775,0.74175 1.79923,2.201128 2.9781,4.990431 3.34041,7.903676 0.0598,0.480863 0.11935,0.884919 0.13234,0.897903 0.013,0.01298 0.10573,0.003 0.20612,-0.0222 0.13918,-0.03493 0.19239,-0.106661 0.2241,-0.3021 0.0572,-0.352356 0.17215,-0.479478 0.34836,-0.385176 0.0761,0.04072 0.14094,0.146807 0.14411,0.235742 0.005,0.147236 0.0121,0.144303 0.077,-0.03279 0.0392,-0.106971 0.11563,-0.211529 0.1699,-0.232353 0.11665,-0.04476 0.30546,0.148529 0.3425,0.350636 0.0331,0.180537 0.25708,0.242654 0.90151,0.250007 0.9588,0.01094 2.30151,-0.260899 4.19796,-0.849903 0.92236,-0.286469 1.14789,-0.329763 1.7522,-0.336371 0.61504,-0.0067 0.74415,0.01567 1.1402,0.197789 0.89931,0.413533 1.3731,1.140366 1.3699,2.101544 -0.002,0.456054 -0.0379,0.63058 -0.20146,0.964762 -0.40716,0.832207 -1.22329,1.302955 -2.27214,1.310581 -0.4919,0.0036 -0.76263,-0.04938 -1.71569,-0.335581 -2.15936,-0.648455 -3.15174,-0.853854 -4.1254,-0.853854 -0.87448,0 -1.03419,0.04434 -1.08559,0.301361 -0.0235,0.117229 -0.093,0.23247 -0.15456,0.256092 -0.14854,0.057 -0.32746,-0.09897 -0.33567,-0.292611 -0.005,-0.107965 -0.0278,-0.08156 -0.0763,0.08659 -0.0553,0.191945 -0.10297,0.237193 -0.23069,0.219025 -0.1205,-0.01714 -0.17851,-0.09634 -0.23072,-0.314931 -0.0744,-0.311711 -0.1493,-0.398643 -0.3448,-0.400427 -0.0952,-8.56e-4 -0.13298,0.09239 -0.16951,0.418679 -0.36688,3.2769144 -1.45482,5.9543379 -3.40403,8.3773509 -0.43035,0.5349493 -0.44819,0.5722587 -0.31891,0.6667862 0.1854,0.135573 0.27488,0.1264671 0.50038,-0.050913 0.34483,-0.2712454 0.65261,-0.00944 0.36392,0.3095646 -0.0665,0.073432 -0.0848,0.1335118 -0.0408,0.1335118 0.044,0 0.10032,-0.032853 0.12514,-0.073007 0.0248,-0.040154 0.12532,-0.073007 0.22333,-0.073007 0.14027,0 0.17822,0.037939 0.17822,0.1782107 0,0.098015 -0.0329,0.1985168 -0.073,0.2233346 -0.18834,0.1163954 -0.0417,0.3784631 0.5293,0.9456418 0.70441,0.6997474 1.47255,1.21555788 3.28165,2.20365809 1.50215,0.82044961 1.92647,1.17672191 2.26624,1.90279581 0.1709,0.3652127 0.21729,0.5692482 0.22491,0.9893667 0.0116,0.6366126 -0.15016,1.0468085 -0.60889,1.5444623 -0.64744,0.7023903 -1.57828,0.906125 -2.51736,0.5509785 -0.63976,-0.2419464 -1.2864,-0.9156531 -1.74852,-1.8217009 -1.07541,-2.1084788 -2.12976,-3.6417352 -2.88599,-4.1968638 -0.347,-0.25471954 -0.38178,-0.26547553 -0.50317,-0.15561978 -0.20559,0.18605831 -0.44744,0.1535199 -0.44744,-0.0601983 0,-0.0980181 0.0328,-0.19851682 0.073,-0.22333452 0.0402,-0.024807 0.073,-0.076793 0.073,-0.1155042 0,-0.038708 -0.0841,-0.015287 -0.1869,0.05208 -0.16995,0.1113541 -0.1973,0.1120522 -0.30168,0.00767 -0.10438,-0.1043812 -0.10068,-0.1376288 0.0409,-0.3666724 0.18165,-0.2939224 0.19542,-0.4393105 0.0528,-0.5576706 -0.0826,-0.068529 -0.23743,0.019729 -0.78491,0.4473617 -2.33943,1.82731404 -5.08161,2.9486308 -7.96859,3.2584796 -0.35363,0.037952 -0.65913,0.085171 -0.67888,0.1049248 -0.0198,0.019757 -0.0143,0.1219335 0.0121,0.2270569 0.0329,0.1312353 0.097,0.1914473 0.20432,0.1921317 0.33004,0.00221 0.48489,0.085446 0.48489,0.2609612 0,0.1325874 -0.0543,0.1860804 -0.23727,0.2338256 l -0.23728,0.061906 0.23728,0.047867 c 0.3344,0.067461 0.32704,0.3134967 -0.0136,0.4558384 -0.2209,0.092298 -0.25706,0.1458048 -0.30227,0.4473121 -0.13696,0.9133214 0.11351,2.3720254 0.78772,4.5874736 0.33129,1.0886321 0.37729,1.3173916 0.37435,1.8617059 -0.009,1.663443 -1.18016,2.726979 -2.72221,2.472074 z m -0.95142,-15.120734 c 0.002,-0.6117949 0.0294,-0.702669 0.44022,-1.4419105 0.26702,-0.4804492 0.13016,-1.3464642 -0.45278,-2.8652395 -0.27088,-0.7057126 -0.29736,-0.8314043 -0.26364,-1.2514235 l 0.0375,-0.4669172 -0.51469,-0.2072006 c -0.40526,-0.1631418 -0.52179,-0.1859231 -0.54805,-0.1071378 -0.10651,0.3195287 -0.56136,0.6604259 -1.31697,0.9870268 -0.9513,0.411181 -1.79586,0.9383848 -2.10598,1.3146212 -0.14656,0.177805 -0.24566,0.3966832 -0.27837,0.6148384 -0.0686,0.4571326 -0.12855,0.5587765 -0.63699,1.0791537 l -0.43808,0.4483743 0.5741,0.4063024 c 1.23895,0.8768317 2.94799,1.614172 4.49352,1.9386731 1.0774,0.2262098 1.00835,0.2569105 1.01023,-0.4491608 z m 3.73637,0.4533329 c 1.57215,-0.320384 3.27747,-1.0503983 4.53848,-1.9428452 l 0.5741,-0.4063024 -0.43809,-0.4483743 c -0.51269,-0.5247315 -0.56816,-0.620222 -0.64048,-1.1025476 -0.0979,-0.6525727 -0.90476,-1.2817019 -2.53256,-1.9745806 -0.60307,-0.2567008 -1.0664,-0.6219163 -1.16526,-0.9185119 -0.0263,-0.078785 -0.14279,-0.056004 -0.54805,0.1071378 l -0.51469,0.2072006 0.0375,0.4669172 c 0.0337,0.4200192 0.007,0.5457109 -0.26364,1.2514235 -0.58294,1.5187753 -0.7198,2.3847903 -0.45278,2.8652395 0.41085,0.7392415 0.43859,0.8301156 0.44022,1.4419105 0.002,0.7029366 -0.0772,0.6657846 0.96527,0.4533329 z m -10.34162,-5.3659368 c 0.78702,-0.1146543 1.08035,-0.4432116 1.90389,-2.1324935 0.53461,-1.0966426 0.6514,-1.2840436 0.90461,-1.4516126 0.15992,-0.105825 0.29063,-0.196256 0.29048,-0.20096 -1.4e-4,-0.0047 -0.0912,-0.242013 -0.20242,-0.527356 -0.19354,-0.496667 -0.20988,-0.51586 -0.38303,-0.449737 -0.2998,0.114495 -0.9472,0.0087 -1.61265,-0.263582 -0.83128,-0.340114 -1.67762,-0.556574 -2.17617,-0.556574 -0.33798,0 -0.47564,0.04384 -0.83593,0.266229 -0.39742,0.2453 -0.48562,0.26907 -1.12194,0.302354 l -0.69061,0.03612 0.0484,0.3876 c 0.0665,0.531994 0.42962,1.89263 0.66511,2.4919939 0.30003,0.7636398 0.94435,1.9675056 1.3914,2.5997529 l 0.40441,0.5719359 0.52649,-0.510507 c 0.46484,-0.4507308 0.56881,-0.5166768 0.88794,-0.5631666 z m 17.92358,0.3141038 c 0.47932,-0.7165955 0.94952,-1.6120611 1.26658,-2.412119 0.23573,-0.5948389 0.59971,-1.9551629 0.66678,-2.4919939 l 0.0484,-0.3876 -0.69061,-0.03612 c -0.63632,-0.03328 -0.72452,-0.05705 -1.12194,-0.302354 -0.36029,-0.222388 -0.49795,-0.266229 -0.83593,-0.266229 -0.49855,0 -1.34489,0.21646 -2.17618,0.556574 -0.66544,0.272262 -1.31284,0.378077 -1.61264,0.263582 -0.17315,-0.06612 -0.18949,-0.04693 -0.38303,0.449737 -0.11119,0.285343 -0.20228,0.522654 -0.20243,0.527356 -1.4e-4,0.0047 0.13057,0.09514 0.29049,0.20096 0.25321,0.167569 0.36999,0.35497 0.90461,1.4516126 0.82116,1.6844034 1.11786,2.0180269 1.89534,2.1312104 0.3063,0.044589 0.42197,0.1172398 0.87596,0.5501562 0.28768,0.2743331 0.54639,0.4843593 0.57492,0.4667297 0.0285,-0.017632 0.25337,-0.3333062 0.49965,-0.701499 z m -8.77447,-3.4947499 c 0.62941,-0.213334 1.28016,-0.722168 1.66951,-1.305418 0.92558,-1.386515 0.75743,-3.144306 -0.41271,-4.31445 -1.36455,-1.364547 -3.47027,-1.35995 -4.84079,0.01057 -1.93315,1.933151 -0.91779,5.176433 1.80511,5.765916 0.43386,0.09393 1.2523,0.02188 1.77888,-0.156614 z m -1.65193,-1.769044 c -1.08298,-0.392767 -1.38362,-1.769102 -0.55595,-2.545215 1.02407,-0.960289 2.70046,-0.141309 2.56641,1.253792 -0.0898,0.934346 -1.13816,1.607778 -2.01046,1.291423 z m -7.91369,-2.38587 c 0.33506,-0.08032 0.94315,-0.276613 1.35132,-0.436199 0.77349,-0.302419 1.07845,-0.357556 1.50737,-0.272532 l 0.25553,0.05065 0.21241,-0.524403 c 0.15525,-0.383302 0.18773,-0.532628 0.12069,-0.554975 -0.31733,-0.105775 -0.61766,-0.532804 -1.16894,-1.662037 -0.6853,-1.403759 -1.13047,-1.954491 -1.64644,-2.03686 -0.16062,-0.02564 -0.36601,-0.0618 -0.45644,-0.08034 -0.0904,-0.01855 -0.39076,-0.247247 -0.6674,-0.508218 l -0.50299,-0.474494 -0.36414,0.494173 c -1.02026,1.384575 -1.89812,3.53565 -2.09752,5.139656 l -0.0511,0.411012 0.72557,0.02914 c 0.57339,0.02303 0.76774,0.05932 0.92663,0.173053 0.6275,0.449138 0.88728,0.484473 1.85545,0.252373 z m 18.23845,0.01919 c 0.1268,-0.07021 0.32104,-0.192411 0.43162,-0.271562 0.15854,-0.113478 0.35295,-0.150012 0.91931,-0.17276 0.83963,-0.03372 0.79317,0.05015 0.57238,-1.033299 -0.33758,-1.656544 -1.09418,-3.361142 -2.06628,-4.655282 l -0.28817,-0.383625 -0.50189,0.473458 c -0.27604,0.260402 -0.57587,0.488634 -0.6663,0.507183 -0.0904,0.01855 -0.29208,0.05437 -0.44812,0.07961 -0.56543,0.09144 -1.13378,0.842122 -1.86918,2.468802 -0.30342,0.671154 -0.66071,1.132894 -0.95166,1.229878 -0.0724,0.02414 -0.0455,0.158933 0.11189,0.5601 0.20558,0.523976 0.20911,0.527878 0.43184,0.476285 0.41309,-0.09569 0.80361,-0.0331 1.4657,0.234916 0.80568,0.326149 1.85922,0.605812 2.29975,0.610473 0.18241,0.0019 0.43109,-0.0533 0.55911,-0.124174 z m -11.9453,-4.159799 0.48609,-0.19922 -0.0337,-0.476105 c -0.0295,-0.416793 -0.002,-0.557962 0.2224,-1.133178 0.40985,-1.05151 0.57225,-1.641167 0.61327,-2.226748 0.0358,-0.511372 0.0249,-0.566862 -0.16468,-0.839594 -0.30237,-0.434921 -0.38961,-0.7409 -0.39316,-1.378954 l -0.003,-0.575865 -0.41745,0.04906 c -0.84684,0.09953 -2.19271,0.502094 -3.19645,0.956094 -0.57486,0.26001 -1.75558,0.963145 -2.17543,1.29549 l -0.27721,0.219437 0.47143,0.488318 c 0.46043,0.476916 0.50251,0.558082 0.66504,1.282677 0.10665,0.475432 1.20628,1.226884 2.62881,1.796435 0.44568,0.178442 0.98711,0.634714 0.98711,0.831857 0,0.145235 0.0221,0.141854 0.58714,-0.08971 z m 4.8774,-0.02124 c 0.13224,-0.298741 0.43451,-0.509285 1.22886,-0.855939 1.39082,-0.606953 2.21936,-1.199161 2.32446,-1.661424 0.16598,-0.730049 0.20525,-0.805711 0.6657,-1.282657 l 0.47143,-0.488318 -0.27721,-0.219436 c -0.41985,-0.332346 -1.60057,-1.035481 -2.17542,-1.29549 -1.00375,-0.454001 -2.34962,-0.856567 -3.19645,-0.956095 l -0.41746,-0.04906 -0.003,0.575865 c -0.004,0.638055 -0.0908,0.944033 -0.39317,1.378954 -0.18961,0.272732 -0.20049,0.328222 -0.16467,0.839594 0.041,0.585581 0.20342,1.175238 0.61327,2.226748 0.22425,0.575328 0.25191,0.716337 0.22238,1.13344 l -0.0337,0.476366 0.44537,0.190953 c 0.57416,0.246166 0.57491,0.246151 0.68984,-0.0135 z"
       id="path908" />
    <path
       style="fill:url(#linearGradient1076);fill-opacity:1;stroke:none;stroke-width:3.873;stroke-miterlimit:4;stroke-dasharray:none;stroke-opacity:1"
       d="m -186.05534,12.589909 c -1.12166,-0.185415 -1.8468,-1.152329 -1.85394,-2.472074 -0.003,-0.5443146 0.043,-0.7730741 0.37434,-1.8617062 0.67421,-2.2154482 0.92469,-3.6741522 0.78772,-4.5874736 -0.0452,-0.3015073 -0.0814,-0.3550141 -0.30226,-0.4473121 -0.34068,-0.1423417 -0.34804,-0.3883775 -0.0136,-0.4558384 l 0.23728,-0.047867 -0.23728,-0.061906 c -0.18299,-0.047745 -0.23727,-0.1012382 -0.23727,-0.2338256 0,-0.1755148 0.15486,-0.2588558 0.48489,-0.2609612 0.10735,-5.519e-4 0.17139,-0.060896 0.20432,-0.1921317 0.0264,-0.1051234 0.0318,-0.2072999 0.0121,-0.2270569 -0.0197,-0.019757 -0.32525,-0.066973 -0.67888,-0.1049248 -2.88698,-0.3098488 -5.62915,-1.43116556 -7.96859,-3.2584796 -0.54747,-0.4276267 -0.70234,-0.5158904 -0.78491,-0.4473617 -0.14262,0.1183601 -0.12885,0.2637482 0.0528,0.5576706 0.14156,0.2290436 0.14527,0.2622912 0.0409,0.3666724 -0.10438,0.1043811 -0.13174,0.103683 -0.30169,-0.00767 -0.1028,-0.067353 -0.1869,-0.090788 -0.1869,-0.05208 0,0.038711 0.0328,0.090689 0.073,0.1155042 0.0401,0.024807 0.073,0.12531643 0.073,0.22333452 0,0.21371816 -0.24184,0.24625657 -0.44744,0.0601983 -0.12139,-0.10985575 -0.15616,-0.0990998 -0.50316,0.15561978 -0.75624,0.5551286 -1.81059,2.088385 -2.886,4.1968638 -0.46212,0.9060478 -1.10876,1.5797545 -1.74852,1.8217009 -0.93908,0.3551465 -1.86992,0.1514118 -2.51736,-0.5509785 -0.67598,-0.7333448 -0.81365,-1.6157311 -0.39252,-2.5156172 0.32706,-0.6988555 0.79439,-1.1193355 1.90403,-1.71315861 2.09142,-1.11922237 3.09247,-1.79151359 3.81045,-2.55903359 0.42068,-0.4497099 0.53552,-0.6965929 0.37126,-0.7981153 -0.0402,-0.024807 -0.073,-0.1253193 -0.073,-0.2233346 0,-0.1402722 0.0379,-0.1782107 0.17821,-0.1782107 0.098,0 0.19852,0.032853 0.22333,0.073007 0.0248,0.040154 0.0811,0.073007 0.12514,0.073007 0.044,0 0.0256,-0.06008 -0.0408,-0.1335118 -0.2887,-0.3189989 0.0191,-0.58081 0.36391,-0.3095646 0.22447,0.1765661 0.31512,0.1863839 0.49648,0.053772 0.1244,-0.090962 0.10847,-0.1276895 -0.24536,-0.5658129 -1.98852,-2.462309 -3.105,-5.1882587 -3.47368,-8.4811829 -0.0365,-0.326286 -0.0743,-0.419548 -0.16951,-0.418679 -0.1955,0.0018 -0.27035,0.08872 -0.3448,0.400427 -0.0522,0.218595 -0.11022,0.297791 -0.23072,0.314931 -0.12772,0.01817 -0.17538,-0.02708 -0.23069,-0.219025 -0.0485,-0.168152 -0.0717,-0.194557 -0.0763,-0.08659 -0.008,0.193643 -0.18713,0.349612 -0.33567,0.292611 -0.0616,-0.02362 -0.1315,-0.140845 -0.15543,-0.260495 -0.0386,-0.193038 -0.081,-0.223175 -0.37662,-0.267501 -0.53508,-0.08024 -1.81466,0.02435 -2.64326,0.216055 -0.42162,0.09755 -1.34152,0.350934 -2.04422,0.563081 -1.10005,0.332106 -1.35883,0.385088 -1.86171,0.381159 -1.04918,-0.0082 -1.8651,-0.478936 -2.27214,-1.310898 -0.1635,-0.334182 -0.19994,-0.508708 -0.20146,-0.964762 -0.003,-0.961999 0.4725,-1.691022 1.36991,-2.099427 0.39195,-0.178377 0.53151,-0.202701 1.14019,-0.198725 0.60057,0.0039 0.82087,0.04453 1.64269,0.302797 1.89281,0.594839 3.34413,0.895754 4.26228,0.883742 0.69013,-0.009 0.91313,-0.06826 0.9467,-0.251452 0.0375,-0.204808 0.22643,-0.395179 0.34642,-0.349132 0.0564,0.02165 0.13251,0.142636 0.16908,0.268857 0.0657,0.226634 0.0666,0.227024 0.0731,0.03129 0.008,-0.24296 0.24052,-0.397818 0.36749,-0.244826 0.0463,0.0558 0.10292,0.216795 0.1258,0.357755 0.0317,0.195439 0.0849,0.267168 0.22411,0.3021 0.10038,0.0252 0.19314,0.03519 0.20612,0.0222 0.013,-0.01298 0.0725,-0.41704 0.13234,-0.897903 0.36298,-2.918623 1.53824,-5.699479 3.34032,-7.903676 0.43579,-0.533037 0.45915,-0.612599 0.21783,-0.74175 -0.0972,-0.05203 -0.19417,-0.02387 -0.38474,0.111716 -0.41417,0.294689 -0.63994,0.102138 -0.37437,-0.319294 0.12417,-0.197058 0.12404,-0.197465 -0.024,-0.07044 -0.3028,0.259818 -0.57786,0.07177 -0.39495,-0.270006 0.1337,-0.249825 0.0429,-0.429373 -0.48357,-0.955809 -0.69257,-0.692566 -2.37105,-1.767418 -4.21664,-2.700221 -0.42089,-0.212723 -1.08165,-0.84891 -1.30011,-1.25174 -0.10516,-0.193925 -0.23124,-0.549713 -0.28016,-0.79064 -0.28054,-1.38143 0.98582,-2.787318 2.38099,-2.643325 0.98479,0.101639 1.81969,0.774054 2.44282,1.967402 0.58957,1.129071 1.27977,2.286985 1.75195,2.939176 0.74199,1.024846 1.48115,1.649676 1.69662,1.434199 0.046,-0.04595 0.15911,-0.08355 0.25147,-0.08355 0.12655,0 0.16792,0.04137 0.16792,0.167919 0,0.09235 -0.0394,0.207343 -0.0876,0.255528 -0.0631,0.06311 -0.0643,0.08761 -0.004,0.08761 0.0458,0 0.10361,-0.03285 0.12843,-0.07301 0.0725,-0.117312 0.30868,-0.08404 0.36041,0.05077 0.0281,0.07328 -0.0134,0.206114 -0.1017,0.32558 -0.17643,0.23864 -0.18561,0.349405 -0.0448,0.54055 0.10141,0.137652 0.11136,0.135242 0.34679,-0.08398 0.13331,-0.124135 0.4395,-0.374193 0.68043,-0.555685 2.21584,-1.669206 4.86868,-2.725611 7.66585,-3.052674 0.40154,-0.04695 0.74224,-0.09723 0.7571,-0.111724 0.0149,-0.0145 0.007,-0.105233 -0.017,-0.201636 -0.034,-0.135299 -0.11505,-0.190268 -0.35555,-0.241002 -0.26411,-0.05571 -0.31157,-0.09298 -0.31157,-0.244629 0,-0.128669 0.0492,-0.190514 0.17519,-0.220257 l 0.17518,-0.04136 -0.19344,-0.08814 c -0.2782,-0.126757 -0.25665,-0.362743 0.0402,-0.439652 0.31161,-0.08075 0.37732,-0.345623 0.33012,-1.3308 -0.0423,-0.883385 -0.27792,-1.994719 -0.78039,-3.681087 -0.4155,-1.394452 -0.47719,-1.781517 -0.37343,-2.342838 0.23957,-1.295941 1.06607,-2.03831 2.26929,-2.03831 1.20323,0 2.02973,0.742369 2.2693,2.03831 0.10376,0.561321 0.0421,0.948386 -0.37343,2.342838 -0.50247,1.686368 -0.73808,2.797702 -0.7804,3.681087 -0.0472,0.985177 0.0185,1.250052 0.33013,1.3308 0.29681,0.07691 0.31836,0.312895 0.0402,0.439652 l -0.19343,0.08814 0.17518,0.04136 c 0.126,0.02974 0.17519,0.09159 0.17519,0.220257 0,0.151649 -0.0475,0.188915 -0.31157,0.244629 -0.2405,0.05073 -0.3216,0.105703 -0.35555,0.241002 -0.0242,0.0964 -0.0318,0.187139 -0.017,0.201636 0.0149,0.0145 0.35555,0.06477 0.7571,0.111724 2.79717,0.327063 5.45,1.383468 7.66585,3.052674 0.24093,0.181492 0.54712,0.43155 0.68043,0.555685 0.23543,0.219226 0.24538,0.221636 0.34679,0.08398 0.14082,-0.191145 0.13164,-0.30191 -0.0448,-0.54055 -0.15789,-0.21355 -0.13161,-0.449358 0.0501,-0.449358 0.0573,0 0.19346,0.0562 0.30248,0.124898 0.19706,0.124178 0.19746,0.124039 0.0704,-0.024 -0.17873,-0.208298 -0.16809,-0.465939 0.0192,-0.465939 0.0808,0 0.21024,0.03949 0.28753,0.08776 0.18688,0.116707 0.39018,0.0058 0.88118,-0.48049 0.69348,-0.6869 1.40659,-1.766839 2.44039,-3.695723 0.56914,-1.061919 1.02757,-1.579208 1.68905,-1.905921 1.05242,-0.519801 2.19339,-0.240784 2.8704,0.701941 0.70065,0.975639 0.49438,2.279997 -0.50594,3.199254 -0.26651,0.244922 -0.79335,0.57989 -1.50015,0.953821 -1.4488,0.76648 -2.83134,1.68479 -3.41461,2.268059 -0.52643,0.526436 -0.61727,0.705984 -0.48357,0.955808 0.18292,0.341778 -0.0922,0.529825 -0.39495,0.270006 -0.14804,-0.127026 -0.14818,-0.126618 -0.024,0.07044 0.26557,0.421431 0.0398,0.613983 -0.37437,0.319294 -0.19057,-0.13559 -0.28753,-0.163744 -0.38474,-0.111716 -0.24132,0.129147 -0.21796,0.208709 0.21775,0.74175 1.79923,2.201128 2.9781,4.990431 3.34041,7.903676 0.0598,0.480863 0.11935,0.884919 0.13234,0.897903 0.013,0.01298 0.10573,0.003 0.20612,-0.0222 0.13918,-0.03493 0.19239,-0.106661 0.2241,-0.3021 0.0572,-0.352356 0.17215,-0.479478 0.34836,-0.385176 0.0761,0.04072 0.14094,0.146807 0.14411,0.235742 0.005,0.147236 0.0121,0.144303 0.077,-0.03279 0.0392,-0.106971 0.11563,-0.211529 0.1699,-0.232353 0.11665,-0.04476 0.30546,0.148529 0.3425,0.350636 0.0331,0.180537 0.25708,0.242654 0.90151,0.250007 0.9588,0.01094 2.30151,-0.260899 4.19796,-0.849903 0.92236,-0.286469 1.14789,-0.329763 1.7522,-0.336371 0.61504,-0.0067 0.74415,0.01567 1.1402,0.197789 0.89931,0.413533 1.3731,1.140366 1.3699,2.101544 -0.002,0.456054 -0.0379,0.63058 -0.20146,0.964762 -0.40716,0.832207 -1.22329,1.302955 -2.27214,1.310581 -0.4919,0.0036 -0.76263,-0.04938 -1.71569,-0.335581 -2.15936,-0.648455 -3.15174,-0.853854 -4.1254,-0.853854 -0.87448,0 -1.03419,0.04434 -1.08559,0.301361 -0.0235,0.117229 -0.093,0.23247 -0.15456,0.256092 -0.14854,0.057 -0.32746,-0.09897 -0.33567,-0.292611 -0.005,-0.107965 -0.0278,-0.08156 -0.0763,0.08659 -0.0553,0.191945 -0.10297,0.237193 -0.23069,0.219025 -0.1205,-0.01714 -0.17851,-0.09634 -0.23072,-0.314931 -0.0744,-0.311711 -0.1493,-0.398643 -0.3448,-0.400427 -0.0952,-8.56e-4 -0.13298,0.09239 -0.16951,0.418679 -0.36688,3.2769144 -1.45482,5.9543379 -3.40403,8.3773509 -0.43035,0.5349493 -0.44819,0.5722587 -0.31891,0.6667862 0.1854,0.135573 0.27488,0.1264671 0.50038,-0.050913 0.34483,-0.2712454 0.65261,-0.00944 0.36392,0.3095646 -0.0665,0.073432 -0.0848,0.1335118 -0.0408,0.1335118 0.044,0 0.10032,-0.032853 0.12514,-0.073007 0.0248,-0.040154 0.12532,-0.073007 0.22333,-0.073007 0.14027,0 0.17822,0.037939 0.17822,0.1782107 0,0.098015 -0.0329,0.1985168 -0.073,0.2233346 -0.18834,0.1163954 -0.0417,0.3784631 0.5293,0.9456418 0.70441,0.6997474 1.47255,1.21555788 3.28165,2.20365809 1.50215,0.82044961 1.92647,1.17672191 2.26624,1.90279581 0.1709,0.3652127 0.21729,0.5692482 0.22491,0.9893667 0.0116,0.6366126 -0.15016,1.0468085 -0.60889,1.5444623 -0.64744,0.7023903 -1.57828,0.906125 -2.51736,0.5509785 -0.63976,-0.2419464 -1.2864,-0.9156531 -1.74852,-1.8217009 -1.07541,-2.1084788 -2.12976,-3.6417352 -2.88599,-4.1968638 -0.347,-0.25471954 -0.38178,-0.26547553 -0.50317,-0.15561978 -0.20559,0.18605831 -0.44744,0.1535199 -0.44744,-0.0601983 0,-0.0980181 0.0328,-0.19851682 0.073,-0.22333452 0.0402,-0.024807 0.073,-0.076793 0.073,-0.1155042 0,-0.038708 -0.0841,-0.015287 -0.1869,0.05208 -0.16995,0.1113541 -0.1973,0.1120522 -0.30168,0.00767 -0.10438,-0.1043812 -0.10068,-0.1376288 0.0409,-0.3666724 0.18165,-0.2939224 0.19542,-0.4393105 0.0528,-0.5576706 -0.0826,-0.068529 -0.23743,0.019729 -0.78491,0.4473617 -2.33943,1.82731404 -5.08161,2.9486308 -7.96859,3.2584796 -0.35363,0.037952 -0.65913,0.085171 -0.67888,0.1049248 -0.0198,0.019757 -0.0143,0.1219335 0.0121,0.2270569 0.0329,0.1312353 0.097,0.1914473 0.20432,0.1921317 0.33004,0.00221 0.48489,0.085446 0.48489,0.2609612 0,0.1325874 -0.0543,0.1860804 -0.23727,0.2338256 l -0.23728,0.061906 0.23728,0.047867 c 0.3344,0.067461 0.32704,0.3134967 -0.0136,0.4558384 -0.2209,0.092298 -0.25706,0.1458048 -0.30227,0.4473121 -0.13696,0.9133214 0.11351,2.3720254 0.78772,4.5874736 0.33129,1.0886321 0.37729,1.3173916 0.37435,1.8617059 -0.009,1.663443 -1.18016,2.726979 -2.72221,2.472074 z m -0.95142,-15.120734 c 0.002,-0.6117949 0.0294,-0.702669 0.44022,-1.4419105 0.26702,-0.4804492 0.13016,-1.3464642 -0.45278,-2.8652395 -0.27088,-0.7057126 -0.29736,-0.8314043 -0.26364,-1.2514235 l 0.0375,-0.4669172 -0.51469,-0.2072006 c -0.40526,-0.1631418 -0.52179,-0.1859231 -0.54805,-0.1071378 -0.10651,0.3195287 -0.56136,0.6604259 -1.31697,0.9870268 -0.9513,0.411181 -1.79586,0.9383848 -2.10598,1.3146212 -0.14656,0.177805 -0.24566,0.3966832 -0.27837,0.6148384 -0.0686,0.4571326 -0.12855,0.5587765 -0.63699,1.0791537 l -0.43808,0.4483743 0.5741,0.4063024 c 1.23895,0.8768317 2.94799,1.614172 4.49352,1.9386731 1.0774,0.2262098 1.00835,0.2569105 1.01023,-0.4491608 z m 3.73637,0.4533329 c 1.57215,-0.320384 3.27747,-1.0503983 4.53848,-1.9428452 l 0.5741,-0.4063024 -0.43809,-0.4483743 c -0.51269,-0.5247315 -0.56816,-0.620222 -0.64048,-1.1025476 -0.0979,-0.6525727 -0.90476,-1.2817019 -2.53256,-1.9745806 -0.60307,-0.2567008 -1.0664,-0.6219163 -1.16526,-0.9185119 -0.0263,-0.078785 -0.14279,-0.056004 -0.54805,0.1071378 l -0.51469,0.2072006 0.0375,0.4669172 c 0.0337,0.4200192 0.007,0.5457109 -0.26364,1.2514235 -0.58294,1.5187753 -0.7198,2.3847903 -0.45278,2.8652395 0.41085,0.7392415 0.43859,0.8301156 0.44022,1.4419105 0.002,0.7029366 -0.0772,0.6657846 0.96527,0.4533329 z m -10.34162,-5.3659368 c 0.78702,-0.1146543 1.08035,-0.4432116 1.90389,-2.1324935 0.53461,-1.0966426 0.6514,-1.2840436 0.90461,-1.4516126 0.15992,-0.105825 0.29063,-0.196256 0.29048,-0.20096 -1.4e-4,-0.0047 -0.0912,-0.242013 -0.20242,-0.527356 -0.19354,-0.496667 -0.20988,-0.51586 -0.38303,-0.449737 -0.2998,0.114495 -0.9472,0.0087 -1.61265,-0.263582 -0.83128,-0.340114 -1.67762,-0.556574 -2.17617,-0.556574 -0.33798,0 -0.47564,0.04384 -0.83593,0.266229 -0.39742,0.2453 -0.48562,0.26907 -1.12194,0.302354 l -0.69061,0.03612 0.0484,0.3876 c 0.0665,0.531994 0.42962,1.89263 0.66511,2.4919939 0.30003,0.7636398 0.94435,1.9675056 1.3914,2.5997529 l 0.40441,0.5719359 0.52649,-0.510507 c 0.46484,-0.4507308 0.56881,-0.5166768 0.88794,-0.5631666 z m 17.92358,0.3141038 c 0.47932,-0.7165955 0.94952,-1.6120611 1.26658,-2.412119 0.23573,-0.5948389 0.59971,-1.9551629 0.66678,-2.4919939 l 0.0484,-0.3876 -0.69061,-0.03612 c -0.63632,-0.03328 -0.72452,-0.05705 -1.12194,-0.302354 -0.36029,-0.222388 -0.49795,-0.266229 -0.83593,-0.266229 -0.49855,0 -1.34489,0.21646 -2.17618,0.556574 -0.66544,0.272262 -1.31284,0.378077 -1.61264,0.263582 -0.17315,-0.06612 -0.18949,-0.04693 -0.38303,0.449737 -0.11119,0.285343 -0.20228,0.522654 -0.20243,0.527356 -1.4e-4,0.0047 0.13057,0.09514 0.29049,0.20096 0.25321,0.167569 0.36999,0.35497 0.90461,1.4516126 0.82116,1.6844034 1.11786,2.0180269 1.89534,2.1312104 0.3063,0.044589 0.42197,0.1172398 0.87596,0.5501562 0.28768,0.2743331 0.54639,0.4843593 0.57492,0.4667297 0.0285,-0.017632 0.25337,-0.3333062 0.49965,-0.701499 z m -8.77447,-3.4947499 c 0.62941,-0.213334 1.28016,-0.722168 1.66951,-1.305418 0.92558,-1.386515 0.75743,-3.144306 -0.41271,-4.31445 -1.36455,-1.364547 -3.47027,-1.35995 -4.84079,0.01057 -1.93315,1.933151 -0.91779,5.176433 1.80511,5.765916 0.43386,0.09393 1.2523,0.02188 1.77888,-0.156614 z m -1.65193,-1.769044 c -1.08298,-0.392767 -1.38362,-1.769102 -0.55595,-2.545215 1.02407,-0.960289 2.70046,-0.141309 2.56641,1.253792 -0.0898,0.934346 -1.13816,1.607778 -2.01046,1.291423 z m -7.91369,-2.38587 c 0.33506,-0.08032 0.94315,-0.276613 1.35132,-0.436199 0.77349,-0.302419 1.07845,-0.357556 1.50737,-0.272532 l 0.25553,0.05065 0.21241,-0.524403 c 0.15525,-0.383302 0.18773,-0.532628 0.12069,-0.554975 -0.31733,-0.105775 -0.61766,-0.532804 -1.16894,-1.662037 -0.6853,-1.403759 -1.13047,-1.954491 -1.64644,-2.03686 -0.16062,-0.02564 -0.36601,-0.0618 -0.45644,-0.08034 -0.0904,-0.01855 -0.39076,-0.247247 -0.6674,-0.508218 l -0.50299,-0.474494 -0.36414,0.494173 c -1.02026,1.384575 -1.89812,3.53565 -2.09752,5.139656 l -0.0511,0.411012 0.72557,0.02914 c 0.57339,0.02303 0.76774,0.05932 0.92663,0.173053 0.6275,0.449138 0.88728,0.484473 1.85545,0.252373 z m 18.23845,0.01919 c 0.1268,-0.07021 0.32104,-0.192411 0.43162,-0.271562 0.15854,-0.113478 0.35295,-0.150012 0.91931,-0.17276 0.83963,-0.03372 0.79317,0.05015 0.57238,-1.033299 -0.33758,-1.656544 -1.09418,-3.361142 -2.06628,-4.655282 l -0.28817,-0.383625 -0.50189,0.473458 c -0.27604,0.260402 -0.57587,0.488634 -0.6663,0.507183 -0.0904,0.01855 -0.29208,0.05437 -0.44812,0.07961 -0.56543,0.09144 -1.13378,0.842122 -1.86918,2.468802 -0.30342,0.671154 -0.66071,1.132894 -0.95166,1.229878 -0.0724,0.02414 -0.0455,0.158933 0.11189,0.5601 0.20558,0.523976 0.20911,0.527878 0.43184,0.476285 0.41309,-0.09569 0.80361,-0.0331 1.4657,0.234916 0.80568,0.326149 1.85922,0.605812 2.29975,0.610473 0.18241,0.0019 0.43109,-0.0533 0.55911,-0.124174 z m -11.9453,-4.159799 0.48609,-0.19922 -0.0337,-0.476105 c -0.0295,-0.416793 -0.002,-0.557962 0.2224,-1.133178 0.40985,-1.05151 0.57225,-1.641167 0.61327,-2.226748 0.0358,-0.511372 0.0249,-0.566862 -0.16468,-0.839594 -0.30237,-0.434921 -0.38961,-0.7409 -0.39316,-1.378954 l -0.003,-0.575865 -0.41745,0.04906 c -0.84684,0.09953 -2.19271,0.502094 -3.19645,0.956094 -0.57486,0.26001 -1.75558,0.963145 -2.17543,1.29549 l -0.27721,0.219437 0.47143,0.488318 c 0.46043,0.476916 0.50251,0.558082 0.66504,1.282677 0.10665,0.475432 1.20628,1.226884 2.62881,1.796435 0.44568,0.178442 0.98711,0.634714 0.98711,0.831857 0,0.145235 0.0221,0.141854 0.58714,-0.08971 z m 4.8774,-0.02124 c 0.13224,-0.298741 0.43451,-0.509285 1.22886,-0.855939 1.39082,-0.606953 2.21936,-1.199161 2.32446,-1.661424 0.16598,-0.730049 0.20525,-0.805711 0.6657,-1.282657 l 0.47143,-0.488318 -0.27721,-0.219436 c -0.41985,-0.332346 -1.60057,-1.035481 -2.17542,-1.29549 -1.00375,-0.454001 -2.34962,-0.856567 -3.19645,-0.956095 l -0.41746,-0.04906 -0.003,0.575865 c -0.004,0.638055 -0.0908,0.944033 -0.39317,1.378954 -0.18961,0.272732 -0.20049,0.328222 -0.16467,0.839594 0.041,0.585581 0.20342,1.175238 0.61327,2.226748 0.22425,0.575328 0.25191,0.716337 0.22238,1.13344 l -0.0337,0.476366 0.44537,0.190953 c 0.57416,0.246166 0.57491,0.246151 0.68984,-0.0135 z"
       id="path858" />
  </g>
</svg>
