<?xml version="1.0" encoding="UTF-8" standalone="no"?>
<!-- Generator: Adobe Illustrator 22.1.0, SVG Export Plug-In . SVG Version: 6.00 Build 0)  -->

<svg
   version="1.1"
   id="Layer_1"
   x="0px"
   y="0px"
   viewBox="0 0 964.78723 234.64128"
   xml:space="preserve"
   sodipodi:docname="Pirate_Logo_main.svg"
   width="964.78723"
   height="234.64128"
   inkscape:version="1.1.2 (0a00cf5339, 2022-02-04)"
   xmlns:inkscape="http://www.inkscape.org/namespaces/inkscape"
   xmlns:sodipodi="http://sodipodi.sourceforge.net/DTD/sodipodi-0.dtd"
   xmlns="http://www.w3.org/2000/svg"
   xmlns:svg="http://www.w3.org/2000/svg"><defs
   id="defs66">
	
	
</defs><sodipodi:namedview
   id="namedview64"
   pagecolor="#ffffff"
   bordercolor="#666666"
   borderopacity="1.0"
   inkscape:pageshadow="2"
   inkscape:pageopacity="0.0"
   inkscape:pagecheckerboard="0"
   showgrid="false"
   fit-margin-top="0"
   fit-margin-left="0"
   fit-margin-right="0"
   fit-margin-bottom="0"
   inkscape:zoom="1.5700935"
   inkscape:cx="386.60119"
   inkscape:cy="121.33036"
   inkscape:window-width="3778"
   inkscape:window-height="1536"
   inkscape:window-x="0"
   inkscape:window-y="0"
   inkscape:window-maximized="1"
   inkscape:current-layer="Layer_1" />
<style
   type="text/css"
   id="style2">
	.st0{fill:#BB9645;}
	.st1{fill:#0A0B0B;}
	.st2{fill:#FFFFFF;}
	.st3{fill:#231F20;}
	.st4{fill:url(#SVGID_1_);}
	.st5{fill:url(#SVGID_2_);}
	.st6{fill:url(#SVGID_3_);}
	.st7{fill:url(#SVGID_4_);}
	.st8{fill:url(#SVGID_5_);}
	.st9{fill:url(#SVGID_6_);}
	.st10{fill:url(#SVGID_7_);}
	.st11{fill:url(#SVGID_8_);}
	.st12{fill:url(#SVGID_9_);}
	.st13{fill:url(#SVGID_10_);}
	.st14{fill:url(#SVGID_11_);}
	.st15{fill:#1B1B1B;}
	.st16{fill:url(#SVGID_12_);}
	.st17{fill:url(#SVGID_13_);}
	.st18{fill:url(#SVGID_14_);}
	.st19{fill:url(#SVGID_15_);}
	.st20{fill:url(#SVGID_16_);}
	.st21{fill:url(#SVGID_17_);}
	.st22{fill:url(#SVGID_18_);}
	.st23{fill:url(#SVGID_19_);}
	.st24{fill:url(#SVGID_20_);}
	.st25{fill:url(#SVGID_21_);}
	.st26{fill:url(#SVGID_22_);}
</style>
<g
   id="g22"
   transform="matrix(1.3571529,0,0,1.3571529,-93.792053,-75.736925)">
		<g
   id="g14">
			<path
   class="st2"
   d="m 421.5,104.8 c -2.6,-2.6 -3.9,-5.9 -3.9,-10 0,-4.1 1.3,-7.4 3.9,-10 2.6,-2.6 6.1,-3.9 10.4,-3.9 4.3,0 7.8,1.3 10.5,3.9 2.7,2.6 4,5.9 4,10 0,4.1 -1.3,7.4 -4,10 -2.7,2.6 -6.2,3.9 -10.5,3.9 -4.3,0 -7.8,-1.3 -10.4,-3.9 z m -0.5,14.6 h 21.9 v 95 H 421 Z"
   id="path4" />
			<path
   class="st2"
   d="m 463.1,119.4 h 20.4 v 12.9 c 2.5,-3.9 6.2,-7.1 10.9,-9.6 4.8,-2.5 9.7,-3.7 14.8,-3.7 h 11.4 v 19 h -11.4 c -7.2,0 -13.1,2.2 -17.5,6.7 -4.4,4.4 -6.7,10.2 -6.7,17.3 v 52.4 h -21.9 z"
   id="path6" />
			<path
   class="st2"
   d="m 529.5,208.6 c -5.9,-4.9 -8.9,-11.4 -8.9,-19.5 v -6.9 c 0,-8 3.1,-14.4 9.2,-19.2 6.2,-4.8 14.2,-7.2 24.3,-7.2 h 11.8 c 3.6,0 7.4,0.5 11.4,1.5 4.1,1 7.7,2.4 10.9,4 v -11.8 c 0,-3.9 -1.3,-7.1 -3.8,-9.5 -2.5,-2.4 -5.8,-3.6 -9.9,-3.6 h -16 c -4.2,0 -7.6,1 -10.1,3 -2.5,2 -3.8,4.5 -3.8,7.7 h -21.3 c 0,-8.8 3.2,-15.8 9.7,-21.1 6.5,-5.3 15,-8 25.5,-8 h 16 c 10.7,0 19.2,2.9 25.7,8.7 6.5,5.8 9.7,13.4 9.7,22.9 v 64.9 h -20.4 v -12 c -3,4.1 -6.9,7.3 -11.4,9.8 -4.6,2.5 -9.1,3.7 -13.5,3.7 h -11.8 c -9.6,-0.1 -17.4,-2.5 -23.3,-7.4 z m 36.4,-9.8 c 5.1,0 9.6,-1.4 13.7,-4.3 4.1,-2.9 6.9,-6.6 8.6,-11.3 v -4.6 c -2.2,-1.8 -5.2,-3.2 -9.1,-4.3 -3.9,-1.1 -8.1,-1.6 -12.4,-1.6 h -12 c -3.8,0 -6.9,1 -9.2,2.9 -2.4,1.9 -3.5,4.4 -3.5,7.4 v 5.3 c 0,3.2 1.2,5.7 3.6,7.6 2.4,1.9 5.6,2.9 9.5,2.9 z"
   id="path8" />
			<path
   class="st2"
   d="m 642.1,207.2 c -5,-4.8 -7.4,-12.4 -7.4,-22.8 v -46.1 h -16.8 v -18.8 h 17.3 V 90.6 h 21.3 v 28.8 h 24.8 v 18.8 h -24.8 v 45.3 c 0,4.2 0.8,7.2 2.5,9.1 1.6,1.9 4.3,2.9 7.8,2.9 h 14.5 v 18.8 h -15.6 c -10.8,0.1 -18.6,-2.3 -23.6,-7.1 z"
   id="path10" />
			<path
   class="st2"
   d="m 706,211.6 c -5.9,-2.9 -10.5,-7 -13.7,-12.4 -3.2,-5.3 -4.9,-11.5 -4.9,-18.5 v -25.5 c 0,-7.4 1.6,-13.9 4.9,-19.5 3.2,-5.6 7.8,-10 13.7,-13.1 5.9,-3.1 12.7,-4.7 20.5,-4.7 h 15.2 c 11.5,0 20.8,3.4 27.8,10.1 7,6.7 10.5,15.7 10.5,26.8 v 19 h -70.6 v 6.9 c 0,5.1 1.6,9.1 4.7,12.2 3.1,3 7.3,4.6 12.5,4.6 h 14.7 c 5.1,0 9.2,-1.2 12.3,-3.7 3.1,-2.5 4.7,-5.7 4.7,-9.8 h 21.5 c 0,9.6 -3.6,17.4 -10.7,23.2 -7.1,5.8 -16.4,8.8 -28,8.8 h -14.5 c -7.9,-0.1 -14.7,-1.5 -20.6,-4.4 z m 52.4,-54.1 v -2.7 c 0,-5.6 -1.5,-10.1 -4.6,-13.5 -3,-3.4 -7,-5.1 -12,-5.1 h -15.4 c -5.2,0 -9.4,1.8 -12.7,5.4 -3.2,3.6 -4.9,8.3 -4.9,14.2 v 1.7 z"
   id="path12" />
		</g>
		<g
   id="g20">
			<path
   class="st2"
   d="m 296.6,115 c 0,-4.6 4.3,-8.4 9.5,-8.4 h 46.8 l 34,-17.1 c -5.2,-5.2 -12.4,-8.3 -20.3,-8.3 h -66.3 c -16.1,0 -29,12.9 -29,28.9 v 39 l 25.4,-13.3 V 115 Z"
   id="path16" />
			<path
   class="st2"
   d="m 395.3,108.6 -25.4,12.8 v 25.4 c 0,4.7 -4.4,8.5 -9.6,8.5 h -55.9 l -33.2,17.3 v 21.8 12.4 8.7 h 10 l 8.7,-0.2 c 3.7,-0.9 6.8,-4.3 6.8,-8.5 v -24.7 h 69.8 c 15.9,0 28.9,-12.9 28.9,-28.9 V 110 c 0,-0.5 0,-0.9 -0.1,-1.4 z"
   id="path18" />
		</g>
	</g><g
   id="g59"
   transform="translate(-14.807823,-13.004364)">
		<linearGradient
   id="SVGID_1_"
   gradientUnits="userSpaceOnUse"
   x1="2.461"
   y1="27.885201"
   x2="234.2113"
   y2="255.42191">
			<stop
   offset="0"
   style="stop-color:#B38C30"
   id="stop24" />
			<stop
   offset="1"
   style="stop-color:#F2DE98"
   id="stop26" />
		</linearGradient>
		<path
   class="st4"
   d="m 38.5,164.3 c 3.9,-0.7 12.4,-2.3 22.2,-3.9 1.3,-0.2 2.3,0.9 2,2.2 -0.6,2.3 -1.3,4.6 -2.1,6.9 -0.3,0.8 0.4,1.7 1.3,1.5 44.7,-8.6 76.3,-23.6 102.6,-44.6 1.4,-1.1 2.3,-2.7 2.6,-4.5 2,-13.4 -2,-20.9 -6,-24.5 -4.3,-3.9 -7.6,-7.7 -31,-9.2 -13.3,-0.5 -20.5,0.2 -22.9,0.5 -0.4,0 -0.6,0.5 -0.4,0.8 2.4,3.7 12.8,21.1 9.6,36.9 l -5.1,-18 c -3.3,-9.2 -8.6,-18.3 -11.1,-21.6 -0.7,-0.9 -0.3,-1.9 0.8,-2.1 3.1,-0.5 9.5,-0.8 16.6,-1.3 8.3,-0.4 16.4,-0.1 21.7,0.6 -6,-29.1 -18.6,-39.7 -47,-41.5 V 14.7 c 0,-0.7 -0.6,-1.2 -1.2,-1.2 H 87 c -0.7,0 -1.2,0.6 -1.2,1.2 v 27.6 c -23.6,-0.7 -44,1.5 -50.5,2.2 -0.8,0.1 -1.3,1 -0.9,1.7 2.2,3.8 11.3,15 15,30.7 -8.5,-0.1 -17.6,0.9 -26.5,4.4 -0.9,0.4 -1.2,1.5 -0.6,2.3 23.4,28.8 16.6,68.9 14.4,78.9 -0.3,1 0.7,2 1.8,1.8 z"
   id="path29"
   style="fill:url(#SVGID_1_)" />
		<linearGradient
   id="SVGID_2_"
   gradientUnits="userSpaceOnUse"
   x1="36.065201"
   y1="-6.3411999"
   x2="267.8154"
   y2="221.1954">
			<stop
   offset="0"
   style="stop-color:#B38C30"
   id="stop31" />
			<stop
   offset="1"
   style="stop-color:#F2DE98"
   id="stop33" />
		</linearGradient>
		<path
   class="st5"
   d="m 66.2,25.5 c 0,0 -0.6,-2.5 -0.1,-4.6 6.3,-1.4 15.4,1.3 15.4,1.3 0,0 0,-4.1 0,-7.5 -4.7,-2.2 -15.2,-1.9 -18.6,-1.1 -3.4,0.8 -4,2.4 -4.7,3.9 -6.7,0.2 -13.9,1.9 -13.9,1.9 l 4.5,2.7 -3.8,4.1 c 6.2,-2.8 21.2,-0.7 21.2,-0.7 z"
   id="path36"
   style="fill:url(#SVGID_2_)" />
		<linearGradient
   id="SVGID_3_"
   gradientUnits="userSpaceOnUse"
   x1="-16.878201"
   y1="47.5826"
   x2="214.8721"
   y2="275.1192">
			<stop
   offset="0"
   style="stop-color:#B38C30"
   id="stop38" />
			<stop
   offset="1"
   style="stop-color:#F2DE98"
   id="stop40" />
		</linearGradient>
		<path
   class="st6"
   d="m 179.9,212.8 c -9.6,-2.6 -7.7,-2.6 -19.1,-4.8 6.4,-7.7 26.6,-33.1 21.7,-41.2 -5.9,-9.6 -12.8,-15.8 -10.5,-25 2.2,-9.1 17.5,-19.7 21,-22.7 3.4,-3 -2.7,-8.4 -5.4,-6 -2.7,2.3 -4.6,4.1 -11.2,8.9 -8.1,5.9 -14.7,13.3 -14,23.6 0.7,9.2 0.7,35.3 -11.2,49.2 -0.6,0.7 -1.8,0 -1.4,-0.9 2.9,-6.5 3.6,-15.4 3.1,-22.6 -24.8,12.4 -47,14.8 -61.8,14.8 -0.9,0 -1,-1.2 -0.1,-1.4 23.7,-4.8 59.4,-17.2 61.3,-22.5 2.2,-5.9 -0.9,-16.6 -0.9,-16.6 0,0 -11.7,5.8 -28.7,12.6 -5.6,2.4 -11.6,4.7 -18.2,6.9 -1.4,0.5 -2.9,0.9 -4.3,1.3 -19.2,6.3 -45,12.2 -59.3,11.6 -11.6,-0.4 -19.2,-1.5 -21.6,-1.9 -0.5,-0.1 -0.9,0.3 -0.8,0.8 0.3,4.3 1.8,22.6 10.1,31.2 -1.9,0.4 -5.2,1.2 -7.7,2.5 -2.5,1.3 -9.4,8 -4.2,7.4 29,-3.3 66.3,-6.3 83.8,-5.8 18.6,0.5 55.1,6.2 87.5,11.3 4.9,0.8 -3.1,-9.3 -8.1,-10.7 z"
   id="path43"
   style="fill:url(#SVGID_3_)" />
		<linearGradient
   id="SVGID_4_"
   gradientUnits="userSpaceOnUse"
   x1="-53.465"
   y1="84.846901"
   x2="178.28529"
   y2="312.38351">
			<stop
   offset="0"
   style="stop-color:#B38C30"
   id="stop45" />
			<stop
   offset="1"
   style="stop-color:#F2DE98"
   id="stop47" />
		</linearGradient>
		<path
   class="st7"
   d="m 171.1,227.4 c -16.9,-3.7 -45.1,-9.1 -69.5,-9.4 -31,-0.4 -59.4,3.8 -81.8,8.6 -5.1,1.1 -3.8,8.7 1.3,8.1 29,-3.3 62.9,-6.5 80.5,-6 14.3,0.4 46.8,3.7 68,6.8 5.2,0.8 6.7,-7 1.5,-8.1 z"
   id="path50"
   style="fill:url(#SVGID_4_)" />
		<linearGradient
   id="SVGID_5_"
   gradientUnits="userSpaceOnUse"
   x1="-60.0424"
   y1="91.546204"
   x2="171.70779"
   y2="319.08279">
			<stop
   offset="0"
   style="stop-color:#B38C30"
   id="stop52" />
			<stop
   offset="1"
   style="stop-color:#F2DE98"
   id="stop54" />
		</linearGradient>
		<path
   class="st8"
   d="m 138.5,241.9 c -11.9,-2.6 -25.5,-4.6 -39.4,-4.8 -17.6,-0.2 -33.8,2.1 -46.6,4.9 -2.9,0.6 -2.2,4.9 0.8,4.6 16.5,-1.9 35.8,-3.7 45.8,-3.4 8.2,0.2 23.4,2.2 38.4,4.4 3.6,0.6 4.7,-4.9 1,-5.7 z"
   id="path57"
   style="fill:url(#SVGID_5_)" />
	</g>
</svg>
