<?xml version="1.0" encoding="UTF-8" standalone="no"?>
<!-- Svg Vector Icons : http://www.onlinewebfonts.com/icon -->

<svg
   version="1.1"
   x="0px"
   y="0px"
   viewBox="0 0 1000 1000"
   enable-background="new 0 0 1000 1000"
   xml:space="preserve"
   id="svg16"
   sodipodi:docname="android.svg"
   inkscape:version="1.1.2 (0a00cf5339, 2022-02-04)"
   xmlns:inkscape="http://www.inkscape.org/namespaces/inkscape"
   xmlns:sodipodi="http://sodipodi.sourceforge.net/DTD/sodipodi-0.dtd"
   xmlns="http://www.w3.org/2000/svg"
   xmlns:svg="http://www.w3.org/2000/svg"><defs
   id="defs20" /><sodipodi:namedview
   id="namedview18"
   pagecolor="#ffffff"
   bordercolor="#666666"
   borderopacity="1.0"
   inkscape:pageshadow="2"
   inkscape:pageopacity="0.0"
   inkscape:pagecheckerboard="0"
   showgrid="false"
   inkscape:zoom="0.719"
   inkscape:cx="501.39082"
   inkscape:cy="500"
   inkscape:window-width="1473"
   inkscape:window-height="1012"
   inkscape:window-x="26"
   inkscape:window-y="23"
   inkscape:window-maximized="0"
   inkscape:current-layer="svg16"
   showguides="false" />
<metadata
   id="metadata2"> Svg Vector Icons : http://www.onlinewebfonts.com/icon </metadata>
<g
   id="g14"
   style="fill:#85c226;fill-opacity:1"><g
     transform="translate(0.000000,511.000000) scale(0.100000,-0.100000)"
     id="g12"
     style="fill:#85c226;fill-opacity:1"><path
       d="M2992.7,4990.7c-108.9-48.4-161.3-221.8-100.8-336.8c14.1-28.2,141.2-193.6,282.3-367c139.2-171.4,254.1-318.6,254.1-322.7c0-6.1-60.5-44.4-135.1-84.7c-427.5-236-796.6-635.3-945.8-1028.5c-50.4-133.1-106.9-389.2-108.9-488v-46.4h2752.8H7744v96.8c0,129.1-66.6,385.2-139.2,542.5c-175.4,373.1-524.3,722-957.9,955.9c-84.7,44.4-153.3,86.7-153.3,92.8c0,6,106.9,145.2,238,306.5c276.3,338.8,286.4,357,286.4,459.8c0,151.3-131.1,274.3-246,229.9c-32.3-12.1-185.5-183.5-381.1-425.5c-294.4-367-332.7-405.4-379.1-397.3c-28.2,6-139.2,28.2-244,50.4c-564.7,123-1276.6,100.8-1776.7-56.5c-70.6-22.2-131.1-40.3-133.1-40.3c0,0-151.2,183.5-334.8,409.4c-181.5,223.9-344.9,417.5-359,429.6C3113.7,5010.9,3057.2,5017,2992.7,4990.7z M3918.3,3544.8c86.7-22.2,203.7-119,246-197.6c151.3-294.4-117-659.5-431.6-588.9c-332.7,74.6-447.7,443.7-211.8,679.6C3638,3556.9,3761,3589.1,3918.3,3544.8z M6302.1,3544.8c110.9-30.2,242-165.4,272.3-278.3c48.4-185.5-38.3-385.2-207.7-471.9c-189.6-98.8-443.7-18.2-538.5,167.4c-82.7,167.4-62.5,330.7,58.5,465.8C5995.5,3550.8,6138.7,3589.1,6302.1,3544.8z"
       id="path4"
       style="fill:#85c226;fill-opacity:1" /><path
       d="M8480.1,1883c-10.1-4-44.4-12.1-74.6-18.1c-78.6-18.1-197.6-129.1-240-223.9c-34.3-74.6-38.3-169.4-38.3-1462.1c0-1548.8-6-1472.2,147.2-1607.3c187.5-165.4,435.6-125,588.9,92.8l60.5,86.7l6,1373.4c4,1044.6,0,1397.6-18.1,1466.1c-34.3,123-163.4,248-284.4,278.3C8530.5,1893.1,8516.4,1895.1,8480.1,1883z"
       id="path6"
       style="fill:#85c226;fill-opacity:1" /><path
       d="M2258.6-190.1c0-2228.4-6-2133.7,127.1-2381.7c125-235.9,403.3-453.7,623.2-488l76.6-14.1v-647.4c0-389.2,8.1-677.6,22.2-724c108.9-397.3,834.9-467.9,1083-106.9l64.5,96.8v683.6v683.7h776.4H5808v-659.5c0-752.2,4-764.3,161.3-899.4c227.9-195.6,643.3-189.6,861.1,12.1c50.4,46.4,100.8,100.8,112.9,123c16.1,30.2,28.2,258.1,34.3,744.2l10.1,703.8l104.9,36.3c292.4,102.9,542.5,397.3,621.1,730c24.2,106.9,30.2,435.6,30.2,2129.6v2000.6H5001.3H2258.6V-190.1z"
       id="path8"
       style="fill:#85c226;fill-opacity:1" /><path
       d="M1286.6,1772.1c-84.7-46.4-161.3-139.1-195.6-240c-16.1-48.4-22.2-465.9-22.2-1431.9c0-1284.6,4-1367.3,38.3-1443.9c66.6-143.2,223.9-252.1,365-252.1s298.5,108.9,365,252.1c34.3,76.6,38.3,161.3,38.3,1464.1v1383.5l-46.4,86.7c-24.2,48.4-80.7,115-121,149.2c-66.6,52.4-96.8,62.5-211.8,66.6C1391.4,1812.5,1345.1,1804.4,1286.6,1772.1z"
       id="path10"
       style="fill:#85c226;fill-opacity:1" /></g></g>
</svg>
