<?xml version="1.0" encoding="UTF-8" standalone="no"?>
<svg
   width="98.817459"
   height="104.94627"
   version="1.1"
   id="svg4"
   sodipodi:docname="github.svg"
   inkscape:version="1.1.2 (0a00cf5339, 2022-02-04)"
   xmlns:inkscape="http://www.inkscape.org/namespaces/inkscape"
   xmlns:sodipodi="http://sodipodi.sourceforge.net/DTD/sodipodi-0.dtd"
   xmlns="http://www.w3.org/2000/svg"
   xmlns:svg="http://www.w3.org/2000/svg">
  <defs
     id="defs8" />
  <sodipodi:namedview
     id="namedview6"
     pagecolor="#ffffff"
     bordercolor="#666666"
     borderopacity="1.0"
     inkscape:pageshadow="2"
     inkscape:pageopacity="0.0"
     inkscape:pagecheckerboard="0"
     showgrid="false"
     inkscape:object-paths="true"
     fit-margin-top="0"
     fit-margin-left="0"
     fit-margin-right="0"
     fit-margin-bottom="0"
     inkscape:zoom="7.4895833"
     inkscape:cx="49.535466"
     inkscape:cy="51.872045"
     inkscape:window-width="2132"
     inkscape:window-height="1230"
     inkscape:window-x="26"
     inkscape:window-y="23"
     inkscape:window-maximized="0"
     inkscape:current-layer="svg4" />
  <path
     fill-rule="evenodd"
     clip-rule="evenodd"
     d="m 49.546629,2.5498957 c -27.015,0 -48.85400034,21.9999993 -48.85400034,49.2169993 0,21.756 13.99300034,40.172 33.40500034,46.69 2.427,0.490003 3.316,-1.059 3.316,-2.362 0,-1.141 -0.08,-5.052 -0.08,-9.127 -13.59,2.934 -16.42,-5.867 -16.42,-5.867 -2.184,-5.704 -5.42,-7.17 -5.42,-7.17 -4.448,-3.015 0.324,-3.015 0.324,-3.015 4.934,0.326 7.523,5.052 7.523,5.052 4.367,7.496 11.404,5.378 14.235,4.074 0.404,-3.178 1.699,-5.378 3.074,-6.6 -10.839,-1.141 -22.243,-5.378 -22.243,-24.283 0,-5.378 1.94,-9.778 5.014,-13.2 -0.485,-1.222 -2.184,-6.275 0.486,-13.038 0,0 4.125,-1.304 13.426,5.052 a 46.97,46.97 0 0 1 12.214,-1.63 c 4.125,0 8.33,0.571 12.213,1.63 9.302,-6.356 13.427,-5.052 13.427,-5.052 2.67,6.763 0.97,11.816 0.485,13.038 3.155,3.422 5.015,7.822 5.015,13.2 0,18.905 -11.404,23.06 -22.324,24.283 1.78,1.548 3.316,4.481 3.316,9.126 0,6.6 -0.08,11.897 -0.08,13.526 0,1.304 0.89,2.853003 3.316,2.364 19.412,-6.52 33.405,-24.935 33.405,-46.691 0.08,-27.217 -21.839,-49.2169993 -48.773,-49.2169993 z"
     fill="#24292f"
     id="path2"
     style="fill:#3298da;fill-opacity:1" />
</svg>
