<?xml version="1.0" encoding="UTF-8" standalone="no"?>
<svg
   class="tanuki-logo"
   width="32.53138"
   height="32.53138"
   viewBox="0 0 32.53138 32.53138"
   fill="none"
   version="1.1"
   id="svg10"
   sodipodi:docname="gitlab.svg"
   inkscape:version="1.1.2 (0a00cf5339, 2022-02-04)"
   xmlns:inkscape="http://www.inkscape.org/namespaces/inkscape"
   xmlns:sodipodi="http://sodipodi.sourceforge.net/DTD/sodipodi-0.dtd"
   xmlns="http://www.w3.org/2000/svg"
   xmlns:svg="http://www.w3.org/2000/svg">
  <defs
     id="defs14" />
  <sodipodi:namedview
     id="namedview12"
     pagecolor="#ffffff"
     bordercolor="#666666"
     borderopacity="1.0"
     inkscape:pageshadow="2"
     inkscape:pageopacity="0.0"
     inkscape:pagecheckerboard="0"
     showgrid="false"
     fit-margin-top="0"
     fit-margin-left="0"
     fit-margin-right="0"
     fit-margin-bottom="0"
     inkscape:zoom="21.18374"
     inkscape:cx="16.522106"
     inkscape:cy="17.702257"
     inkscape:window-width="1952"
     inkscape:window-height="1249"
     inkscape:window-x="26"
     inkscape:window-y="23"
     inkscape:window-maximized="0"
     inkscape:current-layer="svg10" />
  <g
     id="g4179"
     transform="matrix(1.0582274,0,0,1.0582274,-1.3530564,-2.2182789)">
    <path
       class="tanuki-shape tanuki"
       d="m 28.540336,15.172199 -0.034,-0.09 -3.391,-8.8479998 a 0.896,0.896 0 0 0 -1.694,0.091 l -2.29,7.0099998 h -9.273 L 9.5683357,6.3251992 a 0.898,0.898 0 0 0 -1.694,-0.09 l -3.39,8.8479998 -0.035,0.089 a 6.297,6.297 0 0 0 2.09,7.278 l 0.012,0.01 0.03,0.022 5.1600003,3.867 2.56,1.935 1.554,1.176 a 1.051,1.051 0 0 0 1.268,0 l 1.555,-1.176 2.56,-1.935 5.197,-3.89 0.014,-0.01 a 6.297,6.297 0 0 0 2.091,-7.277 z"
       fill="#e24329"
       id="path2" />
    <path
       class="tanuki-shape right-cheek"
       d="m 28.540336,15.172199 -0.034,-0.09 a 11.44,11.44 0 0 0 -4.56,2.051 l -7.447,5.632 4.742,3.584 5.197,-3.89 0.014,-0.01 a 6.297,6.297 0 0 0 2.088,-7.277 z"
       fill="#fc6d26"
       id="path4" />
    <path
       class="tanuki-shape chin"
       d="m 11.740336,26.349199 2.56,1.935 1.555,1.176 a 1.051,1.051 0 0 0 1.268,0 l 1.555,-1.176 2.56,-1.935 -4.743,-3.584 z"
       fill="#fca326"
       id="path6" />
    <path
       class="tanuki-shape left-cheek"
       d="m 9.0433357,17.133199 a 11.43,11.43 0 0 0 -4.56,-2.05 l -0.034,0.089 a 6.297,6.297 0 0 0 2.09,7.278 l 0.012,0.01 0.03,0.022 5.1600003,3.867 4.745,-3.584 -7.4440003,-5.632 z"
       fill="#fc6d26"
       id="path8" />
  </g>
</svg>
