<?xml version="1.0" encoding="UTF-8" standalone="no"?>
<!-- Created with Inkscape (http://www.inkscape.org/) -->

<svg
   version="1.1"
   id="svg2"
   width="53.333332"
   height="53.333332"
   viewBox="0 0 53.333332 53.333332"
   sodipodi:docname="ios.svg"
   inkscape:version="1.1.2 (0a00cf5339, 2022-02-04)"
   xmlns:inkscape="http://www.inkscape.org/namespaces/inkscape"
   xmlns:sodipodi="http://sodipodi.sourceforge.net/DTD/sodipodi-0.dtd"
   xmlns="http://www.w3.org/2000/svg"
   xmlns:svg="http://www.w3.org/2000/svg">
  <defs
     id="defs6" />
  <sodipodi:namedview
     id="namedview4"
     pagecolor="#ffffff"
     bordercolor="#666666"
     borderopacity="1.0"
     inkscape:pageshadow="2"
     inkscape:pageopacity="0.0"
     inkscape:pagecheckerboard="0"
     showgrid="false"
     inkscape:zoom="13.48125"
     inkscape:cx="26.629578"
     inkscape:cy="26.666667"
     inkscape:window-width="3778"
     inkscape:window-height="1536"
     inkscape:window-x="0"
     inkscape:window-y="0"
     inkscape:window-maximized="1"
     inkscape:current-layer="g8" />
  <g
     inkscape:groupmode="layer"
     inkscape:label="Image"
     id="g8">
    <g
       id="g1274">
      <rect
         style="opacity:1;fill:#ffffff;fill-opacity:1;stroke-width:0.432478;stroke-linejoin:bevel"
         id="rect970"
         width="47.343822"
         height="27.907684"
         x="3.1226821"
         y="13.382881"
         rx="76.800003" />
      <path
         style="fill:#31353a;fill-opacity:1;stroke-width:0.0333333"
         d="m 13.857195,51.193999 c -0.06417,-0.0063 -0.289167,-0.02767 -0.5,-0.04745 -0.54395,-0.05102 -1.249445,-0.17664 -1.844269,-0.3284 -2.7017359,-0.689293 -5.1144739,-2.256346 -6.8810419,-4.469173 -0.317252,-0.397393 -0.880395,-1.233757 -1.138366,-1.690663 -0.83686,-1.482217 -1.38033,-3.19298 -1.575466,-4.959337 -0.0653,-0.591127 -0.0653,-25.442206 0,-26.033333 0.384807,-3.483244 2.076805,-6.5609671 4.80581,-8.7417091 0.396842,-0.317116 1.232838,-0.880145 1.690664,-1.138634 1.482216,-0.8368601 3.1929799,-1.3803306 4.9593359,-1.5754667 0.591126,-0.065304 25.442206,-0.065304 26.033332,0 3.483244,0.3848075 6.560967,2.0768057 8.74171,4.8058107 0.317117,0.396842 0.880143,1.232838 1.138633,1.690664 0.83686,1.4822161 1.38033,3.1929801 1.575467,4.9593351 0.0653,0.591127 0.0653,25.442206 0,26.033333 -0.384693,3.48222 -2.07983,6.565743 -4.80581,8.741977 -0.397393,0.317253 -1.233756,0.880396 -1.690663,1.138366 -1.42864,0.80661 -2.98002,1.31319 -4.776003,1.559527 -0.386924,0.05307 -1.31614,0.05749 -13.016667,0.06189 -6.929999,0.0026 -12.652499,-4.33e-4 -12.716666,-0.0067 z M 24.240528,33.961346 c 2.270799,-0.28886 3.888031,-1.583191 4.700976,-3.762367 0.356566,-0.955805 0.51925,-1.973682 0.522104,-3.266666 0.0018,-0.822499 -0.03104,-1.216622 -0.158365,-1.9 -0.509213,-2.732937 -2.180446,-4.54139 -4.648048,-5.029686 -0.978877,-0.193703 -2.183931,-0.173914 -3.15,0.05173 -2.543995,0.594194 -4.172226,2.618928 -4.53648,5.641191 -0.0633,0.525201 -0.07219,1.778914 -0.01621,2.286767 0.148741,1.349469 0.489855,2.429695 1.063125,3.366666 1.229723,2.009897 3.492278,2.959717 6.222898,2.612367 z m -1.8,-1.901083 c -1.689069,-0.30478 -2.869968,-1.587229 -3.26394,-3.544617 -0.239869,-1.191752 -0.177273,-2.567469 0.166837,-3.666666 0.588855,-1.880994 2.004676,-2.966667 3.868817,-2.966667 1.807782,0 3.18222,1.015501 3.789682,2.8 0.273147,0.802406 0.398717,1.905856 0.32687,2.872369 -0.07067,0.950693 -0.245768,1.644928 -0.593855,2.354564 -0.582549,1.187625 -1.56352,1.934924 -2.827744,2.154162 -0.371764,0.06447 -1.100611,0.06291 -1.466667,-0.0031 z m 14.966666,1.95465 c 0.293334,-0.01861 0.668334,-0.05693 0.833334,-0.08517 2.13911,-0.366057 3.452266,-1.492414 3.84193,-3.295405 0.043,-0.198973 0.05786,-0.420052 0.05728,-0.852025 -6.67e-4,-0.501573 -0.0117,-0.625382 -0.07859,-0.883334 -0.20668,-0.796975 -0.656497,-1.416524 -1.37185,-1.889501 -0.725514,-0.479693 -1.490464,-0.75305 -3.05513,-1.091756 -1.021107,-0.221042 -1.3891,-0.316532 -1.8029,-0.467831 -1.076727,-0.393686 -1.54074,-0.892206 -1.54074,-1.655321 0,-1.311459 1.127293,-2.073509 2.962836,-2.002875 1.39921,0.05384 2.308334,0.661735 2.62336,1.754135 l 0.073,0.25315 1.007636,0.0088 1.007637,0.0088 -0.022,-0.192162 c -0.07327,-0.639981 -0.2616,-1.170073 -0.601193,-1.692161 -0.181124,-0.278457 -0.78198,-0.866409 -1.10128,-1.077627 -0.579807,-0.383544 -1.25176,-0.644558 -2.033334,-0.789828 -0.401403,-0.07461 -1.52825,-0.103547 -1.986716,-0.05102 -2.603777,0.298309 -4.138256,1.883024 -4.052469,4.185143 0.0244,0.654677 0.120777,1.080953 0.346686,1.533333 0.37016,0.74124 0.967353,1.251873 1.909166,1.632443 0.443827,0.179343 0.443217,0.17917 2.129283,0.601926 1.829427,0.458701 2.350607,0.643095 2.779444,0.983374 0.40439,0.320881 0.560496,0.629269 0.58362,1.152938 0.0232,0.525372 -0.110377,0.894614 -0.454554,1.256527 -0.551923,0.580368 -1.331313,0.855881 -2.421126,0.855864 -1.034654,-1.6e-5 -1.87931,-0.271322 -2.441154,-0.784108 -0.361766,-0.330175 -0.652296,-0.822031 -0.723253,-1.22443 l -0.02212,-0.125466 -1.056735,0.0088 -1.056735,0.0088 0.0096,0.183334 c 0.04138,0.786733 0.419549,1.630723 1.006015,2.245192 0.810009,0.848688 2.062456,1.381588 3.486639,1.483528 0.57261,0.04098 0.57909,0.04101 1.16437,0.0039 z M 13.157195,28.598979 v -5.116666 h -1.016667 -1.016666 v 5.116666 5.116667 h 1.016666 1.016667 z m -0.573923,-6.923735 c 0.517836,-0.191731 0.794145,-0.642965 0.767976,-1.254164 -0.01631,-0.380956 -0.130323,-0.640499 -0.38267,-0.87113 -0.56824,-0.519338 -1.552615,-0.399735 -1.943903,0.236188 -0.402116,0.653522 -0.162556,1.552492 0.494417,1.855344 0.325836,0.150204 0.716235,0.16259 1.06418,0.03376 z"
         id="path1097" />
    </g>
  </g>
</svg>
