<?xml version="1.0" encoding="UTF-8" standalone="no"?>
<svg
   data-v-62654a08=""
   data-v-34e99b6d=""
   id="logo"
   width="24"
   height="20"
   aria-labelledby="logoTitle logoDesc"
   role="img"
   class="logotype"
   version="1.1"
   sodipodi:docname="balancer.svg"
   inkscape:version="1.1.2 (0a00cf5339, 2022-02-04)"
   xmlns:inkscape="http://www.inkscape.org/namespaces/inkscape"
   xmlns:sodipodi="http://sodipodi.sourceforge.net/DTD/sodipodi-0.dtd"
   xmlns="http://www.w3.org/2000/svg"
   xmlns:svg="http://www.w3.org/2000/svg"
   xmlns:rdf="http://www.w3.org/1999/02/22-rdf-syntax-ns#"
   xmlns:cc="http://creativecommons.org/ns#"
   xmlns:dc="http://purl.org/dc/elements/1.1/">
  <defs
     id="defs11" />
  <sodipodi:namedview
     id="namedview9"
     pagecolor="#ffffff"
     bordercolor="#666666"
     borderopacity="1.0"
     inkscape:pageshadow="2"
     inkscape:pageopacity="0.0"
     inkscape:pagecheckerboard="0"
     showgrid="false"
     inkscape:zoom="11.886792"
     inkscape:cx="52.915875"
     inkscape:cy="9.969048"
     inkscape:window-width="2170"
     inkscape:window-height="1082"
     inkscape:window-x="26"
     inkscape:window-y="23"
     inkscape:window-maximized="0"
     inkscape:current-layer="logo"
     fit-margin-top="0"
     fit-margin-left="0"
     fit-margin-right="0"
     fit-margin-bottom="0" />
  <title
     data-v-62654a08=""
     id="logoTitle">Balancer logo homepage link</title>
  <desc
     data-v-62654a08=""
     id="logoDesc">
    Balancer Logotype homepage link
  </desc>
  <g
     data-v-62654a08=""
     fill="#000"
     fill-rule="nonzero"
     id="g6"
     style="fill:#ffffff;fill-opacity:1">
    <path
       id="path4"
       style="fill:#ffffff;fill-opacity:1"
       class="logotype-path"
       d="M 12.044922,0 C 8.0639219,0 4.8359375,1.1132812 4.8359375,2.4882812 c 0,1.3740001 3.2279844,2.4882813 7.2089845,2.4882813 3.981,0 7.208984,-1.1142813 7.208984,-2.4882813 C 19.253906,1.1132813 16.025922,0 12.044922,0 Z M 7.7929688,5.5195312 C 4.5849687,6.0535313 2.3730469,7.1785156 2.3730469,8.4785156 2.3730469,10.293516 6.684,11.765625 12,11.765625 c 5.316,0 9.626953,-1.472109 9.626953,-3.2871094 0,-1.301 -2.211922,-2.4249844 -5.419922,-2.9589844 C 14.974031,5.8315313 13.537,6.0117188 12,6.0117188 10.463,6.0117187 9.0259688,5.8325312 7.7929688,5.5195312 Z M 6.3457031,12.216797 C 2.5697031,12.913797 0,14.286234 0,15.865234 0,18.149234 5.373,20 12,20 c 6.627,0 12,-1.849766 12,-4.134766 0,-1.579 -2.568703,-2.951437 -6.345703,-3.648437 v 0.002 c -1.641,0.425 -3.579297,0.669922 -5.654297,0.669922 -2.075,0 -4.0132969,-0.245875 -5.6542969,-0.671875 z" />
  </g>
  <metadata
     id="metadata828">
    <rdf:RDF>
      <cc:Work
         rdf:about="">
        <dc:title>Balancer logo homepage link</dc:title>
      </cc:Work>
    </rdf:RDF>
  </metadata>
</svg>
