<?xml version="1.0" encoding="UTF-8" standalone="no"?>
<!-- Created with Inkscape (http://www.inkscape.org/) -->

<svg
   width="43.02306mm"
   height="53.184689mm"
   viewBox="0 0 43.02306 53.184689"
   version="1.1"
   id="svg5"
   sodipodi:docname="ethereum_coin.svg"
   inkscape:version="1.1.2 (0a00cf5339, 2022-02-04)"
   xmlns:inkscape="http://www.inkscape.org/namespaces/inkscape"
   xmlns:sodipodi="http://sodipodi.sourceforge.net/DTD/sodipodi-0.dtd"
   xmlns:xlink="http://www.w3.org/1999/xlink"
   xmlns="http://www.w3.org/2000/svg"
   xmlns:svg="http://www.w3.org/2000/svg">
  <sodipodi:namedview
     id="namedview7"
     pagecolor="#ffffff"
     bordercolor="#666666"
     borderopacity="1.0"
     inkscape:pageshadow="2"
     inkscape:pageopacity="0.0"
     inkscape:pagecheckerboard="0"
     inkscape:document-units="mm"
     showgrid="false"
     inkscape:snap-global="false"
     inkscape:object-paths="true"
     inkscape:zoom="0.64052329"
     inkscape:cx="268.53044"
     inkscape:cy="-44.494869"
     inkscape:window-width="1488"
     inkscape:window-height="1012"
     inkscape:window-x="26"
     inkscape:window-y="23"
     inkscape:window-maximized="0"
     inkscape:current-layer="layer1"
     fit-margin-top="0"
     fit-margin-left="0"
     fit-margin-right="0"
     fit-margin-bottom="0" />
  <defs
     id="defs2">
    <linearGradient
       inkscape:collect="always"
       id="linearGradient17724">
      <stop
         style="stop-color:#954fce;stop-opacity:1"
         offset="0"
         id="stop17720" />
      <stop
         style="stop-color:#7137c8;stop-opacity:1"
         offset="1"
         id="stop17722" />
    </linearGradient>
    <linearGradient
       inkscape:collect="always"
       id="linearGradient15379">
      <stop
         style="stop-color:#9955ff;stop-opacity:1"
         offset="0"
         id="stop15375" />
      <stop
         style="stop-color:#8e3fff;stop-opacity:0.65023226"
         offset="1"
         id="stop15377" />
    </linearGradient>
    <linearGradient
       inkscape:collect="always"
       id="linearGradient13665">
      <stop
         style="stop-color:#9955ff;stop-opacity:1;"
         offset="0"
         id="stop13661" />
      <stop
         style="stop-color:#c255ff;stop-opacity:1"
         offset="0.11519399"
         id="stop14501" />
      <stop
         style="stop-color:#7f2aff;stop-opacity:1"
         offset="0.3579953"
         id="stop14503" />
      <stop
         style="stop-color:#9e55ff;stop-opacity:1"
         offset="0.81389952"
         id="stop14569" />
      <stop
         style="stop-color:#af79ff;stop-opacity:1"
         offset="1"
         id="stop13663" />
    </linearGradient>
    <linearGradient
       inkscape:collect="always"
       xlink:href="#linearGradient13665"
       id="linearGradient13667"
       x1="409.0256"
       y1="737.79126"
       x2="399.02686"
       y2="467.36111"
       gradientUnits="userSpaceOnUse" />
    <linearGradient
       inkscape:collect="always"
       xlink:href="#linearGradient15379"
       id="linearGradient15381"
       x1="95.766846"
       y1="169.71474"
       x2="60.143024"
       y2="162.44107"
       gradientUnits="userSpaceOnUse" />
    <linearGradient
       inkscape:collect="always"
       xlink:href="#linearGradient17724"
       id="linearGradient17726"
       x1="61.908611"
       y1="159.33594"
       x2="100.47292"
       y2="159.33594"
       gradientUnits="userSpaceOnUse" />
  </defs>
  <g
     inkscape:label="Layer 1"
     inkscape:groupmode="layer"
     id="layer1"
     transform="translate(-8.7245772,-168.80023)">
    <g
       id="g41327"
       transform="matrix(0.69812608,0.22154292,-0.22154292,0.69812608,7.0243433,65.58901)">
      <path
         id="path13427"
         style="opacity:1;fill:url(#linearGradient13667);fill-opacity:1;stroke-width:0.377953;stroke-linejoin:bevel"
         d="m 306.86523,464.80859 0.0195,2.89258 c -20.90538,6.13296 -39.25953,21.54053 -52.00977,41.36133 -16.60259,25.80945 -25.17945,59.42169 -25.17969,93.15234 2.4e-4,33.73059 8.5771,67.3429 25.17969,93.15235 13.10819,20.37722 32.13817,36.0942 53.77539,41.85937 l 0.0156,2.3711 9.8789,-0.46094 c 2.68481,0.31952 5.40057,0.4846 8.14063,0.48437 4.90013,-3.6e-4 9.71883,-0.53762 14.42773,-1.53711 l 0.0742,-0.004 v -0.0117 c 23.09208,-4.92699 43.48557,-21.22266 57.30078,-42.70117 16.60052,-25.80881 25.17946,-59.42369 25.17969,-93.15235 -2.3e-4,-33.72873 -8.57917,-67.34357 -25.17969,-93.15234 -16.64647,-25.88028 -42.84101,-44.25183 -71.80273,-44.25391 z"
         transform="scale(0.26458333)" />
      <path
         id="path13205"
         style="opacity:0.999669;fill:#b072ff;fill-opacity:1;stroke-width:0.1;stroke-linejoin:bevel"
         d="m 81.191406,122.98047 c -7.663416,-6.6e-4 -14.595088,4.86135 -19,11.70898 -4.392769,6.82875 -6.662047,15.72192 -6.662109,24.64649 6.2e-5,8.92455 2.26934,17.81773 6.662109,24.64648 4.404912,6.84762 11.336585,11.70963 19,11.70899 7.662789,-5.7e-4 14.593668,-4.8615 18.998044,-11.70899 4.39222,-6.82858 6.66205,-15.72244 6.66211,-24.64648 -6e-5,-8.92406 -2.26989,-17.81792 -6.66211,-24.64649 -4.404376,-6.84749 -11.335254,-11.70843 -18.998044,-11.70898 z" />
      <path
         id="path13145"
         style="opacity:1;fill:url(#linearGradient15381);fill-opacity:1;stroke-width:0.1;stroke-linejoin:bevel"
         d="m 81.191406,123.99219 c -7.23241,-6.2e-4 -13.887027,4.61959 -18.148437,11.24414 -4.26141,6.62454 -6.501892,15.34774 -6.501953,24.09961 6.1e-5,8.75186 2.240543,17.47506 6.501953,24.09961 4.26141,6.62454 10.916027,11.24475 18.148437,11.24414 7.231945,-5.3e-4 13.885608,-4.61976 18.146485,-11.24414 4.260879,-6.62439 6.501889,-15.34831 6.501949,-24.09961 -6e-5,-8.75131 -2.24107,-17.47523 -6.501949,-24.09961 -4.260877,-6.62439 -10.91454,-11.24362 -18.146485,-11.24414 z" />
      <ellipse
         style="opacity:1;fill:url(#linearGradient17726);fill-opacity:1;stroke-width:0.1;stroke-linejoin:bevel"
         id="path1858"
         cx="81.190765"
         cy="159.33594"
         rx="19.282152"
         ry="29.976889" />
      <g
         id="g13143"
         transform="matrix(1.4163548,0.02858793,-0.1746173,1.7803776,-54.898759,104.74447)">
        <g
           id="LWPOLYLINE"
           style="fill:#01b3e2;fill-opacity:1"
           transform="matrix(0.26458333,0,0,0.26458333,90.687211,15.685993)">
		<polyline
   class="st1"
   points="7.7,55.4 32.2,90 32.2,69.9 7.7,55.4   "
   id="polyline22"
   style="fill:#01b3e2;fill-opacity:1" />

	</g>
        <g
           id="LWPOLYLINE_1_"
           style="fill:#53ba68;fill-opacity:1"
           transform="matrix(0.26458333,0,0,0.26458333,90.687211,15.685993)">
		<polyline
   class="st2"
   points="7.7,50.7 32.2,65.3 32.2,39.6 7.7,50.7   "
   id="polyline25"
   style="fill:#53ba68;fill-opacity:1" />

	</g>
        <g
           id="LWPOLYLINE_2_"
           style="fill:#feed5b;fill-opacity:1"
           transform="matrix(0.26458333,0,0,0.26458333,90.687211,15.685993)">
		<polyline
   class="st1"
   points="7.7,50.7 32.2,39.6 32.2,10 7.7,50.7   "
   id="polyline28"
   style="fill:#feed5b;fill-opacity:1" />

	</g>
        <g
           id="LWPOLYLINE_3_"
           style="fill:#6676b9;fill-opacity:1"
           transform="matrix(0.26458333,0,0,0.26458333,90.687211,15.685993)">
		<polyline
   class="st3"
   points="56.8,55.4 32.2,90 32.2,69.9 56.8,55.4   "
   id="polyline31"
   style="fill:#6676b9;fill-opacity:1" />

	</g>
        <g
           id="LWPOLYLINE_4_"
           style="fill:#a85ca5;fill-opacity:1"
           transform="matrix(0.26458333,0,0,0.26458333,90.687211,15.685993)">
		<polyline
   class="st4"
   points="56.8,50.7 32.2,65.3 32.2,39.6 56.8,50.7   "
   id="polyline34"
   style="fill:#a85ca5;fill-opacity:1" />

	</g>
        <g
           id="LWPOLYLINE_5_"
           style="fill:#f48067;fill-opacity:1"
           transform="matrix(0.26458333,0,0,0.26458333,90.687211,15.685993)">
		<polyline
   class="st3"
   points="56.8,50.7 32.2,39.6 32.2,10 56.8,50.7   "
   id="polyline37"
   style="fill:#f48067;fill-opacity:1" />

	</g>
      </g>
      <path
         id="ellipse13620"
         style="opacity:0.984847;fill:#7238c8;fill-opacity:1;stroke-width:0.10208;stroke-linejoin:bevel"
         d="m 80.273404,128.82587 a 19.75049,30.496055 0 0 0 -19.750214,30.49633 19.75049,30.496055 0 0 0 19.750214,30.49581 19.75049,30.496055 0 0 0 5.442561,-1.18649 19.282152,29.976889 0 0 1 -3.85351,0.61598 19.282152,29.976889 0 0 1 -19.282027,-29.97646 19.282152,29.976889 0 0 1 19.282027,-29.97698 19.282152,29.976889 0 0 1 3.001883,0.36742 19.75049,30.496055 0 0 0 -4.590934,-0.83561 z" />
    </g>
  </g>
  <style
     type="text/css"
     id="style24633">
	.st0{fill:#BB9645;}
	.st1{fill:#0A0B0B;}
	.st2{fill:#FFFFFF;}
	.st3{fill:#231F20;}
	.st4{fill:url(#SVGID_1_);}
	.st5{fill:url(#SVGID_2_);}
	.st6{fill:url(#SVGID_3_);}
	.st7{fill:url(#SVGID_4_);}
	.st8{fill:url(#SVGID_5_);}
	.st9{fill:url(#SVGID_6_);}
	.st10{fill:url(#SVGID_7_);}
	.st11{fill:url(#SVGID_8_);}
	.st12{fill:url(#SVGID_9_);}
	.st13{fill:url(#SVGID_10_);}
	.st14{fill:url(#SVGID_11_);}
	.st15{fill:#1B1B1B;}
	.st16{fill:url(#SVGID_12_);}
	.st17{fill:url(#SVGID_13_);}
	.st18{fill:url(#SVGID_14_);}
	.st19{fill:url(#SVGID_15_);}
	.st20{fill:url(#SVGID_16_);}
	.st21{fill:url(#SVGID_17_);}
	.st22{fill:url(#SVGID_18_);}
	.st23{fill:url(#SVGID_19_);}
	.st24{fill:url(#SVGID_20_);}
	.st25{fill:url(#SVGID_21_);}
	.st26{fill:url(#SVGID_22_);}
</style>
  <style
     type="text/css"
     id="style24633-9">
	.st0{fill:#BB9645;}
	.st1{fill:#0A0B0B;}
	.st2{fill:#FFFFFF;}
	.st3{fill:#231F20;}
	.st4{fill:url(#SVGID_1_);}
	.st5{fill:url(#SVGID_2_);}
	.st6{fill:url(#SVGID_3_);}
	.st7{fill:url(#SVGID_4_);}
	.st8{fill:url(#SVGID_5_);}
	.st9{fill:url(#SVGID_6_);}
	.st10{fill:url(#SVGID_7_);}
	.st11{fill:url(#SVGID_8_);}
	.st12{fill:url(#SVGID_9_);}
	.st13{fill:url(#SVGID_10_);}
	.st14{fill:url(#SVGID_11_);}
	.st15{fill:#1B1B1B;}
	.st16{fill:url(#SVGID_12_);}
	.st17{fill:url(#SVGID_13_);}
	.st18{fill:url(#SVGID_14_);}
	.st19{fill:url(#SVGID_15_);}
	.st20{fill:url(#SVGID_16_);}
	.st21{fill:url(#SVGID_17_);}
	.st22{fill:url(#SVGID_18_);}
	.st23{fill:url(#SVGID_19_);}
	.st24{fill:url(#SVGID_20_);}
	.st25{fill:url(#SVGID_21_);}
	.st26{fill:url(#SVGID_22_);}
</style>
  <style
     type="text/css"
     id="style2">
	.st0{fill:#3C3C3B;}
	.st1{fill:#8C8C8C;}
	.st2{fill:#393939;}
	.st3{fill:#343434;}
	.st4{fill:#151515;}
</style>
</svg>
