<?xml version="1.0" encoding="UTF-8" standalone="no"?>
<!-- Generator: Adobe Illustrator 22.1.0, SVG Export Plug-In . SVG Version: 6.00 Build 0)  -->

<svg
   version="1.1"
   id="ethereum"
   x="0px"
   y="0px"
   viewBox="0 0 186.50467 48.642918"
   xml:space="preserve"
   sodipodi:docname="ethereum.svg"
   inkscape:version="1.1.2 (0a00cf5339, 2022-02-04)"
   width="186.50467"
   height="48.642918"
   xmlns:inkscape="http://www.inkscape.org/namespaces/inkscape"
   xmlns:sodipodi="http://sodipodi.sourceforge.net/DTD/sodipodi-0.dtd"
   xmlns="http://www.w3.org/2000/svg"
   xmlns:svg="http://www.w3.org/2000/svg"><defs
   id="defs45">
	
	
	
	
	
	

	
	
	
	
	
	
	
	
</defs><sodipodi:namedview
   id="namedview43"
   pagecolor="#ffffff"
   bordercolor="#666666"
   borderopacity="1.0"
   inkscape:pageshadow="2"
   inkscape:pageopacity="0.0"
   inkscape:pagecheckerboard="0"
   showgrid="false"
   inkscape:zoom="3.0636364"
   inkscape:cx="-12.893175"
   inkscape:cy="61.528189"
   inkscape:window-width="2187"
   inkscape:window-height="1012"
   inkscape:window-x="26"
   inkscape:window-y="23"
   inkscape:window-maximized="0"
   inkscape:current-layer="ethereum"
   fit-margin-top="0"
   fit-margin-left="0"
   fit-margin-right="0"
   fit-margin-bottom="0" />
<style
   type="text/css"
   id="style2">
	.st0{fill:#3C3C3B;}
	.st1{fill:#8C8C8C;}
	.st2{fill:#393939;}
	.st3{fill:#343434;}
	.st4{fill:#151515;}
</style>
<g
   id="g872"
   transform="translate(-25.795327,-26.524481)"><path
     class="st0"
     d="m 80,52.9 c 0,0.3 -0.3,0.6 -0.6,0.6 H 68.1 c 0.3,2.8 2.4,5.4 5.4,5.4 2,0 3.5,-0.8 4.7,-2.4 0.1,-0.2 0.3,-0.3 0.5,-0.3 0.3,0 0.6,0.2 0.6,0.6 0,0.1 0,0.2 -0.1,0.3 -1.1,2 -3.4,3 -5.6,3 -3.8,0 -6.5,-3.4 -6.5,-7.1 0,-3.7 2.7,-7.1 6.5,-7.1 3.8,0 6.4,3.3 6.4,7 m -1.2,-0.6 c -0.2,-2.8 -2.4,-5.4 -5.4,-5.4 -3,0 -5.1,2.6 -5.4,5.4 z"
     id="path4"
     style="fill:#01b3e2;fill-opacity:1" /><path
     class="st0"
     d="m 93.8,46.1 c 0.3,0 0.6,0.3 0.6,0.6 0,0.3 -0.2,0.6 -0.6,0.6 h -3 v 11.9 c 0,0.3 -0.2,0.6 -0.6,0.6 -0.3,0 -0.6,-0.3 -0.6,-0.6 v -12 h -2.9 c -0.3,0 -0.6,-0.2 -0.6,-0.6 0,-0.3 0.2,-0.6 0.6,-0.6 h 2.9 v -4.4 c 0,-0.3 0.2,-0.6 0.6,-0.6 0.3,0 0.6,0.2 0.6,0.6 V 46 h 3 z"
     id="path6"
     style="fill:#01b3e2;fill-opacity:1" /><path
     class="st0"
     d="m 112.4,51.9 v 7.2 c 0,0.3 -0.3,0.6 -0.6,0.6 -0.3,0 -0.6,-0.2 -0.6,-0.6 v -7.2 c 0,-2.4 -1.4,-4.9 -4.1,-4.9 -3.5,0 -5,3 -4.8,6.2 0,0.1 0,0.4 0,0.5 v 5.4 c 0,0.3 -0.2,0.6 -0.6,0.6 -0.3,0 -0.6,-0.2 -0.6,-0.6 V 35.3 c 0,-0.3 0.2,-0.6 0.6,-0.6 0.3,0 0.6,0.3 0.6,0.6 v 13.4 c 1,-1.7 2.7,-2.9 4.8,-2.9 3.4,0 5.3,3 5.3,6.1"
     id="path8"
     style="fill:#01b3e2;fill-opacity:1" /><path
     class="st0"
     d="m 132.7,52.9 c 0,0.3 -0.3,0.6 -0.6,0.6 h -11.3 c 0.3,2.8 2.4,5.4 5.4,5.4 2,0 3.5,-0.8 4.7,-2.4 0.1,-0.2 0.3,-0.3 0.5,-0.3 0.3,0 0.6,0.2 0.6,0.6 0,0.1 0,0.2 -0.1,0.3 -1.1,2 -3.4,3 -5.6,3 -3.8,0 -6.5,-3.4 -6.5,-7.1 0,-3.7 2.7,-7.1 6.5,-7.1 3.7,-0.1 6.4,3.3 6.4,7 m -1.2,-0.6 c -0.2,-2.8 -2.4,-5.4 -5.4,-5.4 -3,0 -5.1,2.6 -5.4,5.4 z"
     id="path10"
     style="fill:#01b3e2;fill-opacity:1" /><path
     class="st0"
     d="m 146.7,46.6 c 0,0.4 -0.2,0.6 -0.5,0.6 -3.3,0.5 -4.8,3.2 -4.8,6.4 V 59 c 0,0.3 -0.2,0.6 -0.6,0.6 -0.3,0 -0.6,-0.2 -0.6,-0.6 V 46.7 c 0,-0.3 0.2,-0.6 0.6,-0.6 0.3,0 0.6,0.2 0.6,0.6 v 2.5 c 0.9,-1.6 2.8,-3.1 4.8,-3.1 0.1,0 0.5,0.2 0.5,0.5"
     id="path12"
     style="fill:#01b3e2;fill-opacity:1" /><path
     class="st0"
     d="m 165.3,52.9 c 0,0.3 -0.3,0.6 -0.6,0.6 h -11.3 c 0.3,2.8 2.4,5.4 5.4,5.4 2,0 3.5,-0.8 4.7,-2.4 0.1,-0.2 0.3,-0.3 0.5,-0.3 0.3,0 0.6,0.2 0.6,0.6 0,0.1 0,0.2 -0.1,0.3 -1.1,2 -3.4,3 -5.6,3 -3.8,0 -6.5,-3.4 -6.5,-7.1 0,-3.7 2.7,-7.1 6.5,-7.1 3.6,-0.1 6.4,3.3 6.4,7 m -1.2,-0.6 c -0.2,-2.8 -2.4,-5.4 -5.4,-5.4 -3,0 -5.1,2.6 -5.4,5.4 z"
     id="path14"
     style="fill:#01b3e2;fill-opacity:1" /><path
     class="st0"
     d="m 183.6,46.7 v 3.9 8.5 c 0,0.3 -0.3,0.6 -0.6,0.6 -0.3,0 -0.6,-0.2 -0.6,-0.6 v -2.4 c -0.9,1.9 -2.6,3.2 -4.7,3.2 -3.4,0 -5.2,-2.9 -5.2,-6 v -7.3 c 0,-0.3 0.2,-0.6 0.6,-0.6 0.3,0 0.6,0.3 0.6,0.6 V 54 c 0,2.4 1.4,4.9 4.1,4.9 3.8,0 4.7,-3.6 4.7,-7.5 v -4.6 c 0,-0.3 0.2,-0.6 0.6,-0.6 0.2,0 0.5,0.2 0.5,0.5"
     id="path16"
     style="fill:#01b3e2;fill-opacity:1" /><path
     class="st0"
     d="m 212.3,51.8 v 7.3 c 0,0.3 -0.3,0.6 -0.6,0.6 -0.3,0 -0.6,-0.2 -0.6,-0.6 v -7.3 c 0,-2.4 -1.4,-4.8 -4.1,-4.8 -3.4,0 -4.7,3.7 -4.7,6.5 v 5.6 c 0,0.3 -0.3,0.6 -0.6,0.6 -0.3,0 -0.6,-0.2 -0.6,-0.6 v -7.3 c 0,-2.4 -1.4,-4.8 -4.1,-4.8 -3.5,0 -4.9,2.7 -4.8,6.3 0,0.1 0,0.2 0,0.3 v 5.5 c 0,0.3 -0.2,0.6 -0.6,0.6 -0.3,0 -0.6,-0.2 -0.6,-0.6 V 46.7 c 0,-0.3 0.2,-0.6 0.6,-0.6 0.3,0 0.6,0.2 0.6,0.6 v 2.1 c 1,-1.7 2.7,-2.9 4.8,-2.9 2.3,0 4.1,1.5 4.8,3.6 0.9,-2.1 2.8,-3.6 5.1,-3.6 3.5,-0.1 5.4,2.8 5.4,5.9"
     id="path18"
     style="fill:#01b3e2;fill-opacity:1" /></g>
<g
   id="g862"
   transform="matrix(0.60803646,0,0,0.60803646,-4.6818807,-6.0803646)"><g
     id="LWPOLYLINE"
     style="fill:#01b3e2;fill-opacity:1">
		<polyline
   class="st1"
   points="7.7,55.4 32.2,90 32.2,69.9 7.7,55.4   "
   id="polyline22"
   style="fill:#01b3e2;fill-opacity:1" />
	</g><g
     id="LWPOLYLINE_1_"
     style="fill:#53ba68;fill-opacity:1">
		<polyline
   class="st2"
   points="7.7,50.7 32.2,65.3 32.2,39.6 7.7,50.7   "
   id="polyline25"
   style="fill:#53ba68;fill-opacity:1" />
	</g><g
     id="LWPOLYLINE_2_"
     style="fill:#feed5b;fill-opacity:1">
		<polyline
   class="st1"
   points="7.7,50.7 32.2,39.6 32.2,10 7.7,50.7   "
   id="polyline28"
   style="fill:#feed5b;fill-opacity:1" />
	</g><g
     id="LWPOLYLINE_3_"
     style="fill:#6676b9;fill-opacity:1">
		<polyline
   class="st3"
   points="56.8,55.4 32.2,90 32.2,69.9 56.8,55.4   "
   id="polyline31"
   style="fill:#6676b9;fill-opacity:1" />
	</g><g
     id="LWPOLYLINE_4_"
     style="fill:#a85ca5;fill-opacity:1">
		<polyline
   class="st4"
   points="56.8,50.7 32.2,65.3 32.2,39.6 56.8,50.7   "
   id="polyline34"
   style="fill:#a85ca5;fill-opacity:1" />
	</g><g
     id="LWPOLYLINE_5_"
     style="fill:#f48067;fill-opacity:1">
		<polyline
   class="st3"
   points="56.8,50.7 32.2,39.6 32.2,10 56.8,50.7   "
   id="polyline37"
   style="fill:#f48067;fill-opacity:1" />
	</g></g>
</svg>
