<?xml version="1.0" encoding="UTF-8" standalone="no"?>
<!-- Created with Inkscape (http://www.inkscape.org/) -->

<svg
   version="1.1"
   id="svg2"
   width="324.31461"
   height="78.911842"
   viewBox="0 0 324.31461 78.911842"
   sodipodi:docname="coinex.svg"
   inkscape:version="1.1.2 (0a00cf5339, 2022-02-04)"
   xmlns:inkscape="http://www.inkscape.org/namespaces/inkscape"
   xmlns:sodipodi="http://sodipodi.sourceforge.net/DTD/sodipodi-0.dtd"
   xmlns="http://www.w3.org/2000/svg"
   xmlns:svg="http://www.w3.org/2000/svg">
  <defs
     id="defs6" />
  <sodipodi:namedview
     id="namedview4"
     pagecolor="#ffffff"
     bordercolor="#666666"
     borderopacity="1.0"
     inkscape:pageshadow="2"
     inkscape:pageopacity="0.0"
     inkscape:pagecheckerboard="0"
     showgrid="false"
     fit-margin-top="0"
     fit-margin-left="0"
     fit-margin-right="0"
     fit-margin-bottom="0"
     inkscape:zoom="3.9166667"
     inkscape:cx="162.12766"
     inkscape:cy="40.723404"
     inkscape:window-width="3778"
     inkscape:window-height="1536"
     inkscape:window-x="0"
     inkscape:window-y="0"
     inkscape:window-maximized="1"
     inkscape:current-layer="g8" />
  <g
     inkscape:groupmode="layer"
     inkscape:label="Image"
     id="g8"
     transform="translate(-0.09303431,-5.279786)">
    <path
       id="path863-35"
       style="fill:#10d2c3;fill-opacity:1"
       d="m 38.341704,5.279786 c -8.991603,0 -10.61739,0.291874 -15.822266,2.847657 C 10.922641,13.82189 2.8085529,24.968682 0.61318786,38.217286 -2.8960421,59.394817 11.746565,80.236747 32.60147,83.748536 38.744577,84.782986 46.019678,83.987274 52.605376,81.559083 59.113,79.159677 68.39721,70.812523 72.07608,64.053224 L 74.73428,59.166505 61.02725,45.580568 C 53.488403,38.108344 46.337969,31.496509 45.136626,30.887208 42.119008,29.35672 36.257766,29.500198 33.021391,31.184083 19.844913,38.0398 22.711035,58.101888 37.203032,60.453615 c 4.136933,0.671331 9.740726,-1.047987 12.171875,-3.734376 1.742698,-1.925659 1.698976,-2.083888 -1.511719,-5.396484 -3.128785,-3.228087 -3.435442,-3.332416 -5.626953,-1.896484 -4.941786,3.237983 -10.278095,-2.153138 -7.033203,-7.105469 2.95886,-4.51579 5.342534,-3.353566 16.898438,8.238281 L 62.84756,61.33838 58.583891,65.510255 C 50.193257,73.723989 37.473585,76.394394 27.634673,72.006349 21.924063,69.459481 15.13666,62.705791 12.488188,56.936036 9.4089789,50.227919 9.4572729,38.033505 12.587798,31.680177 c 3.08396,-6.258826 8.664182,-11.678582 15.095703,-14.662109 4.606663,-2.136992 6.385112,-2.421112 12.642578,-2.019532 8.013415,0.51427 13.593856,3.074969 18.937501,8.695313 l 2.9414,3.095703 -3.191401,3.292969 c -1.755382,1.811094 -3.193359,3.748224 -3.193359,4.30664 0,1.049619 5.16796,6.390625 6.18359,6.390625 0.31524,0 3.1239,-2.907198 6.24219,-6.458984 5.57468,-6.349638 5.64495,-6.505451 4.19336,-9.3125 C 69.36436,19.061894 61.75133,11.869335 55.027251,8.559083 48.84022,5.513218 47.645778,5.279786 38.341704,5.279786 Z" />
    <path
       id="path863-3-6"
       style="fill:#000000"
       d="m 125.09063,14.780826 c -13.97252,0.239659 -27.32761,11.476888 -27.29688,27.871094 0.024,12.785271 8.59236,23.936032 20.72657,26.972656 4.27905,1.070847 12.38404,0.572468 17.02929,-1.046875 l 3.16406,-1.103516 -2.0996,-4.160156 c -1.15379,-2.288511 -2.20645,-4.288181 -2.33985,-4.443359 -0.13341,-0.155177 -2.28966,0.264584 -4.79101,0.933593 -7.6254,2.039485 -16.52874,-2.013246 -20.25586,-9.220702 -1.86104,-3.598777 -1.88963,-12.214429 -0.0527,-15.730469 5.65572,-10.825905 19.33093,-13.564427 27.73047,-5.552734 l 2.64258,2.521484 4.0957,-2.96875 4.09766,-2.966797 -4.41211,-4.066406 C 137.92161,16.835571 131.44182,14.67189 125.09067,14.780826 Z M 246.7625,15.65192 v 27.5 27.5 h 17.5 17.5 v -4.5 -4.5 h -12.5 -12.5 v -7 -7 h 12 12 v -4.5 -4.5 h -12 -12 v -6.96875 -6.96875 l 12.25,-0.28125 12.25,-0.28125 0.3086,-4.25 0.30664,-4.25 H 264.3211 Z m -52,14.886719 -4.25,0.30664 -4.25,0.306641 -0.27148,19.75 -0.26953,19.75 h 4.51953 4.52148 V 50.595279 Z m 97.35743,0.113281 c -2.94683,0 -5.35743,0.25676 -5.35743,0.570312 0,0.313553 2.95943,4.814453 6.57617,10.001954 l 6.57618,9.43164 -6.57618,9.498047 c -3.61675,5.223685 -6.57617,9.722787 -6.57617,9.998047 0,0.27526 2.2401,0.5 4.97852,0.5 h 4.98047 l 4.28515,-6.388672 4.28516,-6.388672 4.24219,6.388672 4.24218,6.388672 h 5.55274 c 3.05391,0 5.32876,-0.358541 5.05664,-0.798829 -0.27211,-0.440289 -3.22325,-4.799675 -6.55859,-9.6875 -3.33535,-4.887824 -6.06446,-9.270295 -6.06446,-9.73828 0,-0.467985 2.7,-4.867587 6,-9.775391 3.3,-4.907804 6,-9.164839 6,-9.460938 0,-0.296098 -2.19922,-0.539062 -4.88867,-0.539062 -4.87958,0 -4.89808,0.0136 -8.75,5.992188 -2.12306,3.295189 -4.17003,5.9952 -4.54883,6 -0.37879,0.0048 -2.3557,-2.692188 -4.39257,-5.992188 l -3.70313,-6 z m -69.68165,0.181641 c -3.11994,-0.116994 -6.41559,0.51259 -9.73242,1.939453 -4.60785,1.98224 -5.08865,2.014713 -7.40039,0.5 -1.35977,-0.890956 -2.71346,-1.621094 -3.00781,-1.621094 -0.29435,0 -0.53516,8.80197 -0.53516,19.558594 v 19.55664 l 4.25,-0.306641 4.25,-0.308593 0.5,-12.839844 c 0.48904,-12.558732 0.56238,-12.893014 3.30664,-15.25 4.14797,-3.562598 10.47629,-3.348629 14.58789,0.492188 l 3.10547,2.90039 V 58.054263 70.65192 h 4.5 4.5 V 58.112857 c 0,-10.3594 -0.3305,-13.184964 -1.90234,-16.249999 -3.54172,-6.906217 -9.55801,-10.77191 -16.42188,-11.029297 z m -62.4414,0.5 c -4.5411,0.230749 -9.07444,2.107642 -12.75781,5.791015 -10.33248,10.33248 -6.61282,27.017185 7.16015,32.115234 8.85069,3.276074 19.43429,-1.073768 23.76758,-9.769531 3.05289,-6.126353 3.25414,-10.804205 0.70117,-16.318359 -3.7116,-8.016672 -11.30259,-12.202941 -18.87109,-11.818359 z m 1.84375,8.748047 c 3.02401,0.160558 5.99782,1.646128 8.02344,4.875 2.59868,4.142361 1.99379,10.056992 -1.37305,13.423827 -5.62182,5.621823 -15.5004,3.103683 -17.78906,-4.535156 -2.41231,-8.051579 4.48585,-14.116902 11.13867,-13.763671 z" />
    <circle
       style="fill:#10d2c3;fill-opacity:1;stroke-width:14.9229;stroke-linejoin:bevel"
       id="path7143-2"
       cx="190.99161"
       cy="21.221064"
       r="6.5" />
  </g>
</svg>
