<svg data-v-199cca5c="" width="121" viewBox="0 0 121 26" fill="none" xmlns="http://www.w3.org/2000/svg" class=""><path d="M45.8309 11.4V9.35205H34.2686V17.8851H36.6578V15.5812H43.9536V13.5759H36.6578V11.4H45.8309Z" fill="#B5B5B5"></path> <path d="M60.6788 9.35205L57.0949 15.4959L53.4683 9.35205H49.9697V17.8851H52.359V11.528L56.1136 17.8851H58.0335L61.7881 11.528V17.8851H64.22V9.35205H60.6788Z" fill="#B5B5B5"></path> <path d="M80.731 11.4V9.35205H69.126V17.8851H71.5579V15.5812H78.811V13.5759H71.5579V11.4H80.731Z" fill="#B5B5B5"></path> <path d="M96.5605 9.35205V15.7092L92.806 9.35205H90.886L87.1315 15.7092V9.35205H84.7422V17.8851H88.2408L91.8673 11.7413L95.4512 17.8851H98.9925V9.35205H96.5605Z" fill="#B5B5B5"></path> <path d="M104.71 15.6665H102.192V17.8851H104.71V15.6665Z" fill="#B5B5B5"></path> <path d="M109.915 12.168H107.696V17.9278H109.915V12.168Z" fill="#B5B5B5"></path> <path d="M109.915 9.35205H107.696V11.0587H109.915V9.35205Z" fill="#B5B5B5"></path> <path d="M119.557 13.277C119.216 12.8077 118.746 12.4237 118.234 12.2104C116.954 11.7411 115.547 11.7411 114.267 12.2104C113.712 12.4237 113.243 12.765 112.944 13.277C112.645 13.7463 112.475 14.3437 112.475 15.0263C112.475 15.6236 112.603 16.2209 112.944 16.7756C113.285 17.2449 113.755 17.6289 114.267 17.8422C115.547 18.3116 116.954 18.3116 118.234 17.8422C118.789 17.6289 119.258 17.2449 119.557 16.7756C119.898 16.2636 120.069 15.6663 120.026 15.0263C120.026 14.3437 119.856 13.7463 119.557 13.277ZM114.608 15.1116V14.8983C114.608 14.6423 114.651 14.429 114.779 14.2157C114.906 14.045 115.077 13.8743 115.291 13.789C115.888 13.5757 116.528 13.5757 117.125 13.789C117.338 13.8743 117.509 14.0023 117.637 14.2157C117.765 14.429 117.808 14.6423 117.808 14.8983V15.1116C117.808 15.3676 117.765 15.581 117.637 15.7943C117.509 16.0076 117.338 16.1356 117.125 16.221C116.528 16.4343 115.888 16.4343 115.291 16.221C115.077 16.1356 114.906 15.965 114.779 15.7943C114.651 15.6236 114.608 15.3676 114.608 15.1116Z" fill="#B5B5B5"></path> <path d="M4.2323 16.0504C3.03767 18.013 3.63499 20.5303 5.5976 21.7249C7.56021 22.9195 10.0775 22.3222 11.2721 20.3596C11.2721 20.3169 11.3148 20.3169 11.3148 20.2743L11.6561 19.6769L10.4188 18.9516L10.0775 19.549C9.26683 20.7863 7.60288 21.1703 6.36558 20.3596C5.17094 19.5916 4.7443 18.013 5.46961 16.7757L8.66952 11.3999L8.28552 10.7172C6.66424 7.64529 7.81622 3.84806 10.8881 2.18411C13.8747 0.605489 17.5866 1.67214 19.2932 4.57339L21.3412 8.28527L22.1945 6.87731L20.5305 3.89073C18.3972 0.178834 13.704 -1.10113 9.99214 1.03214C6.36558 3.12275 5.04295 7.68797 7.00556 11.3999L4.2323 16.0504Z" fill="#3BAF4A"></path> <path d="M19.848 22.2371C22.1093 22.2371 23.9439 20.4025 23.9439 18.1412C23.9439 15.88 22.1093 14.0453 19.848 14.0453H19.1653V15.496H19.848C21.3413 15.496 22.5359 16.6906 22.5359 18.1839C22.5359 19.6772 21.3413 20.8718 19.848 20.8718H13.4908L13.1069 21.5118C11.3149 24.4984 7.43236 25.4797 4.48844 23.6877C3.03782 22.8344 2.01384 21.4265 1.62985 19.8052C1.2032 18.1839 1.45919 16.4773 2.35517 15.0267L4.5311 11.4001L2.86716 11.3574L1.11786 14.2587C-1.10074 17.9279 0.0939048 22.6638 3.72047 24.8824C7.3897 27.101 12.1255 25.9064 14.3442 22.2798H19.848V22.2371Z" fill="#3BAF4A"></path> <path d="M19.9756 10.3757L17.3731 5.6825C16.3064 3.63456 13.8318 2.86658 11.8265 3.89055C9.7786 4.95718 9.01062 7.43178 10.0346 9.43706C10.0773 9.52239 10.1199 9.60772 10.1626 9.65038L10.5039 10.2477L11.7412 9.52239L11.3999 8.92507C10.7172 7.60244 11.2719 5.98115 12.5945 5.2985C13.8318 4.65852 15.3678 5.08518 16.1357 6.32248L19.165 11.741H19.8476C23.3462 11.741 26.1621 14.5569 26.1621 18.0555C26.1621 21.5541 23.3462 24.37 19.8476 24.37H15.5811L16.3917 25.8206H19.8476C24.1142 25.8633 27.6128 22.4074 27.6554 18.0981C27.6554 13.9169 24.2422 10.461 19.9756 10.3757Z" fill="#3BAF4A"></path></svg>
