<svg viewBox="0 0 70 33" fill="none" xmlns="http://www.w3.org/2000/svg" class="Header_logo__QSXCZ"><path d="M4.465 0h11.398C20.3 0 24.545 1.758 27.68 4.895a16.699 16.699 0 0 1 4.895 11.817V28.11c0 .59-.11 1.17-.34 1.709a4.28 4.28 0 0 1-.97 1.448 4.43 4.43 0 0 1-1.448.97c-.539.22-1.119.34-1.708.34H16.783c-2.207 0-4.384-.43-6.424-1.279a16.714 16.714 0 0 1-5.445-3.636 16.654 16.654 0 0 1-3.635-5.445A16.596 16.596 0 0 1 0 15.805V4.465c0-1.19.47-2.318 1.308-3.157A4.457 4.457 0 0 1 4.465 0Z" fill="#1C8D57"></path><path d="M23.725 8.691c-1.788-1.858-4.315-2.796-7.512-2.796-3.017 0-5.475.969-7.312 2.876-1.827 1.907-2.757 4.566-2.757 7.923v12.082a16.631 16.631 0 0 0 5.165 2.883v-5.984h4.135c1.32 0 2.608-.17 3.826-.51a12.13 12.13 0 0 0 3.466-1.588c1.13-.74 2.028-1.798 2.688-3.147.65-1.329.979-2.898.979-4.665 0-2.837-.9-5.214-2.678-7.072V8.69Zm-4.056 10.63h-.01c-.908.96-2.148 1.428-3.775 1.428h-4.575v-4.215c0-1.738.44-3.157 1.319-4.196.858-1.02 2.018-1.518 3.546-1.518s2.777.44 3.606 1.339c.849.919 1.26 2.069 1.26 3.526 0 1.458-.45 2.668-1.369 3.636h-.002Z" fill="#fff"></path><path class="logo_svg__c-text" fill-rule="evenodd" clip-rule="evenodd" d="M69.101 18.74c-.529-.889-1.288-1.588-2.267-2.087 1.378-1.06 2.068-2.558 2.068-4.436 0-1.878-.65-3.426-1.918-4.705-1.29-1.289-3.187-1.928-5.595-1.928-2.227 0-4.125.76-5.654 2.248-1.528 1.498-2.297 3.446-2.297 5.784V29.23h8.67c2.518 0 4.496-.56 5.835-1.698C69.32 26.361 70 24.625 70 22.407c0-1.439-.29-2.668-.89-3.677l-.01.01Zm-11.218-5.064c0-1.249.31-2.178.879-2.787l.07-.06c.64-.63 1.438-.94 2.497-.94 1.18 0 1.958.27 2.388.74.47.52.71 1.149.71 1.958 0 .809-.29 1.388-.89 1.848-.66.51-1.438.76-2.397.76h-3.257v-1.52Zm6.813 10.579c-.49.43-1.349.68-2.617.68h-4.186V19.35h4.346c1.048 0 1.848.25 2.397.72.52.439.79 1.068.79 1.977 0 1.089-.27 1.808-.73 2.208ZM41.07 24.485c.45-.52.959-1.03 1.508-1.529l.24-.21c.67-.58 1.249-1.059 1.698-1.428.47-.38 1.279-1.04 2.428-1.958 1.209-.99 2.108-1.988 2.657-2.977.56-1.03.84-2.308.84-3.816 0-2.158-.7-3.896-2.119-5.125-1.388-1.209-3.286-1.808-5.624-1.808-3.217 0-5.704 1.588-7.392 4.665l-.31.56 3.556 2.986.44-.909c.48-1.009 1.039-1.738 1.668-2.207a3.44 3.44 0 0 1 2.138-.71c1.019 0 1.748.25 2.228.7.49.46.72 1.008.72 1.688 0 1.578-.69 2.887-2.149 4.016-2.997 2.287-4.845 3.876-5.604 4.855-.73.939-1.279 1.778-1.628 2.507-.35.73-.57 1.329-.68 1.838-.1.49-.16.98-.16 1.469v2.148H50.25v-4.486h-9.41c.07-.08.14-.17.22-.26l.01-.01Z" fill="#151327"></path></svg>
