<?xml version="1.0" encoding="UTF-8" standalone="no"?>
<svg
   viewBox="0 0 1278.03 3.100812"
   class="sc-4ba21b47-0 IIbzK desktop-icon"
   color="text"
   width="19.95363"
   version="1.1"
   id="svg12"
   sodipodi:docname="pancake.svg"
   height="3.100812"
   inkscape:version="1.1.2 (0a00cf5339, 2022-02-04)"
   xmlns:inkscape="http://www.inkscape.org/namespaces/inkscape"
   xmlns:sodipodi="http://sodipodi.sourceforge.net/DTD/sodipodi-0.dtd"
   xmlns="http://www.w3.org/2000/svg"
   xmlns:svg="http://www.w3.org/2000/svg">
  <defs
     id="defs16" />
  <sodipodi:namedview
     id="namedview14"
     pagecolor="#ffffff"
     bordercolor="#666666"
     borderopacity="1.0"
     inkscape:pageshadow="2"
     inkscape:pageopacity="0.0"
     inkscape:pagecheckerboard="0"
     showgrid="false"
     fit-margin-top="0"
     fit-margin-left="0"
     fit-margin-right="0"
     fit-margin-bottom="0"
     inkscape:zoom="17.547739"
     inkscape:cx="44.792096"
     inkscape:cy="-12.280785"
     inkscape:window-width="3778"
     inkscape:window-height="1536"
     inkscape:window-x="0"
     inkscape:window-y="0"
     inkscape:window-maximized="1"
     inkscape:current-layer="svg12" />
  <path
     fill="var(--colors-contrast)"
     d="m 241.43789,60.648803 c -2.979,0 -5.085,-0.617 -6.318,-1.849 -1.13,-1.233 -1.695,-3.185 -1.695,-5.856 v -89.22 c 0,-2.672 0.616,-4.624 1.849,-5.856 1.233,-1.336 3.287,-2.004 6.164,-2.004 h 37.753 c 14.382,0 24.963,3.031 31.744,9.092 6.78,6.061 10.17,15.101 10.17,27.1200001 0,11.917 -3.39,20.9059999 -10.17,26.9669999 -6.678,5.959 -17.259,8.938 -31.744,8.938 h -14.639 v 24.963 c 0,2.671 -0.616,4.623 -1.849,5.856 -1.233,1.232 -3.339,1.849 -6.318,1.849 z m 35.288,-55.0119999 c 4.212,0 7.448,-1.13 9.708,-3.39 2.362,-2.25999998 3.544,-5.65 3.544,-10.17 0,-4.6230001 -1.182,-8.0650001 -3.544,-10.3250001 -2.26,-2.26 -5.496,-3.39 -9.708,-3.39 h -12.174 V 5.6368031 Z m 80.77,57.3229999 c -9.656,0 -17.412,-3.082 -23.268,-9.245 -5.753,-6.267 -8.629,-15.05 -8.629,-26.351 0,-8.629 1.952,-16.18 5.855,-22.6519999 4.007,-6.472 9.606,-11.454 16.797,-14.9470001 7.294,-3.595 15.666,-5.393 25.117,-5.393 7.808,0 14.691,0.873 20.649,2.62 6.061,1.643 11.608,4.0570001 16.642,7.2420001 V 55.871803 c 0,1.952 -0.359,3.236 -1.079,3.852 -0.719,0.617 -2.157,0.925 -4.314,0.925 h -15.718 c -1.13,0 -2.003,-0.154 -2.619,-0.463 -0.617,-0.41 -1.13,-1.027 -1.541,-1.849 l -2.004,-4.622 c -2.979,3.184 -6.574,5.496 -10.786,6.934 -4.109,1.541 -9.143,2.311 -15.102,2.311 z m 11.558,-20.957 c 4.006,0 7.139,-0.976 9.399,-2.927 2.26,-1.952 3.39,-4.726 3.39,-8.322 V 6.7158031 c -1.951,-0.925 -4.417,-1.387 -7.396,-1.387 -5.445,0 -9.811,1.9 -13.098,5.7009999 -3.185,3.801 -4.777,9.143 -4.777,16.026 0,9.965 4.16,14.947 12.482,14.947 z m 63.05,18.646 c -2.98,0 -5.086,-0.617 -6.318,-1.849 -1.233,-1.233 -1.849,-3.185 -1.849,-5.856 V -8.5401969 c 0,-1.8490001 0.308,-3.0820001 0.924,-3.6980001 0.719,-0.72 2.157,-1.079 4.315,-1.079 h 15.872 c 1.232,0 2.157,0.206 2.773,0.617 0.719,0.308 1.13,0.924 1.233,1.849 l 0.77,4.6230001 c 2.877,-2.877 6.627,-5.1370001 11.249,-6.7800001 4.726,-1.747 9.965,-2.62 15.718,-2.62 8.321,0 15.05,2.363 20.186,7.0880001 5.137,4.623 7.705,11.506 7.705,20.6489999 v 40.835 c 0,2.671 -0.616,4.623 -1.849,5.856 -1.13,1.232 -3.185,1.849 -6.164,1.849 h -14.947 c -2.979,0 -5.136,-0.617 -6.472,-1.849 -1.233,-1.233 -1.849,-3.185 -1.849,-5.856 v -38.832 c 0,-3.082 -0.668,-5.2899999 -2.003,-6.6259999 -1.336,-1.335 -3.442,-2.003 -6.318,-2.003 -3.082,0 -5.548,0.822 -7.397,2.465 -1.746,1.644 -2.619,3.9039999 -2.619,6.7809999 v 38.215 c 0,2.671 -0.617,4.623 -1.849,5.856 -1.13,1.232 -3.185,1.849 -6.164,1.849 z m 127.046,2.311 c -14.382,0 -25.477,-3.339 -33.285,-10.016 -7.807,-6.677 -11.711,-16.385 -11.711,-29.124 0,-7.807 1.798,-14.6899999 5.393,-20.6479999 3.596,-5.959 8.784,-10.582 15.564,-13.8690001 6.883,-3.287 14.999,-4.931 24.347,-4.931 7.088,0 13.047,0.668 17.875,2.003 4.931,1.336 9.297,3.39 13.098,6.1640001 1.13,0.72 1.695,1.644 1.695,2.774 0,0.822 -0.411,1.9 -1.233,3.236 l -6.318,10.94 c -0.719,1.4389999 -1.592,2.1579999 -2.619,2.1579999 -0.617,0 -1.593,-0.411 -2.928,-1.233 -2.774,-1.7459999 -5.393,-3.0299999 -7.859,-3.8519999 -2.363,-0.822 -5.342,-1.233 -8.937,-1.233 -5.137,0 -9.297,1.644 -12.482,4.9309999 -3.082,3.287 -4.623,7.807 -4.623,13.56 0,5.856 1.592,10.376 4.777,13.56 3.185,3.082 7.551,4.623 13.098,4.623 3.287,0 6.267,-0.462 8.938,-1.387 2.671,-0.924 5.393,-2.208 8.167,-3.852 1.438,-0.822 2.465,-1.233 3.082,-1.233 0.924,0 1.746,0.719 2.465,2.158 l 6.934,11.865 c 0.514,1.027 0.771,1.849 0.771,2.465 0,0.925 -0.617,1.798 -1.849,2.62 -4.315,2.774 -9.041,4.828 -14.177,6.164 -5.034,1.438 -11.095,2.157 -18.183,2.157 z m 73.279,0 c -9.657,0 -17.413,-3.082 -23.268,-9.245 -5.753,-6.267 -8.63,-15.05 -8.63,-26.351 0,-8.629 1.952,-16.18 5.856,-22.6519999 4.006,-6.472 9.605,-11.454 16.796,-14.9470001 7.294,-3.595 15.667,-5.393 25.118,-5.393 7.807,0 14.69,0.873 20.648,2.62 6.061,1.643 11.609,4.0570001 16.643,7.2420001 V 55.871803 c 0,1.952 -0.36,3.236 -1.079,3.852 -0.719,0.617 -2.157,0.925 -4.315,0.925 h -15.717 c -1.13,0 -2.004,-0.154 -2.62,-0.463 -0.616,-0.41 -1.13,-1.027 -1.541,-1.849 l -2.003,-4.622 c -2.979,3.184 -6.575,5.496 -10.787,6.934 -4.109,1.541 -9.143,2.311 -15.101,2.311 z m 11.557,-20.957 c 4.007,0 7.14,-0.976 9.4,-2.927 2.26,-1.952 3.39,-4.726 3.39,-8.322 V 6.7158031 c -1.952,-0.925 -4.417,-1.387 -7.397,-1.387 -5.444,0 -9.81,1.9 -13.098,5.7009999 -3.184,3.801 -4.777,9.143 -4.777,16.026 0,9.965 4.161,14.947 12.482,14.947 z m 138.402,12.79 c 0.719,0.822 1.079,1.747 1.079,2.774 0,0.924 -0.308,1.695 -0.925,2.311 -0.616,0.514 -1.438,0.771 -2.465,0.771 h -23.885 c -1.438,0 -2.517,-0.103 -3.236,-0.308 -0.616,-0.309 -1.284,-0.874 -2.003,-1.695 l -20.957,-28.508 v 22.806 c 0,2.671 -0.616,4.623 -1.849,5.856 -1.233,1.232 -3.339,1.849 -6.318,1.849 h -14.947 c -2.979,0 -5.085,-0.617 -6.318,-1.849 -1.13,-1.233 -1.695,-3.185 -1.695,-5.856 v -89.22 c 0,-2.672 0.616,-4.624 1.849,-5.856 1.233,-1.336 3.288,-2.004 6.164,-2.004 h 14.947 c 2.979,0 5.085,0.668 6.318,2.004 1.233,1.232 1.849,3.184 1.849,5.855 v 51.622 l 20.341,-26.504 c 0.616,-0.822 1.284,-1.387 2.003,-1.695 0.719,-0.309 1.798,-0.463 3.236,-0.463 h 23.885 c 1.027,0 1.797,0.309 2.311,0.925 0.616,0.514 0.925,1.233 0.925,2.157 0,1.0280001 -0.36,1.9520001 -1.079,2.7740001 l -26.35,30.2029999 z m 50.035,8.167 c -8.629,0 -16.334,-1.438 -23.114,-4.314 -6.677,-2.877 -11.968,-7.192 -15.872,-12.944 -3.903,-5.753 -5.855,-12.79 -5.855,-21.111 0,-13.047 3.698,-23.0119999 11.095,-29.8949999 7.396,-6.8830001 18.029,-10.3240001 31.897,-10.3240001 13.561,0 23.834,3.39 30.819,10.1700001 7.089,6.678 10.633,15.9749999 10.633,27.8909999 0,5.137 -2.26,7.705 -6.78,7.705 h -48.386 c 0,4.417 1.643,7.808 4.931,10.17 3.39,2.363 8.475,3.544 15.255,3.544 4.212,0 7.705,-0.359 10.479,-1.078 2.876,-0.822 5.753,-2.003 8.629,-3.544 1.233,-0.514 2.055,-0.771 2.465,-0.771 0.925,0 1.695,0.617 2.312,1.849 l 5.239,9.862 c 0.514,1.028 0.771,1.798 0.771,2.312 0,0.924 -0.617,1.798 -1.85,2.619 -4.211,2.774 -8.988,4.777 -14.33,6.01 -5.342,1.233 -11.455,1.849 -18.338,1.849 z m 11.866,-48.077 c 0,-3.904 -1.13,-6.9349999 -3.39,-9.0919999 -2.26,-2.157 -5.651,-3.236 -10.171,-3.236 -4.52,0 -7.961,1.13 -10.324,3.39 -2.363,2.158 -3.544,5.1369999 -3.544,8.9379999 z m 80.553,48.077 c -8.63,0 -16.797,-0.873 -24.501,-2.619 -7.705,-1.85 -13.92,-4.418 -18.646,-7.705 -1.746,-1.13 -2.619,-2.312 -2.619,-3.544 0,-0.822 0.308,-1.695 0.924,-2.62 l 7.551,-12.019 c 0.822,-1.233 1.643,-1.849 2.465,-1.849 0.514,0 1.387,0.359 2.62,1.078 3.801,2.158 8.115,3.904 12.944,5.239 4.828,1.336 9.605,2.004 14.331,2.004 4.828,0 8.372,-0.719 10.632,-2.158 2.363,-1.438 3.544,-3.749 3.544,-6.934 0,-3.082 -1.284,-5.496 -3.852,-7.242 -2.466,-1.747 -7.14,-3.955 -14.023,-6.626 -10.375,-3.904 -18.491,-8.2699999 -24.347,-13.0989999 -5.753,-4.92999998 -8.629,-11.608 -8.629,-20.0320001 0,-10.17 3.647,-17.926 10.941,-23.268 7.294,-5.343 17.001,-8.013 29.124,-8.013 8.423,0 15.615,0.77 21.573,2.311 6.061,1.439 11.197,3.699 15.409,6.78 1.747,1.336 2.62,2.569 2.62,3.699 0,0.719 -0.308,1.54 -0.925,2.465 l -7.55,12.02 c -0.925,1.232 -1.747,1.849 -2.466,1.849 -0.513,0 -1.387,-0.36 -2.619,-1.079 -5.959,-3.904 -13.047,-5.855 -21.265,-5.855 -4.418,0 -7.808,0.719 -10.171,2.157 -2.362,1.438 -3.544,3.801 -3.544,7.088 0,2.26 0.617,4.11 1.849,5.5480001 1.233,1.438 2.877,2.722 4.931,3.852 2.158,1.027 5.445,2.363 9.862,4.007 l 2.928,1.07800002 c 7.602,2.97999998 13.561,5.85599998 17.875,8.62999998 4.418,2.6699999 7.756,6.0089999 10.016,10.0159999 2.26,3.903 3.39,8.834 3.39,14.793 0,9.143 -3.441,16.437 -10.324,21.881 -6.78,5.445 -16.796,8.167 -30.048,8.167 z m 73.113,-2.311 c -1.54,0 -2.72,-0.257 -3.544,-0.771 -0.822,-0.513 -1.439,-1.541 -1.85,-3.082 l -19.878,-66.5689999 c -0.205,-0.6160001 -0.308,-1.0780001 -0.308,-1.3860001 0,-1.438 1.027,-2.158 3.082,-2.158 h 20.338 c 1.34,0 2.31,0.257 2.93,0.77 0.62,0.412 1.03,1.13 1.23,2.158 l 8.32001,34.98 10.48,-28.1999999 c 0.52,-1.232 1.03,-2.054 1.54,-2.465 0.62,-0.514 1.65,-0.77 3.09,-0.77 h 9.7 c 1.44,0 2.42,0.256 2.93,0.77 0.62,0.41 1.18,1.233 1.7,2.465 l 10.32,28.1999999 8.48,-34.98 c 0.3,-1.027 0.71,-1.746 1.23,-2.157 0.51,-0.514 1.44,-0.77 2.77,-0.77 h 20.5 c 2.05,0 3.08,0.719 3.08,2.157 0,0.308 -0.1,0.77 -0.31,1.3860001 l -20.03,66.5689999 c -0.41,1.541 -1.03,2.569 -1.85,3.082 -0.72,0.514 -1.85,0.771 -3.39,0.771 h -15.1 c -1.44,0 -2.52,-0.257 -3.24,-0.771 -0.72,-0.616 -1.33,-1.643 -1.85,-3.082 l -10.17,-27.891 -10.17,27.891 c -0.41,1.439 -1.03,2.466 -1.85,3.082 -0.72,0.514 -1.79,0.771 -3.23,0.771 z m 125.20001,2.311 c -9.66,0 -17.41,-3.082 -23.27,-9.245 -5.75,-6.267 -8.63,-15.05 -8.63,-26.351 0,-8.629 1.95,-16.18 5.86,-22.6519999 4,-6.472 9.6,-11.454 16.79,-14.9470001 7.3,-3.595 15.67,-5.393 25.12,-5.393 7.81,0 14.69,0.873 20.65,2.62 6.06,1.643 11.61,4.0570001 16.64,7.2420001 V 55.871803 c 0,1.952 -0.36,3.236 -1.08,3.852 -0.72,0.617 -2.15,0.925 -4.31,0.925 h -15.72 c -1.13,0 -2,-0.154 -2.62,-0.463 -0.62,-0.41 -1.13,-1.027 -1.54,-1.849 l -2,-4.622 c -2.98,3.184 -6.58,5.496 -10.79,6.934 -4.11,1.541 -9.14,2.311 -15.1,2.311 z m 11.56,-20.957 c 4,0 7.14,-0.976 9.4,-2.927 2.26,-1.952 3.39,-4.726 3.39,-8.322 V 6.7158031 c -1.96,-0.925 -4.42,-1.387 -7.4,-1.387 -5.45,0 -9.81,1.9 -13.1,5.7009999 -3.18,3.801 -4.78,9.143 -4.78,16.026 0,9.965 4.17,14.947 12.49,14.947 z m 62.89,49.773 c -2.98,0 -5.08,-0.616 -6.32,-1.849 -1.13,-1.233 -1.69,-3.185 -1.69,-5.856 V -4.2251969 c 4.62,-3.287 10.43,-6.0100001 17.41,-8.1670001 6.99,-2.157 14.28,-3.236 21.88,-3.236 31.03,0 46.54,13.1500001 46.54,39.448 0,11.917 -3.29,21.419 -9.86,28.508 -6.58,7.088 -15.87,10.632 -27.89,10.632 -3.39,0 -6.68,-0.411 -9.87,-1.233 -3.08,-0.821 -5.65,-1.951 -7.7,-3.39 v 25.734 c 0,2.671 -0.62,4.623 -1.85,5.856 -1.23,1.233 -3.34,1.849 -6.32,1.849 z m 33.44,-49.619 c 4.42,0 7.71,-1.643 9.86,-4.931 2.26,-3.39 3.39,-7.91 3.39,-13.56 0,-6.677 -1.33,-11.352 -4,-14.0229999 -2.57,-2.773 -6.58,-4.16 -12.02,-4.16 -3.5,0 -6.27,0.462 -8.32,1.387 V 31.370803 c 0,3.493 0.97,6.164 2.92,8.013 1.96,1.849 4.68,2.773 8.17,2.773 z"
     id="path2-3"
     style="fill:#ffffff;fill-opacity:1" />
  <path
     fill-rule="evenodd"
     clip-rule="evenodd"
     d="m 91.980892,106.1598 c -29.192,-0.022 -52.708,-7.026997 -69.138,-19.608997 -16.627,-12.733 -25.448,-30.803 -25.448,-51.25 0,-19.701 8.801,-33.9069999 18.76,-43.5099999 7.805,-7.5250001 16.417,-12.3440001 22.414,-15.1170001 -1.356,-4.162 -3.048,-9.61 -4.562,-15.238 -2.025,-7.53 -4.012,-16.366 -4.012,-22.84 0,-7.663 1.67,-15.36 6.175,-21.34 4.76,-6.318 11.926,-9.703 20.546,-9.703 6.737,0 12.457,2.499 16.934,6.81 4.28,4.12 7.13,9.593 9.097,15.298 3.456,10.024 4.802,22.618 5.179,35.187 h 8.257 c 0.378,-12.569 1.723,-25.163 5.179998,-35.187 1.967,-5.705 4.815,-11.177 9.096,-15.298 4.478,-4.31 10.197,-6.81 16.934,-6.81 8.621,0 15.786,3.385 20.546,9.703 4.505,5.98 6.176,13.677 6.176,21.34 0,6.474 -1.988,15.31 -4.013,22.84 -1.514,5.628 -3.206,11.076 -4.562,15.238 5.997,2.773 14.61,7.592 22.414,15.1180001 9.959,9.602 18.76,23.8079999 18.76,43.5089999 0,20.447 -8.82,38.517 -25.448,51.25 -16.43,12.582 -39.946,19.586997 -69.137998,19.608997 z"
     fill="#633001"
     id="path4-6" />
  <path
     d="m 56.714892,-85.159197 c -12.625,0 -18.437,9.516 -18.437,22.675 0,10.46 6.753,31.408 9.523,39.563 0.624,1.835 -0.356,3.844 -2.142,4.555 -10.119,4.031 -39.981,18.78900012 -39.981,52.588 0,35.603 30.347,62.448 86.31,62.491 h 0.066 0.067 c 55.961998,-0.043 86.308998,-26.888 86.308998,-62.491 0,-33.79899988 -29.862,-48.557 -39.981,-52.588 -1.786,-0.71 -2.765,-2.72 -2.142,-4.555 2.771,-8.154 9.524,-29.103 9.524,-39.563 0,-13.16 -5.812,-22.675 -18.438,-22.675 -18.174,0 -22.705,26.007 -23.028,53.92 -0.021,1.863 -1.513,3.375 -3.357,3.375 H 83.100892 c -1.845,0 -3.336,-1.512 -3.358,-3.375 -0.323,-27.913 -4.853,-53.92 -23.028,-53.92 z"
     fill="#d1884f"
     id="path6-7" />
  <path
     d="m 92.120892,85.307803 c -41.118,0 -86.372,-22.235 -86.443,-51.018 v 0.134 c 0,35.632 30.395,62.491 86.443,62.491 56.047998,0 86.442998,-26.859 86.442998,-62.491 v -0.134 c -0.071,28.783 -45.325,51.018 -86.442998,51.018 z"
     fill="#fedc90"
     id="path8-5" />
  <path
     class="eye"
     d="m 69.274892,25.448803 c 0,9.718 -4.546,14.779 -10.154,14.779 -5.608,0 -10.154,-5.061 -10.154,-14.779 0,-9.718 4.546,-14.779 10.154,-14.779 5.608,0 10.154,5.061 10.154,14.779 z m 66.000998,0 c 0,9.718 -4.546,14.779 -10.154,14.779 -5.608,0 -10.154,-5.061 -10.154,-14.779 0,-9.718 4.546,-14.779 10.154,-14.779 5.608,0 10.154,5.061 10.154,14.779 z"
     fill="#633001"
     id="path10-3" />
</svg>
