<?xml version="1.0" encoding="UTF-8" standalone="no"?>
<svg
   width="162"
   height="31"
   viewBox="0 0 162 31"
   fill="none"
   version="1.1"
   id="svg8"
   sodipodi:docname="stealthex.svg"
   inkscape:version="1.1.2 (0a00cf5339, 2022-02-04)"
   xmlns:inkscape="http://www.inkscape.org/namespaces/inkscape"
   xmlns:sodipodi="http://sodipodi.sourceforge.net/DTD/sodipodi-0.dtd"
   xmlns="http://www.w3.org/2000/svg"
   xmlns:svg="http://www.w3.org/2000/svg">
  <defs
     id="defs12" />
  <sodipodi:namedview
     id="namedview10"
     pagecolor="#ffffff"
     bordercolor="#666666"
     borderopacity="1.0"
     inkscape:pageshadow="2"
     inkscape:pageopacity="0.0"
     inkscape:pagecheckerboard="0"
     showgrid="false"
     inkscape:zoom="7.7777778"
     inkscape:cx="81"
     inkscape:cy="15.492857"
     inkscape:window-width="3778"
     inkscape:window-height="1536"
     inkscape:window-x="0"
     inkscape:window-y="0"
     inkscape:window-maximized="1"
     inkscape:current-layer="svg8" />
  <path
     d="M161.12 14.5587L150.723 1.13084C150.452 0.770359 149.909 0.5 149.457 0.5H101.539V30.5H150C150.452 30.5 150.813 30.3198 151.084 29.9593L161.211 16.9919C161.663 16.271 161.663 15.2796 161.12 14.5587ZM124.232 25.1928H107.958V5.63683H123.871V10.5934H114.468V12.8464H122.786V17.6228H114.468V20.1461H124.232V25.1928ZM139.964 25.1928L136.619 19.9659L133.273 25.1928H125.769L132.821 15.3698L125.95 5.72695H133.364L136.709 10.6835L139.964 5.72695H147.106L140.326 15.1895L147.558 25.2829H139.964V25.1928Z"
     fill="#1E1E1E"
     id="path2" />
  <path
     fill-rule="evenodd"
     clip-rule="evenodd"
     d="M107.932 25.1928H124.206V20.1461H114.441V17.6228H122.759V12.8464H114.441V10.5934H123.844V5.63684H107.932V25.1928ZM136.592 19.9659L139.937 25.1928V25.283H147.532L140.299 15.1895L147.08 5.72696H139.937L136.682 10.6835L133.337 5.72696H125.923L132.795 15.3698L125.743 25.1928H133.247L136.592 19.9659Z"
     fill="white"
     id="path4" />
  <path
     opacity="0.95"
     fill-rule="evenodd"
     clip-rule="evenodd"
     d="m 4.5441928,19.0016 c 0.13624,0.9829 0.40384,1.7176 0.80281,2.2041 0.72988,0.8856 1.98032,1.3284 3.75141,1.3284 1.0607202,0 1.9220102,-0.1168 2.5837102,-0.3503 1.2553,-0.4477 1.8831,-1.2797 1.8831,-2.4961 0,-0.7105 -0.3115,-1.2602 -0.9343,-1.6495 -0.6228,-0.3795 -1.6008,-0.7152 -2.9340002,-1.0072 l -2.27714,-0.5109 c -2.23824,-0.506 -3.7855,-1.0559 -4.64186,-1.6495 -1.45,-0.9926 -2.17500003,-2.5448 -2.17500003,-4.6564 0,-1.92689 0.70066003,-3.52763 2.10199003,-4.80248 1.40133,-1.27478 3.45948,-1.91221 6.17456,-1.91221 2.2674502,0 4.2015502,0.60089 5.8020502,1.80274 1.6009,1.20185 2.4403,2.94615 2.5184,5.23305 h -4.3208 c -0.0779,-1.29429 -0.6423,-2.21389 -1.6933,-2.75886 -0.7007,-0.36006 -1.5715902,-0.54009 -2.6128602,-0.54009 -1.15806,0 -2.08254,0.23357 -2.77345,0.70066 -0.69097,0.46709 -1.03639,1.11909 -1.03639,1.95599 0,0.7688 0.34061,1.343 1.02175,1.7225 0.43794,0.253 1.37212,0.5498 2.80266,0.8904 l 3.7076902,0.8904 c 1.6249,0.3893 2.8513,0.9099 3.6783,1.5619 1.285,1.0121 1.9272,2.4766 1.9272,4.3937 0,1.9657 -0.7517,3.5982 -2.2556,4.8973 -1.5033,1.2992 -3.6273,1.9488 -6.3714902,1.9488 -2.80266,0 -5.00681,-0.6399 -6.6125,-1.9196 -1.605698,-1.2796 -2.40851003,-3.0386 -2.40851003,-5.2768 z m 14.7140302,-6.16 V 9.87843 h 2.2187 v -4.4375 h 4.1165 v 4.4375 h 2.5833 v 2.96317 h -2.5833 v 8.4079 c 0,0.652 0.0823,1.0583 0.2475,1.2189 0.166,0.1605 0.6715,0.2409 1.5186,0.2409 0.1262,0 0.2601,-0.0025 0.401,-0.0073 0.1415,-0.0049 0.2803,-0.0123 0.4162,-0.0219 v 3.1091 l -1.9704,0.073 c -1.9656,0.0682 -3.3085,-0.2725 -4.0287,-1.0218 -0.4672,-0.4768 -0.7007,-1.2115 -0.7007,-2.2041 v -9.7947 z m 17.8663,-0.1021 c -0.9629,0 -1.7103,0.3017 -2.2402,0.905 -0.5307,0.6033 -0.8639,1.4208 -0.9999,2.4523 h 6.4663 c -0.0683,-1.0997 -0.4016,-1.9341 -0.9999,-2.5034 -0.5982,-0.5693 -1.3408,-0.8539 -2.2263,-0.8539 z m 0,-3.43037 c 1.3234,0 2.5157,0.24815 3.5762,0.74447 1.0612,0.4963 1.937,1.2796 2.6279,2.3501 0.6227,0.944 1.0264,2.0387 1.2112,3.2843 0.1073,0.7299 0.1512,1.7809 0.1317,3.153 h -10.8896 c 0.0586,1.5959 0.5599,2.7151 1.504,3.3573 0.5738,0.3991 1.2648,0.5985 2.0722,0.5985 0.8569,0 1.5521,-0.2433 2.0876,-0.7298 0.2921,-0.2628 0.5501,-0.6277 0.7739,-1.0948 h 4.2476 c -0.1073,0.944 -0.5989,1.9025 -1.4746,2.8756 -1.3625,1.5473 -3.2694,2.3209 -5.7217,2.3209 -2.0241,0 -3.8097,-0.652 -5.3576,-1.956 -1.5472,-1.3039 -2.3205,-3.4254 -2.3205,-6.3643 0,-2.754 0.698,-4.8657 2.0946,-6.3351 1.3966,-1.4695 3.2087,-2.20417 5.4371,-2.20417 z m 19.1221,8.59767 c -0.2622,0.1654 -0.5279,0.2992 -0.7949,0.4014 -0.2677,0.1022 -0.6352,0.1971 -1.1024,0.2847 l -0.9343,0.1751 c -0.8757,0.1558 -1.5032,0.3455 -1.8832,0.5693 -0.6422,0.3795 -0.9629,0.9683 -0.9629,1.7663 0,0.7103 0.1966,1.2236 0.5912,1.5399 0.394,0.3163 0.873,0.4744 1.4378,0.4744 0.8952,0 1.7201,-0.2627 2.4738,-0.7882 0.7544,-0.5255 1.1463,-1.484 1.1749,-2.8756 z m -2.5248,-1.9414 c 0.7684,-0.0973 1.3185,-0.2189 1.649,-0.3649 0.5941,-0.2531 0.8904,-0.6471 0.8904,-1.1824 0,-0.652 -0.2259,-1.1021 -0.6784,-1.3502 -0.4525,-0.2482 -1.117,-0.3722 -1.9928,-0.3722 -0.9824,0 -1.6782,0.2432 -2.0868,0.7298 -0.2922,0.3601 -0.4867,0.8466 -0.5843,1.4597 h -4.0141 c 0.0879,-1.3916 0.4769,-2.535 1.1679,-3.4303 1.0996,-1.4013 2.987,-2.10199 5.6638,-2.10199 1.7417,0 3.2889,0.34549 4.6416,1.03639 1.3526,0.691 2.0289,1.995 2.0289,3.9121 v 7.2985 c 0,0.506 0.0098,1.1191 0.0293,1.8392 0.0293,0.545 0.1116,0.9148 0.2482,1.1094 0.136,0.1946 0.3403,0.3552 0.6129,0.4817 v 0.613 h -4.5251 c -0.1262,-0.3211 -0.2141,-0.6228 -0.2629,-0.905 -0.0481,-0.2822 -0.0871,-0.6033 -0.1164,-0.9634 -0.5745,0.6229 -1.2362,1.1532 -1.9851,1.5911 -0.8953,0.5158 -1.9077,0.7736 -3.0365,0.7736 -1.4398,0 -2.63,-0.4111 -3.5692,-1.2334 -0.9385,-0.8223 -1.4085,-1.9877 -1.4085,-3.496 0,-1.956 0.7545,-3.3719 2.2626,-4.2477 0.8276,-0.4769 2.0436,-0.8175 3.6494,-1.0218 z m 14.6262,9.6778 h -4.1605 V 4.12717 h 4.1605 z m 2.423,-12.8016 V 9.87843 h 2.2186 v -4.4375 h 4.1166 v 4.4375 h 2.5833 v 2.96317 h -2.5833 v 8.4079 c 0,0.652 0.0829,1.0583 0.2482,1.2189 0.1652,0.1605 0.6714,0.2409 1.5179,0.2409 0.1269,0 0.2601,-0.0025 0.4016,-0.0073 0.1408,-0.0049 0.2796,-0.0123 0.4156,-0.0219 v 3.1091 l -1.9705,0.073 c -1.9655,0.0682 -3.3084,-0.2725 -4.0287,-1.0218 -0.4671,-0.4768 -0.7007,-1.2115 -0.7007,-2.2041 v -9.7947 z m 20.3631,-3.51783 c 0.9824,0 1.8756,0.17027 2.6781,0.51087 0.8033,0.34056 1.4622,0.86126 1.9781,1.56196 0.4379,0.5935 0.7056,1.2042 0.8026,1.8318 0.0976,0.6277 0.1464,1.652 0.1464,3.0727 v 9.3421 h -4.2477 v -9.6778 c 0,-0.8563 -0.1464,-1.5473 -0.4378,-2.0728 -0.38,-0.7395 -1.1003,-1.1094 -2.1608,-1.1094 -1.0996,0 -1.9342,0.3674 -2.5031,1.1021 -0.5697,0.7348 -0.8542,1.7833 -0.8542,3.1457 v 8.6122 h -4.1458 V 4.20018 h 4.1458 v 7.60502 c 0.6032,-0.9245 1.3018,-1.5692 2.0946,-1.93409 0.7935,-0.36494 1.6281,-0.54734 2.5038,-0.54734 z"
     fill="#1e1e1e"
     id="path6"
     style="fill:#fde937;fill-opacity:1" />
</svg>
