<svg data-v-0c3e2d3e="" data-v-78de114a="" fill="none" height="25" viewBox="0 0 224 25" width="224" xmlns="http://www.w3.org/2000/svg" class="logo"><path data-v-0c3e2d3e="" clip-rule="evenodd" d="M25 12.5C25 19.4036 19.4036 25 12.5 25C5.59644 25 0 19.4036 0 12.5C0 5.59644 5.59644 0 12.5 0C19.4036 0 25 5.59644 25 12.5ZM20 7.41942C20 8.3102 19.2779 9.03233 18.3871 9.03233C17.4963 9.03233 16.7742 8.3102 16.7742 7.41942C16.7742 6.52864 17.4963 5.80652 18.3871 5.80652C19.2779 5.80652 20 6.52864 20 7.41942ZM12.4195 7.41931C14.0229 7.41931 15.3227 6.55276 15.3227 5.48382C15.3227 4.41489 14.0229 3.54834 12.4195 3.54834C10.8161 3.54834 9.51623 4.41489 9.51623 5.48382C9.51623 6.55276 10.8161 7.41931 12.4195 7.41931Z" fill="#FBFF2D" fill-rule="evenodd"></path> <path data-v-0c3e2d3e="" d="M141.73 18.715C141.73 17.4034 141.27 16.3682 140.35 15.6095C139.429 14.8399 137.746 14.1137 135.299 13.4308C132.853 12.7371 131.067 11.9837 129.941 11.1708C128.339 10.0218 127.537 8.51513 127.537 6.65076C127.537 4.84058 128.279 3.37185 129.762 2.24455C131.256 1.10642 133.161 0.537354 135.478 0.537354C137.048 0.537354 138.45 0.840856 139.684 1.44786C140.929 2.05486 141.892 2.90034 142.574 3.98427C143.256 5.06821 143.597 6.2768 143.597 7.61004H141.584C141.584 5.99497 141.032 4.69967 139.927 3.72413C138.823 2.73774 137.34 2.24455 135.478 2.24455C133.67 2.24455 132.23 2.65103 131.159 3.46398C130.087 4.2661 129.551 5.31751 129.551 6.61824C129.551 7.82141 130.033 8.80237 130.996 9.56113C131.96 10.3199 133.502 10.9919 135.624 11.5772C137.746 12.1517 139.354 12.7533 140.447 13.382C141.54 13.9998 142.363 14.7423 142.915 15.6095C143.467 16.4766 143.743 17.501 143.743 18.6825C143.743 20.5468 142.996 22.0427 141.503 23.1699C140.019 24.2972 138.06 24.8609 135.624 24.8609C133.957 24.8609 132.425 24.5628 131.029 23.9666C129.643 23.3705 128.588 22.5358 127.862 21.4627C127.148 20.3897 126.791 19.1594 126.791 17.7719H128.788C128.788 19.4412 129.41 20.7582 130.655 21.7229C131.9 22.6876 133.557 23.1699 135.624 23.1699C137.465 23.1699 138.942 22.7635 140.057 21.9505C141.172 21.1376 141.73 20.0591 141.73 18.715Z" fill="#FBFF2D"></path> <path data-v-0c3e2d3e="" d="M150.06 14.8941V24.5357H148.063V0.862534H156.117C158.574 0.862534 160.512 1.49122 161.93 2.74858C163.359 4.00595 164.074 5.73483 164.074 7.93522C164.074 10.1573 163.386 11.8753 162.012 13.0893C160.648 14.2925 158.666 14.8941 156.068 14.8941H150.06ZM150.06 13.2032H156.117C158.055 13.2032 159.533 12.7425 160.55 11.8211C161.568 10.8998 162.077 9.61532 162.077 7.96774C162.077 6.33099 161.568 5.03027 160.55 4.06557C159.543 3.09002 158.109 2.59141 156.247 2.56973H150.06V13.2032Z" fill="#FBFF2D"></path> <path data-v-0c3e2d3e="" d="M179.078 17.902H168.345L165.909 24.5357H163.814L172.761 0.862534H174.661L183.609 24.5357H181.53L179.078 17.902ZM168.962 16.1948H178.445L173.703 3.30139L168.962 16.1948Z" fill="#FBFF2D"></path> <path data-v-0c3e2d3e="" d="M203.647 17.1541C203.376 19.6472 202.483 21.5549 200.967 22.8773C199.463 24.1997 197.455 24.8609 194.943 24.8609C193.189 24.8609 191.636 24.4219 190.283 23.5439C188.94 22.6659 187.901 21.4248 187.165 19.8206C186.429 18.2055 186.055 16.3628 186.044 14.2925V11.2195C186.044 9.11671 186.412 7.25234 187.149 5.62644C187.885 4.00053 188.94 2.74858 190.315 1.8706C191.701 0.981768 193.292 0.537354 195.089 0.537354C197.622 0.537354 199.62 1.22565 201.081 2.60225C202.553 3.96801 203.409 5.85948 203.647 8.27666H201.633C201.135 4.25526 198.954 2.24455 195.089 2.24455C192.946 2.24455 191.235 3.04667 189.958 4.65089C188.691 6.25512 188.058 8.47177 188.058 11.3008V14.195C188.058 16.9265 188.675 19.1052 189.909 20.7311C191.154 22.357 192.832 23.1699 194.943 23.1699C197.032 23.1699 198.608 22.6713 199.668 21.6741C200.729 20.6661 201.384 19.1594 201.633 17.1541H203.647Z" fill="#FBFF2D"></path> <path data-v-0c3e2d3e="" d="M221.558 13.1869H210.499V22.8448H223.214V24.5357H208.502V0.862534H223.133V2.56973H210.499V11.496H221.558V13.1869Z" fill="#FBFF2D"></path> <path data-v-0c3e2d3e="" d="M141.73 18.715C141.73 17.4034 141.27 16.3682 140.35 15.6095C139.429 14.8399 137.746 14.1137 135.299 13.4308C132.853 12.7371 131.067 11.9837 129.941 11.1708C128.339 10.0218 127.537 8.51513 127.537 6.65076C127.537 4.84058 128.279 3.37185 129.762 2.24455C131.256 1.10642 133.161 0.537354 135.478 0.537354C137.048 0.537354 138.45 0.840856 139.684 1.44786C140.929 2.05486 141.892 2.90034 142.574 3.98427C143.256 5.06821 143.597 6.2768 143.597 7.61004H141.584C141.584 5.99497 141.032 4.69967 139.927 3.72413C138.823 2.73774 137.34 2.24455 135.478 2.24455C133.67 2.24455 132.23 2.65103 131.159 3.46398C130.087 4.2661 129.551 5.31751 129.551 6.61824C129.551 7.82141 130.033 8.80237 130.996 9.56113C131.96 10.3199 133.502 10.9919 135.624 11.5772C137.746 12.1517 139.354 12.7533 140.447 13.382C141.54 13.9998 142.363 14.7423 142.915 15.6095C143.467 16.4766 143.743 17.501 143.743 18.6825C143.743 20.5468 142.996 22.0427 141.503 23.1699C140.019 24.2972 138.06 24.8609 135.624 24.8609C133.957 24.8609 132.425 24.5628 131.029 23.9666C129.643 23.3705 128.588 22.5358 127.862 21.4627C127.148 20.3897 126.791 19.1594 126.791 17.7719H128.788C128.788 19.4412 129.41 20.7582 130.655 21.7229C131.9 22.6876 133.557 23.1699 135.624 23.1699C137.465 23.1699 138.942 22.7635 140.057 21.9505C141.172 21.1376 141.73 20.0591 141.73 18.715Z" fill="#FBFF2D"></path> <path data-v-0c3e2d3e="" d="M47.044 18.3248C47.044 17.4034 46.7192 16.6988 46.0697 16.2111C45.4202 15.7125 44.251 15.1922 42.5622 14.6502C40.8734 14.0974 39.5364 13.5554 38.5513 13.0243C35.8666 11.5718 34.5242 9.61532 34.5242 7.15479C34.5242 5.87574 34.8814 4.73761 35.5959 3.74039C36.3212 2.73233 37.3551 1.94647 38.6975 1.38282C40.0507 0.819177 41.5662 0.537354 43.2442 0.537354C44.933 0.537354 46.4378 0.846275 47.7585 1.46412C49.0792 2.07112 50.1022 2.93285 50.8275 4.04931C51.5637 5.16576 51.9317 6.43397 51.9317 7.85393H47.0602C47.0602 6.76999 46.7192 5.92994 46.0372 5.33377C45.3552 4.72677 44.3971 4.42327 43.163 4.42327C41.9722 4.42327 41.0466 4.67799 40.3862 5.18744C39.7259 5.68605 39.3957 6.34725 39.3957 7.17105C39.3957 7.94064 39.78 8.58558 40.5486 9.10587C41.3281 9.62616 42.4702 10.1139 43.9749 10.5692C46.7463 11.4038 48.7653 12.439 50.0319 13.6747C51.2985 14.9104 51.9317 16.4495 51.9317 18.2922C51.9317 20.3409 51.1577 21.9505 49.6097 23.1212C48.0616 24.281 45.9777 24.8609 43.3579 24.8609C41.5392 24.8609 39.8829 24.5303 38.3889 23.8691C36.895 23.197 35.7529 22.2811 34.9626 21.1213C34.1832 19.9615 33.7935 18.6174 33.7935 17.0891H38.6812C38.6812 19.7014 40.2401 21.0075 43.3579 21.0075C44.5162 21.0075 45.4202 20.7745 46.0697 20.3084C46.7192 19.8314 47.044 19.1702 47.044 18.3248Z" fill="white"></path> <path data-v-0c3e2d3e="" d="M73.6587 17.7069L76.8414 0.862534H81.6967L76.4517 24.5357H71.5477L67.6992 8.6994L63.8507 24.5357H58.9467L53.7017 0.862534H58.557L61.756 17.6744L65.6532 0.862534H69.7777L73.6587 17.7069Z" fill="white"></path> <path data-v-0c3e2d3e="" d="M96.9771 19.658H88.4357L86.8118 24.5357H81.6318L90.433 0.862534H94.9473L103.797 24.5357H98.6171L96.9771 19.658ZM89.751 15.707H95.6618L92.6901 6.84586L89.751 15.707Z" fill="white"></path> <path data-v-0c3e2d3e="" d="M110.877 16.1948V24.5357H106.006V0.862534H115.229C117.004 0.862534 118.563 1.18772 119.906 1.83808C121.259 2.48844 122.298 3.41521 123.023 4.61837C123.749 5.81071 124.111 7.17105 124.111 8.6994C124.111 11.019 123.316 12.8509 121.724 14.195C120.144 15.5282 117.952 16.1948 115.148 16.1948H110.877ZM110.877 12.2439H115.229C116.517 12.2439 117.497 11.9404 118.168 11.3334C118.85 10.7264 119.191 9.85921 119.191 8.73191C119.191 7.5721 118.85 6.6345 118.168 5.9191C117.486 5.2037 116.544 4.83516 115.343 4.81348H110.877V12.2439Z" fill="white"></path> <path data-v-0c3e2d3e="" d="M47.044 18.3248C47.044 17.4034 46.7192 16.6988 46.0697 16.2111C45.4202 15.7125 44.251 15.1922 42.5622 14.6502C40.8734 14.0974 39.5364 13.5554 38.5513 13.0243C35.8666 11.5718 34.5242 9.61532 34.5242 7.15479C34.5242 5.87574 34.8814 4.73761 35.5959 3.74039C36.3212 2.73233 37.3551 1.94647 38.6975 1.38282C40.0507 0.819177 41.5662 0.537354 43.2442 0.537354C44.933 0.537354 46.4378 0.846275 47.7585 1.46412C49.0792 2.07112 50.1022 2.93285 50.8275 4.04931C51.5637 5.16576 51.9317 6.43397 51.9317 7.85393H47.0602C47.0602 6.76999 46.7192 5.92994 46.0372 5.33377C45.3552 4.72677 44.3971 4.42327 43.163 4.42327C41.9722 4.42327 41.0466 4.67799 40.3862 5.18744C39.7259 5.68605 39.3957 6.34725 39.3957 7.17105C39.3957 7.94064 39.78 8.58558 40.5486 9.10587C41.3281 9.62616 42.4702 10.1139 43.9749 10.5692C46.7463 11.4038 48.7653 12.439 50.0319 13.6747C51.2985 14.9104 51.9317 16.4495 51.9317 18.2922C51.9317 20.3409 51.1577 21.9505 49.6097 23.1212C48.0616 24.281 45.9777 24.8609 43.3579 24.8609C41.5392 24.8609 39.8829 24.5303 38.3889 23.8691C36.895 23.197 35.7529 22.2811 34.9626 21.1213C34.1832 19.9615 33.7935 18.6174 33.7935 17.0891H38.6812C38.6812 19.7014 40.2401 21.0075 43.3579 21.0075C44.5162 21.0075 45.4202 20.7745 46.0697 20.3084C46.7192 19.8314 47.044 19.1702 47.044 18.3248Z" fill="white"></path> <path data-v-0c3e2d3e="" d="M73.6587 17.7069L76.8414 0.862534H81.6967L76.4517 24.5357H71.5477L67.6992 8.6994L63.8507 24.5357H58.9467L53.7017 0.862534H58.557L61.756 17.6744L65.6532 0.862534H69.7777L73.6587 17.7069Z" fill="white"></path> <path data-v-0c3e2d3e="" d="M96.9771 19.658H88.4357L86.8118 24.5357H81.6318L90.433 0.862534H94.9473L103.797 24.5357H98.6171L96.9771 19.658ZM89.751 15.707H95.6618L92.6901 6.84586L89.751 15.707Z" fill="white"></path> <path data-v-0c3e2d3e="" d="M110.877 16.1948V24.5357H106.006V0.862534H115.229C117.004 0.862534 118.563 1.18772 119.906 1.83808C121.259 2.48844 122.298 3.41521 123.023 4.61837C123.749 5.81071 124.111 7.17105 124.111 8.6994C124.111 11.019 123.316 12.8509 121.724 14.195C120.144 15.5282 117.952 16.1948 115.148 16.1948H110.877ZM110.877 12.2439H115.229C116.517 12.2439 117.497 11.9404 118.168 11.3334C118.85 10.7264 119.191 9.85921 119.191 8.73191C119.191 7.5721 118.85 6.6345 118.168 5.9191C117.486 5.2037 116.544 4.83516 115.343 4.81348H110.877V12.2439Z" fill="white"></path></svg>
