<?xml version="1.0" encoding="UTF-8" standalone="no"?>
<!-- Created with Inkscape (http://www.inkscape.org/) -->

<svg
   width="136.24846mm"
   height="23.183113mm"
   viewBox="0 0 136.24846 23.183113"
   version="1.1"
   id="svg5"
   inkscape:version="1.1.2 (0a00cf5339, 2022-02-04)"
   sodipodi:docname="swapzone.svg"
   xmlns:inkscape="http://www.inkscape.org/namespaces/inkscape"
   xmlns:sodipodi="http://sodipodi.sourceforge.net/DTD/sodipodi-0.dtd"
   xmlns="http://www.w3.org/2000/svg"
   xmlns:svg="http://www.w3.org/2000/svg">
  <sodipodi:namedview
     id="namedview7"
     pagecolor="#ffffff"
     bordercolor="#666666"
     borderopacity="1.0"
     inkscape:pageshadow="2"
     inkscape:pageopacity="0.0"
     inkscape:pagecheckerboard="0"
     inkscape:document-units="mm"
     showgrid="false"
     fit-margin-top="0"
     fit-margin-left="0"
     fit-margin-right="0"
     fit-margin-bottom="0"
     inkscape:zoom="1.5554293"
     inkscape:cx="269.37901"
     inkscape:cy="106.40149"
     inkscape:window-width="2328"
     inkscape:window-height="1082"
     inkscape:window-x="26"
     inkscape:window-y="23"
     inkscape:window-maximized="0"
     inkscape:current-layer="layer1" />
  <defs
     id="defs2" />
  <g
     inkscape:label="Layer 1"
     inkscape:groupmode="layer"
     id="layer1"
     transform="translate(-33.790514,-120.26383)">
    <path
       id="path9112"
       style="fill:#e7168c;fill-opacity:1;stroke-width:0.264583"
       d="m 70.682247,122.95983 c -1.838263,-0.0211 -3.665496,0.26753 -4.803324,0.79685 -1.312463,0.61055 -2.069136,2.06497 -2.057756,3.95635 0.01139,1.89457 0.585709,3.1244 1.736845,3.71967 0.532146,0.27519 1.836665,0.47117 3.765661,0.56637 2.698273,0.13317 3.014205,0.20402 3.679362,0.82372 1.292262,1.20394 0.865133,3.25854 -0.862996,4.1522 -0.997198,0.51518 -4.423111,0.5143 -6.346899,-0.002 -0.800364,-0.21483 -1.484974,-0.39178 -1.521355,-0.39378 -0.03638,-0.002 -0.06614,0.45963 -0.06614,1.02475 0,0.90148 0.08923,1.04884 0.727604,1.20457 0.400183,0.0976 1.144323,0.284 1.653646,0.41393 v 5.2e-4 c 0.509323,0.12995 2.008382,0.2006 3.331579,0.15709 2.061549,-0.0679 2.609698,-0.18899 3.830774,-0.84594 1.869044,-1.00555 2.135119,-1.56554 2.041219,-4.29741 -0.07186,-2.09058 -0.118253,-2.24305 -0.869714,-2.86184 -1.189035,-0.97909 -1.843656,-1.16265 -4.751131,-1.33119 -1.461241,-0.0847 -2.870997,-0.26394 -3.132626,-0.39842 -0.678754,-0.34891 -1.035505,-1.47959 -0.837158,-2.65359 0.259276,-1.53464 1.188715,-1.92625 4.488098,-1.89135 1.455208,0.0154 2.94349,0.1418 3.307292,0.2806 1.097015,0.41856 1.5875,0.15745 1.5875,-0.84439 0,-1.0308 -0.02891,-1.0444 -3.083533,-1.45004 -0.589995,-0.0784 -1.204189,-0.11959 -1.816943,-0.12661 z m 55.282933,4.09122 c -4.60541,0 -5.00729,0.11444 -4.82865,1.3746 0.0842,0.59417 0.1705,0.61179 3.32796,0.68419 1.79084,0.0411 3.24115,0.18573 3.24115,0.32298 0,0.13662 -1.48827,1.98903 -3.30729,4.11654 -2.75861,3.22646 -3.30729,4.01047 -3.30729,4.72633 0,0.47204 0.0792,0.93756 0.17621,1.03456 0.097,0.097 2.18061,0.17622 4.63021,0.17622 h 4.45399 v -1.05007 -1.05006 l -3.175,-0.0744 -3.175,-0.0744 1.52136,-1.85932 c 1.98032,-2.42101 2.21429,-2.69943 2.84427,-3.38325 1.24139,-1.34747 2.51354,-3.24972 2.51354,-3.75895 0,-1.0811 -0.42926,-1.18494 -4.91546,-1.18494 z m -47.311844,0.0295 c -0.105553,-0.002 -0.218757,0.004 -0.340547,0.0176 -0.96828,0.11137 -1.03946,0.60648 -0.402559,2.80241 0.284059,0.97939 0.717489,2.6142 0.963247,3.63285 0.833001,3.45268 1.341028,5.29058 1.554428,5.6224 0.23224,0.36112 1.214958,0.43802 1.637109,0.12816 0.36159,-0.26541 1.376484,-2.39633 1.604555,-3.36931 0.102327,-0.43657 0.449842,-1.44859 0.772562,-2.24896 0.32272,-0.80037 0.668211,-1.68475 0.767911,-1.96525 0.15608,-0.43908 0.230955,-0.45748 0.537435,-0.13229 0.195789,0.20774 0.562874,1.01639 0.815453,1.79679 0.252572,0.78041 0.622967,1.7329 0.823207,2.11666 0.200231,0.38377 0.364561,0.78257 0.365352,0.88625 9e-4,0.10369 0.248338,0.84782 0.549836,1.65365 0.51299,1.37113 0.604671,1.46503 1.42317,1.46503 0.481049,0 0.992592,-0.14883 1.136883,-0.33073 0.258368,-0.32574 0.66399,-1.96047 1.000971,-4.0349 0.09455,-0.58209 0.286885,-1.19731 0.427363,-1.36736 0.26534,-0.32117 1.293612,-4.75006 1.37201,-5.90868 0.04069,-0.60165 -0.0497,-0.66146 -1.00149,-0.66146 -1.18668,0 -0.937874,-0.59159 -2.110465,5.0152 -0.333359,1.59397 -0.725395,2.93778 -0.871265,2.98638 -0.145859,0.0486 -0.385691,-0.24338 -0.533299,-0.64905 -0.147601,-0.40566 -0.796187,-2.22623 -1.441257,-4.04524 -1.129548,-3.18517 -1.202722,-3.31017 -1.973522,-3.38687 -0.4402,-0.0438 -0.923396,0.0753 -1.073838,0.26458 -0.150428,0.18934 -0.844878,2.07058 -1.543058,4.18063 -0.69819,2.11005 -1.349023,3.93031 -1.446421,4.04471 -0.09741,0.11439 -0.379841,-0.8381 -0.627869,-2.11666 -0.248021,-1.27857 -0.558007,-2.68212 -0.688848,-3.11868 -0.130829,-0.43657 -0.317127,-1.2356 -0.413928,-1.77612 -0.187756,-1.04867 -0.544253,-1.48435 -1.283126,-1.50171 z m 68.679014,0.0527 c -0.16296,0.0192 -0.32221,0.0811 -0.45734,0.19327 -0.31328,0.26002 -0.38396,1.33357 -0.38396,5.82083 0,3.02622 0.0719,5.69038 0.1602,5.92057 h 5.2e-4 c 0.16298,0.42471 1.04009,0.55074 1.80196,0.25838 0.35749,-0.13719 0.41868,-0.78308 0.42168,-4.43177 l 0.003,-4.27157 0.96634,-0.62632 c 1.35063,-0.87537 2.65654,-0.98649 3.72381,-0.31729 l 0.85989,0.53898 v 4.21576 c 0,2.31857 0.0719,4.40364 0.1602,4.63383 0.10839,0.28245 0.49545,0.41858 1.19063,0.41858 h 1.03042 l -0.0202,-4.56407 c -0.0233,-5.29139 -0.23395,-6.20114 -1.58646,-6.85332 -2.04914,-0.98808 -2.69359,-1.05794 -4.36873,-0.47491 -2.60703,0.90737 -2.49132,0.89357 -2.49132,0.29972 0,-0.49313 -0.52193,-0.8183 -1.01079,-0.76067 z m -9.28781,0.0413 c -0.1957,0.009 -0.36916,0.0383 -0.51263,0.0904 -0.38404,0.13961 -1.21366,0.40887 -1.84381,0.59842 -0.87456,0.26307 -1.34423,0.63072 -1.98438,1.55235 -0.80663,1.1614 -0.83854,1.30801 -0.83354,3.853 0.005,2.31218 0.0842,2.77237 0.62839,3.64939 0.62106,1.00084 2.07945,1.94329 3.59978,2.32596 1.60152,0.4031 4.07806,-0.26121 5.38261,-1.44384 1.11773,-1.01327 1.46383,-2.01122 1.48054,-4.26693 0.0193,-2.61141 -0.16796,-3.31031 -1.20252,-4.48861 -0.88532,-1.00833 -3.34452,-1.93406 -4.71444,-1.87017 z m -25.20414,0.0341 c -0.79192,0.0246 -1.79943,0.19386 -3.55793,0.52451 -0.31004,0.0583 -0.63578,0.37534 -0.72398,0.70435 -0.22705,0.8475 -0.20747,14.62522 0.0212,14.85387 0.10395,0.10425 0.60996,0.15389 1.12448,0.11059 l 0.93586,-0.0791 0.0579,-2.0867 c 0.0321,-1.14773 0.10968,-2.13798 0.17208,-2.20038 0.0624,-0.0624 0.60308,0.0186 1.202,0.17983 1.7911,0.48229 4.12885,-0.16922 5.48442,-1.5291 0.96301,-0.96607 1.56042,-2.91778 1.51412,-4.94699 -0.0681,-2.98996 -1.15193,-4.40714 -3.9672,-5.18779 -0.89467,-0.24809 -1.471,-0.36778 -2.26291,-0.34313 z m 51.8976,0.0114 c -0.44301,0.0125 -0.89231,0.15624 -1.77353,0.44287 -1.54933,0.50394 -1.88309,0.733 -2.57814,1.7694 -0.74867,1.11634 -0.7984,1.34745 -0.7984,3.70417 0,2.29424 0.0631,2.61144 0.72709,3.63285 0.76072,1.17016 2.27657,2.13237 3.90312,2.47789 1.15928,0.24627 3.9058,0.0418 4.69635,-0.34934 0.42714,-0.21135 0.59531,-0.52779 0.59531,-1.11983 v -0.82475 l -1.94096,0.24598 c -1.06736,0.1353 -2.38198,0.16328 -2.92179,0.062 -1.30449,-0.24473 -2.55026,-1.3874 -2.62206,-2.40502 l -0.0558,-0.79375 4.0349,-0.0729 4.03489,-0.0729 v -1.60714 c 0,-1.68334 -0.47231,-3.03303 -1.33325,-3.81216 -0.27594,-0.24972 -1.27996,-0.66998 -2.23139,-0.9338 -0.85645,-0.23746 -1.29331,-0.35618 -1.73633,-0.34365 z m -65.373266,0.008 c -0.190577,0.0132 -0.362699,0.0408 -0.520898,0.0822 -0.497081,0.13007 -1.320544,0.33695 -1.829864,0.45992 -0.800169,0.1932 -0.93749,0.3431 -1.01079,1.10174 l -0.08527,0.87798 1.143601,-0.22479 c 0.628769,-0.12367 1.934393,-0.22531 2.901632,-0.22531 2.073825,0 2.871175,0.50754 2.872175,1.82728 l 5.2e-4,0.81855 -2.02106,-0.0879 c -4.183138,-0.18279 -6.166553,1.64988 -5.339732,4.93407 0.305519,1.21354 0.849717,1.71316 2.533176,2.32441 1.184312,0.43 2.690736,0.25308 4.151176,-0.48731 l 1.04437,-0.52969 0.55294,0.6935 c 0.30414,0.38142 0.75695,0.6935 1.00614,0.6935 0.41138,0 0.45321,-0.44977 0.45321,-4.88549 v -4.88549 l -0.78342,-0.89194 c -0.64556,-0.73526 -1.12636,-0.96755 -2.7342,-1.32085 -1.02448,-0.22511 -1.761983,-0.31397 -2.333708,-0.2744 z m 66.091056,1.95595 c 0.60081,0.002 0.84478,0.17351 1.39578,0.72451 0.48115,0.48116 0.80615,1.08068 0.80615,1.48776 v 0.68161 h -2.93935 -2.93884 l 0.17725,-0.7276 c 0.30074,-1.23488 1.26446,-1.97604 2.75487,-2.11925 0.3041,-0.0292 0.54387,-0.0477 0.74414,-0.047 z m -52.27174,0.0243 c 2.64185,0.0898 4.04426,2.00854 3.53105,5.04621 -0.12605,0.74611 -0.47724,1.40637 -1.05524,1.98437 -0.79184,0.79183 -0.9989,0.86371 -2.4138,0.83561 -2.73944,-0.0543 -2.66597,0.0853 -2.52336,-4.7842 l 0.0827,-2.83084 1.17254,-0.1757 c 0.42601,-0.0639 0.82872,-0.0883 1.20613,-0.0754 z m 25.15298,0.004 c 0.1397,0.004 0.28391,0.0138 0.43202,0.0305 1.0167,0.1146 1.39304,0.31803 2.09909,1.13481 0.79809,0.92323 0.86041,1.13225 0.86041,2.8913 0,1.75906 -0.0623,1.96858 -0.86041,2.89181 -0.70198,0.81207 -1.07933,1.01743 -2.05052,1.11673 -2.44359,0.24972 -3.65596,-1.07651 -3.68866,-4.0349 -0.0294,-2.65905 1.11253,-4.0828 3.20807,-4.03024 z m -37.4649,4.71806 h 1.96268 v 1.18494 c 0,0.96143 -0.12107,1.26315 -0.64131,1.60404 -0.72627,0.47589 -3.2976,0.7897 -3.773929,0.46043 -0.543481,-0.37566 -0.882092,-1.61312 -0.6258,-2.2872 0.314539,-0.82732 0.746143,-0.96221 3.078359,-0.96221 z" />
    <path
       id="path9112-6"
       style="fill:#24b7eb;fill-opacity:1;stroke-width:0.113134"
       d="m 51.984557,120.26394 c -1.589458,3.3e-4 -2.77593,0.44708 -3.993946,1.50367 -0.280007,0.2429 -0.78911,0.60758 -1.131341,0.81028 -1.369226,0.81098 -2.470154,1.50126 -2.769577,1.73678 -0.173566,0.13654 -0.360159,0.24837 -0.41453,0.24837 -0.05437,0 -0.309526,0.15273 -0.567217,0.3394 -0.257693,0.18668 -0.533039,0.33941 -0.611853,0.33941 -0.07881,0 -0.160228,0.0382 -0.18097,0.0848 -0.04906,0.11039 -0.49968,0.4028 -3.092407,2.00791 -1.182252,0.7319 -2.429556,1.5119 -2.771787,1.73325 -0.570964,0.36927 -0.813629,0.52122 -1.732146,1.08428 -0.626137,0.38382 -0.111782,1.25087 0.560368,0.94462 0.146668,-0.0668 0.266705,-0.16431 0.266705,-0.21655 0,-0.0523 0.06329,-0.0948 0.140534,-0.0948 0.07724,0 0.395431,-0.17049 0.707088,-0.37873 0.541426,-0.36177 1.300652,-0.83526 2.929776,-1.82738 0.408701,-0.2489 0.744169,-0.49072 0.745538,-0.53739 0.0014,-0.0467 0.07495,-0.0849 0.163513,-0.0849 0.08856,0 0.3123,-0.12728 0.497172,-0.28284 0.184872,-0.15556 0.369585,-0.28284 0.410553,-0.28284 0.04097,0 0.491791,-0.26994 1.001856,-0.5997 0.510064,-0.32975 1.156487,-0.7378 1.436494,-0.90684 0.280007,-0.16903 0.840021,-0.51638 1.244476,-0.77205 1.100965,-0.69595 1.490928,-0.90676 1.556699,-0.84099 0.03265,0.0327 0.0013,0.12933 -0.0696,0.21478 -0.08498,0.10239 -0.118974,0.63363 -0.09965,1.55824 0.02738,1.31061 0.05316,1.45333 0.389562,2.16612 0.198056,0.41967 0.495226,0.94034 0.660464,1.15698 l 0.300513,0.39376 -2.777089,2.74615 c -1.527322,1.51042 -3.485415,3.43674 -4.351466,4.28054 -1.757055,1.71192 -1.915832,1.92485 -1.732809,2.32654 0.275823,0.60537 0.513399,0.42892 3.880589,-2.88625 1.762458,-1.73522 3.761909,-3.72073 4.443167,-4.41223 0.681258,-0.6915 1.272231,-1.25729 1.313417,-1.25729 0.04119,0 0.254767,0.12192 0.474633,0.27112 0.219866,0.14921 0.799834,0.4158 1.288668,0.59241 0.738571,0.26686 1.060816,0.32002 1.906929,0.31399 0.665605,-0.005 1.161875,-0.0696 1.43318,-0.18693 0.228263,-0.0988 0.44096,-0.15344 0.472645,-0.12175 0.0583,0.0583 -0.365644,0.87463 -0.723882,1.39384 -0.10733,0.15556 -0.537727,0.84285 -0.956337,1.52732 -0.418609,0.68446 -0.874627,1.42266 -1.013567,1.64044 -0.13894,0.21778 -0.726461,1.15963 -1.305462,2.09298 -0.579002,0.93336 -1.47757,2.37277 -1.996861,3.19891 -0.519294,0.82615 -0.944185,1.6001 -0.944185,1.71978 0,0.11967 0.08909,0.26957 0.197985,0.33299 0.237572,0.13837 0.487949,0.15008 0.674386,0.0316 0.139579,-0.0887 0.881545,-1.2064 1.141505,-1.71955 0.0788,-0.15557 0.342191,-0.5883 0.585337,-0.96164 0.243147,-0.37335 0.704327,-1.12203 1.024837,-1.66365 0.320508,-0.54161 0.654416,-1.04429 0.742,-1.11698 0.08758,-0.0727 0.159316,-0.18913 0.159316,-0.25875 0,-0.0696 0.170372,-0.38151 0.378734,-0.69317 0.208364,-0.31165 0.673288,-1.0502 1.033012,-1.64132 0.359725,-0.59113 0.813823,-1.32933 1.009148,-1.64045 0.195325,-0.31112 0.416367,-0.66749 0.491206,-0.79194 0.07483,-0.12445 0.468348,-0.75171 0.87458,-1.39385 0.406226,-0.64214 0.741922,-1.20214 0.746199,-1.24447 0.0041,-0.0423 0.181364,-0.30599 0.39398,-0.586 0.434765,-0.57258 1.008282,-1.72924 1.187688,-2.39548 0.06554,-0.24334 0.109653,-0.90858 0.09811,-1.47848 -0.01824,-0.9011 -0.07183,-1.15665 -0.411879,-1.95996 -0.924838,-2.18477 -2.974809,-3.55664 -5.313989,-3.55622 z m 0.01525,1.03302 c 2.582212,0.0677 4.598666,2.09786 4.585026,4.61596 -0.0063,1.15679 -0.24795,1.96638 -0.800778,2.68295 -0.654902,0.84888 -1.261581,1.32188 -2.136732,1.66608 -0.779379,0.30654 -1.651239,0.41211 -2.488951,0.3014 -0.554806,-0.0733 -1.923281,-0.6604 -1.923281,-0.82508 0,-0.0562 0.585469,-0.67208 1.301042,-1.36866 0.832813,-0.81071 1.301043,-1.35082 1.301043,-1.50079 0,-0.24094 -0.321639,-0.60877 -0.532305,-0.60877 -0.06519,0 -0.747885,0.60629 -1.517146,1.34745 -0.76926,0.74116 -1.436808,1.32407 -1.483339,1.2953 -0.04653,-0.0288 -0.23043,-0.26595 -0.408564,-0.52723 -0.435512,-0.63878 -0.747966,-1.94899 -0.64787,-2.71588 0.105168,-0.80573 0.385922,-1.74198 0.580917,-1.93698 0.08893,-0.0889 0.161746,-0.19285 0.161746,-0.23091 0,-0.17541 0.557808,-0.79262 1.081625,-1.19674 0.835486,-0.64458 1.947541,-1.0238 2.927567,-0.9981 z m -0.297198,0.90021 c -0.637839,0.003 -1.582631,0.35138 -2.251193,0.90684 -0.983557,0.81716 -1.673789,2.72117 -1.183047,3.26343 0.354129,0.39131 0.960397,-0.0791 0.964955,-0.74863 0.003,-0.43857 0.415769,-1.22487 0.837237,-1.59492 0.564541,-0.49568 0.989721,-0.6986 1.619895,-0.77272 0.294338,-0.0346 0.568886,-0.0837 0.610085,-0.10915 0.165917,-0.10254 0.180708,-0.50141 0.02674,-0.72123 -0.108269,-0.15458 -0.334741,-0.22488 -0.624667,-0.22362 z m -17.893755,2.39394 c -0.01078,-0.3705 -0.01834,2.78685 -0.01834,8.45699 0,7.56019 0.01352,10.65299 0.03005,6.8729 0.01653,-3.78009 0.01653,-9.9657 0,-13.7458 -0.0041,-0.94502 -0.0081,-1.4606 -0.01171,-1.58409 z" />
  </g>
</svg>
