<?xml version="1.0" encoding="UTF-8" standalone="no"?>
<!-- Created with Inkscape (http://www.inkscape.org/) -->

<svg
   width="232.33969mm"
   height="58.45528mm"
   viewBox="0 0 232.33969 58.45528"
   version="1.1"
   id="svg5"
   inkscape:version="1.1.2 (0a00cf5339, 2022-02-04)"
   sodipodi:docname="btdex.svg"
   xmlns:inkscape="http://www.inkscape.org/namespaces/inkscape"
   xmlns:sodipodi="http://sodipodi.sourceforge.net/DTD/sodipodi-0.dtd"
   xmlns="http://www.w3.org/2000/svg"
   xmlns:svg="http://www.w3.org/2000/svg">
  <sodipodi:namedview
     id="namedview7"
     pagecolor="#ffffff"
     bordercolor="#666666"
     borderopacity="1.0"
     inkscape:pageshadow="2"
     inkscape:pageopacity="0.0"
     inkscape:pagecheckerboard="0"
     inkscape:document-units="mm"
     showgrid="false"
     fit-margin-top="0"
     fit-margin-left="0"
     fit-margin-right="0"
     fit-margin-bottom="0"
     inkscape:zoom="0.77771465"
     inkscape:cx="551.6162"
     inkscape:cy="315.66848"
     inkscape:window-width="1488"
     inkscape:window-height="1082"
     inkscape:window-x="26"
     inkscape:window-y="23"
     inkscape:window-maximized="0"
     inkscape:current-layer="layer1" />
  <defs
     id="defs2">
    <rect
       x="371.77237"
       y="260.51389"
       width="289.6608"
       height="191.43127"
       id="rect2955" />
  </defs>
  <g
     inkscape:label="Layer 1"
     inkscape:groupmode="layer"
     id="layer1"
     transform="translate(-26.035,-64.850003)">
    <g
       transform="matrix(0.03527778,0,0,-0.03527778,18.767777,128.77334)"
       fill="#000000"
       stroke="none"
       id="g851">
      <path
         d="m 557,1334 -87,-85.3208 33.50848,-33.2331 35.2651,-35.5404 L 584,1223 c 238,240 440,437 447,437 8,0 123,-111 257,-247 l 244,-246 34,35 35,35 -284,287 -284,288 z"
         id="path839"
         inkscape:connector-curvature="0"
         sodipodi:nodetypes="cccccsccccccc"
         style="fill:#bf0000;fill-opacity:1" />
      <path
         d="M 615,1140 206,731 235,700 c 16,-16 34,-30 40,-30 6,0 176,167 379,370 202,204 372,370 376,370 4,0 89,-81 188,-180 98,-99 183,-180 189,-180 5,0 22,14 38,30 l 29,31 -219,219 c -121,121 -222,220 -225,220 -3,0 -189,-184 -415,-410 z"
         id="path841"
         style="fill:#bf0000;fill-opacity:1" />
      <path
         d="M 1600,1120 C 1432,950 1291,810 1285,810 c -5,0 -65,55 -132,122 l -123,122 -30,-29 c -16,-16 -30,-34 -30,-39 0,-6 70,-81 155,-166 l 155,-155 350,350 350,349 -32,33 c -18,18 -35,33 -38,33 -3,0 -143,-139 -310,-310 z"
         id="path843"
         style="fill:#248b00;fill-opacity:1" />
      <path
         d="M 682,957 C 494,769 340,610 340,604 c 0,-5 14,-23 30,-39 l 31,-29 307,306 c 169,169 311,311 315,315 4,4 64,-49 132,-117 l 125,-124 30,29 c 16,16 30,34 30,39 0,11 -300,316 -310,316 -3,0 -159,-154 -348,-343 z"
         id="path845"
         style="fill:#bf0000;fill-opacity:1" />
      <path
         d="M 1660,929 C 1460,726 1291,560 1284,560 c -6,0 -91,81 -190,180 -98,99 -184,180 -190,180 -5,0 -23,-14 -39,-30 l -29,-31 223,-223 223,-223 409,410 c 225,225 409,413 409,417 0,10 -55,60 -66,59 -5,-1 -173,-167 -374,-370 z"
         id="path847"
         style="fill:#248b00;fill-opacity:1" />
      <path
         d="M 1730,745 C 1496.5051,500.61889 1288,310 1280,310 c -8,0 -124,111 -258,247 L 780,804 750,775 c -17,-16 -30,-34 -30,-41 0,-7 126,-140 280,-296 l 280,-283 477,478 203.283,199.83019 -31.3207,36.22641 -41.1321,41.13208 z"
         id="path849"
         inkscape:connector-curvature="0"
         sodipodi:nodetypes="sscccsccccccs"
         style="fill:#248b00;fill-opacity:1" />
    </g>
    <text
       xml:space="preserve"
       transform="matrix(1.1919886,0,0,1.1919886,-530.14202,-243.92169)"
       id="text2953"
       style="font-weight:bold;font-size:40px;line-height:1.25;font-family:'Bai Jamjuree';-inkscape-font-specification:'Bai Jamjuree Bold';text-align:end;white-space:pre;shape-inside:url(#rect2955);fill:#69696a;fill-opacity:1"><tspan
         x="531.63387"
         y="297.51367"
         id="tspan5139">BTDEX</tspan></text>
  </g>
</svg>
