<?xml version="1.0" encoding="UTF-8" standalone="no"?>
<svg
   width="70.219177"
   height="39.999653"
   viewBox="0 0 70.219177 39.999653"
   version="1.1"
   id="svg630"
   sodipodi:docname="changenow.svg"
   inkscape:version="1.1.2 (0a00cf5339, 2022-02-04)"
   xmlns:inkscape="http://www.inkscape.org/namespaces/inkscape"
   xmlns:sodipodi="http://sodipodi.sourceforge.net/DTD/sodipodi-0.dtd"
   xmlns="http://www.w3.org/2000/svg"
   xmlns:svg="http://www.w3.org/2000/svg">
  <defs
     id="defs634" />
  <sodipodi:namedview
     id="namedview632"
     pagecolor="#ffffff"
     bordercolor="#666666"
     borderopacity="1.0"
     inkscape:pageshadow="2"
     inkscape:pageopacity="0.0"
     inkscape:pagecheckerboard="0"
     showgrid="false"
     fit-margin-top="0"
     fit-margin-left="0"
     fit-margin-right="0"
     fit-margin-bottom="0"
     inkscape:zoom="2.5451895"
     inkscape:cx="-117.47652"
     inkscape:cy="13.554983"
     inkscape:window-width="3778"
     inkscape:window-height="1536"
     inkscape:window-x="0"
     inkscape:window-y="0"
     inkscape:window-maximized="1"
     inkscape:current-layer="svg630" />
  <path
     d="m 8.2341738,7.035 a 4.373,4.373 0 0 0 -1.551,-1.19 4.651,4.651 0 0 0 -1.81,-0.41 5.128,5.128 0 0 0 -2.021,0.344 4.501,4.501 0 0 0 -1.544,1.014 C 0.87917379,7.23 0.54717379,7.753 0.33417379,8.328 a 5.807,5.807 0 0 0 0,3.883 c 0.211,0.58 0.544,1.107 0.97400001,1.548 0.439,0.441 0.965,0.787 1.544,1.013 0.644,0.25 1.331,0.368 2.022,0.345 a 4.65,4.65 0 0 0 1.809,-0.41 4.39,4.39 0 0 0 1.551,-1.19 l -1.06,-0.822 c -0.24,0.358 -0.56,0.654 -0.933,0.867 a 2.63,2.63 0 0 1 -1.367,0.353 3.388,3.388 0 0 1 -1.445,-0.255 3.155,3.155 0 0 1 -1.097,-0.735 3.314,3.314 0 0 1 -0.688,-1.174 4.687,4.687 0 0 1 0,-2.934 c 0.146,-0.434 0.38,-0.832 0.688,-1.17 0.304,-0.33 0.675,-0.592 1.088,-0.768 a 3.392,3.392 0 0 1 1.445,-0.254 c 0.48,-0.01 0.952,0.113 1.368,0.353 0.373,0.212 0.693,0.509 0.933,0.866 l 1.06,-0.821 z m 3.1030002,7.86 h 1.297 v -4.728 a 4.115,4.115 0 0 1 0.41,-1.97 c 0.214,-0.417 0.519,-0.78 0.892,-1.063 a 2.4,2.4 0 0 1 0.937,-0.448 c 0.184,-0.032 0.37,-0.054 0.557,-0.065 0.955,0 1.61,0.273 1.965,0.82 0.397,0.72 0.581,1.537 0.532,2.357 v 5.098 h 1.297 V 9.041 a 3.853,3.853 0 0 0 -0.843,-2.668 c -0.57,-0.613 -1.445,-0.919 -2.623,-0.919 -0.31,0 -0.616,0.044 -0.913,0.127 a 4.086,4.086 0 0 0 -0.876,0.353 c -0.27,0.148 -0.52,0.33 -0.745,0.542 -0.216,0.202 -0.4,0.434 -0.549,0.69 h -0.04 V 0 h -1.298 v 14.896 z m 18.215,-4.588 v 0.669 c 0.002,0.39 -0.055,0.78 -0.168,1.153 a 2.51,2.51 0 0 1 -1.396,1.584 2.948,2.948 0 0 1 -1.228,0.239 c -0.262,0 -0.523,-0.031 -0.778,-0.09 a 2.13,2.13 0 0 1 -0.695,-0.296 1.555,1.555 0 0 1 -0.5,-0.534 1.535,1.535 0 0 1 -0.188,-0.78 1.324,1.324 0 0 1 0.483,-1.083 3.115,3.115 0 0 1 1.158,-0.583 7.09,7.09 0 0 1 1.417,-0.238 c 0.49,-0.033 0.9,-0.05 1.227,-0.05 z m -0.647,-1.063 c -0.546,0 -1.152,0.026 -1.818,0.078 a 7.158,7.158 0 0 0 -1.866,0.41 3.545,3.545 0 0 0 -1.453,0.956 2.529,2.529 0 0 0 -0.581,1.765 c -0.01,0.408 0.082,0.811 0.266,1.174 a 2.6,2.6 0 0 0 0.708,0.846 c 0.301,0.234 0.644,0.408 1.01,0.513 0.384,0.112 0.78,0.169 1.18,0.168 a 4.084,4.084 0 0 0 1.895,-0.41 3.522,3.522 0 0 0 1.347,-1.33 h 0.04 c 0,0.249 0.01,0.505 0.03,0.767 0.018,0.263 0.05,0.501 0.093,0.715 h 1.228 a 14.595,14.595 0 0 1 -0.106,-0.957 9.407,9.407 0 0 1 -0.033,-1.096 V 8.74 c 0.013,-0.5 -0.08,-0.997 -0.274,-1.457 a 2.987,2.987 0 0 0 -0.729,-1.014 2.911,2.911 0 0 0 -1.072,-0.6 4.226,4.226 0 0 0 -1.285,-0.197 c -1.73,0 -3.027,0.446 -3.889,1.339 l 0.786,0.927 a 4.054,4.054 0 0 1 2.808,-1.083 c 1.572,0 2.357,0.794 2.357,2.384 v 0.238 l -0.642,-0.032 z m 6.246,-3.567 c 0.027,0.342 0.05,0.703 0.07,1.083 0.019,0.38 0.028,0.695 0.028,0.944 v 7.192 h 1.298 v -4.729 a 4.114,4.114 0 0 1 0.41,-1.97 c 0.214,-0.417 0.518,-0.78 0.892,-1.063 a 2.4,2.4 0 0 1 0.937,-0.448 c 0.181,-0.036 0.364,-0.062 0.548,-0.078 0.955,0 1.61,0.274 1.965,0.821 a 4.33,4.33 0 0 1 0.532,2.356 v 5.11 h 1.298 V 9.043 a 3.853,3.853 0 0 0 -0.843,-2.668 c -0.565,-0.613 -1.437,-0.919 -2.616,-0.919 -0.309,0 -0.616,0.044 -0.913,0.127 a 4.088,4.088 0 0 0 -0.876,0.353 3.631,3.631 0 0 0 -0.757,0.53 c -0.215,0.202 -0.4,0.434 -0.548,0.69 h -0.041 v -0.74 c 0,-0.243 -0.017,-0.49 -0.05,-0.738 h -1.334 z m 13.627,3.123 a 3.525,3.525 0 0 1 1.81,-1.892 3.173,3.173 0 0 1 1.345,-0.287 c 0.5,-0.007 0.994,0.09 1.453,0.287 0.416,0.178 0.79,0.44 1.102,0.768 0.302,0.324 0.536,0.707 0.687,1.124 0.16,0.44 0.24,0.904 0.238,1.371 0.02,0.498 -0.064,0.994 -0.246,1.457 -0.17,0.422 -0.427,0.801 -0.757,1.113 a 3.597,3.597 0 0 1 -2.456,0.976 3.168,3.168 0 0 1 -1.347,-0.287 3.514,3.514 0 0 1 -1.08,-0.767 3.594,3.594 0 0 1 -0.729,-1.125 3.666,3.666 0 0 1 0,-2.738 z m -1.466,8.969 a 5.706,5.706 0 0 0 1.965,1.4 6.3,6.3 0 0 0 2.456,0.45 5.717,5.717 0 0 0 2.513,-0.471 4.14,4.14 0 0 0 1.502,-1.182 3.95,3.95 0 0 0 0.729,-1.556 7.47,7.47 0 0 0 0.188,-1.597 V 5.677 h -1.297 v 1.535 h -0.041 a 4.255,4.255 0 0 0 -1.76,-1.42 4.133,4.133 0 0 0 -0.925,-0.275 5.23,5.23 0 0 0 -0.876,-0.078 4.736,4.736 0 0 0 -1.875,0.365 4.387,4.387 0 0 0 -1.474,1.014 c -0.417,0.44 -0.748,0.955 -0.974,1.518 a 4.908,4.908 0 0 0 -0.352,1.872 4.68,4.68 0 0 0 0.373,1.872 c 0.237,0.56 0.585,1.065 1.023,1.486 0.44,0.42 0.957,0.751 1.523,0.976 a 4.943,4.943 0 0 0 1.874,0.354 4.716,4.716 0 0 0 1.908,-0.41 3.545,3.545 0 0 0 1.53,-1.339 h 0.041 v 1.642 c 0.003,0.476 -0.06,0.95 -0.188,1.408 -0.114,0.427 -0.32,0.824 -0.606,1.161 a 2.898,2.898 0 0 1 -1.109,0.78 c -0.532,0.204 -1.1,0.302 -1.67,0.287 a 4.435,4.435 0 0 1 -2.047,-0.463 4.145,4.145 0 0 1 -1.481,-1.232 z m 14.597,-8.21 c 0,-0.383 0.092,-0.762 0.266,-1.104 0.177,-0.354 0.417,-0.674 0.708,-0.944 0.301,-0.28 0.65,-0.504 1.031,-0.66 a 3.132,3.132 0 0 1 1.228,-0.247 2.907,2.907 0 0 1 2.202,0.821 2.953,2.953 0 0 1 0.774,2.135 h -6.21 z m 7.621,1.064 v -0.575 a 5.348,5.348 0 0 0 -0.295,-1.781 4.264,4.264 0 0 0 -0.855,-1.457 4.143,4.143 0 0 0 -1.375,-0.998 4.492,4.492 0 0 0 -1.867,-0.373 4.562,4.562 0 0 0 -1.826,0.365 4.502,4.502 0 0 0 -1.473,1.014 4.673,4.673 0 0 0 -0.982,1.535 5.164,5.164 0 0 0 -0.352,1.929 5.03,5.03 0 0 0 0.364,1.93 c 0.229,0.57 0.565,1.09 0.99,1.534 0.426,0.438 0.938,0.783 1.503,1.014 a 4.9,4.9 0 0 0 1.895,0.365 5.072,5.072 0 0 0 2.132,-0.451 4.984,4.984 0 0 0 1.818,-1.498 l -1.003,-0.821 a 3.601,3.601 0 0 1 -1.15,1.112 c -0.54,0.332 -1.164,0.5 -1.797,0.484 a 3.168,3.168 0 0 1 -1.277,-0.254 3.394,3.394 0 0 1 -1.768,-1.753 3.957,3.957 0 0 1 -0.336,-1.3 z"
     fill="#ffffff"
     id="path191" />
  <path
     d="m 1.1251738,39.523 h 3.3 V 25.26 h 0.052 l 9.1700002,14.263 h 4.19 V 20.925 h -3.303 v 13.816 h -0.049 L 5.4801738,20.925 h -4.355 z M 23.105174,34.269 a 8.864,8.864 0 0 0 2.03,3.06 8.833,8.833 0 0 0 3.091,1.972 10.81,10.81 0 0 0 3.942,0.698 c 1.362,0 2.712,-0.254 3.983,-0.747 a 9.33,9.33 0 0 0 3.119,-2.011 9.099,9.099 0 0 0 2.046,-3.075 c 0.497,-1.262 0.74,-2.611 0.717,-3.969 a 10.7,10.7 0 0 0 -0.733,-4.047 9.032,9.032 0 0 0 -2.047,-3.099 8.708,8.708 0 0 0 -3.119,-1.958 11,11 0 0 0 -3.982,-0.644 10.816,10.816 0 0 0 -3.942,0.698 8.9,8.9 0 0 0 -3.09,1.982 9.105,9.105 0 0 0 -2.047,3.111 10.796,10.796 0 0 0 -0.688,4.064 10.345,10.345 0 0 0 0.733,3.965 h -0.012 z m 3.185,-6.777 a 6.44,6.44 0 0 1 1.298,-2.113 5.96,5.96 0 0 1 2.005,-1.42 6.412,6.412 0 0 1 2.616,-0.514 6.51,6.51 0 0 1 2.62,0.513 c 0.764,0.327 1.452,0.81 2.018,1.42 a 6.452,6.452 0 0 1 1.297,2.114 7.28,7.28 0 0 1 0.442,2.59 c 0.01,0.94 -0.145,1.873 -0.458,2.759 a 6.486,6.486 0 0 1 -1.298,2.18 5.997,5.997 0 0 1 -2.018,1.444 6.362,6.362 0 0 1 -2.62,0.525 6.269,6.269 0 0 1 -2.607,-0.525 6.026,6.026 0 0 1 -2.006,-1.445 6.473,6.473 0 0 1 -1.297,-2.18 8.013,8.013 0 0 1 -0.454,-2.758 7.27,7.27 0 0 1 0.458,-2.602 z m 23.688,12.031 h 3.037 l 4.298,-14.16 h 0.053 l 4.314,14.16 h 3.144 l 5.395,-18.598 h -3.353 l -3.643,13.397 h -0.053 l -4.093,-13.397 h -3.25 l -4.171,13.397 h -0.053 l -3.484,-13.397 h -3.63 z"
     fill="#00c26f"
     id="path193" />
</svg>
