<svg width="102" height="24" viewBox="0 0 102 20" fill="none" xmlns="http://www.w3.org/2000/svg"><path fill-rule="evenodd" clip-rule="evenodd" d="M0 0.269531V19.1454H12.0855L14.2193 16.2064H3.5209V11.002H11.6933L11.6815 8.1164H3.5209V3.20885H11.6887L13.8398 0.269531H0Z" fill="white"></path><mask id="mask3" mask-type="alpha" maskUnits="userSpaceOnUse" x="36" y="0" width="22" height="20"><path fill-rule="evenodd" clip-rule="evenodd" d="M36.7559 0H57.1772V19.4154H36.7559V0Z" fill="white"></path></mask><g mask="url(#mask3)"><path fill-rule="evenodd" clip-rule="evenodd" d="M50.3789 15.4919C51.3899 14.926 52.1845 14.1349 52.7624 13.1192C53.3403 12.1035 53.6292 10.9664 53.6292 9.70797C53.6292 8.44952 53.3403 7.31245 52.7624 6.29677C52.1845 5.28109 51.3899 4.48996 50.3789 3.9237C49.3676 3.35712 48.2299 3.07432 46.9662 3.07432C45.7023 3.07432 44.5648 3.35712 43.5542 3.9237C42.5422 4.48996 41.748 5.28109 41.1707 6.29677C40.5925 7.31245 40.3039 8.44952 40.3039 9.70797C40.3039 10.9664 40.5925 12.1035 41.1707 13.1192C41.748 14.1349 42.5422 14.926 43.5542 15.4919C44.5648 16.0582 45.7023 16.3413 46.9662 16.3413C48.2299 16.3413 49.3676 16.0582 50.3789 15.4919ZM41.7394 18.1614C40.1862 17.3257 38.9674 16.1659 38.0832 14.6832C37.1981 13.1998 36.7559 11.5414 36.7559 9.70794C36.7559 7.87412 37.1981 6.21538 38.0832 4.73237C38.9674 3.24937 40.1862 2.08985 41.7394 1.25381C43.292 0.418092 45.0342 -9.15527e-05 46.9662 -9.15527e-05C48.8983 -9.15527e-05 50.6404 0.418092 52.1936 1.25381C53.7465 2.08985 54.9651 3.24514 55.8499 4.71903C56.7343 6.19325 57.1772 7.85622 57.1772 9.70794C57.1772 11.5593 56.7343 13.2223 55.8499 14.6965C54.9651 16.1707 53.7465 17.3257 52.1936 18.1614C50.6404 18.9971 48.8983 19.4156 46.9662 19.4156C45.0342 19.4156 43.292 18.9971 41.7394 18.1614Z" fill="white"></path></g><path fill-rule="evenodd" clip-rule="evenodd" d="M61.1885 0.269531H64.7094V16.1797H74.6223L72.4634 19.1457H61.1885V0.269531Z" fill="white"></path><path fill-rule="evenodd" clip-rule="evenodd" d="M76.9102 0.269531H80.4311V14.27L76.9102 19.1457V0.269531Z" fill="white"></path><path fill-rule="evenodd" clip-rule="evenodd" d="M28.6746 10.0313L35.3105 19.1457H31.4915L17.4893 0.269531H21.4975L26.5893 7.44243L31.735 0.269531H35.7978L28.6746 10.0313Z" fill="white"></path><mask id="mask1" mask-type="alpha" maskUnits="userSpaceOnUse" x="83" y="0" width="20" height="20"><path fill-rule="evenodd" clip-rule="evenodd" d="M83.6924 0.269531H102.001V19.1457H83.6924V0.269531Z" fill="white"></path></mask><g mask="url(#mask1)"><path fill-rule="evenodd" clip-rule="evenodd" d="M94.8778 9.38397L101.514 0.269531H97.6946L83.6924 19.1457H87.7006L92.7924 11.9728L97.9381 19.1457H102.001L94.8778 9.38397Z" fill="white"></path></g><path fill-rule="evenodd" clip-rule="evenodd" d="M25.8392 19.1459L21.6018 13.4339L17.4873 19.1459H20.7987H25.8392Z" fill="#64F0BF"></path><path fill-rule="evenodd" clip-rule="evenodd" d="M83.6914 0.269531L87.9288 5.98188L92.0433 0.269531H88.7319H83.6914Z" fill="#F06464"></path></svg>
