<svg id="Layer_1" data-name="Layer 1" xmlns="http://www.w3.org/2000/svg" viewBox="0 0 105.74 45.95">
  <title>hit_logo</title>
  <polygon points="74.53 9.56 72.23 18.55 56.84 20.6 74.53 9.56" style="fill:#57bae5" />
  <polygon points="82.54 29.49 77.56 27.38 78.7 45.81 82.54 29.49" style="fill:#005472" />
  <polygon points="72.23 18.55 68.18 27.06 56.84 20.6 72.23 18.55" style="fill:#34afe4" />
  <polygon points="77.56 27.38 68.18 27.06 78.7 45.81 77.56 27.38" style="fill:#0076a7" />
  <polygon points="72.23 18.55 77.56 27.38 68.18 27.06 72.23 18.55" style="fill:#009de2" />
  <polygon points="74.53 9.56 87.3 11.2 72.23 18.55 74.53 9.56" style="fill:#7acdf2" />
  <polygon points="101.28 5.48 93.24 15.04 93.81 6.19 101.28 5.48" style="fill:#7acdf2" />
  <polygon points="101.28 5.48 105.74 0 104.76 5.91 101.28 5.48" style="fill:#7acdf2" />
  <polygon points="96.95 10.45 104.76 5.91 101.28 5.48 96.95 10.45" style="fill:#00abe7" />
  <polygon points="82.54 29.49 82.92 18.52 77.56 27.38 82.54 29.49" style="fill:#0076a7" />
  <polygon points="82.92 18.52 77.56 27.38 72.23 18.55 82.92 18.52" style="fill:#008dbe" />
  <polygon points="87.3 11.2 82.92 18.52 72.23 18.55 87.3 11.2" style="fill:#57bae5" />
  <polyline points="82.92 18.52 82.54 29.49 92.34 39.76 82.92 18.52" style="fill:#00698d" />
  <polygon points="97.47 34.02 92.29 20.86 92.34 39.76 97.47 34.02" style="fill:#09a1cb" />
  <polygon points="93.24 15.04 92.29 20.86 82.92 18.52 93.24 15.04" style="fill:#09a1cb" />
  <polygon points="97.99 22.95 92.29 20.86 93.24 15.04 97.99 22.95" style="fill:#8bdaff" />
  <polygon points="100.03 33.65 93.82 23.47 97.36 23.47 100.03 33.65" style="fill:#7acdf2" />
  <polygon points="88.47 9.04 93.24 15.04 93.81 6.19 88.47 9.04" style="fill:#57bae5" />
  <polygon points="92.29 20.86 82.92 18.52 92.34 39.76 92.29 20.86" style="fill:#008dbe" />
  <path d="M7.47,45.81V40.6H3.28v5.21H0V32.3H3.28v5.19H7.47V32.3h3.28V45.81H7.47Z" style="fill:#fff" />
  <path d="M14.3,33.94A1.65,1.65,0,0,1,16,32.4a1.55,1.55,0,1,1,0,3.09A1.64,1.64,0,0,1,14.3,33.94Zm0.23,3L16,37.73l1.51-.78v8.87h-3V36.95Z" style="fill:#fff" />
  <path d="M24.47,45.81h-3V39.08H20.27V36.16h1.18V32.92h3v3.24h1.18v2.91H24.47v6.74Z" style="fill:#fff" />
  <path d="M34.09,32.3c4,0,4.65,2.43,4.65,3.67a3,3,0,0,1-1.66,2.84,3,3,0,0,1,2.06,3c0,2.12-1.2,4-5.15,4H28.72V32.3h5.37ZM32,37.48h2.45a1,1,0,0,0,1.18-1,1,1,0,0,0-1.18-1H32v2.08Zm0,5.23h2.68a1.22,1.22,0,1,0,0-2.41H32v2.41Z" style="fill:#42acdb" />
  <path d="M47.58,45.81H44.3V35.39H40.84V32.3H51v3.09H47.58V45.81Z" style="fill:#42acdb" />
  <path d="M64.7,34.41l-2.12,2a4.34,4.34,0,0,0-3-1.12A3.56,3.56,0,0,0,56,39.06a3.54,3.54,0,0,0,3.59,3.78,4.32,4.32,0,0,0,3-1.1l2.12,2a7,7,0,0,1-5.1,2.24,6.89,6.89,0,0,1,0-13.78A7,7,0,0,1,64.7,34.41Z" style="fill:#42acdb" />
  <polygon points="97.47 34.02 99.54 35.2 92.37 39.76 97.47 34.02" style="fill:#0076a7" />
  <polygon points="100.03 33.54 92.29 20.86 97.47 34.02 100.03 33.54" style="fill:#57bae5" />
  <polygon points="88.47 9.04 82.92 18.52 93.24 15.04 88.47 9.04" style="fill:#7acdf2" />
  <g style="opacity:0.7000000000000001">
    <path d="M3.71,25.75v0.73H0.2V21.79H3.62v0.73H1.07v1.22H3.33v0.72H1.07v1.29H3.71Z" style="fill:#fff" />
    <path d="M5.52,26.4A2.19,2.19,0,0,1,4.72,26L5,25.31a2.36,2.36,0,0,0,.71.37,2.58,2.58,0,0,0,.84.14,1.46,1.46,0,0,0,.78-0.17,0.51,0.51,0,0,0,.26-0.44,0.43,0.43,0,0,0-.14-0.33,1,1,0,0,0-.37-0.2l-0.6-.17a7.06,7.06,0,0,1-.87-0.25,1.43,1.43,0,0,1-.57-0.4,1.07,1.07,0,0,1-.24-0.73A1.26,1.26,0,0,1,5,22.42a1.44,1.44,0,0,1,.64-0.51,2.58,2.58,0,0,1,1-.19,3.36,3.36,0,0,1,.84.11,2.34,2.34,0,0,1,.72.31L8,22.82a2.7,2.7,0,0,0-.64-0.27,2.41,2.41,0,0,0-.65-0.09,1.36,1.36,0,0,0-.77.17,0.54,0.54,0,0,0-.25.46,0.42,0.42,0,0,0,.14.33,1,1,0,0,0,.37.2l0.6,0.17a6.35,6.35,0,0,1,.86.25,1.46,1.46,0,0,1,.57.4,1.05,1.05,0,0,1,.24.72,1.23,1.23,0,0,1-.21.7,1.43,1.43,0,0,1-.64.5,2.61,2.61,0,0,1-1,.19A3.58,3.58,0,0,1,5.52,26.4Z" style="fill:#fff" />
    <path d="M10.77,22.53H9.21V21.79h4v0.74H11.64v4H10.77v-4Z" style="fill:#fff" />
    <path d="M13.68,26.37a0.56,0.56,0,1,1,.39.16A0.54,0.54,0,0,1,13.68,26.37Z" style="fill:#fff" />
    <path d="M21,25.75v0.74H17.57V25.9l1.86-1.77a2.07,2.07,0,0,0,.43-0.53A1,1,0,0,0,20,23.16a0.6,0.6,0,0,0-.22-0.5,1,1,0,0,0-.65-0.17A1.31,1.31,0,0,0,18,23l-0.61-.47a1.8,1.8,0,0,1,.74-0.57,2.57,2.57,0,0,1,1-.2,1.91,1.91,0,0,1,1.22.36,1.19,1.19,0,0,1,.46,1,1.64,1.64,0,0,1-.16.72,2.8,2.8,0,0,1-.62.76l-1.25,1.19H21Z" style="fill:#fff" />
    <path d="M22.93,26.27a1.92,1.92,0,0,1-.7-0.83,3.43,3.43,0,0,1,0-2.59,1.93,1.93,0,0,1,.7-0.83,1.82,1.82,0,0,1,1-.28,1.84,1.84,0,0,1,1,.28,1.92,1.92,0,0,1,.7.83,3.43,3.43,0,0,1,0,2.59,1.91,1.91,0,0,1-.7.83,1.83,1.83,0,0,1-1,.29A1.81,1.81,0,0,1,22.93,26.27Zm1.8-.89A2.17,2.17,0,0,0,25,24.14a2.16,2.16,0,0,0-.29-1.24,1,1,0,0,0-1.58,0,2.16,2.16,0,0,0-.29,1.24,2.17,2.17,0,0,0,.29,1.24A1,1,0,0,0,24.73,25.38Z" style="fill:#fff" />
    <path d="M28.47,21.79v4.69H27.6v-4h-1V21.79h1.86Z" style="fill:#fff" />
    <path d="M32.79,24.17a1.27,1.27,0,0,1,.34.91,1.38,1.38,0,0,1-.21.74,1.43,1.43,0,0,1-.63.53,2.38,2.38,0,0,1-1,.2,3.24,3.24,0,0,1-1-.14,2.46,2.46,0,0,1-.79-0.4l0.38-.68a1.88,1.88,0,0,0,.62.34,2.33,2.33,0,0,0,.75.12A1.22,1.22,0,0,0,32,25.6a0.61,0.61,0,0,0,.27-0.52A0.6,0.6,0,0,0,32,24.57a1.31,1.31,0,0,0-.77-0.18H30.81v-0.6l1.07-1.27H29.74V21.79h3.2v0.58L31.8,23.73A1.58,1.58,0,0,1,32.79,24.17Z" style="fill:#fff" />
  </g>
</svg>