<?xml version="1.0" encoding="UTF-8" standalone="no"?>
<svg
   width="121.12569"
   height="27.962347"
   viewBox="0 0 121.12569 27.962347"
   version="1.1"
   id="svg20"
   sodipodi:docname="kucoin.svg"
   inkscape:version="1.1.2 (0a00cf5339, 2022-02-04)"
   xmlns:inkscape="http://www.inkscape.org/namespaces/inkscape"
   xmlns:sodipodi="http://sodipodi.sourceforge.net/DTD/sodipodi-0.dtd"
   xmlns="http://www.w3.org/2000/svg"
   xmlns:svg="http://www.w3.org/2000/svg"
   xmlns:rdf="http://www.w3.org/1999/02/22-rdf-syntax-ns#"
   xmlns:cc="http://creativecommons.org/ns#"
   xmlns:dc="http://purl.org/dc/elements/1.1/">
  <defs
     id="defs24" />
  <sodipodi:namedview
     id="namedview22"
     pagecolor="#ffffff"
     bordercolor="#666666"
     borderopacity="1.0"
     inkscape:pageshadow="2"
     inkscape:pageopacity="0.0"
     inkscape:pagecheckerboard="0"
     showgrid="false"
     fit-margin-top="0"
     fit-margin-left="0"
     fit-margin-right="0"
     fit-margin-bottom="0"
     inkscape:zoom="8.4"
     inkscape:cx="60.416667"
     inkscape:cy="21.845238"
     inkscape:window-width="2643"
     inkscape:window-height="1082"
     inkscape:window-x="26"
     inkscape:window-y="23"
     inkscape:window-maximized="0"
     inkscape:current-layer="svg20" />
  <title
     id="title2">logo_en</title>
  <rect
     id="矩形"
     x="-14"
     y="-14.003157"
     width="150"
     height="56"
     style="fill:none;fill-rule:evenodd;stroke:none;stroke-width:1" />
  <g
     id="KUCOIN-logo-3.0"
     fill="#ffffff"
     fill-rule="nonzero"
     style="fill:#2dbd96;fill-opacity:1;stroke:none;stroke-width:1">
    <path
       d="m 95.334862,13.983999 c 0,-0.714128 0,-1.385871 -0.02312,-2.006238 -0.01574,-0.585248 -0.07369,-1.168598 -0.173394,-1.745505 C 95.045093,9.7054624 94.880458,9.1938406 94.648991,8.711522 94.404641,8.2142316 94.078096,7.7617582 93.683119,7.3731734 93.122941,6.7992072 92.456343,6.3398304 91.720551,6.0206963 90.924574,5.6982656 90.072109,5.5384285 89.213395,5.5506046 c -0.861959,-0.011138 -1.71758,0.1486358 -2.517432,0.4700917 -0.740006,0.3147756 -1.410804,0.7721573 -1.974128,1.3460551 -0.394226,0.388353 -0.719536,0.840921 -0.962019,1.3383486 -0.229531,0.4824242 -0.391601,0.9941329 -0.481651,1.520734 -0.09745,0.577078 -0.153247,1.160418 -0.166972,1.745505 -0.01541,0.620367 -0.02312,1.29211 -0.01927,2.006238 0.0039,0.714128 0,1.380734 0.01927,2.004954 0.01372,0.585086 0.06953,1.168427 0.166972,1.745505 0.09005,0.526601 0.25212,1.038309 0.481651,1.520734 0.243438,0.496856 0.568639,0.949272 0.962019,1.338348 0.562399,0.574359 1.233474,1.031057 1.974128,1.343487 0.799315,0.323556 1.655191,0.484251 2.517432,0.47266 0.859,0.01265 1.711727,-0.148105 2.507156,-0.47266 0.735909,-0.314892 1.402741,-0.771374 1.962568,-1.343487 0.394108,-0.38933 0.720541,-0.841648 0.965872,-1.338348 0.231467,-0.482319 0.396102,-0.993941 0.489358,-1.520734 0.0986,-0.575276 0.155687,-1.156899 0.170825,-1.740367 0.01927,-0.62422 0.02826,-1.29211 0.02312,-2.004954 z m -3.236697,0 c 0,0.791193 -0.01156,1.450092 -0.03853,1.974129 -0.01516,0.43045 -0.05806,0.859475 -0.12844,1.284403 -0.04814,0.283106 -0.13456,0.55835 -0.256881,0.818165 -0.09929,0.20941 -0.229146,0.4029 -0.385321,0.574129 -0.241097,0.276001 -0.540219,0.495299 -0.875964,0.642202 -0.377808,0.161667 -0.784842,0.243861 -1.195779,0.241567 -0.412958,0.0017 -0.821975,-0.08043 -1.202202,-0.241567 -0.343934,-0.144165 -0.651165,-0.363615 -0.899083,-0.642202 -0.157154,-0.170459 -0.287118,-0.364105 -0.385321,-0.574129 -0.118903,-0.260081 -0.201036,-0.535444 -0.244037,-0.818165 -0.06858,-0.425165 -0.111469,-0.854077 -0.12844,-1.284403 -0.02312,-0.524037 -0.03468,-1.18208 -0.03468,-1.974129 0,-0.791193 0.01156,-1.451376 0.03468,-1.975413 0.01704,-0.430321 0.05993,-0.85923 0.12844,-1.284403 0.043,-0.282722 0.125134,-0.558084 0.244037,-0.8181656 0.0985,-0.2098537 0.228438,-0.4034559 0.385321,-0.5741284 0.248268,-0.2781975 0.555404,-0.4975805 0.899083,-0.6422019 0.37966,-0.1629627 0.789061,-0.2451928 1.202202,-0.2414679 0.411117,-0.00427 0.818533,0.078002 1.195779,0.2414679 0.335491,0.1473425 0.634524,0.3665749 0.875964,0.6422019 0.155893,0.1714503 0.285723,0.3648964 0.385321,0.5741284 0.122321,0.2598156 0.208739,0.5350596 0.256881,0.8181656 0.0703,0.424939 0.1132,0.853958 0.12844,1.284403 0.02826,0.522753 0.03853,1.182936 0.03853,1.975413 z"
       id="形状"
       style="fill:#2dbd96;fill-opacity:1" />
    <path
       d="m 121.12569,5.9795954 c -0.001,-0.1561865 -0.12767,-0.2824586 -0.28385,-0.2838532 h -2.67028 c -0.15648,7.032e-4 -0.28315,0.1273776 -0.28385,0.2838532 V 15.843816 L 111.37578,5.7753752 c -0.0437,-0.068073 -0.0822,-0.079633 -0.17853,-0.079633 h -2.47633 c -0.1559,0.00207 -0.28178,0.1279527 -0.28386,0.2838532 V 21.985834 c 0.002,0.155685 0.12816,0.281186 0.28386,0.282569 h 2.66899 c 0.15576,-7.04e-4 0.28186,-0.126803 0.28257,-0.282569 v -9.889908 l 6.51321,10.091559 c 0.045,0.06807 0.0809,0.07963 0.17853,0.07963 h 2.47505 c 0.15597,-6.96e-4 0.28245,-0.126595 0.28385,-0.282569 z"
       id="路径"
       style="fill:#2dbd96;fill-opacity:1" />
    <path
       d="m 103.22624,5.9795954 c -7.1e-4,-0.1564756 -0.12738,-0.28315 -0.28385,-0.2838532 h -2.66771 c -0.15648,7.032e-4 -0.283151,0.1273776 -0.283854,0.2838532 V 21.984549 c 7.03e-4,0.156476 0.127374,0.28315 0.283854,0.283854 h 2.66771 c 0.15647,-7.04e-4 0.28314,-0.127378 0.28385,-0.283854 z"
       id="path7"
       style="fill:#2dbd96;fill-opacity:1" />
    <path
       d="m 71.290826,13.983999 c 0,-0.79633 0.009,-1.459082 0.03211,-1.986972 0.01571,-0.430413 0.05861,-0.859403 0.12844,-1.284404 0.246606,-1.4256882 1.338349,-2.2669726 2.731927,-2.2669726 0.909358,0.00771 1.733945,0.3442202 2.26055,1.1097248 0.238486,0.3573835 0.412379,0.7538598 0.513762,1.1713758 0.0078,0.04398 0.04799,0.07467 0.09248,0.07064 h 3.140367 c 0.04495,0 0.06165,-0.03083 0.05394,-0.0745 -0.342936,-1.9433026 -1.37945,-3.6888072 -3.21101,-4.5532109 -0.900149,-0.4167747 -1.882659,-0.6253057 -2.874495,-0.6100917 -1.768196,0 -3.257676,0.6053823 -4.46844,1.8161468 -0.691267,0.6737033 -1.163096,1.5403644 -1.353762,2.4866055 -0.184954,0.9316213 -0.278287,2.3050763 -0.280045,4.1203673 -0.0017,1.81529 0.09167,3.188318 0.280045,4.119082 0.189082,0.947459 0.659539,1.815858 1.349908,2.491743 1.209909,1.209909 2.699389,1.814863 4.468441,1.814863 0.991677,0.015 1.974048,-0.193063 2.874495,-0.608808 1.83156,-0.864403 2.868074,-2.609908 3.211009,-4.553211 0.0077,-0.04495 -0.009,-0.07449 -0.05394,-0.07449 h -3.141651 c -0.04467,-0.0047 -0.08523,0.02631 -0.09248,0.07064 -0.101625,0.417035 -0.275506,0.813048 -0.513761,1.170092 -0.526606,0.770642 -1.351193,1.103303 -2.260551,1.109725 -1.393578,0 -2.485321,-0.84 -2.731926,-2.265688 -0.06977,-0.42501 -0.112666,-0.853995 -0.128441,-1.284404 -0.01798,-0.530459 -0.02697,-1.194496 -0.02697,-1.988257 z"
       id="path9"
       style="fill:#2dbd96;fill-opacity:1" />
    <path
       d="m 38.122385,5.9795954 c -7.03e-4,-0.1564756 -0.127377,-0.28315 -0.283853,-0.2838532 h -2.667706 c -0.156476,7.032e-4 -0.28315,0.1273776 -0.283854,0.2838532 V 21.985834 c 0.0014,0.155974 0.127875,0.281872 0.283854,0.282848 h 2.667706 c 0.155979,-9.76e-4 0.28245,-0.126874 0.283853,-0.282848 v -4.698349 l 2.141101,-2.559816 4.397798,7.455963 c 0.03385,0.05498 0.09475,0.08739 0.159267,0.08505 h 3.241834 c 0.148991,0 0.175964,-0.09276 0.101468,-0.219912 l -5.757981,-9.761468 5.282752,-6.3372479 c 0.106605,-0.1284404 0.06165,-0.2504587 -0.105321,-0.2504587 h -3.54367 c -0.04312,-0.00254 -0.08462,0.016768 -0.110459,0.051376 l -5.806789,6.9640366 z"
       id="path11"
       style="fill:#2dbd96;fill-opacity:1" />
    <path
       d="m 57.557982,19.522348 c -1.501468,0 -2.862936,-1.389725 -2.862936,-3.049175 V 5.9795954 c -7.03e-4,-0.1564756 -0.127378,-0.28315 -0.283853,-0.2838532 h -2.667707 c -0.156475,7.032e-4 -0.28315,0.1273776 -0.283853,0.2838532 V 16.432072 c 0,3.654129 2.733211,5.976331 6.098349,5.976331 3.365137,0 6.098348,-2.322202 6.098348,-5.976331 V 5.9795954 C 63.654936,5.8234089 63.528664,5.6971368 63.372477,5.6957422 h -2.668991 c -0.155973,0.0014 -0.281872,0.1278747 -0.282569,0.2838532 V 16.473173 c 0,1.658165 -1.362752,3.049175 -2.862935,3.049175 z"
       id="path13"
       style="fill:#2dbd96;fill-opacity:1" />
    <path
       d="m 8.0711927,13.983999 8.2818343,8.283119 5.227523,-5.227523 c 0.934751,-0.841665 2.364819,-0.804222 3.254246,0.08521 0.889426,0.889426 0.926869,2.319494 0.0852,3.254245 l -6.898532,6.899816 c -0.926633,0.911309 -2.412816,0.911309 -3.33945,0 L 4.7291743,17.323449 v 5.917247 c 0,1.305926 -1.0586617,2.364587 -2.3645871,2.364587 C 1.0586617,25.605283 0,24.546622 0,23.240696 V 4.7195954 C 0,3.41367 1.0586617,2.3550082 2.3645872,2.3550082 c 1.3059254,0 2.3645871,1.0586618 2.3645871,2.3645872 V 10.636843 L 14.680734,0.68399906 c 0.926351,-0.91199875 2.413099,-0.91199875 3.33945,0 l 6.903669,6.89853214 c 0.841665,0.9347508 0.804222,2.3648187 -0.0852,3.2542448 -0.889427,0.889427 -2.319495,0.92687 -3.254245,0.08521 L 16.356881,5.6944578 Z m 8.2856883,-2.367156 v 0 c -0.957542,-5.19e-4 -1.821087,0.57589 -2.187883,1.460394 -0.366795,0.884505 -0.164589,1.902871 0.512312,2.58014 0.676901,0.677268 1.695157,0.880027 2.579861,0.513712 0.884703,-0.366316 1.461582,-1.229548 1.461582,-2.18709 3.4e-4,-0.627809 -0.248729,-1.230039 -0.692416,-1.674208 -0.443687,-0.444169 -1.045647,-0.693892 -1.673456,-0.694232 z"
       id="path15"
       style="fill:#2dbd96;fill-opacity:1" />
  </g>
  <metadata
     id="metadata841">
    <rdf:RDF>
      <cc:Work
         rdf:about="">
        <dc:title>logo_en</dc:title>
      </cc:Work>
    </rdf:RDF>
  </metadata>
</svg>
