<?xml version="1.0" encoding="UTF-8" standalone="no"?>
<!-- Created with Inkscape (http://www.inkscape.org/) -->

<svg
   width="77.217819mm"
   height="15.664106mm"
   viewBox="0 0 77.217819 15.664106"
   version="1.1"
   id="svg5"
   inkscape:version="1.1.2 (0a00cf5339, 2022-02-04)"
   sodipodi:docname="polarity.svg"
   xmlns:inkscape="http://www.inkscape.org/namespaces/inkscape"
   xmlns:sodipodi="http://sodipodi.sourceforge.net/DTD/sodipodi-0.dtd"
   xmlns="http://www.w3.org/2000/svg"
   xmlns:svg="http://www.w3.org/2000/svg">
  <sodipodi:namedview
     id="namedview7"
     pagecolor="#ffffff"
     bordercolor="#666666"
     borderopacity="1.0"
     inkscape:pageshadow="2"
     inkscape:pageopacity="0.0"
     inkscape:pagecheckerboard="0"
     inkscape:document-units="mm"
     showgrid="false"
     fit-margin-top="0"
     fit-margin-left="0"
     fit-margin-right="0"
     fit-margin-bottom="0"
     inkscape:zoom="0.77771465"
     inkscape:cx="129.86768"
     inkscape:cy="210.23135"
     inkscape:window-width="3778"
     inkscape:window-height="1536"
     inkscape:window-x="0"
     inkscape:window-y="0"
     inkscape:window-maximized="1"
     inkscape:current-layer="layer1" />
  <defs
     id="defs2" />
  <g
     inkscape:label="Layer 1"
     inkscape:groupmode="layer"
     id="layer1"
     transform="translate(-70.889309,-92.727124)">
    <path
       style="fill:#ff2178;fill-opacity:1;stroke-width:0.264583"
       d="m 139.12147,108.27341 c -0.0652,-0.0652 -0.073,-0.59561 -0.0174,-1.17868 0.0957,-1.00326 0.14078,-1.0522 0.84064,-0.91223 0.54244,0.10849 0.89443,-0.007 1.32073,-0.43328 0.68394,-0.68395 0.75255,-0.3859 -1.26448,-5.4932 l -1.59351,-4.034896 h 1.39144 1.39143 l 0.72739,2.05052 c 0.40006,1.12779 0.78873,2.318406 0.8637,2.645826 0.2792,1.21941 0.70393,0.49094 1.84903,-3.171346 l 0.47454,-1.51772 1.50108,-0.004 1.50107,-0.004 -0.34576,0.7276 c -0.19017,0.40019 -1.15882,2.8112 -2.15254,5.357816 -2.19312,5.62029 -2.56039,6.08541 -4.80502,6.08541 -0.86007,0 -1.6171,-0.0533 -1.6823,-0.11854 z m -40.346442,-2.50176 c -2.15374,-0.54424 -3.14717,-2.05562 -3.14717,-4.78803 0,-2.967526 1.1834,-4.634436 3.51188,-4.946756 2.365702,-0.31731 4.462002,0.8038 5.096212,2.72547 0.77739,2.355516 2.5e-4,5.385926 -1.64138,6.400516 -1.05268,0.65059 -2.647942,0.90486 -3.819542,0.6088 z m 2.285202,-2.41128 c 0.74535,-0.3989 1.17198,-2.24893 0.80278,-3.481196 -0.52798,-1.76225 -1.936302,-2.29241 -3.072182,-1.15653 -0.52948,0.52948 -0.64943,0.91384 -0.64943,2.080976 0,2.285 1.29956,3.42335 2.918832,2.55675 z M 70.889315,99.263834 v -6.48229 h 2.116667 2.116667 v 1.05833 c 0,1.03452 -0.02098,1.05833 -0.932439,1.05833 h -0.932439 l 0.07254,4.43177 0.07254,4.431766 0.859896,0.0829 c 0.787246,0.0759 0.859896,0.15974 0.859896,0.99219 v 0.90929 h -2.116667 -2.116667 z m 8.466667,5.556246 c 0,-0.85255 0.063,-0.92604 0.79375,-0.92604 h 0.79375 v -4.497916 -4.49792 h -0.79375 c -0.749653,0 -0.79375,-0.0588 -0.79375,-1.05833 v -1.05833 h 1.984375 1.984375 v 6.48229 6.482286 h -1.984375 -1.984375 z m 32.109038,0.66368 c -0.88281,-0.35625 -1.41737,-1.33496 -1.41737,-2.59499 0,-1.96744 1.82724,-3.222826 4.69635,-3.226586 0.9059,-10e-4 1.12448,-0.094 1.12448,-0.47773 0,-0.71375 -0.53409,-1.11125 -1.49312,-1.11125 -0.56305,0 -0.98777,0.18511 -1.23518,0.53833 -0.33224,0.47434 -0.50942,0.50858 -1.49081,0.28808 -1.42653,-0.32052 -1.49796,-0.40926 -0.97361,-1.20952 0.63131,-0.9635 1.94266,-1.5457 3.60522,-1.6006 1.73676,-0.0574 2.64975,0.21693 3.40773,1.02376 0.51323,0.54631 0.56786,0.93646 0.62773,4.483556 l 0.0656,3.88517 -1.25678,-2.2e-4 c -0.69122,-1.2e-4 -1.25677,-0.12234 -1.25677,-0.2716 0,-0.15556 -0.33316,-0.0991 -0.78061,0.13229 -0.8443,0.43661 -2.7107,0.50941 -3.62285,0.14131 z m 3.10219,-1.85431 c 0.44149,0 1.30127,-1.04889 1.30127,-1.5875 0,-0.42646 -0.17639,-0.52916 -0.90881,-0.52916 -1.72483,0 -2.74104,0.73168 -2.36765,1.70473 0.16141,0.42062 0.83162,0.66968 1.37988,0.51278 0.1938,-0.0555 0.46169,-0.10085 0.59531,-0.10085 z m 19.42582,1.47985 c -0.62642,-0.62642 -0.66205,-0.8193 -0.66205,-3.58449 v -2.922436 h -0.85989 c -0.84275,0 -0.8599,-0.0237 -0.8599,-1.19063 0,-1.16688 0.0171,-1.19062 0.8599,-1.19062 0.84275,0 0.85989,-0.0237 0.85989,-1.19063 v -1.19062 h 1.32292 1.32292 v 1.19062 c 0,1.18433 0.005,1.19063 0.92604,1.19063 0.92114,0 0.92604,0.006 0.92604,1.19062 0,1.18433 -0.005,1.19063 -0.92604,1.19063 h -0.92604 v 2.376206 c 0,2.29922 0.0209,2.38146 0.64642,2.53845 0.35553,0.0892 0.77225,0.0845 0.92604,-0.0106 0.28295,-0.17487 0.30163,-0.10897 0.37242,1.31363 0.0395,0.79368 0.0394,0.79375 -1.61357,0.8725 -1.46698,0.0699 -1.72759,0.004 -2.3151,-0.58328 z M 85.441399,99.104334 v -6.37721 l 3.241146,0.10215 c 3.668863,0.11562 4.662783,0.46105 5.394923,1.87497 0.26991,0.52126 0.43756,1.44578 0.42916,2.36669 -0.0258,2.83393 -1.58141,4.177266 -4.83725,4.177266 h -1.582146 v 2.11667 2.11667 h -1.322917 -1.322916 z m 6.032499,-0.81946 c 0.45854,-0.45854 0.39002,-1.80966 -0.120382,-2.37365 -0.32017,-0.35378 -0.818046,-0.48385 -1.852083,-0.48385 h -1.414201 v 1.5875 1.5875 h 1.534583 c 0.844021,0 1.677459,-0.14288 1.852083,-0.3175 z m 14.472712,0.84648 v -6.34998 l 1.32292,-1e-5 1.32291,-1e-5 v 6.34997 6.349966 l -1.32291,2e-5 -1.32292,1e-5 z m 14.15521,1.719976 v -4.630206 h 1.32291 c 1.14653,0 1.32292,0.0706 1.32292,0.52917 0,0.66316 0.13059,0.66316 0.79375,0 0.49736,-0.49736 0.82353,-0.58797 2.11667,-0.58797 1.25981,0 1.24707,-0.0185 0.95837,1.39085 -0.26354,1.28654 -0.29873,1.32637 -1.02997,1.16577 -0.99961,-0.21955 -2.1682,0.28857 -2.53991,1.10439 -0.1644,0.360806 -0.29891,1.781506 -0.29891,3.157106 v 2.5011 h -1.32292 -1.32291 z m 7.88315,-3.2e-4 -0.0779,-4.630526 1.38906,3.1e-4 1.38906,3.3e-4 v 4.630206 4.63021 h -1.31112 -1.31112 l -0.0779,-4.63054 z m -53.391488,0.92636 v -0.79375 h 2.483512 2.483511 l 0.116498,0.79375 0.116498,0.79375 h -2.60001 -2.600009 z m 0,-2.248956 c 0,-0.65914 0.0088,-0.66146 2.513542,-0.66146 2.504722,0 2.513541,0.002 2.513541,0.66146 0,0.659136 -0.0088,0.661456 -2.513541,0.661456 -2.504723,0 -2.513542,-0.002 -2.513542,-0.661456 z m 0,-2.51354 v -0.79375 h 2.483512 2.483511 l 0.116498,0.79375 0.116498,0.79375 h -2.60001 -2.600009 z m 53.445838,-3.04271 v -1.19062 h 1.32291 1.32292 v 1.19062 1.19063 h -1.32292 -1.32291 z"
       id="path872" />
  </g>
</svg>
