<?xml version="1.0" encoding="UTF-8" standalone="no"?>
<!-- Created with Inkscape (http://www.inkscape.org/) -->

<svg
   version="1.1"
   id="svg2"
   width="3020.2554"
   height="1085.552"
   viewBox="0 0 3020.2554 1085.552"
   sodipodi:docname="safetrade.svg"
   inkscape:version="1.1.2 (0a00cf5339, 2022-02-04)"
   xmlns:inkscape="http://www.inkscape.org/namespaces/inkscape"
   xmlns:sodipodi="http://sodipodi.sourceforge.net/DTD/sodipodi-0.dtd"
   xmlns="http://www.w3.org/2000/svg"
   xmlns:svg="http://www.w3.org/2000/svg">
  <defs
     id="defs6" />
  <sodipodi:namedview
     id="namedview4"
     pagecolor="#ffffff"
     bordercolor="#666666"
     borderopacity="1.0"
     inkscape:pageshadow="2"
     inkscape:pageopacity="0.0"
     inkscape:pagecheckerboard="0"
     showgrid="false"
     fit-margin-top="0"
     fit-margin-left="0"
     fit-margin-right="0"
     fit-margin-bottom="0"
     inkscape:zoom="0.41729694"
     inkscape:cx="1500.1308"
     inkscape:cy="528.40071"
     inkscape:window-width="3778"
     inkscape:window-height="1536"
     inkscape:window-x="0"
     inkscape:window-y="0"
     inkscape:window-maximized="1"
     inkscape:current-layer="g8" />
  <g
     inkscape:groupmode="layer"
     inkscape:label="Image"
     id="g8"
     transform="translate(-21.385716,-14.977187)">
    <path
       style="fill:#1a90ff;fill-opacity:1"
       d="M 21.392146,927.92243 V 754.86341 h 11.5 11.5 V 909.9704 c 0,123.6953 0.25314,155.002 1.25,154.5888 0.6875,-0.285 22.4,-10.407 48.25,-22.4934 25.850004,-12.0863 114.275004,-53.33797 196.500004,-91.67036 82.225,-38.3324 189.21253,-88.21149 237.75003,-110.84242 l 88.25,-41.14716 V 654.63463 510.86341 h 11.5032 11.5032 l -0.2532,151.03669 -0.2532,151.03671 -80.5,37.5333 c -44.275,20.64332 -106.375,49.59944 -138,64.34694 -190.00666,88.60465 -356.454014,166.19465 -375.500034,175.04065 -12.1,5.6199 -22.3375,10.4218 -22.75,10.6709 -0.4125,0.249 -0.75,-77.4237 -0.75,-172.60617 z m 49,-4.8622 V 832.12228 L 233.45062,756.24285 c 124.4489,-57.91245 162.69176,-76.11357 161.50966,-76.86822 -0.8518,-0.54382 -74.1156,-34.76858 -162.80844,-76.05502 L 70.892146,528.25336 70.636956,436.19948 70.381776,344.14559 331.68143,222.5045 c 143.71475,-66.9026 261.61715,-121.64109 262.00515,-121.64109 0.3881,0 0.7056,40.88828 0.7056,90.86285 v 90.86284 l -163.9972,76.34001 c -90.19841,41.98701 -163.66091,76.67478 -163.24998,77.08393 1.02841,1.02398 325.13388,151.85036 326.30588,151.85036 0.5815,0 0.9413,35.15896 0.9413,92 0,77.33838 -0.2189,92.00001 -1.3733,92.00001 -0.7553,0 -117.8559,54.2266 -260.22354,120.50356 -142.36763,66.27695 -259.649664,120.75723 -260.626724,121.06733 -1.69308,0.5374 -1.77647,-3.7053 -1.77647,-90.37407 z M 813.39218,808.82509 c -54.7901,-5.2785 -87.7531,-28.30332 -98.0119,-68.46168 -4.6684,-18.27481 -4.8722,-41.98069 -0.5071,-59.00001 3.6793,-14.34557 15.6584,-32.81331 27.2701,-42.04118 23.7546,-18.87797 58.2308,-28.57583 101.6119,-28.5825 17.3424,-0.003 29.5577,1.30705 48.497,5.19982 5.1481,1.05812 9.5914,1.92386 9.8741,1.92386 0.2827,0 0.2858,-7.9875 0.01,-17.75 -0.5785,-20.24822 -2.3248,-28.82708 -8.3819,-41.17618 -4.9166,-10.02352 -14.2307,-19.31543 -24.3592,-24.30106 -12.6441,-6.22383 -18.5714,-7.22893 -42.5,-7.20669 -26.4487,0.0246 -47.1547,2.77982 -67.0718,8.92493 -4.3169,1.3319 -8.0576,2.21295 -8.3127,1.95788 -0.2551,-0.25507 -1.9314,-10.68925 -3.7252,-23.18709 -2.4615,-17.14965 -2.9707,-22.91314 -2.0759,-23.4971 4.5641,-2.97862 31.355,-8.88307 51.748,-11.40473 20.5044,-2.53543 57.853,-2.31566 72.9376,0.4292 48.9291,8.90334 75.8495,35.53293 85.1506,84.2306 2.1585,11.30176 2.1985,13.19995 2.5692,122.09459 l 0.3766,110.61435 -16.7982,2.62991 c -46.6956,7.31061 -102.7197,11.06732 -128.2982,8.60308 z m 77.5,-48.88691 c 3.85,-0.58412 8.0125,-1.29847 9.25,-1.58745 l 2.25,-0.52542 v -47.44222 -47.44221 l -5.25,-1.56843 c -11.639,-3.47711 -23.9633,-4.81993 -44.75,-4.87581 -33.4509,-0.0899 -50.1404,3.84765 -65.7559,15.51378 -11.9769,8.94784 -17.3509,20.11401 -17.3742,36.10042 -0.044,30.1324 14.3527,46.09088 46.6301,51.68869 3.3,0.57231 7.125,1.23904 8.5,1.48162 4.6947,0.82824 59.4818,-0.27819 66.5,-1.34297 z m 506.50002,48.29619 c -81.8286,-11.09233 -128,-70.1532 -128,-163.73305 0,-63.73149 23.3905,-114.43949 66.1748,-143.45967 13.0418,-8.84611 35.329,-17.63309 52.8252,-20.82695 11.4945,-2.09828 38.5837,-2.35897 50.5,-0.48599 48.2117,7.57786 80.8209,35.01757 95.8258,80.63469 7.2026,21.89702 9.7063,39.42755 10.3899,72.75 l 0.5487,26.75 h -108.7304 -108.7304 l 0.68,6.25 c 3.7612,34.5684 17.8384,62.82623 38.3431,76.96765 11.0161,7.59742 28.2983,13.60124 45.6619,15.86288 12.1414,1.58143 49.0692,0.64689 60.8563,-1.5401 10.4961,-1.94746 31.1239,-7.76953 37.4635,-10.57382 2.4754,-1.09497 4.586,-1.8729 4.6902,-1.72873 0.1042,0.14417 1.9132,10.78579 4.0198,23.64805 4.5035,27.49577 5.6268,24.4132 -10.7913,29.61247 -14.9359,4.72984 -31.0447,8.20637 -46.2865,9.9893 -16.2694,1.90313 -50.997,1.84118 -65.4406,-0.11673 z m 88.7036,-205.12097 c -2.0071,-36.19823 -22.1479,-65.41314 -50.7998,-73.68656 -14.755,-4.26059 -33.1678,-3.86397 -47.8089,1.02984 -21.1444,7.06753 -40.4624,26.20666 -49.1534,48.69816 -3.3618,8.70014 -7.3227,23.38584 -8.215,30.45856 l -0.5362,4.25 h 78.5547 78.5546 z m 237.7964,206.04554 c -39.0208,-1.60121 -65.4212,-14.10715 -81.1682,-38.44947 -10.9932,-16.99381 -16.3275,-38.08914 -18.3233,-72.46352 -0.5549,-9.55704 -0.9864,-78.3548 -0.9944,-158.55309 l -0.014,-141.67054 2.75,-0.56054 c 1.5125,-0.30829 13.55,-2.39084 26.75,-4.62789 13.2,-2.23704 24.7875,-4.30088 25.75,-4.5863 1.6499,-0.48928 1.75,2.28656 1.75,48.54843 v 49.06739 h 59.5 59.5 v 23.5 23.49999 h -59.5 -59.5 l 0.01,83.25 c 0,67.73436 0.2766,85.02055 1.4582,92.75 4.4761,29.27972 15.4478,43.64122 37.5359,49.13263 7.1092,1.76746 36.0014,1.78935 45.5,0.0345 3.85,-0.7113 13.525,-3.68389 21.5,-6.60576 7.975,-2.92187 14.5923,-5.23865 14.7052,-5.1484 0.1751,0.14008 2.3901,9.40013 9.7598,40.80176 l 1.3412,5.71469 -8.0113,3.08946 c -25.8644,9.97438 -52.6875,14.40955 -80.2949,13.27669 z m 468.5,-0.36585 c -59.8442,-3.30038 -95.6215,-28.36586 -105.2355,-73.7276 -2.9801,-14.06119 -2.9662,-38.2767 0.029,-50.41135 10.1333,-41.05442 44.6796,-65.60069 101.7162,-72.27261 24.5203,-2.8683 48.7621,-1.70903 74.3475,3.55537 5.1496,1.05958 9.9884,1.9265 10.7529,1.9265 2.3183,0 1.8913,-26.66476 -0.6301,-39.34292 -5.1479,-25.88463 -20.2906,-42.65681 -44.48,-49.2665 -8.0415,-2.19731 -35.9146,-2.97422 -52.3467,-1.45906 -14.4816,1.3353 -33.5743,4.95612 -44.6055,8.45919 l -7.5619,2.40135 -0.4708,-2.14603 c -0.259,-1.18032 -1.6202,-10.47102 -3.0251,-20.64602 -1.4048,-10.175 -2.7941,-19.70863 -3.0874,-21.18585 -0.513,-2.58338 -0.2352,-2.77967 7.282,-5.14544 8.3906,-2.64063 22.7334,-5.69513 38.8154,-8.2663 15.664,-2.50434 59.9213,-3.09055 74.2647,-0.98368 28.6845,4.21338 48.5566,13.65978 64.8752,30.83905 12.2547,12.90101 19.0046,26.78682 24.1798,49.74221 l 2.5926,11.5 0.3303,112.75 c 0.2762,94.26821 0.1086,112.75001 -1.0225,112.75001 -0.7441,0 -8.5128,1.12104 -17.2637,2.4912 -41.4088,6.48346 -91.1686,9.99853 -119.4564,8.43848 z m 73.5,-48.83961 c 3.85,-0.61206 7.5625,-1.31859 8.25,-1.57007 0.976,-0.357 1.25,-10.84977 1.25,-47.8673 v -47.41007 l -2.75,-1.10679 c -12.8538,-5.17325 -46.4605,-7.61907 -70.0394,-5.09731 -27.031,2.89096 -46.5874,12.74773 -55.4771,27.96146 -7.393,12.65214 -7.5339,33.83476 -0.3298,49.57059 6.2159,13.57739 22.8622,23.04206 47.0963,26.7779 5.7352,0.88412 65.0433,-0.15246 72,-1.25841 z m 276.5,48.85624 c -37.5087,-4.6478 -66.8269,-18.35056 -90.5171,-42.3059 -31.5968,-31.95056 -45.9274,-74.33002 -44.176,-130.64042 1.8141,-58.32498 21.792,-103.6289 57.565,-130.54027 25.1338,-18.90768 56.1135,-27.74134 91.6281,-26.12714 23.1675,1.05301 41.0816,5.55827 62.25,15.65545 l 10.25,4.88918 v -79.93861 c 0,-43.96623 0.1998,-79.9386 0.4441,-79.9386 0.2442,0 12.0567,-2.02181 26.25,-4.49292 14.1932,-2.47111 26.5934,-4.49611 27.5559,-4.5 1.6616,-0.007 1.75,11.67886 1.75,231.45437 v 231.46146 l -3.75,0.99944 c -16.7458,4.46304 -48.1432,10.52456 -65.25,12.59705 -15.8055,1.91483 -62.7562,2.82016 -74,1.42691 z m 59,-50.01515 c 7.8569,-0.90256 22.1369,-3.38558 26.25,-4.56439 1.6517,-0.47338 1.75,-6.14148 1.75,-100.9279 V 552.87594 l -4.0358,-2.92353 c -6.167,-4.46735 -20.4594,-11.53561 -30.343,-15.00607 -12.2075,-4.28642 -23.6182,-6.0853 -38.5022,-6.0698 -16.7052,0.0174 -28.3027,2.41111 -40.4441,8.3476 -30.8006,15.05989 -46.6199,45.04551 -49.6415,94.09532 -2.4912,40.44211 5.9819,73.41288 24.6974,96.10252 14.5472,17.63624 37.4406,29.64172 61.7817,32.39873 8.9825,1.01742 35.602,0.45407 48.4875,-1.02614 z m 298,50.0334 c -38.3154,-4.65142 -66.9733,-17.64075 -90.0949,-40.83592 -16.1127,-16.16388 -25.4044,-31.40477 -32.9315,-54.01637 -7.3756,-22.15637 -10.1378,-40.98724 -10.1378,-69.11228 0,-35.49864 4.8115,-59.41858 17.2835,-85.92295 15.5479,-33.04086 41.8934,-58.27704 73.6367,-70.53618 17.9355,-6.92658 27.4816,-8.71828 49.244,-9.2425 14.5164,-0.34967 22.0557,-0.0778 29.5,1.06374 47.3318,7.25813 79.9093,34.78964 94.8258,80.13789 7.2854,22.14862 9.7067,39.11171 10.3843,72.75 l 0.5389,26.75 h -108.7184 -108.7183 l 0.6517,5.25 c 5.1647,41.60794 19.8149,68.17 45.536,82.56084 27.9597,15.64334 82.0534,17.1863 125.119,3.56886 6.2595,-1.97929 12.5265,-4.18842 13.9266,-4.90916 l 2.5455,-1.31045 3.8559,23.46849 c 2.5,15.21539 3.5137,23.81073 2.8827,24.44171 -3.0322,3.03221 -35.2831,11.79132 -53.3297,14.48394 -12.4254,1.85392 -54.8742,2.761 -66,1.41034 z m 84,-198.7408 c 0,-13.53386 -4.1154,-31.6008 -9.9596,-43.72377 -11.9646,-24.81885 -32.0258,-38.34433 -59.5404,-40.14292 -42.2386,-2.76106 -76.7164,27.25896 -85.9612,74.84685 -0.8864,4.56284 -1.8288,9.30857 -2.0943,10.54607 l -0.4826,2.25 h 79.019 79.0191 z m -1930.75,6.52623 c 0.3187,-207.68278 -0.2127,-191.98013 7.2565,-214.42148 13.4463,-40.39953 39.6497,-62.18613 83.9702,-69.81645 20.7018,-3.56405 53.8855,-2.87486 76.0233,1.57892 15.8106,3.18085 23.5072,5.70779 23.457,7.70137 -0.056,2.236 -9.5073,46.09571 -10.0444,46.61377 -0.2269,0.21889 -4.2813,-0.89965 -9.0097,-2.48566 -13.0982,-4.39338 -22.1077,-6.01093 -36.9029,-6.62547 -20.9532,-0.87032 -37.4271,2.18268 -49.2895,9.13453 -6.6216,3.88049 -15.0415,13.29201 -19.0979,21.34697 -7.7366,15.36277 -10.6126,31.53709 -10.6126,59.6841 v 16.53941 h 61 61 v 24 23.99999 h -61 -61 v 134.5 134.50001 h -28.0179 -28.018 z m 819.75,34.40868 V 499.18077 l 10.75,-3.30308 c 56.0276,-17.21517 104.2894,-20.44432 155.2121,-10.38508 6.8542,1.35396 12.6872,2.68676 12.9622,2.96176 0.3844,0.38442 -5.7991,34.14828 -8.6132,47.03047 l -0.4634,2.12144 -5.9032,-1.8373 c -16.2597,-5.06058 -27.2717,-6.40558 -52.4445,-6.40558 -23.6946,0 -24.2004,0.0441 -39.75,3.46915 l -15.75,3.46915 v 133.28085 133.28086 h -28 -28 z M 21.638926,454.3216 l 0.25322,-151.54181 73,-34.0458 C 135.04215,250.0088 183.64215,227.35538 202.89215,218.39306 237.83697,202.12361 366.24688,142.25141 535.39218,63.362117 c 49.225,-22.95852 92.7625,-43.23725 96.75,-45.06384 l 7.25,-3.32109 V 188.4203 361.86341 h -11.5 -11.5 V 206.25642 c 0,-124.095293 -0.2532,-155.502053 -1.25,-155.088803 -0.6875,0.285 -22.4,10.40734 -48.25,22.49407 -25.85,12.08673 -114.275,53.338853 -196.50003,91.671373 -82.225,38.33252 -189.2125,88.21128 -237.75,110.84169 L 44.392146,317.32096 V 461.59218 605.8634 h -11.50322 -11.50321 z"
       id="path971" />
  </g>
</svg>
