<svg xmlns="http://www.w3.org/2000/svg" preserveAspectRatio="xMidYMid meet" viewBox="0 0 270 30"><defs><linearGradient x1=".0046285%" y1="49.9990596%" x2="100%" y2="49.9990596%" id="a"><stop stop-color="#00B8C4" offset="0%"/><stop stop-color="#00EFFF" offset="100%"/></linearGradient><linearGradient x1="45.9907807%" y1="49.9990596%" x2="54.0095905%" y2="50%" id="b"><stop stop-color="#00EFFF" offset="0%"/><stop stop-color="#49F4FF" offset="100%"/></linearGradient></defs><g fill-rule="nonzero" fill="none"><path fill="#49F4FF" d="M14.32331222.1500506V26.105957H13.540988V.1500506z"/><path d="M14.9 0v26.45c-.1796468-.0023602-.3536229-.0634932-.4955256-.1741212l-6.69851467-5.6649077c-.1804987-.1675655-.28050131-.4049707-.27452117-.6517107V5.9300694c-.00707751-.24479337.09481971-.48003093.27798985-.64176086l6.71833569-5.108715C14.5594764.0662346 14.7265356.00270123 14.9 0z" fill="url(#a)" transform="matrix(-1 0 0 1 28.77208 0)"/><path d="M7.46890714 0v26.3749747c-.17964681-.0023536-.35362293-.0633131-.49552557-.1736273l-6.6985147-5.6488392c-.1804987-.1670902-.2805013-.403822-.27452117-.6498621V5.91324879c-.00707751-.24409902.09481971-.47866932.27798985-.63994052L6.99667126.17908413C7.12838357.06604673 7.29544271.00269355 7.46890714 0z" fill="url(#b)" transform="translate(6.440988)"/><path d="M13.31684107 7.30313413c.35440834-.27084551.84339583-.27084551 1.19780423 0l.0101088.0079412 3.9239349 3.17003797c.0102849.0045902.0223751.0037175.0320366-.0027488l.02843-.017626 4.0188216-2.30185113.1071343-.0608258c.5701993-.27642316 1.3261596.06141441 1.3550241.72725383l.0008524.03954318-.0002673 12.53966022c-.0083942.254691-.1268701.4928109-.3132127.6423347l-9.1109948 7.7724513-.0435106.0237988c-.3984384.2179317-.91037087.2094435-1.25696366-.0292997l-.0204944-.0141172-9.11600221-7.7801564c-.17524936-.1576909-.27991176-.3825224-.28855433-.6371828V8.86485858c0-.71836654.83684495-1.07757448 1.42318116-.73185382l.03982234.02490902 4.02077737 2.30281892.02844012.0176318c.0071059.0047559.01552556.0064859.02121928.0070908l.00655591.0002729L9.382988 10.483l.993-.803zM18.476988 19.003l-3.9438545 3.2910926-.01604.0128083c-.0325411.0248685-.0662168.0474537-.1008188.0677554L14.415988 28.673l8.274-7.058-4.213-2.612zm-9.123-.001l-4.212 2.608 8.274 7.061.001-6.299-.09769868-.0650991-.01595243-.0127353L9.353988 19.002zm4.5562028-10.92923327h-.0031337L9.9706443 11.2549333a1.00193272 1.00193272 0 01-.00584041.0044164l-.08940453.0715052-.00019243 6.8441675 4.02490177 3.3553926c.0145985.0065645.0215669.0065645.0280006.0044125l.0074068-.0042178 4.0233624-3.3553926v-6.8459199L17.880988 11.267l-.0284872-.0205328-3.9187165-3.16605146c-.0140719-.00675061-.0200701-.00764901-.0235935-.00764901zm9.1184937.91815363l-4.037025 2.31208984-.0196399.012511c-.0165369.0099794-.0332861.01943-.0502259.0283519L18.920988 18.136l4.107 2.547.0006965-11.69207964zM4.80309174 8.98975205L4.801988 20.68l4.111-2.546v-6.791l-.09057184-.0525969.02058704.0131912-4.03991146-2.31384225z" fill="#6800FF"/><g fill="#6800FF"><path d="M44.04999969 24.7860963c.45390074 0 .69420113-.2673797.69420113-.6951872V8.5026738h3.73800608c.4539007 0 .6942011-.24064171.6942011-.69518717V5.69518717C49.176408 5.26737967 48.9361076 5 48.4822069 5H37.53518913c-.4272007 0-.69420113.26737968-.69420113.69518717v2.11229946c0 .45454546.26700043.69518717.69420113.69518717h3.73800606v15.5882353c0 .4278075.24030039.6951872.69420112.6951872h2.08260338zM55.5043183 25c3.1773051 0 5.7939094-2.5935829 5.7939094-5.802139v-7.08556153c0-.42780749-.2670005-.69518717-.7209012-.69518717h-2.0826034c-.4272007 0-.6942011.26737968-.6942011.69518717V19.197861c0 1.2566845-1.0413017 2.3262032-2.2962037 2.3262032-1.2816021 0-2.3229038-1.0695187-2.3229038-2.3262032v-7.08556153c0-.42780749-.2670004-.69518717-.6942011-.69518717H50.40461c-.4272007 0-.6942011.26737968-.6942011.69518717V19.197861c0 3.2085561 2.5899042 5.802139 5.7939094 5.802139zm10.9470177-.2139037c.4272007 0 .6942011-.2673797.6942011-.6951872v-7.1657754c0-1.2834225 1.0146017-2.19251338 2.2962038-2.19251338h.9345015c.4539007 0 .7209012-.24064171.7209012-.69518716v-1.92513369c0-.42780749-.2670005-.69518717-.7209012-.69518717h-1.1748019c-1.0413017 0-2.0025033.24064171-2.7768045.85561497v-.24064171c0-.40106952-.2136004-.61497326-.587401-.61497326h-1.4685024c-.4272006 0-.6942011.26737968-.6942011.69518717V24.0909091c0 .4278075.2670005.6951872.6942011.6951872h2.0826034zm13.4034218 0c.4539007 0 .6942011-.2673797.6942011-.6951872v-2.1122995c0-.4545454-.2403004-.6951871-.6942011-.6951871h-1.6287027c-.9612015 0-1.6554027-.7219252-1.6554027-1.684492v-5.13368986h3.4176056c.4272007 0 .6675011-.24064171.6675011-.6684492V12.0855615c0-.42780749-.2403004-.6684492-.6675011-.6684492h-3.4176056V7.86096257c0-.42780749-.2670004-.69518717-.6942011-.69518717h-2.1093034c-.4272007 0-.6942011.26737968-.6942011.69518717V19.5721925c0 3.4491979 1.9491031 5.2139038 5.0463081 5.2139038h1.7355029zm7.7697126 0c.4272007 0 .6942011-.2673797.6942011-.6951872v-2.1122995c0-.4545454-.1602003-.6951871-.5607009-.6951871h-.2937005c-.7743013 0-1.3083021-.5347594-1.3083021-1.4438503V6.76470588c0-.42780748-.2670005-.69518716-.6942011-.69518716h-2.1093035c-.4272007 0-.6942011.26737968-.6942011.69518716V19.7860963c0 3.5026738 1.4685024 5 4.7259077 5h.2403004zM96.8893854 25c1.5753025 0 3.4443056-.4812834 5.1531083-1.8181818.3738007-.2673797.4005007-.6149733.1068002-.9893048l-1.1748019-1.3903744c-.2670004-.3475935-.5874009-.3743315-.9612015-.1604278-.8010013.5614974-1.8690031 1.0695187-3.070505 1.0695187-1.4418024 0-2.9370048-.802139-3.5778058-2.5133689h9.3717152c.4539007 0 .7209011-.2406417.6942011-.6951872-.2670004-4.49197861-3.070505-7.29946524-6.781811-7.29946524-3.8448062 0-6.8619111 2.96791443-6.8619111 6.76470584C89.7871739 21.7914439 92.8309788 25 96.8893854 25zm2.7768045-8.4759358h-6.2745102c.2670004-1.4171123 1.5753026-2.43315511 3.1773052-2.43315511 1.6554027 0 2.8302046 1.12299461 3.097205 2.43315511zm8.9712145 8.2620321c.4272007 0 .6942012-.2673797.6942012-.6951872V11.57754011l8.8644143 12.78074869c.1869003.3208556.4539008.4278075.8010013.4278075h1.4952025c.4539007 0 .7209011-.2673797.7209011-.6951872V5.69518717c0-.4278075-.2670004-.69518717-.7209011-.69518717h-2.0826034c-.4272007 0-.6942011.26737968-.6942011.69518717V18.2620321l-8.9178145-12.83422461C108.5840044 5.10695187 108.3170039 5 107.9699034 5h-1.4418024c-.4272007 0-.6942011.26737968-.6942011.69518717V24.0909091c0 .4278075.2670004.6951872.6942011.6951872h2.1093034zM130.58484 25c1.5753026 0 3.4443056-.4812834 5.1531084-1.8181818.3738006-.2673797.4005006-.6149733.1068002-.9893048l-1.1748019-1.3903744c-.2670005-.3475935-.587401-.3743315-.9612016-.1604278-.8010013.5614974-1.869003 1.0695187-3.070505 1.0695187-1.4418023 0-2.9370047-.802139-3.5778058-2.5133689h9.3717152c.4539005 0 .7209015-.2406417.6942015-.6951872-.267001-4.49197861-3.0705053-7.29946524-6.7818114-7.29946524-3.8448062 0-6.8619111 2.96791443-6.8619111 6.76470584 0 3.8235295 3.043805 7.0320856 7.1022115 7.0320856zm2.7768045-8.4759358h-6.2745101c.2670004-1.4171123 1.5753025-2.43315511 3.1773051-2.43315511 1.6554027 0 2.8302046 1.12299461 3.097205 2.43315511zm12.8160205 8.2620321c.453901 0 .694201-.2673797.694201-.6951872v-2.1122995c0-.4545454-.2403-.6951871-.694201-.6951871h-1.628702c-.961202 0-1.655403-.7219252-1.655403-1.684492v-5.13368986h3.417606c.4272 0 .667501-.24064171.667501-.6684492V12.0855615c0-.42780749-.240301-.6684492-.667501-.6684492h-3.417606V7.86096257c0-.42780749-.267-.69518717-.694201-.69518717h-2.109304c-.4272 0-.694201.26737968-.694201.69518717V19.5721925c0 3.4491979 1.949103 5.2139038 5.046309 5.2139038h1.735502zm9.131415 0c.373801 0 .640801-.1871658.774301-.5347594l2.643305-6.8716578 2.616604 6.8716578c.1335.3743315.373801.5347594.747601.5347594h1.228202c.373801 0 .640801-.1871658.774301-.5347594l4.672508-12.05882353c.1869-.48128342-.0267-.77540107-.507301-.77540107h-2.296204c-.3738 0-.614101.16042781-.747601.53475936l-2.670004 7.11229944-2.643304-6.73796789c-.106801-.29411765-.320401-.42780749-.640801-.42780749l-1.094702-.02673797c-.293701 0-.534001.13368984-.640801.42780749l-2.643305 6.76470586-2.670004-7.11229944c-.1335-.37433155-.3738-.53475936-.747601-.53475936h-2.322904c-.507301 0-.694201.29411765-.534001.77540107l4.725908 12.05882353c.1335.3475936.400501.5347594.774301.5347594h1.201502zM176.562315 25c3.791406 0 6.888611-3.1016043 6.888611-6.8983957 0-3.79679147-3.097205-6.89839574-6.888611-6.89839574-3.791407 0-6.888612 3.10160427-6.888612 6.89839574 0 3.7967914 3.097205 6.8983957 6.888612 6.8983957zm0-3.5026738c-1.869003 0-3.390906-1.5240642-3.390906-3.3957219 0-1.8716578 1.521903-3.36898398 3.390906-3.36898398 1.869003 0 3.364205 1.49732618 3.364205 3.36898398 0 1.8716577-1.495202 3.3957219-3.364205 3.3957219zm11.934919 3.2887701c.427201 0 .694201-.2673797.694201-.6951872v-7.1657754c0-1.2834225 1.014602-2.19251338 2.296204-2.19251338h.934501c.453901 0 .720901-.24064171.720901-.69518716v-1.92513369c0-.42780749-.267-.69518717-.720901-.69518717h-1.174802c-1.041301 0-2.002503.24064171-2.776804.85561497v-.24064171c0-.40106952-.2136-.61497326-.587401-.61497326h-1.468502c-.427201 0-.694202.26737968-.694202.69518717V24.0909091c0 .4278075.267001.6951872.694202.6951872h2.082603zm9.425115 0c.427201 0 .694201-.2673797.694201-.6951872v-3.6363636l.614101-.7486631 3.337506 4.6524064c.2136.2941176.480601.4278075.827701.4278075h2.670004c.534001 0 .720902-.3743316.400501-.828877l-5.046308-6.737968 4.352107-4.973262c.373801-.42780748.1869-.828877-.400501-.828877h-2.563204c-.3204 0-.587401.10695187-.827701.37433155l-3.364206 3.87700535V6.76470588c0-.42780748-.267-.69518716-.694201-.69518716h-2.109303c-.427201 0-.694201.26737968-.694201.69518716V24.0909091c0 .4278075.267.6951872.694201.6951872h2.109303z"/></g><path d="M223.916605 25c5.513513 0 10-4.4864865 10-10 0-5.51351351-4.486487-10-10-10h-4.891892c-.378378 0-.594595.21621622-.594595.59459459V24.4054054c0 .3783784.216217.5945946.594595.5945946h4.891892zm0-2.7297297h-2.756757V7.72972973h2.756757c4 0 7.27027 3.27027027 7.27027 7.27027027s-3.27027 7.2702703-7.27027 7.2702703zM246.646335 25c.351351 0 .594594-.2162162.594594-.5945946v-1.5405405c0-.3513514-.243243-.5945946-.594594-.5945946h-7.297298v-6.0810811h6.810811c.351352 0 .540541-.2162162.540541-.5405406v-1.3243243c0-.3243243-.189189-.5405405-.540541-.5405405h-6.810811V7.72972973h7.297298c.351351 0 .594594-.24324324.594594-.59459459V5.59459459c0-.37837837-.243243-.59459459-.594594-.59459459h-9.432433c-.378378 0-.594594.21621622-.594594.59459459V24.4054054c0 .3783784.216216.5945946.594594.5945946h9.432433zm5.81081 0c.297298 0 .513514-.1081081.675676-.3513514l4.945946-7.2972972 4.918919 7.2972972c.135135.2432433.378378.3513514.675676.3513514h2c.432432 0 .621621-.2702703.378378-.6486486L259.727416 15l6.297297-9.35135135C266.267956 5.27027027 266.105794 5 265.673362 5h-2c-.297298 0-.540541.13513514-.675676.35135135l-4.918919 7.27027025-4.945946-7.27027025C252.970659 5.13513514 252.754443 5 252.457145 5h-2c-.432432 0-.594594.27027027-.351351.64864865L256.403091 15l-6.324324 9.3513514c-.243243.3783783-.054054.6486486.378378.6486486h2z" fill="#000"/></g></svg>
