<?xml version="1.0" encoding="UTF-8" standalone="no"?>
<!-- Created with Inkscape (http://www.inkscape.org/) -->

<svg
   width="119.54202mm"
   height="25.098064mm"
   viewBox="0 0 119.54201 25.098064"
   version="1.1"
   id="svg5"
   inkscape:version="1.1.2 (0a00cf5339, 2022-02-04)"
   sodipodi:docname="uniswap.svg"
   xmlns:inkscape="http://www.inkscape.org/namespaces/inkscape"
   xmlns:sodipodi="http://sodipodi.sourceforge.net/DTD/sodipodi-0.dtd"
   xmlns="http://www.w3.org/2000/svg"
   xmlns:svg="http://www.w3.org/2000/svg">
  <sodipodi:namedview
     id="namedview7"
     pagecolor="#ffffff"
     bordercolor="#666666"
     borderopacity="1.0"
     inkscape:pageshadow="2"
     inkscape:pageopacity="0.0"
     inkscape:pagecheckerboard="0"
     inkscape:document-units="mm"
     showgrid="false"
     fit-margin-top="0"
     fit-margin-left="0"
     fit-margin-right="0"
     fit-margin-bottom="0"
     inkscape:zoom="0.77771465"
     inkscape:cx="360.02922"
     inkscape:cy="253.94918"
     inkscape:window-width="2476"
     inkscape:window-height="1082"
     inkscape:window-x="26"
     inkscape:window-y="23"
     inkscape:window-maximized="0"
     inkscape:current-layer="layer1" />
  <defs
     id="defs2">
    <rect
       x="371.77237"
       y="260.51389"
       width="289.6608"
       height="191.43127"
       id="rect2955" />
  </defs>
  <g
     inkscape:label="Layer 1"
     inkscape:groupmode="layer"
     id="layer1"
     transform="translate(-76.844363,-81.091542)">
    <path
       style="fill:#ff007a;fill-opacity:1;stroke-width:0.264583"
       d="m 90.872636,105.79416 c -0.3261,-0.22842 -0.88929,-1.00018 -1.25154,-1.71504 -0.76932,-1.51818 -1.69734,-2.23067 -2.6078,-2.00216 -1.11485,0.27981 -1.21252,1.81514 -0.13717,2.15644 1.03311,0.3279 1.74837,-0.90957 0.83366,-1.44234 -0.25466,-0.14833 -0.32877,-0.27331 -0.16469,-0.27773 0.62619,-0.0169 0.98706,0.76413 0.67228,1.45499 -0.42586,0.93467 -1.51916,0.86686 -2.57852,-0.15991 -0.46165,-0.44745 -1.28219,-0.96577 -1.82343,-1.15184 l -0.98406,-0.33831 0.72273,-0.5685 c 0.98427,-0.77423 3.08595,-1.36193 4.21512,-1.17869 1.13491,0.18417 2.17792,1.10191 2.39811,2.1101 0.5481,2.50958 0.74857,2.86168 1.70965,3.00277 0.72259,0.10609 0.81956,0.17875 0.44138,0.33073 -0.66761,0.2683 -0.77017,0.25266 -1.44572,-0.22051 z m 4.55684,-2.95614 c 0.0164,-1.06738 -0.17202,-1.55834 -1.2374,-3.223996 -0.94048,-1.47038 -1.25677,-2.2208 -1.25677,-2.98177 v -1.01689 l 1.02301,0.5219 c 1.38801,0.70811 2.62024,1.77859 3.08754,2.68223 0.74444,1.439596 0.31366,3.482356 -0.98697,4.680156 l -0.64878,0.59749 0.0194,-1.25912 z m -16.35965,-1.23975 c -1.07657,-1.837016 -0.95346,-3.108586 0.50089,-5.173956 0.65313,-0.92752 1.25641,-2.11163 1.34063,-2.63136 0.0842,-0.51973 0.33746,-1.38173 0.56275,-1.91556 0.40616,-0.96244 0.40029,-0.98748 -0.6977,-2.97656 -0.60903,-1.10328 -1.05177,-2.00597 -0.98388,-2.00597 0.0679,0 0.68,0.89297 1.36024,1.98438 0.9881,1.58534 1.36604,1.98437 1.87947,1.98437 0.35347,0 0.64267,-0.12406 0.64267,-0.27568 0,-0.15163 -1.39899,-2.14593 -3.10886,-4.43177 -1.70987,-2.28585 -3.27531,-4.39421 -3.47876,-4.68525 -0.33106,-0.4736 -0.3275,-0.48749 0.0339,-0.1323 1.45627,1.43126 7.87662,8.85918 7.87662,9.11274 0,0.59577 -0.66836,1.18952 -1.71979,1.52782 -0.93045,0.29937 -1.08576,0.46835 -1.28533,1.39842 -0.12484,0.58185 -0.40762,1.49729 -0.62838,2.03432 -0.67175,1.63409 -0.5308,2.31902 0.69411,3.37279 1.24165,1.06819 1.37365,1.771826 0.48839,2.603496 -0.49902,0.4688 -2.26621,1.38166 -2.67473,1.38166 -0.0636,0 -0.42462,-0.52721 -0.80225,-1.17159 z m 0.85415,-2.356056 c 0.0506,-0.26108 -0.0843,-0.4411 -0.33073,-0.4411 -0.24543,0 -0.41627,0.22622 -0.41627,0.55122 0,0.6448 0.61827,0.55366 0.747,-0.11012 z m 109.055084,2.997356 c -2.1458,-0.1273 -2.21529,-0.15062 -1.51501,-0.50838 0.40367,-0.20623 0.79474,-0.62244 0.86903,-0.92491 0.0743,-0.30248 0.10121,-2.691596 0.0598,-5.309156 l -0.0753,-4.7592 -0.73277,-0.35094 c -1.2795,-0.61278 -0.51719,-0.84628 2.76288,-0.84628 2.77975,0 3.32037,0.0736 4.20813,0.5725 1.23567,0.69448 1.83188,1.85674 1.83056,3.56853 -0.001,1.52675 -0.68627,2.79724 -1.82625,3.38675 -0.90691,0.46898 -3.24718,0.5446 -4.02193,0.12997 -0.50358,-0.26951 -0.5199,-0.19951 -0.44563,1.91125 0.0699,1.987186 0.13402,2.219316 0.68907,2.495276 0.54347,0.27019 0.78575,0.59831 0.53455,0.72391 -0.0485,0.0243 -1.10023,-0.0159 -2.33715,-0.0893 z m 4.94191,-6.393136 c 1.29278,-1.2145 0.99351,-4.06886 -0.52359,-4.99389 -0.93331,-0.56908 -2.06059,-0.66573 -2.84822,-0.2442 -0.45557,0.24381 -0.51177,0.57583 -0.51177,3.02331 0,3.10606 0.003,3.10973 2.10169,2.90114 0.71267,-0.0708 1.4144,-0.34112 1.78189,-0.68636 z m -86.11127,5.967726 c -0.47757,-0.24281 -1.13241,-0.81171 -1.4552,-1.26423 -0.53525,-0.750366 -0.59871,-1.218606 -0.72114,-5.320686 -0.13556,-4.54234 -0.24795,-5.15938 -0.93971,-5.15938 -0.20969,0 -0.38126,-0.11906 -0.38126,-0.26458 0,-0.15564 0.92605,-0.26458 2.24896,-0.26458 1.23693,0 2.24896,0.0625 2.24896,0.13884 0,0.0764 -0.29766,0.25201 -0.66146,0.39032 l -0.66146,0.25149 v 4.38531 c 0,4.79633 0.17261,5.525006 1.47344,6.220476 1.02519,0.54809 3.03812,0.46541 3.89475,-0.15998 1.3373,-0.976296 1.53198,-1.814936 1.45179,-6.254016 -0.0706,-3.90906 -0.0933,-4.05527 -0.66841,-4.30758 -1.04153,-0.45694 -0.6485,-0.66486 1.25677,-0.66486 1.05833,0 1.85208,0.11339 1.85208,0.26458 0,0.14552 -0.17633,0.26458 -0.39183,0.26458 -0.52568,0 -0.60758,0.52662 -0.80236,5.15938 -0.18467,4.39249 -0.45129,5.316326 -1.81499,6.289056 -1.10876,0.79089 -4.61145,0.96567 -5.92893,0.29586 z m 37.31467,0.16728 c -0.50499,-0.21449 -0.59531,-0.45485 -0.59531,-1.5843 0,-0.732286 0.11906,-1.331436 0.26458,-1.331436 0.14552,0 0.26459,0.24728 0.26459,0.54952 0,0.907646 1.40218,2.096306 2.47288,2.096306 1.15498,0 2.44668,-1.02483 2.69042,-2.134566 0.24595,-1.11978 -0.34552,-1.89721 -2.48846,-3.27079 -2.37096,-1.51975 -2.93943,-2.26529 -2.93943,-3.85506 0,-2.32628 1.33493,-3.24879 4.51686,-3.12139 l 1.96543,0.0787 0.0814,1.12448 c 0.0951,1.31482 -0.16971,1.43088 -0.78746,0.34508 -0.84098,-1.47819 -3.27393,-1.30084 -4.17364,0.30425 -0.36994,0.65996 -0.35882,0.77287 0.14336,1.45521 0.29944,0.40685 1.41877,1.33504 2.48743,2.06264 2.34651,1.59765 2.96789,2.38319 3.00501,3.79888 0.0305,1.16135 -0.53202,2.129206 -1.77801,3.059476 -0.81462,0.6082 -4.06294,0.87607 -5.12961,0.42301 z m 13.69524,-1.90844 c -2.91766,-7.626866 -3.57025,-9.111466 -4.30983,-9.804696 l -0.77627,-0.7276 h 2.27694 c 1.34157,0 2.27694,0.10869 2.27694,0.26458 0,0.14552 -0.25137,0.26458 -0.55861,0.26458 -0.48768,0 -0.53766,0.10919 -0.39363,0.8599 0.27221,1.4188 2.96431,8.5365 3.2095,8.48567 0.34823,-0.0722 2.7455,-6.72138 2.75843,-7.65091 0.0113,-0.81038 -0.64944,-1.69466 -1.26621,-1.69466 -0.17044,0 -0.30989,-0.11906 -0.30989,-0.26458 0,-0.15679 0.97014,-0.26458 2.38125,-0.26458 2.21609,0 3.08362,0.28377 1.85208,0.60583 -0.35398,0.0926 -0.52917,0.36089 -0.52917,0.81052 0,0.73957 2.48817,8.05681 2.86923,8.43788 0.28642,0.28642 3.56744,-8.45299 3.36831,-8.97192 -0.0745,-0.19423 -0.37737,-0.35315 -0.67299,-0.35315 -0.2956,0 -0.53746,-0.11906 -0.53746,-0.26458 0,-0.15185 0.81024,-0.26458 1.90158,-0.26458 h 1.90158 l -0.6758,0.7276 c -0.40258,0.43343 -1.56228,3.00079 -2.86837,6.35 -2.57966,6.615036 -2.70564,6.729876 -3.91842,3.571876 -0.43311,-1.127786 -1.16479,-3.032786 -1.62597,-4.233336 -0.46116,-1.20054 -0.93965,-2.18281 -1.0633,-2.18281 -0.20483,0 -1.0243,1.97502 -2.74452,6.614576 -0.46401,1.2515 -0.78291,1.74192 -1.17111,1.80106 -0.44656,0.068 -0.67045,-0.2768 -1.37429,-2.11667 z m 14.47069,1.44009 c 0.55463,-0.52316 1.38695,-2.267306 2.96222,-6.207436 1.63525,-4.09014 2.32407,-5.52211 2.71614,-5.64655 0.2889,-0.0917 0.56531,-0.12608 0.61423,-0.0764 0.0489,0.0497 1.05238,2.59062 2.2299,5.64656 1.74619,4.53179 2.29747,5.690396 2.98996,6.283846 l 0.84903,0.72761 h -2.58531 c -1.65616,0 -2.52654,-0.0951 -2.42179,-0.26459 0.0899,-0.14552 0.33764,-0.26458 0.55046,-0.26458 0.21281,0 0.51442,-0.27982 0.67025,-0.62182 0.22546,-0.49483 0.16362,-0.90006 -0.30284,-1.984366 l -0.58616,-1.36256 h -2.22987 -2.22988 l -0.41625,0.99219 c -0.63738,1.519286 -0.59753,2.524816 0.11252,2.838796 1.07412,0.47497 0.62819,0.66693 -1.54933,0.66693 h -2.14465 z m 6.80735,-6.085406 c -0.23201,-0.54571 -0.6087,-1.46844 -0.83709,-2.05052 -0.22839,-0.58209 -0.50312,-1.15816 -0.61052,-1.28017 -0.16324,-0.18545 -1.57723,3.51293 -1.57723,4.12534 0,0.10864 0.7755,0.19753 1.72334,0.19753 h 1.72334 z m -60.04255,6.283846 c 0.0899,-0.14552 0.3309,-0.26458 0.53547,-0.26458 0.752,0 0.91974,-1.055 0.91974,-5.784536 0,-5.05479 -0.12752,-5.59255 -1.3262,-5.59255 -0.27206,0 -0.56824,-0.11906 -0.65817,-0.26458 -0.10258,-0.16597 0.47441,-0.26458 1.54815,-0.26458 h 1.71167 l 4.05492,4.49791 c 2.2302,2.47386 4.14588,4.49792 4.25706,4.49792 0.11118,0 0.20215,-1.77596 0.20215,-3.94657 v -3.94657 l -0.79375,-0.35135 c -0.43656,-0.19324 -0.79375,-0.44135 -0.79375,-0.55135 0,-0.10999 0.9525,-0.19999 2.11667,-0.19999 2.20414,0 2.54219,0.11589 1.49708,0.51325 -0.58883,0.22387 -0.62824,0.39639 -0.79375,3.47457 -0.0958,1.78145 -0.17416,4.41094 -0.17416,5.8433 0,2.109186 -0.0736,2.604286 -0.38706,2.604286 -0.45189,0 -1.96558,-1.53944 -5.89955,-5.999956 -1.56283,-1.77201 -3.00652,-3.23053 -3.2082,-3.24114 -0.30258,-0.0159 -0.34418,0.68157 -0.23798,3.99022 0.13486,4.201426 0.0824,4.023036 1.44164,4.904596 0.39665,0.25726 0.0577,0.31802 -1.84478,0.33072 -1.49014,0.01 -2.27175,-0.0799 -2.1672,-0.24902 z m 16.61997,0.0929 c 0.0944,-0.0944 0.4417,-0.30631 0.7717,-0.47083 0.59355,-0.29592 0.6,-0.35585 0.6,-5.575166 0,-5.21933 -0.006,-5.27926 -0.6,-5.57517 -1.12733,-0.56204 -0.94166,-0.64254 1.48194,-0.64254 2.43695,0 2.93393,0.18055 1.83004,0.66486 -0.58881,0.25833 -0.59532,0.31897 -0.59532,5.55285 0,5.233876 0.007,5.294516 0.59532,5.552836 1.10389,0.48431 0.60691,0.66486 -1.83004,0.66486 -1.33394,0 -2.34808,-0.0773 -2.25364,-0.1717 z M 87.775936,99.066084 c 0.43656,-0.14082 1.29928,-0.38156 1.91715,-0.53498 1.43631,-0.35665 2.17797,-1.15037 2.20478,-2.35954 0.0207,-0.93284 0.0235,-0.93511 0.28265,-0.22662 0.33902,0.92687 -0.32006,2.39365 -1.27004,2.82649 -0.37203,0.1695 -1.40809,0.36275 -2.30236,0.42943 -1.30139,0.097 -1.4675,0.0701 -0.83218,-0.13478 z m 9.59629,-1.60875 c -0.32815,-0.57178 -1.18046,-1.13111 -3.18909,-2.09284 -2.97767,-1.42572 -3.51716,-1.86516 -3.89127,-3.16962 -0.23193,-0.80868 -0.21233,-0.84769 0.33874,-0.67417 0.3217,0.10129 1.57885,0.40912 2.79367,0.68405 1.21481,0.27493 2.60112,0.74237 3.08068,1.03876 1.04878,0.64818 1.72348,1.96329 1.71797,3.34865 -0.006,1.48583 -0.31442,1.79958 -0.8507,0.86517 z m -12.54332,-3.81557 c -0.0838,-0.21828 -0.0768,-0.59374 0.0156,-0.83436 0.15142,-0.3946 0.20608,-0.38811 0.55748,0.0661 0.38301,0.49512 0.39618,0.49512 0.77919,0 0.35323,-0.45663 0.40538,-0.46249 0.55876,-0.0628 0.0931,0.24247 0.0222,0.61793 -0.15741,0.83436 -0.42329,0.51004 -1.55742,0.50786 -1.7536,-0.003 z m 10.86263,-1.98244 c -0.70477,-0.36347 -0.7802,-0.50008 -0.55488,-1.00504 0.14342,-0.32142 0.34289,-0.5844 0.44325,-0.5844 0.22974,0 1.21155,1.7994 1.04796,1.92064 -0.0664,0.0492 -0.48772,-0.0998 -0.93633,-0.3312 z m -3.51816,-0.55216 c -1.56799,-0.30804 -2.16269,-0.74407 -3.79608,-2.78325 -0.76731,-0.95794 -1.87136,-2.02742 -2.45345,-2.37661 -0.58208,-0.3492 -0.97678,-0.63604 -0.87712,-0.63741 0.50683,-0.007 1.58348,0.58225 2.4434,1.33727 0.86446,0.75901 1.14654,0.85009 2.74138,0.88518 1.16797,0.0257 2.14078,0.21804 2.83609,0.56073 1.03084,0.50805 1.05866,0.55769 1.07077,1.91067 0.0137,1.53309 0.0677,1.50277 -1.96499,1.10342 z m -6.54718,-1.2416 c -0.79524,-0.64658 -1.33461,-1.61961 -1.53672,-2.77224 -0.15375,-0.87679 -0.11175,-0.99219 0.36108,-0.99219 0.60575,0 1.21549,0.81069 1.49251,1.98438 0.10304,0.43656 0.35228,1.12117 0.55388,1.52135 0.43866,0.87078 0.031,0.99189 -0.87075,0.2587 z m 9.1612,-1.16498 c 0,-0.10867 -0.24402,-0.42492 -0.54226,-0.70277 l -0.54226,-0.5052 0.54226,-0.1418 c 0.30212,-0.079 0.54226,-0.0139 0.54226,0.1471 0,0.1589 0.23491,0.53896 0.52202,0.84458 0.51964,0.55313 0.51964,0.55567 0,0.55567 -0.28711,0 -0.52202,-0.0889 -0.52202,-0.19758 z"
       id="path8682" />
  </g>
</svg>
