<?xml version="1.0" encoding="UTF-8" standalone="no"?>
<!-- Generator: Adobe Illustrator 24.0.0, SVG Export Plug-In . SVG Version: 6.00 Build 0) -->

<svg
   id="svg947"
   x="0px"
   y="0px"
   viewBox="0 0 504 504"
   style="enable-background:new 0 0 504 504;"
   xml:space="preserve"
   version="1.1"
   sodipodi:docname="bittube.svg"
   inkscape:version="1.1.2 (0a00cf5339, 2022-02-04)"
   xmlns:inkscape="http://www.inkscape.org/namespaces/inkscape"
   xmlns:sodipodi="http://sodipodi.sourceforge.net/DTD/sodipodi-0.dtd"
   xmlns="http://www.w3.org/2000/svg"
   xmlns:svg="http://www.w3.org/2000/svg"><defs
   id="defs33"><clipPath
     clipPathUnits="userSpaceOnUse"
     id="clipPath22062"><rect
       style="fill:#212121;fill-opacity:1;stroke:none;stroke-width:5.02107;stroke-linejoin:bevel;stroke-miterlimit:4;stroke-dasharray:none;stroke-opacity:1"
       id="rect22064"
       width="114.43554"
       height="295.82892"
       x="6.5061212"
       y="74.271263"
       transform="scale(-1,1)" /></clipPath></defs><sodipodi:namedview
   id="namedview31"
   pagecolor="#ffffff"
   bordercolor="#666666"
   borderopacity="1.0"
   inkscape:pageshadow="2"
   inkscape:pageopacity="0.0"
   inkscape:pagecheckerboard="0"
   showgrid="false"
   inkscape:zoom="1.7321429"
   inkscape:cx="252.28866"
   inkscape:cy="235.25773"
   inkscape:window-width="2386"
   inkscape:window-height="1082"
   inkscape:window-x="26"
   inkscape:window-y="23"
   inkscape:window-maximized="0"
   inkscape:current-layer="svg947" /> <style
   type="text/css"
   id="style2"> .st0{fill:#212121;} .st1{fill:#BB9645;} </style> <circle
   class="st0"
   cx="252"
   cy="252"
   r="233.9"
   id="circle4" /> <g
   id="g10"> <path
   class="st1"
   d="M252,494.2C118.4,494.2,9.8,385.6,9.8,252S118.4,9.8,252,9.8S494.2,118.4,494.2,252S385.6,494.2,252,494.2z M252,25.1C126.9,25.1,25.1,126.9,25.1,252S126.9,478.9,252,478.9S478.9,377.1,478.9,252S377.1,25.1,252,25.1z"
   id="path6" /> <path
   class="st1"
   d="M252,453.4c-31.4,0-62.8-7.3-91.5-21.9c-3.8-1.9-5.3-6.5-3.3-10.3c1.9-3.8,6.5-5.2,10.3-3.3 c53,27,116.2,27,169.2-0.1c3.8-1.9,8.4-0.4,10.3,3.3c1.9,3.8,0.4,8.4-3.3,10.3C314.9,446.1,283.5,453.4,252,453.4z M437.6,315.4 c-0.7,0-1.5-0.1-2.2-0.3c-4-1.2-6.3-5.5-5.1-9.5c11-36.8,10.5-75.4-1.5-111.9c-1.3-4,0.9-8.3,4.9-9.7c4-1.3,8.3,0.9,9.7,4.9 c12.9,39.4,13.5,81.3,1.6,121C444,313.3,440.9,315.4,437.6,315.4z M66,314.3c-3.3,0-6.4-2.2-7.3-5.5 c-11.1-38.1-10.9-78.3,0.8-116.2c1.2-4,5.5-6.3,9.6-5.1c4,1.2,6.3,5.5,5.1,9.6c-10.8,35-11,72.2-0.7,107.4c1.2,4.1-1.1,8.3-5.2,9.5 C67.5,314.2,66.7,314.3,66,314.3z M170.3,83.9c-2.9,0-5.6-1.6-6.9-4.4c-1.8-3.8-0.1-8.4,3.7-10.2c53.9-25.1,115.8-25.1,169.7-0.1 c3.8,1.8,5.5,6.3,3.7,10.2c-1.8,3.8-6.3,5.5-10.2,3.7c-49.8-23.1-107-23.1-156.8,0C172.5,83.6,171.4,83.9,170.3,83.9z"
   id="path8" /> </g>    <path
   id="path22066"
   style="fill:#bb9645;stroke-width:2.57257;fill-opacity:1"
   d="m 246.95038,121.2453 c -33.45674,0.98703 -60.56773,12.84914 -84.62861,36.79983 -76.953262,76.60103 -33.41985,204.96707 74.92617,220.92469 12.61157,1.85747 40.11323,-1.10721 55.94844,-6.03449 38.62991,-12.02008 74.84013,-50.77872 84.30701,-90.241 3.16089,-13.17615 4.1365,-49.41287 1.62293,-60.25449 -13.06807,-56.36609 -61.04722,-97.6133 -117.43894,-100.95839 -5.04792,-0.29942 -9.95747,-0.37714 -14.737,-0.23617 z m 2.94439,7.58205 c 57.90091,-1.50523 112.79981,42.4928 122.94082,103.69175 8.41447,50.77976 -19.49797,102.29549 -68.51483,126.45301 -19.3686,9.54563 -21.76657,10.08631 -47.5926,10.68721 -17.31501,0.40289 -30.93673,-0.60587 -37.48822,-2.77355 -90.69247,-30.00743 -117.3345,-140.47935 -49.24064,-204.17784 17.49671,-16.36733 31.98666,-24.36425 55.01889,-30.36339 8.27239,-2.15468 16.605,-3.30215 24.87658,-3.51719 z m 5.53705,20.86197 c -5.39482,-0.39058 -6.6073,0.44601 -6.6073,2.99964 0,4.03655 2.44526,4.94461 21.7463,8.07449 20.10802,3.26076 43.40829,18.47313 55.73737,36.39284 7.59141,11.03371 10.96146,13.22825 13.64671,8.8834 2.03876,-3.29878 -11.3346,-20.73676 -25.39914,-33.11683 -13.4944,-11.87826 -31.57738,-19.65327 -52.22523,-22.45475 -2.83778,-0.38504 -5.10043,-0.64863 -6.89871,-0.77879 z m -37.29224,35.44822 c -2.62905,0 -5.48216,1.83177 -6.34102,4.06989 -0.85882,2.23808 -1.56263,30.36616 -1.56263,62.5105 0,43.32418 0.83194,59.27601 3.21572,61.66135 1.76864,1.7698 5.00082,2.75494 7.1801,2.18568 2.17925,-0.56928 25.62182,-14.18351 52.09459,-30.25286 37.65063,-22.85446 48.13021,-30.38147 48.13021,-34.5639 0,-4.17141 -10.76544,-11.96993 -48.9693,-35.4784 -26.9328,-16.57289 -51.11864,-30.13226 -53.74767,-30.13226 z m 4.31607,10.47117 c 4.02572,0.37446 86.62559,52.66686 86.72385,54.90333 0.0565,1.29068 -14.94907,11.51944 -33.34297,22.73109 -18.39389,11.21169 -38.36349,23.29131 -44.37687,26.84117 l -10.93343,6.45153 v -55.55651 c 0,-30.55512 0.86824,-55.46939 1.92942,-55.37061 z" /></svg>
