<?xml version="1.0" encoding="UTF-8"?> <!-- Generator: Adobe Illustrator 23.0.1, SVG Export Plug-In . SVG Version: 6.00 Build 0) --> <svg xmlns:cc="http://creativecommons.org/ns#" xmlns:dc="http://purl.org/dc/elements/1.1/" xmlns:inkscape="http://www.inkscape.org/namespaces/inkscape" xmlns:rdf="http://www.w3.org/1999/02/22-rdf-syntax-ns#" xmlns:sodipodi="http://sodipodi.sourceforge.net/DTD/sodipodi-0.dtd" xmlns:svg="http://www.w3.org/2000/svg" xmlns="http://www.w3.org/2000/svg" xmlns:xlink="http://www.w3.org/1999/xlink" id="svg947" x="0px" y="0px" viewBox="0 0 504 504" style="enable-background:new 0 0 504 504;" xml:space="preserve"> <style type="text/css"> .st0{fill:#212121;} .st1{fill:#BB9645;} .st2{fill:#BA9645;} </style> <circle class="st0" cx="252" cy="252" r="233.9"></circle> <g> <path class="st1" d="M252,494.2C118.4,494.2,9.8,385.6,9.8,252S118.4,9.8,252,9.8S494.2,118.4,494.2,252S385.6,494.2,252,494.2z M252,25.1C126.9,25.1,25.1,126.9,25.1,252S126.9,478.9,252,478.9S478.9,377.1,478.9,252S377.1,25.1,252,25.1z"></path> <path class="st1" d="M252,453.4c-31.4,0-62.8-7.3-91.5-21.9c-3.8-1.9-5.3-6.5-3.3-10.3c1.9-3.8,6.5-5.2,10.3-3.3 c53,27,116.2,27,169.2-0.1c3.8-1.9,8.4-0.4,10.3,3.3c1.9,3.8,0.4,8.4-3.3,10.3C314.9,446.1,283.5,453.4,252,453.4z M437.6,315.4 c-0.7,0-1.5-0.1-2.2-0.3c-4-1.2-6.3-5.5-5.1-9.5c11-36.8,10.5-75.4-1.5-111.9c-1.3-4,0.9-8.3,4.9-9.7c4-1.3,8.3,0.9,9.7,4.9 c12.9,39.4,13.5,81.3,1.6,121C444,313.3,440.9,315.4,437.6,315.4z M66,314.3c-3.3,0-6.4-2.2-7.3-5.5 c-11.1-38.1-10.9-78.3,0.8-116.2c1.2-4,5.5-6.3,9.6-5.1c4,1.2,6.3,5.5,5.1,9.6c-10.8,35-11,72.2-0.7,107.4c1.2,4.1-1.1,8.3-5.2,9.5 C67.5,314.2,66.7,314.3,66,314.3z M170.3,83.9c-2.9,0-5.6-1.6-6.9-4.4c-1.8-3.8-0.1-8.4,3.7-10.2c53.9-25.1,115.8-25.1,169.7-0.1 c3.8,1.8,5.5,6.3,3.7,10.2c-1.8,3.8-6.3,5.5-10.2,3.7c-49.8-23.1-107-23.1-156.8,0C172.5,83.6,171.4,83.9,170.3,83.9z"></path> </g> <g> <path class="st2" d="M154.8,358.1h164.6l-7.9-25.4l18.8,16.1l17.2,15.4l31.4,26.2V142.1c-0.8-15.4-14.1-28.6-30.6-28.6l-193.5,0 c-16.5,0-29.8,13.1-29.8,28.6v187.4C125,345.8,138.4,358.1,154.8,358.1L154.8,358.1z M276.6,179.1l-0.4,0.1l0.1-0.1H276.6z M188.5,193.7c21.2-15.4,40.8-14.7,40.8-14.7l1.6,1.6c-25.9,6.2-37.6,17.7-37.6,17.7s3.1-1.5,8.6-3.9 c34.9-13.7,72.9-12.7,108.2,4.6c0,0-11.8-10.8-36.1-17.7l2.1-2.1c3.4,0,21.1,0.6,40.2,14.5c0,0,21.3,36.4,21.3,81 c-0.7-0.9-13.2,19.2-45.4,19.9c0,0-5.4-6.2-9.3-11.5c18.8-5.4,25.9-16.2,25.9-16.2c-6.2,3.9-11.8,6.2-16.4,8.5 c-7,3.1-14.1,4.6-21.1,6.2c-33.3,5.4-52-3.6-69.6-10.8l-6-3.1c0,0,7,10.8,25.1,16.2c-4.7,5.4-9.4,11.6-9.4,11.6 c-32.2-0.8-43.9-20.8-43.9-20.8C167.3,230,188.5,193.7,188.5,193.7L188.5,193.7z"></path> <path class="st2" d="M278.6,260.9c8.2,0,14.9-6.9,14.9-15.5c0-8.5-6.6-15.4-14.9-15.4v0c-8.2,0-14.9,6.9-14.9,15.4 C263.7,254,270.4,260.9,278.6,260.9z"></path> <path class="st2" d="M225.3,260.9c8.2,0,14.9-6.9,14.9-15.5c0-8.5-6.6-15.4-14.8-15.4l0,0c-8.2,0-14.9,6.9-14.9,15.4 C210.4,254,217.1,260.9,225.3,260.9z"></path> </g> </svg> 