<?xml version="1.0" encoding="UTF-8" standalone="no"?>
<!-- Generator: Adobe Illustrator 24.0.0, SVG Export Plug-In . SVG Version: 6.00 Build 0) -->

<svg
   id="svg947"
   x="0px"
   y="0px"
   viewBox="0 0 504 504"
   style="enable-background:new 0 0 504 504;"
   xml:space="preserve"
   version="1.1"
   sodipodi:docname="keybase.svg"
   inkscape:version="1.1.2 (0a00cf5339, 2022-02-04)"
   xmlns:inkscape="http://www.inkscape.org/namespaces/inkscape"
   xmlns:sodipodi="http://sodipodi.sourceforge.net/DTD/sodipodi-0.dtd"
   xmlns="http://www.w3.org/2000/svg"
   xmlns:svg="http://www.w3.org/2000/svg"><defs
   id="defs33" /><sodipodi:namedview
   id="namedview31"
   pagecolor="#ffffff"
   bordercolor="#666666"
   borderopacity="1.0"
   inkscape:pageshadow="2"
   inkscape:pageopacity="0.0"
   inkscape:pagecheckerboard="0"
   showgrid="false"
   inkscape:zoom="1.7321429"
   inkscape:cx="252.28866"
   inkscape:cy="235.25773"
   inkscape:window-width="2386"
   inkscape:window-height="1082"
   inkscape:window-x="26"
   inkscape:window-y="23"
   inkscape:window-maximized="0"
   inkscape:current-layer="svg947" /> <style
   type="text/css"
   id="style2"> .st0{fill:#212121;} .st1{fill:#BB9645;} </style> <circle
   class="st0"
   cx="252"
   cy="252"
   r="233.9"
   id="circle4" /> <g
   id="g10"> <path
   class="st1"
   d="M252,494.2C118.4,494.2,9.8,385.6,9.8,252S118.4,9.8,252,9.8S494.2,118.4,494.2,252S385.6,494.2,252,494.2z M252,25.1C126.9,25.1,25.1,126.9,25.1,252S126.9,478.9,252,478.9S478.9,377.1,478.9,252S377.1,25.1,252,25.1z"
   id="path6" /> <path
   class="st1"
   d="M252,453.4c-31.4,0-62.8-7.3-91.5-21.9c-3.8-1.9-5.3-6.5-3.3-10.3c1.9-3.8,6.5-5.2,10.3-3.3 c53,27,116.2,27,169.2-0.1c3.8-1.9,8.4-0.4,10.3,3.3c1.9,3.8,0.4,8.4-3.3,10.3C314.9,446.1,283.5,453.4,252,453.4z M437.6,315.4 c-0.7,0-1.5-0.1-2.2-0.3c-4-1.2-6.3-5.5-5.1-9.5c11-36.8,10.5-75.4-1.5-111.9c-1.3-4,0.9-8.3,4.9-9.7c4-1.3,8.3,0.9,9.7,4.9 c12.9,39.4,13.5,81.3,1.6,121C444,313.3,440.9,315.4,437.6,315.4z M66,314.3c-3.3,0-6.4-2.2-7.3-5.5 c-11.1-38.1-10.9-78.3,0.8-116.2c1.2-4,5.5-6.3,9.6-5.1c4,1.2,6.3,5.5,5.1,9.6c-10.8,35-11,72.2-0.7,107.4c1.2,4.1-1.1,8.3-5.2,9.5 C67.5,314.2,66.7,314.3,66,314.3z M170.3,83.9c-2.9,0-5.6-1.6-6.9-4.4c-1.8-3.8-0.1-8.4,3.7-10.2c53.9-25.1,115.8-25.1,169.7-0.1 c3.8,1.8,5.5,6.3,3.7,10.2c-1.8,3.8-6.3,5.5-10.2,3.7c-49.8-23.1-107-23.1-156.8,0C172.5,83.6,171.4,83.9,170.3,83.9z"
   id="path8" /> </g>    <path
   style="fill:#bb9645;fill-opacity:1;stroke-width:0.785108"
   d="m 135.32947,321.6612 c 7.1e-4,-20.71573 0.75791,-31.54815 3.15176,-45.08888 3.06932,-17.36149 10.22104,-34.54854 19.82864,-47.65226 5.96514,-8.13581 20.7666,-22.74366 30.69859,-30.29707 l 7.70635,-5.86077 -5.52431,-1.35794 c -12.74649,-3.13323 -21.10882,-10.40649 -24.21035,-21.05733 -1.1142,-3.82622 -1.15178,-5.89589 -0.32112,-17.68035 0.51745,-7.34076 1.47378,-15.28998 2.12518,-17.66493 2.18635,-7.97125 7.99595,-14.68714 15.84018,-18.3112 3.41845,-1.57934 4.89112,-1.70657 19.40141,-1.67618 8.63619,0.0181 16.83899,0.27195 18.22843,0.56413 2.51293,0.52845 2.57235,0.46697 11.24761,-11.63663 l 8.72133,-12.167903 4.45457,2.49346 c 2.45001,1.3714 5.55343,3.14673 6.89647,3.94518 l 2.44191,1.45172 -2.63878,6.571993 c -1.45134,3.61458 -2.86319,8.20916 -3.13746,10.21017 l -0.49867,3.6382 3.83599,0.0116 c 5.98866,0.0181 13.38359,2.07996 21.39144,5.96435 15.54306,7.53949 24.44783,21.1258 24.44783,37.30089 0,4.83238 -1.5401,15.03838 -2.72178,18.03688 -0.37499,0.95151 0.41241,1.59335 3.27306,2.66798 16.23108,6.09742 34.00592,18.36461 46.67245,32.21066 14.60951,15.96998 20.09067,28.71976 19.33637,44.97849 -0.78749,16.97385 -9.19305,28.77812 -23.74256,33.34264 -8.81044,2.76403 -18.17766,2.31022 -33.39623,-1.61793 -19.77218,-5.10351 -25.99424,-5.98001 -42.39586,-5.97228 -16.29496,0.008 -24.20176,1.26479 -39.02693,6.20498 -14.38693,4.79415 -37.41099,17.62341 -50.47543,28.12546 -1.94315,1.56202 -3.62187,2.58116 -3.7305,2.26473 -0.10864,-0.31643 5.09173,-13.98036 11.55636,-30.3643 6.46463,-16.38394 11.65994,-29.88292 11.54513,-29.99773 -0.11482,-0.11481 -13.74529,17.26651 -30.28995,38.62514 -16.54466,21.35865 -30.21858,38.83391 -30.38649,38.83391 -0.16791,0 -0.305,-8.5675 -0.30464,-19.03888 z m 143.67418,-68.54434 8.24364,-6.49858 3.55996,3.46738 c 1.95797,1.90706 4.18931,3.46738 4.95854,3.46738 2.6702,0 4.43579,-1.54777 4.43579,-3.88854 0,-1.81752 -4.27118,-7.33824 -21.69349,-28.04001 -25.93039,-30.81136 -26.71887,-31.66524 -29.2398,-31.66524 -2.28516,0 -4.80941,2.05259 -4.80941,3.91076 0,0.72164 4.04775,6.10325 8.995,11.95913 l 8.99499,10.64705 -4.6769,4.06783 c -2.57229,2.23732 -4.67689,4.70254 -4.67689,5.47826 0,2.0749 3.01392,5.54773 4.81463,5.54773 0.85813,0 3.49455,-1.8294 5.85871,-4.06533 l 4.29849,-4.06533 3.86289,3.8048 c 2.12459,2.09265 3.69404,4.07801 3.48767,4.41194 -0.20638,0.33392 -4.06513,3.45562 -8.575,6.93711 -4.50989,3.4815 -8.5648,7.01203 -9.01093,7.84564 -1.17636,2.19803 -0.0305,4.47291 4.91001,9.74737 3.66429,3.91199 4.58123,4.50912 6.16169,4.01258 1.02122,-0.32085 5.56641,-3.50772 10.10041,-7.08193 z M 207.8578,165.60925 c 0.56061,-6.72214 2.89729,-19.29876 4.69618,-25.276 l 1.09553,-3.64017 -3.6342,-0.4345 c -11.64678,-1.39246 -14.00956,-1.41286 -16.46685,-0.14214 -4.41788,2.28457 -4.77454,3.5604 -5.01013,17.92194 -0.2085,12.7098 -0.16308,13.13964 1.57316,14.8867 1.74405,1.75492 5.37475,2.47574 14.39026,2.85696 l 2.83128,0.11972 z m 22.65823,170.38442 c -7.4068,-4.51598 -7.4068,-14.3351 0,-18.85108 6.81097,-4.1527 16.29231,1.33251 16.29231,9.42554 0,5.53869 -5.44696,10.98564 -10.98565,10.98564 -1.51133,0 -3.89933,-0.70204 -5.30666,-1.5601 z m 65.164,0 c -7.4068,-4.51598 -7.4068,-14.3351 0,-18.85108 9.17742,-5.59554 20.32774,5.55478 14.7322,14.7322 -2.01568,3.30599 -5.95421,5.67898 -9.42554,5.67898 -1.51133,0 -3.89933,-0.70204 -5.30666,-1.5601 z"
   id="path15543" /><ellipse
   style="fill:none;fill-opacity:1;stroke:#bb9645;stroke-width:13.5406;stroke-linejoin:bevel;stroke-miterlimit:4;stroke-dasharray:none;stroke-opacity:1"
   id="path18124"
   cx="259.33826"
   cy="294.45749"
   rx="111.34457"
   ry="111.24271" /><rect
   style="fill:#212121;fill-opacity:1;stroke:none;stroke-width:9.72118;stroke-linejoin:bevel;stroke-miterlimit:4;stroke-dasharray:none;stroke-opacity:1"
   id="rect19971"
   width="219.38821"
   height="60.862114"
   x="147.77577"
   y="355.5116" /></svg>
