<?xml version="1.0" encoding="UTF-8"?> <!-- Generator: Adobe Illustrator 23.0.1, SVG Export Plug-In . SVG Version: 6.00 Build 0) --> <svg xmlns:cc="http://creativecommons.org/ns#" xmlns:dc="http://purl.org/dc/elements/1.1/" xmlns:inkscape="http://www.inkscape.org/namespaces/inkscape" xmlns:rdf="http://www.w3.org/1999/02/22-rdf-syntax-ns#" xmlns:sodipodi="http://sodipodi.sourceforge.net/DTD/sodipodi-0.dtd" xmlns:svg="http://www.w3.org/2000/svg" xmlns="http://www.w3.org/2000/svg" xmlns:xlink="http://www.w3.org/1999/xlink" id="svg947" x="0px" y="0px" viewBox="0 0 504 504" style="enable-background:new 0 0 504 504;" xml:space="preserve"> <style type="text/css"> .st0{fill:#212121;} .st1{fill:#BB9645;} .st2{fill:#BA9645;} </style> <circle class="st0" cx="252" cy="252" r="233.9"></circle> <g> <path class="st1" d="M252,494.2C118.4,494.2,9.8,385.6,9.8,252S118.4,9.8,252,9.8S494.2,118.4,494.2,252S385.6,494.2,252,494.2z M252,25.1C126.9,25.1,25.1,126.9,25.1,252S126.9,478.9,252,478.9S478.9,377.1,478.9,252S377.1,25.1,252,25.1z"></path> <path class="st1" d="M252,453.4c-31.4,0-62.8-7.3-91.5-21.9c-3.8-1.9-5.3-6.5-3.3-10.3c1.9-3.8,6.5-5.2,10.3-3.3 c53,27,116.2,27,169.2-0.1c3.8-1.9,8.4-0.4,10.3,3.3c1.9,3.8,0.4,8.4-3.3,10.3C314.9,446.1,283.5,453.4,252,453.4z M437.6,315.4 c-0.7,0-1.5-0.1-2.2-0.3c-4-1.2-6.3-5.5-5.1-9.5c11-36.8,10.5-75.4-1.5-111.9c-1.3-4,0.9-8.3,4.9-9.7c4-1.3,8.3,0.9,9.7,4.9 c12.9,39.4,13.5,81.3,1.6,121C444,313.3,440.9,315.4,437.6,315.4z M66,314.3c-3.3,0-6.4-2.2-7.3-5.5 c-11.1-38.1-10.9-78.3,0.8-116.2c1.2-4,5.5-6.3,9.6-5.1c4,1.2,6.3,5.5,5.1,9.6c-10.8,35-11,72.2-0.7,107.4c1.2,4.1-1.1,8.3-5.2,9.5 C67.5,314.2,66.7,314.3,66,314.3z M170.3,83.9c-2.9,0-5.6-1.6-6.9-4.4c-1.8-3.8-0.1-8.4,3.7-10.2c53.9-25.1,115.8-25.1,169.7-0.1 c3.8,1.8,5.5,6.3,3.7,10.2c-1.8,3.8-6.3,5.5-10.2,3.7c-49.8-23.1-107-23.1-156.8,0C172.5,83.6,171.4,83.9,170.3,83.9z"></path> </g> <path class="st2" d="M211.7,345.9c0,7-5.2,9.9-11.1,7l-62.7-31.4c-1.9-0.9-3.5-2.4-4.8-4.5s-2-4.2-2-6.3V157.4 c0-5.7,3.4-8.3,11.2-4.4l68.9,34.5C212.3,188.4,211.5,181.6,211.7,345.9L211.7,345.9z M220.3,201.7l72,116.5l-72-35.8L220.3,201.7z M372.9,204.1v141.8c0,2.2-0.6,4.1-1.9,5.4c-1.3,1.4-3,2.1-5.1,2.1c-2.2,0-4.3-0.6-6.3-1.8L300,322.1L372.9,204.1z M372.5,187.9 c0,0.3-11.5,19.1-34.6,56.4c-23.1,37.4-36.6,59.2-40.5,65.6l-52.6-85.3l43.7-70.9c2.4-3.9,7.3-4.6,10.5-3l73,36.3 C372.3,187.3,372.5,187.6,372.5,187.9L372.5,187.9z"></path> </svg> 