<?xml version="1.0" encoding="UTF-8" standalone="no"?>
<!-- Generator: Adobe Illustrator 24.0.0, SVG Export Plug-In . SVG Version: 6.00 Build 0) -->

<svg
   id="svg947"
   x="0px"
   y="0px"
   viewBox="0 0 504 504"
   style="enable-background:new 0 0 504 504;"
   xml:space="preserve"
   version="1.1"
   sodipodi:docname="odysee.svg"
   inkscape:version="1.1.2 (0a00cf5339, 2022-02-04)"
   xmlns:inkscape="http://www.inkscape.org/namespaces/inkscape"
   xmlns:sodipodi="http://sodipodi.sourceforge.net/DTD/sodipodi-0.dtd"
   xmlns="http://www.w3.org/2000/svg"
   xmlns:svg="http://www.w3.org/2000/svg"><defs
   id="defs33" /><sodipodi:namedview
   id="namedview31"
   pagecolor="#ffffff"
   bordercolor="#666666"
   borderopacity="1.0"
   inkscape:pageshadow="2"
   inkscape:pageopacity="0.0"
   inkscape:pagecheckerboard="0"
   showgrid="false"
   inkscape:zoom="1.7321429"
   inkscape:cx="251.71134"
   inkscape:cy="252"
   inkscape:window-width="2386"
   inkscape:window-height="1082"
   inkscape:window-x="26"
   inkscape:window-y="23"
   inkscape:window-maximized="0"
   inkscape:current-layer="svg947" /> <style
   type="text/css"
   id="style2"> .st0{fill:#212121;} .st1{fill:#BB9645;} </style> <circle
   class="st0"
   cx="252"
   cy="252"
   r="233.9"
   id="circle4" /> <g
   id="g10"> <path
   class="st1"
   d="M252,494.2C118.4,494.2,9.8,385.6,9.8,252S118.4,9.8,252,9.8S494.2,118.4,494.2,252S385.6,494.2,252,494.2z M252,25.1C126.9,25.1,25.1,126.9,25.1,252S126.9,478.9,252,478.9S478.9,377.1,478.9,252S377.1,25.1,252,25.1z"
   id="path6" /> <path
   class="st1"
   d="M252,453.4c-31.4,0-62.8-7.3-91.5-21.9c-3.8-1.9-5.3-6.5-3.3-10.3c1.9-3.8,6.5-5.2,10.3-3.3 c53,27,116.2,27,169.2-0.1c3.8-1.9,8.4-0.4,10.3,3.3c1.9,3.8,0.4,8.4-3.3,10.3C314.9,446.1,283.5,453.4,252,453.4z M437.6,315.4 c-0.7,0-1.5-0.1-2.2-0.3c-4-1.2-6.3-5.5-5.1-9.5c11-36.8,10.5-75.4-1.5-111.9c-1.3-4,0.9-8.3,4.9-9.7c4-1.3,8.3,0.9,9.7,4.9 c12.9,39.4,13.5,81.3,1.6,121C444,313.3,440.9,315.4,437.6,315.4z M66,314.3c-3.3,0-6.4-2.2-7.3-5.5 c-11.1-38.1-10.9-78.3,0.8-116.2c1.2-4,5.5-6.3,9.6-5.1c4,1.2,6.3,5.5,5.1,9.6c-10.8,35-11,72.2-0.7,107.4c1.2,4.1-1.1,8.3-5.2,9.5 C67.5,314.2,66.7,314.3,66,314.3z M170.3,83.9c-2.9,0-5.6-1.6-6.9-4.4c-1.8-3.8-0.1-8.4,3.7-10.2c53.9-25.1,115.8-25.1,169.7-0.1 c3.8,1.8,5.5,6.3,3.7,10.2c-1.8,3.8-6.3,5.5-10.2,3.7c-49.8-23.1-107-23.1-156.8,0C172.5,83.6,171.4,83.9,170.3,83.9z"
   id="path8" /> </g>    <path
   style="fill:#bb9645;fill-opacity:1;stroke-width:1.09876"
   d="m 204.75726,376.92731 c -8.29921,-2.69615 -15.25236,-8.73704 -18.26321,-15.86707 -2.71124,-6.42048 -2.54612,-16.94767 0.33812,-21.55748 4.10067,-6.554 15.30896,-10.73351 28.91419,-10.78192 10.40578,-0.037 18.8673,-7.93296 18.8673,-17.60615 0,-5.84247 -4.45819,-15.19897 -18.36773,-38.54885 l -7.38466,-12.39658 -5.64139,1.91794 c -13.81569,4.69702 -30.61191,14.65655 -41.70274,24.72817 -13.3972,12.16604 -24.82127,14.43436 -33.73997,6.69927 -8.99042,-7.79731 -11.8509,-20.79719 -6.54432,-29.74163 6.34588,-10.69621 33.68043,-28.94834 55.86472,-37.30264 10.66187,-4.01511 21.04363,-8.18022 21.02172,-8.43381 -0.007,-0.0762 -0.7837,-2.5956 -1.72693,-5.59867 -7.21474,-22.97034 -9.81605,-42.73056 -7.12731,-54.14081 3.22001,-13.66486 11.31018,-22.80377 26.80882,-30.28413 12.03884,-5.81049 18.65689,-7.88958 27.44173,-8.62092 13.4319,-1.11823 24.57702,4.21165 31.51808,15.07275 3.49523,5.46919 8.78307,20.68006 13.19167,37.94686 2.04675,8.01632 4.00673,14.85702 4.35552,15.20156 0.34879,0.34453 3.14049,0.57004 6.20378,0.50111 11.35171,-0.25542 16.58144,-6.84759 21.4211,-27.00171 3.54413,-14.75913 8.39973,-25.04179 13.18649,-27.92494 4.9613,-2.98826 12.14424,-2.73906 17.95174,0.6228 7.2075,4.1723 10.98918,12.54704 10.84914,24.02605 -0.0586,4.80492 -0.99144,12.17611 -2.07294,16.38042 -4.35934,16.9468 -10.15913,25.45531 -34.86909,51.15432 -12.64542,13.15157 -13.44288,14.24013 -12.79994,17.47244 0.38698,1.94543 2.00004,4.39846 3.70289,5.6311 17.37053,12.57388 32.20974,30.65243 32.30462,39.35656 0.0809,7.42807 7.49878,27.38766 15.02968,40.44132 2.69175,4.66572 4.89408,9.69262 4.89408,11.17091 0,9.51988 -18.90671,23.76416 -33.24759,25.04867 -5.05352,0.45264 -7.36018,0.0915 -11.22717,-1.75758 -7.20061,-3.44319 -9.48913,-8.24046 -10.83483,-22.71234 -0.60499,-6.50624 -2.08484,-15.08733 -3.28852,-19.06907 -4.23465,-14.00789 -13.35956,-22.79591 -23.66114,-22.78755 l -4.52462,0.003 -0.14357,15.01171 c -0.34608,36.18204 -9.7172,49.88872 -41.31369,60.42746 -8.43478,2.81336 -12.67906,3.5735 -21.55778,3.861 -6.08039,0.19688 -12.30221,-0.0471 -13.82625,-0.54223 z m 40.02811,-184.7839 c 3.22213,-0.6512 10.48015,-3.37452 16.12892,-6.05182 15.23709,-7.22181 17.4704,-12.57842 11.95635,-28.67753 -5.87914,-17.16504 -12.45929,-22.89279 -24.8143,-21.59981 -10.29031,1.07692 -16.59705,3.80044 -22.9423,9.90751 -6.86671,6.60895 -8.68919,11.84375 -7.90981,22.71975 0.88536,12.35516 6.53766,21.27824 15.10282,23.84221 4.0652,1.21692 5.86271,1.19671 12.47832,-0.14031 z m 19.34764,-17.04502 c -0.2962,-0.48481 -0.71625,-4.07564 -0.93347,-7.97964 -0.38638,-6.94428 -0.33513,-7.09818 2.36405,-7.09818 5.75587,0 7.13443,14.81169 1.45416,15.62383 -1.29043,0.1845 -2.58856,-0.0611 -2.88474,-0.54601 z m -7.47603,-25.54533 c -2.1947,-3.04453 -2.2635,-3.53264 -0.71377,-5.06346 2.12261,-2.09668 4.50373,-1.28091 6.92774,2.37341 1.49483,2.25353 1.58807,3.11013 0.48182,4.4268 -2.08304,2.47926 -4.0185,1.97724 -6.69579,-1.73675 z m 29.54794,209.03449 c -1.30871,-1.29272 -0.78292,-4.48105 0.84044,-5.09638 2.0217,-0.76633 4.3933,2.01657 3.55579,4.17246 -0.66073,1.70081 -3.09238,2.21186 -4.39623,0.92392 z M 149.1426,331.30962 c -1.5649,-1.54578 -0.67939,-3.66284 1.53206,-3.66284 1.54548,0 2.17568,0.59302 1.93467,1.82055 -0.3946,2.00985 -2.2818,3.01275 -3.46673,1.84229 z m 207.55962,-65.27948 c -2.20201,-1.59049 -1.53594,-4.66555 1.23835,-5.71715 2.2884,-0.86742 5.19475,2.00343 4.3166,4.2639 -0.9646,2.48302 -3.28779,3.0908 -5.55495,1.45325 z m 8.5533,-44.88092 c -0.80036,-1.73516 -2.50298,-2.99839 -4.59956,-3.41259 -4.0213,-0.79444 -4.22129,-1.81643 -0.66838,-3.41548 1.61209,-0.72554 2.95359,-2.51585 3.40442,-4.54339 0.90431,-4.06701 2.0103,-4.24392 3.69522,-0.59107 0.80036,1.73516 2.50298,2.99838 4.59956,3.41259 4.16981,0.82377 4.17078,1.54155 0.006,3.88292 -2.31632,1.30195 -3.3096,2.69486 -3.3096,4.64111 0,3.55459 -1.49354,3.56696 -3.1269,0.0259 z m -226.86877,-4.39803 c -1.17493,-1.39842 -1.10233,-2.00892 0.4174,-3.5101 1.71592,-1.69497 1.96349,-1.69497 3.67941,0 1.51973,1.50118 1.59233,2.11168 0.4174,3.5101 -0.78227,0.93107 -1.79796,1.69285 -2.2571,1.69285 -0.45915,0 -1.47484,-0.76178 -2.25711,-1.69285 z m 16.0762,-54.00055 c -0.44128,-0.70529 -0.30484,-1.77375 0.3032,-2.37436 0.73702,-0.72802 1.37296,-0.66459 1.90785,0.1903 0.44127,0.70528 0.30483,1.77374 -0.30321,2.37435 -0.73702,0.72803 -1.37297,0.66459 -1.90784,-0.19029 z m 141.71388,-24.43305 c -0.80761,-2.07888 2.00492,-4.40276 4.28331,-3.53913 0.96474,0.36569 1.58786,1.52634 1.38469,2.57923 -0.46325,2.40082 -4.8215,3.13891 -5.668,0.9599 z"
   id="path949" /></svg>
