<?xml version="1.0" encoding="UTF-8" standalone="no"?>
<!-- Generator: Adobe Illustrator 24.0.0, SVG Export Plug-In . SVG Version: 6.00 Build 0) -->

<svg
   id="svg947"
   x="0px"
   y="0px"
   viewBox="0 0 504 504"
   style="enable-background:new 0 0 504 504;"
   xml:space="preserve"
   version="1.1"
   sodipodi:docname="tor.svg"
   inkscape:version="1.1.2 (0a00cf5339, 2022-02-04)"
   xmlns:inkscape="http://www.inkscape.org/namespaces/inkscape"
   xmlns:sodipodi="http://sodipodi.sourceforge.net/DTD/sodipodi-0.dtd"
   xmlns="http://www.w3.org/2000/svg"
   xmlns:svg="http://www.w3.org/2000/svg"><defs
   id="defs33"><clipPath
     clipPathUnits="userSpaceOnUse"
     id="clipPath22062"><rect
       style="fill:#212121;fill-opacity:1;stroke:none;stroke-width:5.02107;stroke-linejoin:bevel;stroke-miterlimit:4;stroke-dasharray:none;stroke-opacity:1"
       id="rect22064"
       width="114.43554"
       height="295.82892"
       x="6.5061212"
       y="74.271263"
       transform="scale(-1,1)" /></clipPath></defs><sodipodi:namedview
   id="namedview31"
   pagecolor="#ffffff"
   bordercolor="#666666"
   borderopacity="1.0"
   inkscape:pageshadow="2"
   inkscape:pageopacity="0.0"
   inkscape:pagecheckerboard="0"
   showgrid="false"
   inkscape:zoom="0.86607143"
   inkscape:cx="251.71134"
   inkscape:cy="296.16495"
   inkscape:window-width="2386"
   inkscape:window-height="1082"
   inkscape:window-x="26"
   inkscape:window-y="23"
   inkscape:window-maximized="0"
   inkscape:current-layer="svg947" /> <style
   type="text/css"
   id="style2"> .st0{fill:#212121;} .st1{fill:#BB9645;} </style> <path
   style="fill:#bb9645;fill-opacity:1;stroke-width:0.281645"
   d="m 237.07733,378.2946 c -0.38727,-0.15773 -1.97152,-0.40467 -3.52057,-0.54876 -1.54905,-0.14408 -3.51352,-0.39344 -4.3655,-0.55413 -5.00839,-0.94464 -11.90529,-2.5524 -14.36391,-3.34843 -0.85198,-0.27584 -2.87983,-0.92028 -4.50633,-1.4321 -6.73839,-2.12038 -16.84297,-6.59879 -22.95409,-10.1734 -1.08433,-0.63426 -2.35174,-1.37133 -2.81645,-1.63792 -3.25597,-1.86785 -12.63029,-8.51626 -14.78818,-10.48803 -0.38825,-0.35476 -1.97251,-1.73487 -3.52057,-3.0669 -5.29377,-4.55507 -11.48073,-11.17515 -16.84245,-18.0215 -1.91005,-2.43893 -8.92628,-12.91141 -8.92628,-13.32342 0,-0.0546 -0.69708,-1.33012 -1.54906,-2.83453 -0.85197,-1.5044 -1.54904,-2.90035 -1.54904,-3.10211 0,-0.52056 1.59982,-1.2138 4.29665,-1.86181 2.3324,-0.56046 3.85162,-0.9625 5.42011,-1.43433 0.71778,-0.21593 13.91153,-3.75016 25.20725,-6.7523 1.78141,-0.47345 4.37959,-1.17142 5.77373,-1.55105 1.39415,-0.37962 3.10514,-0.82325 3.80221,-0.98585 0.69708,-0.1626 2.78829,-0.71223 4.64715,-1.22138 1.85886,-0.50917 3.7165,-1.00264 4.1281,-1.0966 0.41159,-0.094 0.9339,-0.24205 1.16068,-0.32907 0.46024,-0.17661 0.65709,-0.002 2.43433,2.16095 2.14652,2.61223 10.18212,10.45928 12.97782,12.6733 9.29334,7.35977 19.35606,11.54869 31.68509,13.18989 3.38593,0.45073 19.64062,0.3771 23.23573,-0.10524 3.04197,-0.40812 6.81755,-1.12583 8.30854,-1.57937 0.46471,-0.14136 1.79549,-0.53381 2.95728,-0.8721 6.56702,-1.91219 13.99415,-5.90468 20.13763,-10.82509 2.3121,-1.85179 10.75172,-10.14305 12.73896,-12.515 3.89942,-4.65434 7.76346,-10.80856 9.37233,-14.9272 0.3328,-0.85198 0.7757,-1.92927 0.98421,-2.39399 0.54756,-1.22035 2.25074,-6.51735 2.62622,-8.16771 0.45636,-2.00588 1.11835,-5.78112 1.52792,-8.71362 l 0.3516,-2.51743 1.8307,-0.47582 c 2.68283,-0.6973 9.58206,-2.52909 10.56169,-2.8042 1.2732,-0.35755 6.94747,-1.87073 19.01106,-5.06977 5.24135,-1.38991 18.03325,-4.82754 19.43352,-5.22247 3.20001,-0.90252 4.54296,-1.24887 4.84232,-1.24887 0.45796,0 0.0797,18.47132 -0.45268,22.10915 -0.67615,4.61971 -1.2406,8.07197 -1.5887,9.71676 -0.18031,0.85198 -0.42522,2.05601 -0.54425,2.67563 -0.22226,1.15708 -1.52863,6.42634 -1.78056,7.18195 -0.0775,0.23236 -0.48462,1.56313 -0.9048,2.95728 -0.78441,2.60275 -3.44526,9.82078 -4.36067,11.8291 -0.28243,0.61962 -0.79024,1.76029 -1.12847,2.5348 -3.40412,7.79528 -10.55177,19.72656 -15.26961,25.48891 -3.77088,4.60572 -8.29905,9.7443 -10.71692,12.16155 -7.29354,7.29169 -18.02592,15.52089 -26.39623,20.23967 -7.23064,4.07628 -16.17041,8.10865 -22.67245,10.22662 -0.77452,0.25229 -2.04193,0.66503 -2.81645,0.91719 -0.77452,0.25216 -1.78844,0.55883 -2.25316,0.68148 -0.46472,0.12266 -1.85886,0.4995 -3.0981,0.83744 -2.34031,0.63819 -4.42956,1.11439 -8.02689,1.82957 -1.16179,0.23098 -2.74604,0.54832 -3.52056,0.70521 -0.77453,0.15689 -2.67564,0.4078 -4.22468,0.55758 -1.54905,0.14979 -3.25921,0.4023 -3.80036,0.56115 -1.32232,0.38815 -25.23467,0.35741 -26.19486,-0.0337 z M 136.56118,308.43395 c -0.13716,-0.35785 -0.81651,-1.85468 -1.50966,-3.32628 -1.71063,-3.63172 -4.30097,-10.18814 -5.32768,-13.4849 -0.46414,-1.49033 -1.0726,-3.40677 -1.35214,-4.25875 -0.27953,-0.85198 -0.85065,-3.00656 -1.26914,-4.78797 -0.4185,-1.7814 -0.87502,-3.68251 -1.0145,-4.22468 -0.25237,-0.98094 -1.29339,-7.57288 -2.00153,-12.67403 -0.51484,-3.70866 -0.51715,-24.26017 -0.003,-27.60124 0.20258,-1.31669 0.55139,-3.72476 0.77513,-5.35126 0.41758,-3.03562 0.82327,-5.30648 1.25788,-7.04114 0.13583,-0.54216 0.44938,-1.93631 0.69676,-3.09809 0.62947,-2.9562 1.5555,-6.16799 3.28127,-11.38056 2.4295,-7.33811 6.97813,-17.24254 10.9721,-23.8912 11.2976,-18.80686 26.50782,-33.88031 45.45543,-45.04669 3.36573,-1.98352 8.16954,-4.44888 11.44751,-5.87498 1.13931,-0.49565 2.57842,-1.12452 3.19804,-1.39749 2.64557,-1.16547 6.45103,-2.5619 9.99841,-3.66895 2.09122,-0.65262 4.05569,-1.28875 4.3655,-1.41361 0.30981,-0.12487 0.88014,-0.28892 1.2674,-0.36456 0.38726,-0.0757 1.71804,-0.38375 2.95728,-0.68467 6.84156,-1.66134 11.52193,-2.49752 16.1946,-2.89326 1.93631,-0.16399 4.15427,-0.4266 4.92879,-0.58358 1.81155,-0.36716 17.52663,-0.16954 21.68669,0.27273 2.762,0.29362 6.19205,0.77494 10.42087,1.46229 12.44543,2.02287 28.43365,7.82598 40.13445,14.56727 2.57803,1.4853 6.931,4.18262 7.43559,4.60747 0.17031,0.14339 1.27974,0.92269 2.46539,1.73178 3.94735,2.69365 5.44316,3.79629 6.06032,4.46738 l 0.61164,0.66507 -3.85056,3.16105 c -2.1178,1.73858 -4.14946,3.3862 -4.51481,3.66139 -0.36534,0.27519 -1.06241,0.8294 -1.54904,1.23159 -0.48664,0.40219 -2.91264,2.35728 -5.39112,4.34465 -2.47848,1.98736 -4.96327,4.00299 -5.52175,4.47918 -0.55849,0.47619 -2.14275,1.75049 -3.52057,2.83179 -1.37783,1.0813 -3.27098,2.60218 -4.207,3.37975 -0.93603,0.77756 -2.1856,1.79396 -2.77681,2.25867 -2.03787,1.60183 -8.80351,7.04534 -10.93914,8.80142 -2.1171,1.74085 -2.66395,1.99968 -3.18486,1.50746 -0.89318,-0.84397 -8.47473,-4.11246 -11.25173,-4.85073 -0.46472,-0.12354 -1.54201,-0.42117 -2.39398,-0.66138 -5.67845,-1.60106 -10.52929,-2.10926 -20.13764,-2.10975 -11.50395,-4.1e-4 -16.54281,0.67445 -24.36231,3.26369 -3.77563,1.25021 -9.09755,3.70958 -12.65107,5.84632 -3.95204,2.37637 -8.36911,6.05689 -13.60226,11.33406 -7.08643,7.14606 -9.84853,10.72612 -13.16109,17.05863 -3.65394,6.98509 -5.71669,13.60268 -6.77098,21.72221 -0.37443,2.88362 -0.36999,20.76484 0.006,23.37264 0.5301,3.67863 1.16532,7.08279 1.47627,7.9114 0.27205,0.72495 0.22598,0.88257 -0.41166,1.40823 -2.31967,1.91234 -7.76259,6.33076 -8.53554,6.92893 -1.42903,1.10589 -6.44719,5.15845 -6.78819,5.48201 -0.1691,0.16044 -0.73099,0.60857 -1.24864,0.99583 -0.51765,0.38726 -2.9141,2.30872 -5.32545,4.26992 -2.41135,1.96119 -6.24022,5.06633 -8.50862,6.90031 -2.2684,1.83397 -5.92321,4.79201 -8.1218,6.57342 -2.19859,1.78141 -4.23989,3.35335 -4.53623,3.49319 -0.29634,0.13985 -0.53879,0.41754 -0.53879,0.61708 0,0.67414 -0.56256,0.71628 -0.81373,0.061 z"
   id="path24954" /><circle
   class="st0"
   cx="252"
   cy="252"
   r="233.9"
   id="circle4" /> <g
   id="g10"> <path
   class="st1"
   d="M252,494.2C118.4,494.2,9.8,385.6,9.8,252S118.4,9.8,252,9.8S494.2,118.4,494.2,252S385.6,494.2,252,494.2z M252,25.1C126.9,25.1,25.1,126.9,25.1,252S126.9,478.9,252,478.9S478.9,377.1,478.9,252S377.1,25.1,252,25.1z"
   id="path6" /> <path
   class="st1"
   d="M252,453.4c-31.4,0-62.8-7.3-91.5-21.9c-3.8-1.9-5.3-6.5-3.3-10.3c1.9-3.8,6.5-5.2,10.3-3.3 c53,27,116.2,27,169.2-0.1c3.8-1.9,8.4-0.4,10.3,3.3c1.9,3.8,0.4,8.4-3.3,10.3C314.9,446.1,283.5,453.4,252,453.4z M437.6,315.4 c-0.7,0-1.5-0.1-2.2-0.3c-4-1.2-6.3-5.5-5.1-9.5c11-36.8,10.5-75.4-1.5-111.9c-1.3-4,0.9-8.3,4.9-9.7c4-1.3,8.3,0.9,9.7,4.9 c12.9,39.4,13.5,81.3,1.6,121C444,313.3,440.9,315.4,437.6,315.4z M66,314.3c-3.3,0-6.4-2.2-7.3-5.5 c-11.1-38.1-10.9-78.3,0.8-116.2c1.2-4,5.5-6.3,9.6-5.1c4,1.2,6.3,5.5,5.1,9.6c-10.8,35-11,72.2-0.7,107.4c1.2,4.1-1.1,8.3-5.2,9.5 C67.5,314.2,66.7,314.3,66,314.3z M170.3,83.9c-2.9,0-5.6-1.6-6.9-4.4c-1.8-3.8-0.1-8.4,3.7-10.2c53.9-25.1,115.8-25.1,169.7-0.1 c3.8,1.8,5.5,6.3,3.7,10.2c-1.8,3.8-6.3,5.5-10.2,3.7c-49.8-23.1-107-23.1-156.8,0C172.5,83.6,171.4,83.9,170.3,83.9z"
   id="path8" /> </g>    <path
   style="fill:#bb9645;fill-opacity:1;stroke-width:0.120916"
   d="m 246.75657,396.60769 c -10.28671,-0.3183 -17.60956,-1.13318 -24.96924,-2.77855 -16.46532,-3.68108 -31.73922,-11.94818 -43.63328,-23.61682 -13.75935,-13.49856 -21.9572,-30.37087 -23.59037,-48.55223 -0.42833,-4.76845 -0.56392,-12.04636 -0.30636,-16.44463 1.04021,-17.76354 7.00584,-32.21181 19.14656,-46.37143 8.09033,-9.43569 15.08615,-15.05655 35.50586,-28.52754 15.34055,-10.12025 16.36767,-10.82939 17.888,-12.35014 3.061,-3.06184 4.93586,-6.96734 5.77181,-12.02325 0.30824,-1.86423 0.30836,-6.35968 0,-8.64552 -0.7342,-5.44672 -2.59784,-11.23001 -5.63037,-17.47242 -0.58154,-1.19707 -1.335,-2.67899 -1.67437,-3.29316 l -0.61702,-1.11666 1.22982,-0.9493 c 0.6764,-0.52213 1.34272,-1.0198 1.48074,-1.10595 0.22982,-0.14347 0.92057,0.29216 8.21246,5.17934 4.37885,2.93478 7.98428,5.31324 8.01205,5.28546 0.0278,-0.0278 0.12187,-0.61261 0.20909,-1.29962 0.44439,-3.50084 1.25382,-8.06443 2.06309,-11.6318 0.63704,-2.80819 0.82328,-3.58043 1.34535,-5.57828 1.62814,-6.23056 4.79818,-15.85219 6.46333,-19.61736 0.12468,-0.28192 0.22668,-0.53841 0.22668,-0.56999 0,-0.12139 2.66066,-6.47069 3.14391,-7.5025 0.12458,-0.26602 0.83474,-1.78956 1.5781,-3.38566 1.54908,-3.32606 5.53907,-11.23486 6.23264,-12.35409 0.0894,-0.14434 0.41766,-0.74288 0.72936,-1.33008 0.63563,-1.19745 0.71958,-1.3202 0.60616,-0.88625 -0.0435,0.16625 -1.7934,7.1148 -3.88874,15.4412 -2.09533,8.32642 -3.84422,15.23678 -3.88641,15.35639 -0.16469,0.46688 0.18767,-0.0578 0.74717,-1.11262 1.1079,-2.08867 1.91159,-3.51867 2.92218,-5.19941 0.55982,-0.93105 1.08084,-1.80165 1.15783,-1.93465 0.67715,-1.17003 3.91739,-6.02593 4.28802,-6.42618 0.14793,-0.15975 0.25675,-0.30561 0.24183,-0.32413 -0.09,-0.11177 4.19851,-5.62283 6.36758,-8.18287 3.77532,-4.45583 8.98743,-9.82917 13.54678,-13.96585 0.6597,-0.59853 1.29069,-1.17511 1.40221,-1.28129 1.15648,-1.10103 5.62125,-4.8791 8.94587,-7.56996 0.90564,-0.73299 4.11539,-3.20599 5.9249,-4.564906 3.21246,-2.41251 3.90305,-2.89422 3.7564,-2.62021 -0.0694,0.12963 -0.16767,0.25405 -0.21844,0.27647 -0.0508,0.0224 -0.36428,0.36724 -0.69666,0.76626 -0.3324,0.39902 -0.63339,0.75271 -0.66888,0.78596 -0.0355,0.0333 -0.82264,0.958256 -1.74921,2.055566 -0.92657,1.09732 -1.71513,2.02234 -1.75233,2.05558 -0.0372,0.0333 -0.25671,0.30427 -0.48774,0.60225 -0.23105,0.29799 -1.37231,1.68671 -2.53613,3.08606 -1.16382,1.39934 -2.27927,2.75637 -2.47878,3.01561 -0.19952,0.25924 -0.62037,0.78516 -0.93523,1.16871 -1.30312,1.58737 -4.29612,5.45899 -6.67946,8.64028 -3.40643,4.54691 -3.69304,4.94113 -5.48871,7.54947 -0.2976,0.43227 -0.92626,1.3452 -1.39703,2.02873 -0.47078,0.68352 -1.01919,1.50484 -1.2187,1.82516 -0.19952,0.32032 -0.7675,1.203 -1.26219,1.96151 -0.4947,0.75852 -1.07392,1.65118 -1.28716,1.98371 -0.4451,0.69409 -1.95676,3.18857 -2.528,4.17161 -1.29387,2.22703 -1.63329,2.81971 -1.63329,2.85241 0,0.0202 -0.18264,0.35241 -0.40587,0.73838 -0.85416,1.47676 -3.1007,5.85022 -3.1007,6.03628 0,0.11965 0.83514,-0.83609 0.84138,-0.96289 0.004,-0.0888 2.58709,-3.42348 2.77711,-3.58569 0.039,-0.0333 0.22133,-0.26241 0.40526,-0.50923 0.71843,-0.96407 2.07076,-2.45117 2.19424,-2.41292 0.0716,0.0222 0.0895,-3.6e-4 0.0399,-0.05 -0.095,-0.095 0.38926,-0.63682 2.69272,-3.01324 2.81941,-2.90871 6.00532,-5.85428 8.16666,-7.55061 2.07999,-1.63246 3.52296,-2.74931 3.80131,-2.94217 0.16626,-0.1152 0.7648,-0.53888 1.33009,-0.94152 1.19376,-0.8503 4.47322,-3.0301 5.44123,-3.6167 0.36577,-0.22165 0.85548,-0.52197 1.08825,-0.66737 0.74986,-0.46843 2.78655,-1.64883 3.48911,-2.02218 2.19746,-1.16777 3.18546,-1.67936 4.99952,-2.58876 1.11079,-0.55684 2.04387,-1.01244 2.07354,-1.01244 0.0297,0 0.56275,-0.24196 1.18466,-0.53769 2.16986,-1.03181 7.64202,-3.28405 10.01812,-4.12329 0.43228,-0.15268 1.40611,-0.50057 2.16409,-0.77309 0.75797,-0.27252 1.39897,-0.47464 1.42446,-0.44917 0.0255,0.0255 -0.45864,0.50182 -1.07584,1.05853 -0.61719,0.5567 -1.52046,1.39389 -2.00726,1.86043 -0.48679,0.46653 -0.91257,0.84824 -0.94615,0.84824 -0.0336,0 -0.39807,0.32648 -0.80999,0.7255 -0.41191,0.39903 -1.04718,0.9942 -1.41172,1.32262 -4.12694,3.71804 -17.09926,16.69569 -20.08518,20.09343 -1.503,1.71031 -3.65471,3.9742 -3.75061,3.94617 -0.0569,-0.0166 -0.0898,0.0198 -0.0732,0.0808 0.0166,0.0611 -0.21518,0.37395 -0.51514,0.69527 -0.80338,0.8606 -3.88017,4.35971 -4.23083,4.81154 -0.24468,0.31529 -1.4242,1.66544 -1.99886,2.28802 -0.2831,0.30671 -1.72327,1.99439 -2.17275,2.54618 -0.26602,0.32656 -0.81014,0.98525 -1.20917,1.46377 -1.7983,2.15654 -2.86575,3.46373 -3.69822,4.52879 -0.49382,0.63179 -1.18879,1.50239 -1.54438,1.93467 -0.90215,1.09669 -0.97059,1.18241 -1.64493,2.06045 -0.32993,0.4296 -0.63384,0.80829 -0.67538,0.84154 -0.0415,0.0333 -0.12526,0.14832 -0.18608,0.25571 -0.0608,0.10738 -0.25639,0.37944 -0.43459,0.60458 -2.29832,2.90349 -7.9301,10.51999 -10.22693,13.83105 -0.91326,1.31653 -3.15016,4.61154 -3.8581,5.68308 -0.35151,0.53203 -0.8607,1.2938 -1.13154,1.69283 -0.75192,1.10774 -2.69015,4.08984 -2.93679,4.51845 -0.26218,0.45561 -0.36655,0.41043 1.54908,0.6706 0.79805,0.10839 3.43705,0.46755 5.86445,0.79814 2.42739,0.33058 4.4755,0.60144 4.55135,0.6019 0.0914,6e-4 0.0229,0.46008 -0.20258,1.36116 -0.61196,2.44496 -0.77749,3.80548 -0.77601,6.37834 0.002,4.28509 0.79729,7.63292 2.77024,11.66843 2.23987,4.58146 5.66945,8.82149 10.16777,12.57053 1.88282,1.5692 3.94364,2.91498 7.6868,5.01971 12.69883,7.1404 20.20278,12.0171 27.24707,17.70746 5.51302,4.45342 10.90231,10.04425 14.98712,15.54764 9.64077,12.9888 15.28149,27.72087 16.82911,43.95311 0.3958,4.15131 0.35519,11.88945 -0.0841,16.02142 -1.52713,14.3645 -6.92687,28.30224 -15.5321,40.09131 -4.11952,5.6437 -9.57262,11.33518 -15.04273,15.70033 -14.75798,11.7769 -34.75511,18.54292 -58.10365,19.65934 -2.21715,0.106 -10.90901,0.13159 -13.84493,0.0408 z m -5.68308,-6.13645 c 0,-0.0279 -0.28566,-0.14416 -0.63481,-0.25835 -0.96927,-0.31699 -4.93054,-1.88326 -6.55971,-2.59368 -1.87499,-0.81762 -5.45444,-2.60765 -7.07361,-3.5374 -6.44071,-3.69833 -13.46358,-9.8759 -17.7654,-15.62707 -3.897,-5.20996 -6.75093,-11.14454 -8.46062,-17.59334 -1.7437,-6.57712 -2.49773,-14.20735 -1.89992,-19.22571 0.43897,-3.68481 1.63486,-8.01325 3.13637,-11.35182 4.45675,-9.90946 12.76308,-18.33833 23.84087,-24.19257 7.04625,-3.72371 11.55659,-8.25556 15.22832,-15.30095 1.38559,-2.65871 3.00686,-6.70376 4.49636,-11.21832 0.45589,-1.38178 0.84587,-2.46141 0.8666,-2.39917 0.0554,0.1661 -1.01549,4.87292 -1.57135,6.90663 -2.17354,7.95226 -4.79028,12.74647 -9.42445,17.2668 -2.19595,2.142 -4.59125,3.90791 -8.43706,6.22011 -4.48296,2.69528 -7.79724,5.31155 -11.60262,9.15903 -8.5135,8.60771 -14.03783,19.67129 -14.04082,28.11956 -0.002,6.78255 3.13678,16.41198 8.15798,25.02468 4.19919,7.20273 10.10522,14.40626 15.58419,19.00792 4.4753,3.75869 12.45559,7.11412 22.08459,9.28579 0.76479,0.17248 1.48576,0.3421 1.60214,0.37692 0.16111,0.0482 0.2116,-0.007 0.2116,-0.23246 0,-0.21715 -0.10026,-0.33729 -0.37719,-0.45201 -0.61812,-0.25603 -2.35899,-1.38927 -3.41351,-2.22205 -3.31395,-2.61715 -6.18337,-6.27979 -8.1946,-10.45985 -0.98744,-2.05228 -3.53919,-8.49947 -4.50194,-11.37447 -1.53452,-4.58251 -1.8923,-6.52932 -1.89149,-10.29232 0.002,-10.47643 1.87333,-18.86978 5.53308,-24.82097 1.19259,-1.93928 1.81134,-2.70809 6.19921,-7.70273 2.16157,-2.46046 2.47958,-2.85528 3.44818,-4.28092 0.87835,-1.29279 1.91486,-3.35685 2.67171,-5.32032 l 0.46609,-1.20916 0.0306,-61.27439 0.0306,-61.27438 h 0.32208 c 0.40772,0 0.30583,-0.11379 -0.15515,-0.17326 -0.19196,-0.0247 -1.08358,-0.34632 -1.98139,-0.71455 -2.55611,-1.04838 -4.22065,-1.73414 -8.70598,-3.58669 -2.29439,-0.94763 -4.76971,-1.96604 -5.50069,-2.26312 -0.731,-0.29708 -1.42476,-0.59135 -1.54169,-0.65393 -0.11694,-0.0626 -0.2126,-0.0854 -0.2126,-0.0507 0,0.0347 0.24894,0.51271 0.55322,1.06228 1.20441,2.17543 3.81188,8.07893 5.17798,11.72339 0.80362,2.14388 1.17619,3.66654 1.60678,6.56687 0.31266,2.10598 0.31265,8.13979 -1e-5,10.03606 -0.46899,2.84434 -0.95054,4.36983 -1.90893,6.04726 -2.04537,3.57997 -5.10129,7.44056 -8.12281,10.26171 -3.91717,3.65739 -7.28122,6.06635 -15.92736,11.40538 -7.76242,4.79333 -7.45048,4.56766 -17.53287,12.68397 -9.45075,7.60782 -14.19116,11.98391 -18.27365,16.86924 -7.74949,9.27346 -12.21285,19.39167 -14.06022,31.87381 -0.75704,5.11504 -0.85742,6.77507 -0.85756,14.18169 -1.2e-4,7.03308 0.0455,7.985 0.54884,11.44394 1.66167,11.4195 7.4953,23.99175 16.06642,34.62521 3.41158,4.23246 8.12713,9.00237 12.22317,12.36407 6.76896,5.55543 14.02902,9.77571 22.30908,12.9683 1.95969,0.75561 5.85535,2.08438 7.30967,2.49326 0.49562,0.13933 0.98533,0.28122 1.08825,0.3153 0.10293,0.034 -0.84669,-0.45822 -2.11027,-1.094 -5.45807,-2.74626 -9.67748,-5.81527 -12.51485,-9.10271 -0.49878,-0.57789 -1.31496,-1.4934 -1.81374,-2.03446 -1.99158,-2.16037 -5.61888,-6.79617 -8.09652,-10.34761 -8.5827,-12.30233 -14.61853,-24.88852 -17.28004,-36.03308 -1.35132,-5.65844 -1.64753,-7.68366 -1.63591,-11.18477 0.008,-2.49004 0.0428,-2.95419 0.3301,-4.43531 0.79887,-4.11857 3.2134,-10.84805 5.6653,-15.78959 3.96088,-7.98276 9.04611,-14.56607 16.30167,-21.10406 3.17721,-2.86298 8.40669,-6.83301 14.75146,-11.19874 3.12264,-2.14865 5.38204,-3.60899 8.16186,-5.27537 4.32064,-2.59003 5.09524,-3.09021 7.02559,-4.53662 2.7749,-2.07924 4.51562,-4.26224 6.44826,-8.08659 2.41665,-4.78216 3.91102,-9.06036 7.69875,-22.04064 0.5185,-1.77684 0.96106,-3.21229 0.98347,-3.18988 0.15716,0.15717 -2.29604,12.51986 -3.1696,15.97289 -2.21333,8.74897 -5.00234,14.56655 -8.61209,17.96397 -0.98159,0.92386 -6.27164,4.67115 -12.79119,9.06085 -11.62985,7.83053 -17.32548,12.25849 -22.26316,17.30805 -7.85941,8.03749 -13.26768,17.4667 -16.56574,28.88201 -1.38258,4.78539 -1.31163,8.47306 0.30243,15.71913 1.18193,5.30613 2.74838,9.94172 5.19828,15.38326 3.99445,8.87219 10.28142,19.03419 16.709,27.00779 2.29233,2.84371 2.74964,3.38546 3.61517,4.28268 0.48117,0.49878 1.5359,1.6949 2.34385,2.65803 4.10852,4.89765 7.17686,7.14299 12.77469,9.34823 3.56882,1.40594 7.71089,2.65009 13.78446,4.14046 2.02838,0.49774 3.85119,0.95328 4.0507,1.01231 0.44516,0.13171 0.54413,0.14649 0.54413,0.0813 z m 11.23874,-3.61158 c 6.00052,-4.76183 10.33175,-12.17623 12.62334,-21.60921 2.0118,-8.2812 3.30455,-18.51192 3.70515,-29.32222 0.26933,-7.26795 0.0564,-9.9139 -1.27929,-15.90051 -0.96536,-4.32663 -3.48845,-13.60531 -4.15748,-15.28917 -0.81064,-2.04028 -2.53714,-5.17179 -4.77025,-8.65228 -3.24113,-5.05157 -4.06812,-6.74987 -4.95031,-10.16588 -0.99871,-3.86713 -1.19449,-6.56771 -1.14287,-15.76487 0.0446,-7.9523 0.009,-7.98619 0.8779,0.84214 0.77606,7.88778 1.14248,10.45937 1.84335,12.93652 0.44361,1.56787 0.84365,2.36919 3.13899,6.28765 2.85816,4.87927 4.15882,7.28124 5.56241,10.27225 3.76333,8.0196 7.32824,20.72438 8.20288,29.23375 0.30278,2.94585 0.2158,8.10547 -0.24018,14.24651 -0.68206,9.18605 -2.50039,19.52547 -4.54136,25.82333 -2.03455,6.27802 -5.06732,12.03686 -8.55789,16.2504 l -0.65109,0.78596 0.59473,-0.60459 c 2.18094,-2.21702 5.0954,-6.37118 7.14442,-10.18339 2.66752,-4.96288 4.41186,-9.67052 5.59777,-15.10724 2.64981,-12.14783 4.43975,-22.75436 5.30223,-31.41915 0.46268,-4.64826 0.54685,-6.38528 0.54488,-11.24523 -0.002,-5.24057 -0.1234,-6.93647 -0.72905,-10.19384 -0.16934,-0.91078 -0.57256,-3.23392 -0.89606,-5.16254 -1.41881,-8.45878 -2.84872,-13.89778 -5.32459,-20.25349 -2.67639,-6.8704 -6.02014,-13.81006 -11.36099,-23.5787 -2.51257,-4.5956 -2.99421,-5.68746 -3.73362,-8.46415 -0.78106,-2.93305 -1.64461,-8.62344 -2.12858,-14.0263 -0.10424,-1.16382 -0.24143,-2.68737 -0.30484,-3.38566 -0.15465,-1.70276 -0.57206,-8.8112 -0.72412,-12.33177 -0.1087,-2.51687 -0.14067,-6.33571 -0.04,-4.7779 0.82742,12.80225 2.69261,26.75637 4.34634,32.51645 0.50722,1.76672 1.02682,2.84454 3.67728,7.6278 4.21316,7.60347 5.78508,10.56659 8.21059,15.47729 1.69124,3.4241 2.41764,4.96704 3.81403,8.1014 4.13902,9.29055 6.18332,17.27353 7.30761,28.53627 0.63543,6.36563 0.85575,10.33592 0.85584,15.42368 0,12.30941 -1.60806,21.44696 -7.25615,41.22565 -1.50594,5.27355 -1.98204,6.60458 -3.45024,9.64585 -0.55456,1.14872 -0.96283,2.06048 -0.90727,2.02614 0.17208,-0.10635 2.10245,-2.71818 2.99646,-4.05426 2.48325,-3.71119 4.36436,-7.39356 5.35205,-10.47692 0.5258,-1.64148 0.9627,-3.53283 1.93713,-8.38604 4.47657,-22.29603 5.89069,-45.02354 4.04011,-64.9321 -0.95267,-10.2489 -2.71465,-19.48696 -5.31285,-27.85527 -2.02483,-6.52158 -5.06234,-12.71628 -10.88757,-22.20412 -4.46825,-7.27765 -5.80225,-9.55915 -7.08138,-12.11116 -1.24721,-2.48826 -1.86947,-4.1115 -2.46046,-6.41831 -1.19611,-4.6688 -1.51476,-7.11587 -1.60075,-12.29292 -0.0616,-3.70882 0.0334,-6.82575 0.33963,-11.1356 0.0715,-1.00586 0.0884,-2.71409 0.0397,-4.0071 l -0.0848,-2.25382 -2.37196,-1.15114 c -2.168,-1.05215 -3.48035,-1.65667 -3.59651,-1.65667 -0.0248,0 -0.0405,44.27808 -0.0349,98.39572 l 0.0101,98.39572 0.53011,-1.08825 c 2.37353,-4.87251 4.8438,-15.4272 5.54678,-23.69961 0.41366,-4.86768 0.64686,-14.4857 0.44563,-18.3793 -0.30437,-5.88943 -0.81602,-9.20422 -3.27546,-21.22082 -1.30248,-6.3637 -1.9433,-10.49863 -1.93022,-12.45439 l 0.004,-0.66504 0.29958,1.1487 c 0.74285,2.84836 1.59084,5.83048 2.8199,9.91684 4.25976,14.16254 5.18649,18.51537 5.88202,27.62771 0.12824,1.68003 0.0928,7.2343 -0.0547,8.58506 -0.0727,0.66504 -0.34718,3.68493 -0.61007,6.71086 -0.90991,10.47282 -1.48679,13.93775 -2.90005,17.4188 -1.19881,2.95282 -3.49527,6.55008 -5.88986,9.22612 -1.03709,1.15898 -0.49484,0.89397 1.64436,-0.80364 z m -0.5545,-172.99653 c 0,-0.63179 0.0204,-0.89025 0.0453,-0.57436 0.0249,0.3159 0.0249,0.83282 0,1.14871 -0.0249,0.31589 -0.0453,0.0575 -0.0453,-0.57435 z m -2.97543,115.45764 -0.0306,-18.29548 -0.28576,1.14579 c -0.99738,3.99908 -2.10835,6.31181 -5.081,10.57726 -3.15709,4.53011 -4.32381,6.2574 -5.04098,7.46309 -2.61554,4.3972 -4.20123,8.88975 -5.02666,14.2414 -0.23261,1.50816 -0.27041,2.23509 -0.27041,5.19941 0,2.96999 0.0375,3.68835 0.27142,5.1994 0.48105,3.10747 1.2028,5.62131 2.79467,9.73377 2.83473,7.32335 5.07205,11.54776 8.15564,15.39919 1.33987,1.67352 2.31847,2.61344 3.5762,3.43485 l 0.90688,0.59226 0.0306,-18.19774 c 0.0169,-10.00877 0.0169,-26.4307 0,-36.4932 z m 146.94326,-21.19618 c 0,-57.70316 0.0405,-86.7754 0.12092,-86.82511 0.0806,-0.0498 0.12092,28.89777 0.12092,86.75038 0,57.80279 -0.0404,86.82511 -0.12092,86.82511 -0.0805,0 -0.12092,-28.99741 -0.12092,-86.75038 z"
   id="path33197" /></svg>
